<svg xmlns="http://www.w3.org/2000/svg" width="29.564" height="50.716" viewBox="0 0 29.564 50.716"><g transform="translate(172.395 -87.152)"><g transform="translate(-172.394 87.152)"><path d="M173.671,91.1a1.328,1.328,0,0,0-.817-.874,9.511,9.511,0,0,0-1.752-.409,11.271,11.271,0,0,0,2.569-11.068,1.329,1.329,0,0,0-.817-.874,11.423,11.423,0,0,0-7.137.075,11.881,11.881,0,0,0,.331-2.834,11.271,11.271,0,0,0-6.017-10.043,1.324,1.324,0,0,0-1.2-.039,11.23,11.23,0,0,0-6.095,10.082,11.924,11.924,0,0,0,.332,2.84,11.419,11.419,0,0,0-7.151-.08,1.327,1.327,0,0,0-.819.874,11.277,11.277,0,0,0,2.57,11.068,9.464,9.464,0,0,0-1.751.409,1.326,1.326,0,0,0-.819.874,11.272,11.272,0,0,0,2.847,11.356,11.013,11.013,0,0,0,7.966,3.354,11.886,11.886,0,0,0,2.136-.194V114.3a1.327,1.327,0,0,0,2.654,0v-8.687a11.847,11.847,0,0,0,2.155.2,11.01,11.01,0,0,0,7.965-3.354A11.271,11.271,0,0,0,173.671,91.1Zm-15.62,10.379a8.674,8.674,0,0,1-.2,1.472,8.755,8.755,0,0,1-10.395-10.4,8.9,8.9,0,0,1,4.559.215c.127.048.254.093.379.134a8.7,8.7,0,0,1,3.084,2.022,8.461,8.461,0,0,1,2.568,5.671Zm0-12.351a8.674,8.674,0,0,1-.2,1.472,8.814,8.814,0,0,1-4.466-.178q-.289-.111-.573-.2a8.767,8.767,0,0,1-2.99-1.992,8.555,8.555,0,0,1-2.366-8.029,8.607,8.607,0,0,1,8.022,2.372l.056.058c.116.131.234.256.35.376a8.406,8.406,0,0,1,2.162,5.238Zm1.346-6.658a9.057,9.057,0,0,1-1.624-1.342c-.063-.068-.124-.136-.19-.2a8.466,8.466,0,0,1-2.188-5.808,8.565,8.565,0,0,1,3.993-7.352,8.555,8.555,0,0,1,4.007,7.352,8.462,8.462,0,0,1-1.986,5.585c-.216.215-.417.433-.606.651A8.926,8.926,0,0,1,159.4,82.472Zm1.317,6.228a8.4,8.4,0,0,1,2.051-5.556q.293-.291.587-.628a8.567,8.567,0,0,1,7.963-2.317,8.56,8.56,0,0,1-2.366,8.032,8.751,8.751,0,0,1-2.984,1.99q-.289.093-.581.205a8.817,8.817,0,0,1-4.464.177,8.865,8.865,0,0,1-.2-1.869Zm8.234,11.881a8.565,8.565,0,0,1-8.026,2.374,8.607,8.607,0,0,1,2.37-8.031,8.748,8.748,0,0,1,2.993-1.993c.189-.061.379-.128.57-.2a8.823,8.823,0,0,1,4.46-.18A8.56,8.56,0,0,1,168.948,100.582Z" transform="translate(-144.605 -64.912)" fill="#fd0"/></g><path d="M9.708,33.232a8.575,8.575,0,0,0,1.471-7,8.862,8.862,0,0,0-1.9-.2,8.56,8.56,0,0,0-2.558.384c-.19.074-.381.14-.57.2a8.374,8.374,0,0,0-1.54.8A29.564,29.564,0,0,1,2.887,24.49a8.545,8.545,0,0,0,2.36-.381c.2-.075.389-.144.581-.205a8.76,8.76,0,0,0,2.984-1.991,8.562,8.562,0,0,0,2.367-8.032,8.845,8.845,0,0,0-1.9-.2A8.457,8.457,0,0,0,3.216,16.2q-.293.338-.587.628A8.484,8.484,0,0,0,.968,19.8,29.392,29.392,0,0,1,0,15.626c.212-.169.437-.365.667-.589q.285-.328.607-.651A8.461,8.461,0,0,0,3.259,8.8,8.435,8.435,0,0,0,.817,2.721Q1.222,1.33,1.757,0A11.074,11.074,0,0,1,5.912,8.8a11.842,11.842,0,0,1-.331,2.834,11.416,11.416,0,0,1,7.137-.075,1.326,1.326,0,0,1,.817.874A11.267,11.267,0,0,1,10.967,23.5a9.568,9.568,0,0,1,1.751.41,1.328,1.328,0,0,1,.817.874,11.317,11.317,0,0,1-1.754,10.109Q10.707,34.109,9.708,33.232Z" transform="translate(-156.864 88.557)" fill="#3b48fa"/></g></svg>