<svg xmlns="http://www.w3.org/2000/svg" width="37.982" height="50.544" viewBox="0 0 37.982 50.544"><g transform="translate(-63.85 0.15)"><g transform="translate(64)"><path d="M215.046,284.887l-.66,5.938a1.047,1.047,0,0,0,1.041,1.162h4.187a1.047,1.047,0,0,0,1.041-1.162l-.66-5.938a4.141,4.141,0,0,0,1.713-3.367,4.187,4.187,0,0,0-8.374,0A4.141,4.141,0,0,0,215.046,284.887Zm2.474-5.461a2.086,2.086,0,0,1,.9,3.97,1.047,1.047,0,0,0-.585,1.058l.605,5.439H216.6l.605-5.439a1.047,1.047,0,0,0-.585-1.058,2.086,2.086,0,0,1,.9-3.97Z" transform="translate(-198.679 -250.118)" fill="#fd0"/><path d="M100.636,18.841H97.5V14.654a14.654,14.654,0,0,0-29.309,0v4.187h-3.14A1.046,1.046,0,0,0,64,19.888V46.057a4.191,4.191,0,0,0,4.187,4.187H97.5a4.191,4.191,0,0,0,4.187-4.187V19.888A1.046,1.046,0,0,0,100.636,18.841ZM70.28,14.654a12.561,12.561,0,1,1,25.122,0v4.187H93.309V14.654a10.468,10.468,0,1,0-20.935,0v4.187H70.28Zm20.935,0v4.187H74.468V14.654a8.374,8.374,0,0,1,16.748,0Zm8.374,31.4A2.1,2.1,0,0,1,97.5,48.15H68.187a2.1,2.1,0,0,1-2.093-2.093V20.935h33.5Z" transform="translate(-64)" fill="#3b48fa" stroke="#3b48fa" stroke-width="0.3"/></g></g></svg>