<svg xmlns="http://www.w3.org/2000/svg" width="57.006" height="50.785" viewBox="0 0 57.006 50.785"><g transform="translate(0 -27.937)"><g transform="translate(0 27.937)"><g transform="translate(0 0)"><path d="M53.565,27.937H3.441A3.445,3.445,0,0,0,0,31.378V65.985a3.445,3.445,0,0,0,3.441,3.441H20.617v2.5a4.168,4.168,0,0,1-4.163,4.163H12.668a1.314,1.314,0,0,0,0,2.628H44.338a1.314,1.314,0,0,0,0-2.628H40.552a4.168,4.168,0,0,1-4.163-4.163v-2.5H53.565a3.445,3.445,0,0,0,3.442-3.441V31.378A3.445,3.445,0,0,0,53.565,27.937ZM21.814,76.094a6.756,6.756,0,0,0,1.432-4.163v-2.5H33.761v2.5a6.755,6.755,0,0,0,1.432,4.163ZM54.378,65.985a.814.814,0,0,1-.813.813H3.441a.814.814,0,0,1-.813-.813V59.079h51.75Zm0-9.535H2.628V31.378a.814.814,0,0,1,.813-.813H53.565a.814.814,0,0,1,.813.813V56.45Z" transform="translate(0 -27.937)" fill="#fd0"/></g></g><g transform="translate(27.085 61.521)"><circle cx="1.418" cy="1.418" r="1.418" fill="#3b48fa"/></g><g transform="translate(19.226 36.606)"><g transform="translate(0 0)"><path d="M184.205,106.182a1.314,1.314,0,0,0-1.859,0l-9.287,9.287a1.314,1.314,0,0,0,1.859,1.859l9.287-9.287A1.314,1.314,0,0,0,184.205,106.182Z" transform="translate(-172.674 -105.797)" fill="#3b48fa"/></g></g><g transform="translate(30.318 41.988)"><g transform="translate(0 0)"><path d="M278.242,154.521a1.314,1.314,0,0,0-1.859,0l-3.7,3.7a1.314,1.314,0,1,0,1.858,1.859l3.7-3.7A1.314,1.314,0,0,0,278.242,154.521Z" transform="translate(-272.299 -154.136)" fill="#3b48fa"/></g></g></g></svg>