<svg xmlns="http://www.w3.org/2000/svg" width="46.258" height="49.542" viewBox="0 0 46.258 49.542"><path d="M33.207,34.5a8.342,8.342,0,0,0-1.123,1.406L17.865,27.276a8.136,8.136,0,0,0,0-6.077l14.222-8.565a8.271,8.271,0,1,0-.742-1.474L17.105,19.735a8.229,8.229,0,1,0,0,9l14.238,8.642A8.222,8.222,0,1,0,33.207,34.5ZM39.026,1.646a6.583,6.583,0,1,1-6.583,6.583A6.59,6.59,0,0,1,39.026,1.646ZM10.226,30.82a6.583,6.583,0,1,1,6.583-6.583A6.59,6.59,0,0,1,10.226,30.82ZM43.68,44.973a6.582,6.582,0,1,1,1.929-4.655A6.59,6.59,0,0,1,43.68,44.973Z" transform="translate(-1.496 0.5)" fill="#3b48fa" stroke="#3b48fa" stroke-width="1"/></svg>