<svg xmlns="http://www.w3.org/2000/svg" viewBox="0 0 897.66 499.26"><defs><style>.cls-1{fill:#1e2241;}.cls-2,.cls-6{fill:#213ff4;}.cls-3,.cls-4,.cls-5,.cls-7{fill:none;}.cls-3{stroke:#fff;}.cls-3,.cls-4,.cls-5,.cls-6,.cls-7{stroke-miterlimit:10;}.cls-4{stroke:#d3ff3b;}.cls-4,.cls-5{stroke-width:3px;}.cls-5,.cls-6{stroke:#213ff4;}.cls-7{stroke:#4346ff;}</style></defs><title>Ebene 2</title><g id="Слой_2" data-name="Слой 2"><g id="Ebene_2" data-name="Ebene 2"><rect class="cls-1" x="147.49" y="345" width="469.82" height="108.56"/><rect class="cls-1" x="662.63" y="193.82" width="192.62" height="75.12"/><rect class="cls-1" x="750.41" y="305.45" width="67.89" height="75.12"/><rect class="cls-1" x="44.93" y="146.7" width="192.62" height="75.12"/><path class="cls-2" d="M147.72,428.14a29.33,29.33,0,1,0,0-58.66" transform="translate(0 -0.25)"/><path class="cls-3" d="M147.56,428.09a29.33,29.33,0,0,1,0-58.66" transform="translate(0 -0.25)"/><line class="cls-4" x1="588.49" y1="403.58" x2="657.18" y2="403.58"/><line class="cls-5" x1="346.98" y1="433.48" x2="415.68" y2="433.48"/><line class="cls-4" y1="166.6" x2="45.93" y2="166.51"/><line class="cls-4" x1="212.83" y1="134.7" x2="258.9" y2="135.03"/><line class="cls-5" x1="45.93" y1="166.51" x2="114.66" y2="166.4"/><line class="cls-5" x1="815.01" y1="235.65" x2="856.82" y2="235.83"/><line class="cls-4" x1="855.84" y1="235.84" x2="897.65" y2="236.02"/><line class="cls-4" x1="730.86" y1="339.74" x2="772.68" y2="339.92"/><line class="cls-5" x1="750.65" y1="333.06" x2="792.46" y2="333.23"/><polygon class="cls-2" points="663.32 193.82 696.13 194.12 715.64 226.78 662.39 226.93 663.32 193.82"/><polygon class="cls-3" points="658.01 126.96 686.83 176.87 715.64 226.78 658.01 226.78 600.38 226.78 629.19 176.87 658.01 126.96"/><polygon class="cls-1" points="318.3 38.56 342.12 77.13 294.49 77.13 246.86 77.13 255.56 63.02 270.87 63.02 302.25 63.02 286.56 37.61 278.9 25.22 294.49 0 318.3 38.56"/><polygon class="cls-1" points="286.56 37.61 302.25 63.02 270.87 63.02 255.56 63.02 270.67 38.56 278.9 25.22 286.56 37.61"/><polygon class="cls-3" points="255.56 63.02 239.5 63.02 255.19 37.61 270.87 12.21 278.9 25.22 286.56 37.61 302.25 63.02 270.87 63.02 255.56 63.02"/><polygon class="cls-6" points="279.2 25.3 302.53 63.21 255.6 63.29 279.2 25.3"/><line class="cls-5" x1="156.38" y1="6.15" x2="244.1" y2="5.9"/><line class="cls-3" x1="371.67" y1="127.57" x2="363.7" y2="355.74"/><line class="cls-3" x1="381.48" y1="125.43" x2="374.74" y2="366.78"/><line class="cls-3" x1="391.6" y1="125.12" x2="384.86" y2="368"/><line class="cls-3" x1="402.03" y1="126.88" x2="396.82" y2="368.62"/><line class="cls-3" x1="413.68" y1="131.25" x2="409.62" y2="369.31"/><line class="cls-3" x1="424.11" y1="134.93" x2="419.82" y2="369.92"/><line class="cls-3" x1="432.31" y1="137.23" x2="431.39" y2="369.08"/><line class="cls-3" x1="442.21" y1="140.68" x2="442.21" y2="370.69"/><line class="cls-3" x1="450.58" y1="143.88" x2="451.09" y2="209.87"/><line class="cls-3" x1="452.1" y1="261.2" x2="452.56" y2="370.23"/><line class="cls-3" x1="460.91" y1="148.04" x2="461.07" y2="205.31"/><line class="cls-3" x1="462.22" y1="303.98" x2="462.45" y2="371.15"/><line class="cls-3" x1="470.8" y1="151.72" x2="470.96" y2="204.85"/><line class="cls-3" x1="472.11" y1="305.36" x2="472.34" y2="371.15"/><line class="cls-3" x1="482.22" y1="155.17" x2="481.45" y2="209.79"/><line class="cls-3" x1="482.69" y1="305.36" x2="482.69" y2="372.99"/><line class="cls-3" x1="494.03" y1="159.31" x2="493.67" y2="221.83"/><line class="cls-3" x1="494.19" y1="265.8" x2="494.19" y2="373.22"/><line class="cls-3" x1="505.46" y1="164.37" x2="504.62" y2="372.88"/><line class="cls-3" x1="518.11" y1="168.51" x2="517.19" y2="374.14"/><line class="cls-3" x1="530.3" y1="172.88" x2="529.15" y2="374.37"/><line class="cls-3" x1="540.86" y1="178.72" x2="540.85" y2="375.35"/><line class="cls-3" x1="549.92" y1="188.98" x2="552.72" y2="370.81"/><path class="cls-3" d="M447,217.25s34.38,21.95,12.88,56.32" transform="translate(0 -0.25)"/><path class="cls-3" d="M449.61,212.49c.52.17,37,20.09,17.62,61.7l.2,29.51" transform="translate(0 -0.25)"/><path class="cls-3" d="M455,208.15S498.63,229,475,272.8" transform="translate(0 -0.25)"/><line class="cls-3" x1="474.98" y1="272.54" x2="474.98" y2="304.69"/><path class="cls-3" d="M464.71,205.57s45.19,22.19,16.33,67" transform="translate(0 -0.25)"/><line class="cls-3" x1="481.04" y1="271.9" x2="481.15" y2="304.33"/><line class="cls-3" x1="363.03" y1="142.54" x2="356.87" y2="346.42"/><line class="cls-3" x1="330.04" y1="152.87" x2="319.05" y2="343.75"/><line class="cls-3" x1="362.78" y1="143.21" x2="373.05" y2="124.51"/><line class="cls-3" x1="398.96" y1="125.89" x2="538.42" y2="175.18"/><line class="cls-3" x1="356.48" y1="345.91" x2="372.91" y2="367.56"/><line class="cls-3" x1="351.07" y1="145.64" x2="344.91" y2="346.44"/><line class="cls-3" x1="350.82" y1="146.43" x2="360.02" y2="129.26"/><line class="cls-3" x1="344.52" y1="345.93" x2="360.95" y2="367.25"/><line class="cls-3" x1="337.86" y1="149.88" x2="331.11" y2="343.85"/><line class="cls-3" x1="337.98" y1="150.23" x2="347.29" y2="133.71"/><line class="cls-3" x1="330.72" y1="343.3" x2="347.15" y2="366.33"/><line class="cls-3" x1="372.91" y1="367.56" x2="550.04" y2="376.08"/><line class="cls-3" x1="556.05" y1="194.3" x2="558.62" y2="364.94"/><line class="cls-3" x1="550.04" y1="376.08" x2="558.63" y2="364.94"/><line class="cls-3" x1="538.42" y1="175.18" x2="556.05" y2="194.3"/><line class="cls-3" x1="373.05" y1="124.51" x2="398.96" y2="125.89"/><line class="cls-3" x1="339.47" y1="136.54" x2="373.05" y2="124.51"/><line class="cls-3" x1="340.08" y1="136.01" x2="329.66" y2="153.33"/><path class="cls-1" d="M667,479.18h41.73a30.3,30.3,0,1,1-28.61-40.26c.65,0,1.29,0,1.93.06Z" transform="translate(0 -0.25)"/><path class="cls-2" d="M710.42,469.21a30.15,30.15,0,0,1-1.68,10H667l15-40.2A30.29,30.29,0,0,1,710.42,469.21Z" transform="translate(0 -0.25)"/><line class="cls-3" x1="682.13" y1="438.54" x2="753.24" y2="439.54"/><line class="cls-3" x1="753.24" y1="439.54" x2="739.22" y2="478.93"/><line class="cls-3" x1="739.22" y1="478.93" x2="708.92" y2="478.85"/><line class="cls-7" x1="754.03" y1="459.36" x2="754.03" y2="459.36"/><line class="cls-3" x1="318.45" y1="342.99" x2="337.63" y2="367.41"/><line class="cls-3" x1="336.94" y1="367.07" x2="373.67" y2="367.59"/><path class="cls-3" d="M459.93,268.41c-9.37-6.76-17-19.69-17-31.68,0-19,6-31.32,22.89-31.32s32.37,15.64,33.92,34.54c1.14,13.8-2.82,26-12.25,31.14" transform="translate(0 -0.25)"/><line class="cls-3" x1="459.61" y1="267.36" x2="461.07" y2="303.22"/><line class="cls-3" x1="475.79" y1="302.3" x2="475.79" y2="302.3"/><line class="cls-3" x1="488.05" y1="270.17" x2="488.05" y2="305.65"/><line class="cls-3" x1="460.34" y1="303.15" x2="489.13" y2="305.75"/><line class="cls-3" x1="401.25" y1="126.69" x2="401.94" y2="80.98"/><line class="cls-3" x1="496.6" y1="120.9" x2="497.96" y2="160.88"/><path class="cls-3" d="M372.33,125l1.79-53S383,20.49,444.66,34.9s76,82.71,76,82.71l3,52.61" transform="translate(0 -0.25)"/><path class="cls-3" d="M401.72,81.06c5.77-38.36,40.63-25.72,51.62-19.19,15.48,9.2,41.4,39.25,43.05,59.11" transform="translate(0 -0.25)"/></g></g></svg>