<svg xmlns="http://www.w3.org/2000/svg" width="606" height="342" viewBox="0 0 606 342"><g transform="translate(-945.25 -2344.03)"><g transform="translate(945 2344)"><line x2="138.824" transform="translate(96.923 79.993)" fill="none" stroke="#fd0" stroke-width="3"/><g transform="translate(0.25 57.03)" fill="none" stroke="#fd0" stroke-width="3"><rect width="98" height="107" stroke="none"/><rect x="1.5" y="1.5" width="95" height="104" fill="none"/></g><line x2="138.824" transform="translate(96.923 68.989)" fill="none" stroke="#fd0" stroke-width="3"/><line x2="138.824" transform="translate(96.923 57.984)" fill="none" stroke="#fd0" stroke-width="3"/><rect width="98" height="107" transform="translate(398.25 25.03)" fill="#fd0"/><g transform="translate(170.25 0.03)" fill="#13183f" stroke="#fd0" stroke-width="3"><rect width="309" height="119" stroke="none"/><rect x="1.5" y="1.5" width="306" height="116" fill="none"/></g><line x2="277.647" transform="translate(85.918 263.68)" fill="none" stroke="#fd0" stroke-width="3"/><line x2="352.984" transform="translate(29.204 311.93)" fill="none" stroke="#fff" stroke-width="3"/><g transform="translate(47.25 110.03)" fill="none"><path d="M50.5,0A50.5,50.5,0,1,1,0,50.5,50.5,50.5,0,0,1,50.5,0Z" stroke="none"/><path d="M 50.5 3 C 44.08621597290039 3 37.86587524414063 4.255477905273438 32.01177215576172 6.731552124023438 C 26.35585784912109 9.123802185058594 21.27571105957031 12.54914093017578 16.91242980957031 16.91242980957031 C 12.54914093017578 21.27571105957031 9.123802185058594 26.35585784912109 6.731552124023438 32.01177215576172 C 4.255477905273438 37.86587524414063 3 44.08621597290039 3 50.5 C 3 56.91378402709961 4.255477905273438 63.13412475585938 6.731552124023438 68.98823547363281 C 9.123802185058594 74.64413452148438 12.54914093017578 79.72428894042969 16.91242980957031 84.08757019042969 C 21.27571105957031 88.45085906982422 26.35585784912109 91.87619781494141 32.01177215576172 94.26844787597656 C 37.86587524414063 96.74452209472656 44.08621597290039 98 50.5 98 C 56.91378402709961 98 63.13412475585938 96.74452209472656 68.98823547363281 94.26844787597656 C 74.64413452148438 91.87619781494141 79.72428894042969 88.45085906982422 84.08757019042969 84.08757019042969 C 88.45085906982422 79.72428894042969 91.87619781494141 74.64413452148438 94.26844787597656 68.98823547363281 C 96.74452209472656 63.13412475585938 98 56.91378402709961 98 50.5 C 98 44.08621597290039 96.74452209472656 37.86587524414063 94.26844787597656 32.01177215576172 C 91.87619781494141 26.35585784912109 88.45085906982422 21.27571105957031 84.08757019042969 16.91242980957031 C 79.72428894042969 12.54914093017578 74.64413452148438 9.123802185058594 68.98823547363281 6.731552124023438 C 63.13412475585938 4.255477905273438 56.91378402709961 3 50.5 3 M 50.5 0 C 78.390380859375 0 101 22.609619140625 101 50.5 C 101 78.390380859375 78.390380859375 101 50.5 101 C 22.609619140625 101 0 78.390380859375 0 50.5 C 0 22.609619140625 22.609619140625 0 50.5 0 Z" stroke="none" fill="#fd0"/></g><path d="M.175,55Q0,52.909,0,50.77A50.96,50.96,0,0,1,51.148,0q.427,0,.852.007V55Z" transform="translate(47.25 110.03)" fill="#fd0"/><line x2="32.166" transform="translate(493.077 130.782)" fill="none" stroke="#fd0" stroke-width="3"/><line x2="54.723" transform="translate(87.611 208.658) rotate(90)" fill="none" stroke="#fd0" stroke-width="3"/><path d="M0,0H32.166" transform="translate(493.924 311.93)" fill="none" stroke="#fd0" stroke-width="3"/><line x2="32.166" transform="translate(493.077 119.778)" fill="none" stroke="#fd0" stroke-width="3"/><line x2="54.723" transform="translate(98.615 208.658) rotate(90)" fill="none" stroke="#fd0" stroke-width="3"/><line x2="32.166" transform="translate(493.077 108.773)" fill="none" stroke="#fd0" stroke-width="3"/><line x2="54.723" transform="translate(109.62 208.658) rotate(90)" fill="none" stroke="#fd0" stroke-width="3"/><line y2="104.118" transform="translate(30.05 208.658)" fill="none" stroke="#fff" stroke-width="3"/><line y2="204.003" transform="translate(525.244 108.773)" fill="none" stroke="#fd0" stroke-width="3"/><path d="M14.39,0,28.78,25.395H0Z" transform="translate(471.915 326.32) rotate(-90)" fill="#fd0"/><path d="M14.39,0,28.78,25.395H0Z" transform="translate(15.66 186.65)" fill="#fff"/><path d="M14.39,0,28.78,25.395H0Z" transform="translate(382.188 249.29) rotate(90)" fill="#fd0"/></g><text transform="translate(945.25 2371.03)" fill="#fd0" font-size="16" font-family="Roboto-Regular, Roboto" letter-spacing="0.025em"><tspan x="0" y="15">CatalystyNode</tspan></text><text transform="translate(1105.25 2589.03)" fill="#fd0" font-size="13" font-family="Roboto-Regular, Roboto" letter-spacing="0.025em"><tspan x="0" y="0">Timestamped Message</tspan></text><text transform="translate(1228.25 2408.03)" fill="#fd0" font-size="13" font-family="Roboto-Regular, Roboto" letter-spacing="0.025em"><tspan x="0" y="0">HelixProtocol</tspan></text><text transform="translate(1344.25 2612.03)" fill="#fd0" font-size="13" font-family="Roboto-Regular, Roboto" letter-spacing="0.025em"><tspan x="0" y="0">Receiver</tspan></text><text transform="translate(1488.25 2558.03)" fill="#fd0" font-size="13" font-family="Roboto-Regular, Roboto" letter-spacing="0.025em"><tspan x="0" y="0">Delivery</tspan><tspan x="0" y="24">Certificate</tspan></text><text transform="translate(1344.25 2659.03)" fill="#fff" font-size="13" font-family="Roboto-Regular, Roboto" letter-spacing="0.025em"><tspan x="0" y="0">Sender</tspan></text><text transform="translate(1117.25 2683.03)" fill="#fff" font-size="13" font-family="Roboto-Regular, Roboto" letter-spacing="0.025em"><tspan x="0" y="0">Message</tspan></text></g></svg>