<svg xmlns="http://www.w3.org/2000/svg" width="197" height="197" viewBox="0 0 197 197"><g transform="translate(1.75 1.75)" opacity="0.302"><path d="M33.225,62h141.9a3.224,3.224,0,0,1,3.225,3.225V99.031l37.339,26.449a3.225,3.225,0,0,1,1.361,2.632v66.112h3.225a3.224,3.224,0,0,1,3.225,3.225v29.025a3.224,3.224,0,0,1-3.225,3.225h-77.4a3.224,3.224,0,0,1-3.225-3.225V197.45a3.224,3.224,0,0,1,3.225-3.225H146.1v-3.288a35.563,35.563,0,0,1-12.8-27.132l-.072-8.28h-100A3.223,3.223,0,0,1,30,152.3V65.225A3.223,3.223,0,0,1,33.225,62ZM146.1,223.25h70.95V200.675H146.1Zm-6.351-59.5a29.168,29.168,0,0,0,11.533,23.076,3.231,3.231,0,0,1,1.267,2.564v4.837H210.6V129.781l-32.25-22.843v22.787c0,.1-.047.181-.056.277l19.972,18.308a3.225,3.225,0,1,1-4.359,4.755l-36.218-33.2a16.8,16.8,0,0,0,2.28,21.668l11.357,10.8A3.23,3.23,0,0,1,172.04,156c-.076.17-7.56,17.042.826,28.225a3.224,3.224,0,1,1-5.158,3.868c-8.747-11.659-4.476-26.926-2.416-32.571H139.678ZM36.45,149.075H158.544l-3.017-2.869a23.236,23.236,0,0,1-.419-33.273,3.219,3.219,0,0,1,4.459-.1L171.9,124.14V68.45H36.45Z" transform="translate(-30 -36.2)" fill="#fff" stroke="#13183f" stroke-width="3.5"/><circle cx="5" cy="5" r="5" transform="translate(172.5 172)" fill="#fff" stroke="#13183f" stroke-width="3.5"/><path d="M186.25,88.45H157.225a3.225,3.225,0,0,1,0-6.45H186.25a3.225,3.225,0,0,1,0,6.45Z" transform="translate(-95.95 -40.075)" fill="#fff" stroke="#13183f" stroke-width="3.5"/><path d="M196.05,104.45H141.225a3.225,3.225,0,0,1,0-6.45H196.05a3.225,3.225,0,0,1,0,6.45Z" transform="translate(-92.85 -43.175)" fill="#fff" stroke="#13183f" stroke-width="3.5"/><path d="M249.288,238A11.288,11.288,0,1,1,238,249.288,11.3,11.3,0,0,1,249.288,238Zm0,16.125a4.838,4.838,0,1,0-4.837-4.837A4.842,4.842,0,0,0,249.288,254.125Z" transform="translate(-234.775 -70.3)" fill="#fff" stroke="#13183f" stroke-width="3.5"/><path d="M57.287,52.575A11.287,11.287,0,1,1,68.575,41.288,11.3,11.3,0,0,1,57.287,52.575Zm0-16.125a4.837,4.837,0,1,0,4.837,4.838A4.842,4.842,0,0,0,57.287,36.45Z" transform="translate(112.025 -30)" fill="#fff" stroke="#13183f" stroke-width="3.5"/><circle cx="3.652" cy="3.652" r="3.652" transform="translate(36.661 136.636)" fill="#fff" stroke="#13183f" stroke-width="3.5"/><circle cx="3.652" cy="3.652" r="3.652" transform="translate(85.036 185.011)" fill="#fff" stroke="#13183f" stroke-width="3.5"/><circle cx="3.652" cy="3.652" r="3.652" transform="translate(7.636 4.411)" fill="#fff" stroke="#13183f" stroke-width="3.5"/><path d="M157.6,191.6a3.224,3.224,0,0,1,4.56,0l3.644,3.644,3.644-3.644a3.225,3.225,0,0,1,4.56,4.56l-3.644,3.644,3.644,3.644a3.225,3.225,0,1,1-4.56,4.56l-3.644-3.644-3.644,3.644a3.225,3.225,0,0,1-4.56-4.56l3.644-3.644-3.644-3.644A3.224,3.224,0,0,1,157.6,191.6Z" transform="translate(-83.564 -61.126)" fill="#fff" stroke="#13183f" stroke-width="3.5"/><path d="M241.341,138.6a3.226,3.226,0,0,1-.816,3.3l-4.743,4.62,1.122,6.529a3.224,3.224,0,0,1-4.677,3.4l-5.864-3.08-5.864,3.08a3.224,3.224,0,0,1-4.677-3.4l1.122-6.529L212.2,141.9a3.224,3.224,0,0,1,1.788-5.5l6.551-.955,2.932-5.936a3.355,3.355,0,0,1,5.782,0l2.932,5.936,6.551.955a3.223,3.223,0,0,1,2.6,2.2Zm-11.76,2.989a3.22,3.22,0,0,1-2.428-1.764l-.79-1.6-.79,1.6a3.22,3.22,0,0,1-2.428,1.764l-1.761.258,1.275,1.244a3.224,3.224,0,0,1,.926,2.853l-.3,1.758,1.581-.828a3.208,3.208,0,0,1,3,0l1.581.828-.3-1.758a3.224,3.224,0,0,1,.926-2.853l1.275-1.244Z" transform="translate(-194.112 -48.959)" fill="#fff" stroke="#13183f" stroke-width="3.5"/><path d="M185.6,152.475a3.212,3.212,0,0,1-1.309-.277q-4.813-2.141-8.639-4.138a20.5,20.5,0,0,1-6.6,3.19,14.572,14.572,0,0,1-11.441-1.411L156.153,149a3.186,3.186,0,0,1-1.071-1.008,2.085,2.085,0,0,0-3.47,0,3.192,3.192,0,0,1-.762.806l-.284.208a10.627,10.627,0,0,1-16.4-5.183,3.226,3.226,0,1,1,6.122-2.041,4.175,4.175,0,0,0,6.331,2.123,8.53,8.53,0,0,1,13.338-.157l.888.51a8.063,8.063,0,0,0,6.356.816,19.887,19.887,0,0,0,2.025-.722c-5.562-3.61-8.3-6.8-8.166-9.546.06-1.269.684-3.575,4.173-4.737a11.54,11.54,0,0,1,11.37,2.412,9.821,9.821,0,0,1,3.253,9.455c-.06.261-.139.545-.239.847,2.312,1.206,4.792,2.409,7.3,3.521a3.225,3.225,0,0,1-1.313,6.172ZM172.27,137.263a5.231,5.231,0,0,0-3.439-1.335c-.076,0-.152,0-.23.006a38.567,38.567,0,0,0,4.963,3.455A4.01,4.01,0,0,0,172.27,137.263Z" transform="translate(-79.173 -49.275)" fill="#fff" stroke="#13183f" stroke-width="3.5"/></g></svg>