<svg xmlns="http://www.w3.org/2000/svg" width="219.024" height="222.5" viewBox="0 0 219.024 222.5"><g transform="translate(1.75 1.75)" opacity="0.296"><path d="M458.429,456a10.429,10.429,0,1,0,10.429,10.429A10.442,10.442,0,0,0,458.429,456Zm0,13.9a3.476,3.476,0,1,1,3.476-3.476A3.481,3.481,0,0,1,458.429,469.9Zm0,0" transform="translate(-253.333 -257.857)" fill="#fff" stroke="#13183f" stroke-width="3.5"/><path d="M20.857,10.429A10.429,10.429,0,1,0,10.429,20.857,10.442,10.442,0,0,0,20.857,10.429Zm-13.9,0A3.476,3.476,0,1,1,10.429,13.9,3.483,3.483,0,0,1,6.952,10.429Zm0,0" fill="#fff" stroke="#13183f" stroke-width="3.5"/><path d="M209.364,142.281l-6.866-13.73a77.032,77.032,0,0,0,3.729-8.913l14.534-4.846V75.017l-14.534-4.846a76.441,76.441,0,0,0-3.729-8.913l6.873-13.744L181.247,19.391,167.5,26.264a76.439,76.439,0,0,0-8.913-3.729L153.745,8H113.969l-4.846,14.534a76.439,76.439,0,0,0-8.913,3.729L86.467,19.391,58.343,47.515l6.873,13.744a76.439,76.439,0,0,0-3.729,8.913L46.952,75.017v39.772l14.534,4.844a76.08,76.08,0,0,0,3.692,8.842l-4.471,8.144H40v69.524H64.333V195.714H90.7l10.429,10.429h18.82v3.476a13.9,13.9,0,1,0,27.81,0v-3.476H172.1a10.384,10.384,0,0,0,7.718-17.381,10.271,10.271,0,0,0,0-13.9,10.354,10.354,0,0,0,2.551-5.364ZM72.194,126.934a69.583,69.583,0,0,1-4.639-11.092l-.535-1.689L53.9,109.779V80.027L67.02,75.657l.531-1.692a69.044,69.044,0,0,1,4.637-11.089l.818-1.575L66.8,48.888,87.837,27.852l12.413,6.206,1.575-.816A69.185,69.185,0,0,1,112.913,28.6l1.692-.531,4.377-13.119h29.751l4.371,13.115,1.692.531a69.045,69.045,0,0,1,11.089,4.637l1.575.818,12.413-6.206L200.91,48.884,194.7,61.3l.816,1.575a69.186,69.186,0,0,1,4.639,11.089l.531,1.692,13.119,4.377v29.751l-13.115,4.371-.535,1.689a69.582,69.582,0,0,1-4.639,11.092l-.816,1.575,6.212,12.421-20.541,20.7c-.177-.233-.365-.462-.558-.677a10.341,10.341,0,0,0-6.759-17.284,62.582,62.582,0,1,0-78.5-.1H64.824l8.227-14.989ZM175.575,181.81a3.481,3.481,0,0,1-3.476,3.476H144.286a3.476,3.476,0,0,1,0-6.952H172.1A3.481,3.481,0,0,1,175.575,181.81ZM125.465,94.9h16.783l5.513-5.513V74.048A6.959,6.959,0,0,1,154.714,81V96.942L142.846,108.81H124.868L113,96.942V81a6.959,6.959,0,0,1,6.952-6.952V89.392Zm1.439,20.857h13.9v13.9H126.9Zm20.857-2.037,13.9-13.9V81a13.919,13.919,0,0,0-13.9-13.9H140.81V86.513l-1.439,1.439H128.344L126.9,86.513V67.1h-6.952a13.919,13.919,0,0,0-13.9,13.9V99.82l13.9,13.9v15.942h-8.392l-.219.219a41.694,41.694,0,1,1,45.409-.219h-8.989ZM182.524,94.9a48.667,48.667,0,1,0-76.244,40.042l-5.006,5.006a55.608,55.608,0,1,1,67.178-1.509,10.349,10.349,0,0,0-3.463-6.187A48.345,48.345,0,0,0,182.524,94.9ZM172.1,150.524a3.476,3.476,0,0,1,0,6.952H144.286a3.476,3.476,0,0,1,0-6.952Zm-27.813,20.857a3.476,3.476,0,0,1,0-6.952H172.1a3.476,3.476,0,0,1,0,6.952Zm-86.9,27.81H46.952V143.571H57.381Zm46.63,0L93.582,188.762H64.333V150.524h36.2l13.9-13.9H158.19a3.476,3.476,0,1,1,0,6.952h-36.2l-14.923,14.923,4.916,4.916,7.971-7.971V199.19Zm29.846,17.381a6.959,6.959,0,0,1-6.952-6.952v-59.1H134.5a10.108,10.108,0,0,0,2.071,10.429,10.271,10.271,0,0,0,0,13.9,10.271,10.271,0,0,0,0,13.9A10.333,10.333,0,0,0,140.81,205.5v4.116A6.959,6.959,0,0,1,133.857,216.571ZM172.1,199.19H144.286a3.476,3.476,0,0,1,0-6.952H172.1a3.476,3.476,0,0,1,0,6.952Zm0,0" transform="translate(-22.619 -4.524)" fill="#fff" stroke="#13183f" stroke-width="3.5"/><path d="M16,72h6.952v6.952H16Zm0,0" transform="translate(-9.048 -40.714)" fill="#fff" stroke="#13183f" stroke-width="3.5"/><path d="M16,112h6.952v6.952H16Zm0,0" transform="translate(-9.048 -63.333)" fill="#fff" stroke="#13183f" stroke-width="3.5"/><path d="M16,152h6.952v6.952H16Zm0,0" transform="translate(-9.048 -85.952)" fill="#fff" stroke="#13183f" stroke-width="3.5"/><path d="M464,336h6.952v6.952H464Zm0,0" transform="translate(-262.381 -190)" fill="#fff" stroke="#13183f" stroke-width="3.5"/><path d="M464,376h6.952v6.952H464Zm0,0" transform="translate(-262.381 -212.619)" fill="#fff" stroke="#13183f" stroke-width="3.5"/><path d="M464,416h6.952v6.952H464Zm0,0" transform="translate(-262.381 -235.238)" fill="#fff" stroke="#13183f" stroke-width="3.5"/></g></svg>