<svg xmlns="http://www.w3.org/2000/svg" width="216.677" height="216.677" viewBox="0 0 216.677 216.677"><g transform="translate(0.75 0.75)" opacity="0.297"><path d="M34.438,53.26A3.438,3.438,0,0,1,31,49.822V15.438a3.438,3.438,0,1,1,6.877,0V49.822A3.438,3.438,0,0,1,34.438,53.26Z" transform="translate(73.15 26.822)" fill="#13183f" stroke="#fff" stroke-width="3.5"/><path d="M71.822,15.877H37.438a3.438,3.438,0,1,1,0-6.877H71.822a3.438,3.438,0,0,1,0,6.877Z" transform="translate(80.465 19.507)" fill="#13183f" stroke="#fff" stroke-width="3.5"/><path d="M34.438,81.26A3.438,3.438,0,0,1,31,77.822V43.438a3.438,3.438,0,0,1,6.877,0V77.822A3.438,3.438,0,0,1,34.438,81.26Z" transform="translate(73.15 95.095)" fill="#13183f" stroke="#fff" stroke-width="3.5"/><path d="M55.822,59.877H21.438a3.438,3.438,0,1,1,0-6.877H55.822a3.438,3.438,0,1,1,0,6.877Z" transform="translate(41.452 126.794)" fill="#13183f" stroke="#fff" stroke-width="3.5"/><path d="M49.822,37.877H15.438a3.438,3.438,0,0,1,0-6.877H49.822a3.438,3.438,0,0,1,0,6.877Z" transform="translate(26.822 73.15)" fill="#13183f" stroke="#fff" stroke-width="3.5"/><path d="M12.438,59.26A3.438,3.438,0,0,1,9,55.822V21.438a3.438,3.438,0,0,1,6.877,0V55.822A3.438,3.438,0,0,1,12.438,59.26Z" transform="translate(19.507 41.452)" fill="#13183f" stroke="#fff" stroke-width="3.5"/><path d="M77.822,37.877H43.438a3.438,3.438,0,1,1,0-6.877H77.822a3.438,3.438,0,0,1,0,6.877Z" transform="translate(95.095 73.15)" fill="#13183f" stroke="#fff" stroke-width="3.5"/><path d="M56.438,75.26A3.438,3.438,0,0,1,53,71.822V37.438a3.438,3.438,0,0,1,6.877,0V71.822A3.438,3.438,0,0,1,56.438,75.26Z" transform="translate(126.794 80.465)" fill="#13183f" stroke="#fff" stroke-width="3.5"/><path d="M81.452,84.89H26.438A3.438,3.438,0,0,1,23,81.452V26.438A3.438,3.438,0,0,1,26.438,23H81.452a3.438,3.438,0,0,1,3.438,3.438V81.452A3.438,3.438,0,0,1,81.452,84.89ZM29.877,78.013H78.013V29.877H29.877Z" transform="translate(53.643 53.643)" fill="#13183f" stroke="#fff" stroke-width="3.5"/><path d="M59.452,62.89H4.438A3.438,3.438,0,0,1,1,59.452V4.438A3.438,3.438,0,0,1,4.438,1H59.452A3.438,3.438,0,0,1,62.89,4.438V59.452A3.438,3.438,0,0,1,59.452,62.89ZM7.877,56.013H56.013V7.877H7.877Z" fill="#13183f" stroke="#fff" stroke-width="3.5"/><path d="M103.452,106.89H48.438A3.438,3.438,0,0,1,45,103.452V48.438A3.438,3.438,0,0,1,48.438,45h55.013a3.438,3.438,0,0,1,3.438,3.438v55.013A3.438,3.438,0,0,1,103.452,106.89Zm-51.575-6.877h48.137V51.877H51.877Z" transform="translate(107.287 107.287)" fill="#13183f" stroke="#fff" stroke-width="3.5"/><path d="M103.452,62.89H48.438A3.438,3.438,0,0,1,45,59.452V4.438A3.438,3.438,0,0,1,48.438,1h55.013a3.438,3.438,0,0,1,3.438,3.438V59.452A3.438,3.438,0,0,1,103.452,62.89ZM51.877,56.013h48.137V7.877H51.877Z" transform="translate(107.287)" fill="#13183f" stroke="#fff" stroke-width="3.5"/><path d="M59.452,106.89H4.438A3.438,3.438,0,0,1,1,103.452V48.438A3.438,3.438,0,0,1,4.438,45H59.452a3.438,3.438,0,0,1,3.438,3.438v55.013A3.438,3.438,0,0,1,59.452,106.89ZM7.877,100.013H56.013V51.877H7.877Z" transform="translate(0 107.287)" fill="#13183f" stroke="#fff" stroke-width="3.5"/><path d="M46.192,27.63H32.438A3.438,3.438,0,0,1,29,24.192V10.438A3.438,3.438,0,0,1,32.438,7H46.192a3.438,3.438,0,0,1,3.438,3.438V24.192A3.438,3.438,0,0,1,46.192,27.63ZM35.877,20.753h6.877V13.877H35.877Z" transform="translate(68.273 14.63)" fill="#13183f" stroke="#fff" stroke-width="3.5"/><path d="M46.192,71.63H32.438A3.438,3.438,0,0,1,29,68.192V54.438A3.438,3.438,0,0,1,32.438,51H46.192a3.438,3.438,0,0,1,3.438,3.438V68.192A3.438,3.438,0,0,1,46.192,71.63ZM35.877,64.753h6.877V57.877H35.877Z" transform="translate(68.273 121.917)" fill="#13183f" stroke="#fff" stroke-width="3.5"/><path d="M24.192,49.63H10.438A3.438,3.438,0,0,1,7,46.192V32.438A3.438,3.438,0,0,1,10.438,29H24.192a3.438,3.438,0,0,1,3.438,3.438V46.192A3.438,3.438,0,0,1,24.192,49.63ZM13.877,42.753h6.877V35.877H13.877Z" transform="translate(14.63 68.273)" fill="#13183f" stroke="#fff" stroke-width="3.5"/><path d="M68.192,49.63H54.438A3.438,3.438,0,0,1,51,46.192V32.438A3.438,3.438,0,0,1,54.438,29H68.192a3.438,3.438,0,0,1,3.438,3.438V46.192A3.438,3.438,0,0,1,68.192,49.63ZM57.877,42.753h6.877V35.877H57.877Z" transform="translate(121.917 68.273)" fill="#13183f" stroke="#fff" stroke-width="3.5"/><path d="M39.315,49.63A10.315,10.315,0,1,1,49.63,39.315,10.315,10.315,0,0,1,39.315,49.63Zm0-13.753a3.438,3.438,0,1,0,3.438,3.438A3.438,3.438,0,0,0,39.315,35.877Z" transform="translate(68.273 68.273)" fill="#13183f" stroke="#fff" stroke-width="3.5"/><path d="M17.315,27.63A10.315,10.315,0,1,1,27.63,17.315,10.315,10.315,0,0,1,17.315,27.63Zm0-13.753a3.438,3.438,0,1,0,3.438,3.438A3.438,3.438,0,0,0,17.315,13.877Z" transform="translate(14.63 14.63)" fill="#13183f" stroke="#fff" stroke-width="3.5"/><path d="M17.315,71.63A10.315,10.315,0,1,1,27.63,61.315,10.315,10.315,0,0,1,17.315,71.63Zm0-13.753a3.438,3.438,0,1,0,3.438,3.438A3.438,3.438,0,0,0,17.315,57.877Z" transform="translate(14.63 121.917)" fill="#13183f" stroke="#fff" stroke-width="3.5"/><path d="M61.315,27.63A10.315,10.315,0,1,1,71.63,17.315,10.315,10.315,0,0,1,61.315,27.63Zm0-13.753a3.438,3.438,0,1,0,3.438,3.438A3.438,3.438,0,0,0,61.315,13.877Z" transform="translate(121.917 14.63)" fill="#13183f" stroke="#fff" stroke-width="3.5"/><path d="M61.315,71.63A10.315,10.315,0,1,1,71.63,61.315,10.315,10.315,0,0,1,61.315,71.63Zm0-13.753a3.438,3.438,0,1,0,3.438,3.438A3.438,3.438,0,0,0,61.315,57.877Z" transform="translate(121.917 121.917)" fill="#13183f" stroke="#fff" stroke-width="3.5"/><path d="M72.068,64.877H51.438a3.438,3.438,0,0,1,0-6.877h20.63a3.438,3.438,0,0,1,0,6.877Z" transform="translate(114.602 138.985)" fill="#13183f" stroke="#fff" stroke-width="3.5"/><path d="M63.877,64.877H60.438a3.438,3.438,0,0,1,0-6.877h3.438a3.438,3.438,0,0,1,0,6.877Z" transform="translate(136.547 138.985)" fill="#13183f" stroke="#fff" stroke-width="3.5"/></g></svg>