<svg xmlns="http://www.w3.org/2000/svg" xmlns:xlink="http://www.w3.org/1999/xlink" width="38.116" height="29.997" viewBox="0 0 38.116 29.997"><defs><radialGradient id="a" cx="0.5" cy="0.5" r="0.5" gradientUnits="objectBoundingBox"><stop offset="0"/><stop offset="0.448" stop-color="#3e2a1d"/><stop offset="1" stop-color="#8b5e41"/></radialGradient></defs><g transform="translate(116.1 -1239)"><g transform="translate(-116.1 1239)"><g transform="translate(0)"><path d="M37.52,29.029H29.177V24.865l.128-.015a5.624,5.624,0,0,0,4.187-2.979l.03-.06.068-.015a5.549,5.549,0,0,0,3.076-1.966,6.34,6.34,0,0,0,1.351-3.939,6.139,6.139,0,0,0-2.9-5.29l-.068-.038-.008-.083a6.705,6.705,0,0,0-6.46-6.6,6.064,6.064,0,0,0-3.1.855.514.514,0,0,0-.225.293.457.457,0,0,0,.053.368.514.514,0,0,0,.293.225.457.457,0,0,0,.368-.053,5.107,5.107,0,0,1,2.611-.72,5.778,5.778,0,0,1,5.5,6.01.488.488,0,0,0,.263.428,5.138,5.138,0,0,1,2.694,4.607,4.985,4.985,0,0,1-3.932,5.02.466.466,0,0,0-.353.27,4.817,4.817,0,0,1-3.414,2.694l-.173.03V18.06l3.166-2.911a.493.493,0,0,0,.158-.338.451.451,0,0,0-.128-.345.493.493,0,0,0-.338-.158.451.451,0,0,0-.345.128l-2.506,2.3V12.162a.48.48,0,1,0-.96,0v8.006l-2.506-2.311a.462.462,0,0,0-.345-.128.493.493,0,0,0-.338.158.462.462,0,0,0-.128.345.493.493,0,0,0,.158.338l3.166,2.911v2.431l-.173-.023a4.734,4.734,0,0,1-3.631-2.761.482.482,0,0,0-.338-.263,4.985,4.985,0,0,1-3.744-4.982,5.14,5.14,0,0,1,2.521-4.517.483.483,0,0,0,.248-.428v-.09a6.321,6.321,0,0,1,1.155-3.692.473.473,0,0,0,.083-.36.486.486,0,0,0-.2-.315.473.473,0,0,0-.36-.083.486.486,0,0,0-.315.2,7.335,7.335,0,0,0-1.328,3.984v.075l-.068.045a6.109,6.109,0,0,0-2.7,5.17,5.96,5.96,0,0,0,4.217,5.852l.06.015.03.06a5.661,5.661,0,0,0,4.4,3.054l.135.015v4.149h-.705l-.008-.143a3.856,3.856,0,0,0-2.694-3.451l-.06-.023-.03-.06a3.625,3.625,0,0,0-2.484-1.981l-.1-.023-.023-.09a3.591,3.591,0,0,0-6.633-1l-.038.075h-.083a3.7,3.7,0,0,0-3.009,1.748l-.165.263-.105-.293a3,3,0,0,0-2.611-1.973l-.143-.008V20.123l.128-.015a5.384,5.384,0,0,0,3.992-2.844l.03-.06.068-.015A5.325,5.325,0,0,0,16.5,15.3a6.06,6.06,0,0,0,1.3-3.782,5.88,5.88,0,0,0-2.769-5.072l-.068-.038-.008-.083A6.425,6.425,0,0,0,8.769,0,5.879,5.879,0,0,0,5.242,1.178a.482.482,0,0,0,.578.773A4.929,4.929,0,0,1,8.769.96a5.514,5.514,0,0,1,5.245,5.732.488.488,0,0,0,.263.428,4.9,4.9,0,0,1,2.566,4.4A4.748,4.748,0,0,1,13.09,16.3a.466.466,0,0,0-.353.27,4.509,4.509,0,0,1-3.219,2.559l-.18.03V13.588l3.024-2.776a.485.485,0,0,0,.03-.683.493.493,0,0,0-.338-.158.451.451,0,0,0-.345.128L9.339,12.275V7.953a.48.48,0,1,0-.96,0v7.616L6.008,13.393a.462.462,0,0,0-.345-.128.493.493,0,0,0-.338.158.462.462,0,0,0-.128.345.493.493,0,0,0,.158.338l3.024,2.776v2.3l-.173-.023a4.538,4.538,0,0,1-3.429-2.626.482.482,0,0,0-.338-.263A4.749,4.749,0,0,1,.875,11.517a4.9,4.9,0,0,1,2.4-4.307.5.5,0,0,0,.248-.428V6.708a6.139,6.139,0,0,1,.443-2.3,6.072,6.072,0,0,1,.3-.63.482.482,0,0,0-.563-.69.488.488,0,0,0-.285.233,6.563,6.563,0,0,0-.345.735,7.04,7.04,0,0,0-.5,2.4v.075L2.5,6.573a5.844,5.844,0,0,0-2.6,4.952,5.726,5.726,0,0,0,4.037,5.62L4,17.16l.03.06a5.437,5.437,0,0,0,4.2,2.919l.135.015v2.056l-.1.038a2.987,2.987,0,0,0-1.591,1.3l-.038.068-.083.008a3.072,3.072,0,0,0-2.881,2.6l-.015.083-.075.03a3.959,3.959,0,0,0-2.206,2.6l-.03.113H.38a.48.48,0,1,0,0,.96H37.513a.484.484,0,0,0,.48-.48A.465.465,0,0,0,37.52,29.029Zm-35.159,0,.083-.2a2.964,2.964,0,0,1,1.838-1.733.483.483,0,0,0,.338-.443A2.129,2.129,0,0,1,6.758,24.58a1.218,1.218,0,0,1,.158.008.485.485,0,0,0,.48-.293,2.033,2.033,0,0,1,3.9.63.47.47,0,0,0,.443.443,2,2,0,0,1,.54.12h.008c.03.015.06.023.09.038l.023.008a.879.879,0,0,1,.083.038l.03.015c.038.023.075.038.113.06l.015.008c.015.008.03.023.045.03s.023.015.03.023l.015.008.068.045a.132.132,0,0,1,.038.03.525.525,0,0,0,.075.06l.023.015a1.527,1.527,0,0,1,.188.2l.015.023a.8.8,0,0,0,.075.09l.015.015a2.287,2.287,0,0,1,.143.225l.015.03.045.09c.008.008.008.023.015.038a.781.781,0,0,1,.045.12.482.482,0,0,0,.353.315l.18.045c.015.008.023.008.038.015l.015.008.113.045a.366.366,0,0,0,.053.023l.015.008c.03.015.068.03.1.045.015.008.038.023.053.03l.008.008c.03.015.06.038.09.053a.692.692,0,0,0,.06.038c.03.023.06.038.09.06s.038.03.06.045.053.045.083.068l.008.008c.015.015.03.023.045.038.03.023.053.053.083.075l.015.015.038.038a.517.517,0,0,1,.083.1l.008.015.023.023a1.73,1.73,0,0,1,.105.143c.008.007.008.015.015.023l.008.008c.023.038.053.075.075.12a.164.164,0,0,0,.023.038l.008.015c.015.03.038.068.053.105a.366.366,0,0,1,.023.053l.008.015a.521.521,0,0,1,.038.1l.023.068a.553.553,0,0,1,.03.105c.008.023.015.045.023.075s.015.068.023.105c.008.023.008.053.015.075v.023l.03.18H2.361Zm14.2,0v-.158a1.769,1.769,0,0,0-.03-.21v-.015c-.015-.075-.03-.143-.045-.218v-.008c-.015-.068-.038-.135-.06-.21l-.008-.023a2.08,2.08,0,0,0-.075-.2l-.008-.03c-.023-.06-.053-.12-.083-.188l-.015-.03c-.03-.06-.06-.12-.1-.18l-.015-.023c-.038-.06-.075-.12-.113-.173l-.015-.023c-.045-.06-.083-.12-.128-.173l-.008-.015A1.5,1.5,0,0,0,15.716,27l-.008-.008c-.045-.045-.09-.1-.15-.15l-.015-.015a1.469,1.469,0,0,0-.158-.135l-.023-.015c-.053-.038-.105-.083-.165-.12l-.023-.015c-.053-.038-.113-.075-.173-.113l-.03-.015c-.06-.038-.12-.068-.18-.1l-.023-.015c-.068-.038-.135-.06-.2-.09l-.015-.008c-.075-.03-.143-.053-.21-.075l-.015-.008-.053-.03-.03-.06c-.023-.053-.053-.1-.075-.143-.008-.015-.023-.038-.03-.053l-.015-.023a.791.791,0,0,0-.053-.083c-.015-.03-.038-.053-.053-.083a.412.412,0,0,0-.053-.068c-.023-.03-.045-.06-.06-.083-.008-.008-.015-.023-.023-.03l-.015-.015-.158-.18-.03-.03-.083-.083a.326.326,0,0,0-.053-.045c-.03-.023-.053-.045-.083-.068s-.038-.03-.06-.045l-.023-.015a.416.416,0,0,1-.06-.045c-.038-.03-.075-.053-.113-.083l-.03-.023-.12-.075.075-.128a2.771,2.771,0,0,1,2.371-1.351,1.968,1.968,0,0,1,.2.008A.485.485,0,0,0,16.2,23a2.629,2.629,0,0,1,5.042.81.47.47,0,0,0,.443.443,2.627,2.627,0,0,1,2.258,1.726.488.488,0,0,0,.353.308,2.888,2.888,0,0,1,2.251,2.566l.015.165h-10Z" transform="translate(0.1)" fill="url(#a)"/></g><path d="M48.287,372.607a.293.293,0,0,0,.309-.294.308.308,0,0,0-.287-.317.293.293,0,0,0-.309.294A.314.314,0,0,0,48.287,372.607Z" transform="translate(-44.373 -344.095)" fill="url(#a)"/><path d="M119.183,315.607a.293.293,0,0,0,.309-.294.3.3,0,0,0-.287-.317.293.293,0,0,0-.309.294A.3.3,0,0,0,119.183,315.607Z" transform="translate(-109.968 -291.364)" fill="url(#a)"/><path d="M246.083,294.407a.293.293,0,0,0,.309-.294.3.3,0,0,0-.287-.317.306.306,0,0,0-.023.611Z" transform="translate(-227.347 -271.754)" fill="url(#a)"/><path d="M188.982,372.307a.293.293,0,0,0,.309-.294.3.3,0,0,0-.287-.317.306.306,0,0,0-.023.611Z" transform="translate(-174.531 -343.818)" fill="url(#a)"/><path d="M332.283,367.807a.293.293,0,0,0,.309-.294.3.3,0,0,0-.287-.317.293.293,0,0,0-.309.294A.3.3,0,0,0,332.283,367.807Z" transform="translate(-307.08 -339.657)" fill="url(#a)"/></g></g></svg>