<svg xmlns="http://www.w3.org/2000/svg" xmlns:xlink="http://www.w3.org/1999/xlink" width="30" height="30" viewBox="0 0 30 30"><defs><radialGradient id="a" cx="0.5" cy="0.5" r="0.5" gradientUnits="objectBoundingBox"><stop offset="0"/><stop offset="0.404" stop-color="#8b5e41"/><stop offset="1" stop-color="#545454"/></radialGradient></defs><g transform="translate(12 2)"><g transform="translate(-12 -2)"><path d="M19.657,0A10.342,10.342,0,0,0,9.329,10.333a10.236,10.236,0,0,0,2.109,6.243L9.344,18.669c-.015.015-.022.03-.037.045a2.5,2.5,0,0,0-.529-.052,2.542,2.542,0,0,0-1.811.752L.753,25.627A2.563,2.563,0,0,0,2.563,30a2.542,2.542,0,0,0,1.811-.752l6.215-6.221a2.541,2.541,0,0,0,.753-1.81,3.1,3.1,0,0,0-.052-.529c.015-.015.03-.022.045-.037l2.094-2.093A10.329,10.329,0,1,0,19.657,0ZM3.681,28.555a1.591,1.591,0,0,1-2.25-2.25l5.618-5.617L9.292,22.93Zm6.3-6.3L7.742,20.017a1.584,1.584,0,0,1,2.235,2.235Zm.887-2.518a2.917,2.917,0,0,0-.276-.328,2.8,2.8,0,0,0-.328-.276l1.8-1.8c.194.209.395.417.611.611Zm8.793-.037a9.364,9.364,0,1,1,9.359-9.364A9.371,9.371,0,0,1,19.657,19.7Z" fill="url(#a)"/><path d="M161.281,27.8a8.288,8.288,0,1,0,8.281,8.288A8.3,8.3,0,0,0,161.281,27.8Zm0,15.6a7.309,7.309,0,1,1,7.309-7.309A7.32,7.32,0,0,1,161.281,43.4Z" transform="translate(-141.654 -25.722)" fill="url(#a)"/><path d="M299.783,68.11a.486.486,0,1,0-.531.815,5.231,5.231,0,0,1,1.181,7.713.49.49,0,0,0,.374.8.474.474,0,0,0,.374-.179,6.2,6.2,0,0,0-1.4-9.148Z" transform="translate(-276.77 -62.969)" fill="url(#a)"/><path d="M258.914,55.7a6.276,6.276,0,0,0-1.128-.1.486.486,0,0,0,0,.972,4.985,4.985,0,0,1,.949.09.363.363,0,0,0,.09.007.486.486,0,0,0,.09-.964Z" transform="translate(-238.131 -51.445)" fill="url(#a)"/></g><path d="M45.816,350.63a.289.289,0,0,0,0-.419.312.312,0,0,0-.426-.008.289.289,0,0,0,0,.419A.312.312,0,0,0,45.816,350.63Z" transform="translate(-46.714 -324.852)" fill="url(#a)"/><path d="M62.216,334.6a.289.289,0,0,0,0-.419.3.3,0,0,0-.426-.007.289.289,0,0,0,0,.419A.3.3,0,0,0,62.216,334.6Z" transform="translate(-61.889 -310.014)" fill="url(#a)"/><path d="M77.216,320a.289.289,0,0,0,0-.419.3.3,0,0,0-.426-.007.3.3,0,0,0,.426.426Z" transform="translate(-75.783 -296.491)" fill="url(#a)"/></g></svg>