<svg xmlns="http://www.w3.org/2000/svg" xmlns:xlink="http://www.w3.org/1999/xlink" width="33.608" height="30" viewBox="0 0 33.608 30"><defs><radialGradient id="a" cx="0.5" cy="0.5" r="0.5" gradientUnits="objectBoundingBox"><stop offset="0" stop-color="#8b5e41"/><stop offset="0.227" stop-color="#8e6042"/><stop offset="1" stop-color="#462f21"/></radialGradient></defs><g transform="translate(0.041)"><path d="M314.722,109.8a.508.508,0,0,0,.345.13.494.494,0,0,0,.345-.13.374.374,0,0,0,0-.568.508.508,0,0,0-.345-.13.494.494,0,0,0-.345.13.38.38,0,0,0-.13.284A.366.366,0,0,0,314.722,109.8Z" transform="translate(-290.866 -100.859)" fill="url(#a)"/><path d="M58.578,221.4H53.183a.451.451,0,0,0-.483.414v4.819a.451.451,0,0,0,.483.414h5.394a.451.451,0,0,0,.483-.414v-4.819A.456.456,0,0,0,58.578,221.4Zm-.483,4.819H53.667v-4h4.427Z" transform="translate(-48.694 -204.728)" fill="url(#a)"/><path d="M203.313,164.09a.54.54,0,0,0-.537.092l-6.844,6.115-.015.023-.031.015-7.988,7.136-.023.023-4.182,3.737a.36.36,0,0,0-.1.43.492.492,0,0,0,.445.261h19.075a.451.451,0,0,0,.483-.414V164.466A.4.4,0,0,0,203.313,164.09Zm-.668,17.019H185.174l3.077-2.747.775.691a.522.522,0,0,0,.691,0,.374.374,0,0,0,0-.568l-.806-.721,2-1.788.775.691a.522.522,0,0,0,.691,0,.374.374,0,0,0,0-.568l-.806-.721,2-1.788.775.691a.522.522,0,0,0,.691,0,.374.374,0,0,0,0-.568l-.806-.721,2-1.788.775.691a.522.522,0,0,0,.691,0,.374.374,0,0,0,0-.568l-.806-.721,2-1.788.775.691a.522.522,0,0,0,.691,0,.374.374,0,0,0,0-.568l-.806-.721,3.054-2.724v15.615Z" transform="translate(-170.03 -151.929)" fill="url(#a)"/><path d="M297.811,258.931h0a.565.565,0,0,0-.545.1l-7.573,6.768a.36.36,0,0,0-.1.43.492.492,0,0,0,.445.261h7.573a.451.451,0,0,0,.483-.414v-6.768A.4.4,0,0,0,297.811,258.931Zm-.675,6.729h-5.962l5.962-5.325Z" transform="translate(-267.896 -239.496)" fill="url(#a)"/><path d="M12.3,29.191H2.233V13.8h2.52a.486.486,0,0,0,.34-.128l9.861-8.811,8.126,7.27-10.3,9.219V15.4H17.61a.413.413,0,1,0,0-.816h-5.3a.444.444,0,0,0-.475.408v6.884a.384.384,0,0,0,.023.128l.045.121-.694.62a2.051,2.051,0,0,0,0,3.128,2.74,2.74,0,0,0,3.561,0l5.591-5a.369.369,0,0,0,0-.559.535.535,0,0,0-.687,0l-4.361,3.907-2.218-1.98,12.4-11.093,2.211,1.98-4.784,4.285a.369.369,0,0,0,0,.559.535.535,0,0,0,.687,0l5.085-4.549a.47.47,0,0,0,.106-.144l1.66-4.05a.355.355,0,0,0-.106-.408.522.522,0,0,0-.513-.1L25.306,10.2a.435.435,0,0,0-.174.1l-1.4,1.239L15.294,3.99a.5.5,0,0,0-.34-.128.486.486,0,0,0-.34.128l-10.058,9H1.539L14.954.99l7.213,6.453a.535.535,0,0,0,.687,0,.369.369,0,0,0,0-.559L15.294.128A.513.513,0,0,0,14.954,0a.478.478,0,0,0-.34.128L.091,13.118a.355.355,0,0,0-.1.423A.484.484,0,0,0,.43,13.8h.853V29.592A.444.444,0,0,0,1.758,30H12.3a.444.444,0,0,0,.475-.408A.438.438,0,0,0,12.3,29.191Zm2.354-4.39-.573.514a1.671,1.671,0,0,1-2.188,0,1.327,1.327,0,0,1-.46-1.005,1.353,1.353,0,0,1,.46-1.005l.543-.484ZM29.215,9.778l-1.056,2.584-1.833-1.64Z" transform="translate(0 0)" fill="url(#a)"/><path d="M281.721,248.13a.508.508,0,0,0-.345-.13.494.494,0,0,0-.345.13.374.374,0,0,0,0,.568.548.548,0,0,0,.345.13.494.494,0,0,0,.345-.13.38.38,0,0,0,.13-.284A.366.366,0,0,0,281.721,248.13Z" transform="translate(-259.72 -229.268)" fill="url(#a)"/><path d="M170.171,122.789a2.111,2.111,0,1,0-2.371-2.095A2.253,2.253,0,0,0,170.171,122.789Zm0-3.376a1.28,1.28,0,1,1-1.4,1.274A1.347,1.347,0,0,1,170.171,119.413Z" transform="translate(-155.189 -109.66)" fill="url(#a)"/></g></svg>