<svg xmlns="http://www.w3.org/2000/svg" xmlns:xlink="http://www.w3.org/1999/xlink" width="30.76" height="30" viewBox="0 0 30.76 30"><defs><radialGradient id="a" cx="0.5" cy="0.5" r="0.5" gradientUnits="objectBoundingBox"><stop offset="0"/><stop offset="0.438" stop-color="#8b5e41"/><stop offset="1" stop-color="#545454"/></radialGradient></defs><g transform="translate(0.02)"><path d="M9.206,7.024a28.055,28.055,0,0,0,6.1.676,27.93,27.93,0,0,0,6.088-.669.4.4,0,0,0,.32-.431A6.712,6.712,0,0,0,16.973.885V.4a.4.4,0,1,0-.8,0v.3a5.212,5.212,0,0,0-1.754,0V.4a.4.4,0,1,0-.8,0V.877A6.694,6.694,0,0,0,8.878,6.593.424.424,0,0,0,9.206,7.024Zm4.423-5.307V2.958a.4.4,0,1,0,.8,0V1.516a4.937,4.937,0,0,1,.877-.082,5.739,5.739,0,0,1,.877.074V2.951a.4.4,0,0,0,.8,0V1.717a5.886,5.886,0,0,1,3.888,4.6,27.241,27.241,0,0,1-11.127,0A5.839,5.839,0,0,1,13.628,1.717ZM17.783,5.88a11.6,11.6,0,0,1-2.483.275,11.2,11.2,0,0,1-2.483-.275.4.4,0,0,1,.171-.78,10.708,10.708,0,0,0,4.609,0,.4.4,0,0,1,.476.3A.38.38,0,0,1,17.783,5.88ZM8.626,8.831c.007-.26.03-1.048.6-1.264s1.137.357,1.241.476a.4.4,0,1,1-.587.543,1.014,1.014,0,0,0-.364-.26,1.2,1.2,0,0,0-.089.528,1.738,1.738,0,0,0,1.048,1.769.4.4,0,0,1,.26.275l.015.059c.007.022.007.052.015.074a4.941,4.941,0,0,0,4.542,4.832,4.941,4.941,0,0,0,4.542-4.832.264.264,0,0,1,.015-.074l.015-.059a.418.418,0,0,1,.26-.275,1.738,1.738,0,0,0,1.048-1.769,1.2,1.2,0,0,0-.089-.528,1.153,1.153,0,0,0-.364.26.4.4,0,1,1-.587-.543c.111-.119.676-.684,1.241-.476s.595,1,.6,1.264a2.593,2.593,0,0,1-1.36,2.453,5.721,5.721,0,0,1-5.322,5.382,5.721,5.721,0,0,1-5.322-5.382A2.56,2.56,0,0,1,8.626,8.831Zm19.69,7.976a41.88,41.88,0,0,1-12.332,2.066v9.648a.4.4,0,1,1-.8,0V20.33a41.85,41.85,0,0,1-9.039-1.011.257.257,0,0,1-.1-.022q-1.9-.424-3.746-1.026l.223,3.1a.405.405,0,0,1-.372.431h-.03a.4.4,0,0,1-.4-.372l-.268-3.694a.42.42,0,0,1,.156-.349.392.392,0,0,1,.372-.059,40.32,40.32,0,0,0,4.014,1.137A7.782,7.782,0,0,1,10.12,15.4l-.022-.416a.4.4,0,0,1,.8-.045l.1,1.732,1.2-.431a.4.4,0,1,1,.268.758l-1.7.61a.421.421,0,0,1-.134.022.411.411,0,0,1-.223-.067.4.4,0,0,1-.178-.312l-.059-1.011a6.913,6.913,0,0,0-3.345,2.416,40.9,40.9,0,0,0,8.362.877V18.494a.4.4,0,0,1,.4-.4,40.361,40.361,0,0,0,7.024-.662,8.211,8.211,0,0,0-2.126-1.2l-.067,1.011a.413.413,0,0,1-.178.312.393.393,0,0,1-.223.067.421.421,0,0,1-.134-.022l-1.7-.61a.4.4,0,1,1,.268-.758l1.2.431.1-1.732a.4.4,0,0,1,.424-.379.405.405,0,0,1,.379.424l-.022.416A8.546,8.546,0,0,1,23.6,17.237a41.073,41.073,0,0,0,5.017-1.368.392.392,0,0,1,.372.059.406.406,0,0,1,.156.342l-.253,5.382a.4.4,0,0,1-.8-.037Zm1.94,6.229a2.321,2.321,0,0,0-1.71-.535,2.321,2.321,0,0,0-1.71.535,2.3,2.3,0,0,0-.468,1.754v2.78a2.185,2.185,0,1,0,4.371,0v-2.78A2.366,2.366,0,0,0,30.256,23.035Zm-.334,1.747v2.787a1.385,1.385,0,0,1-1.383,1.383,1.369,1.369,0,0,1-1.256-.818H28.1a.4.4,0,0,0,0-.8h-.937v-.676H28.1a.4.4,0,0,0,0-.8h-.937v-.728H28.1a.4.4,0,0,0,0-.8h-.929a1.075,1.075,0,0,1,.23-.721,1.616,1.616,0,0,1,1.145-.3,1.629,1.629,0,0,1,1.145.3A1.711,1.711,0,0,1,29.922,24.782ZM2.308,22.232A2.5,2.5,0,0,0,.479,22.8a2.47,2.47,0,0,0-.5,1.873v3a2.327,2.327,0,0,0,4.653,0v-3.01a2.5,2.5,0,0,0-.5-1.873A2.515,2.515,0,0,0,2.308,22.232Zm0,6.972A1.526,1.526,0,0,1,.784,27.681V24.67a1.875,1.875,0,0,1,.268-1.3,1.789,1.789,0,0,1,1.264-.334,1.8,1.8,0,0,1,1.264.334,1.215,1.215,0,0,1,.26.833H2.8a.4.4,0,0,0,0,.8H3.846v.855H2.791a.4.4,0,1,0,0,.8H3.839v.8H2.791a.4.4,0,1,0,0,.8H3.72A1.526,1.526,0,0,1,2.308,29.2Z" transform="translate(0 0)" fill="url(#a)"/><path d="M280.372,271.151a.3.3,0,0,0,.241-.365.315.315,0,0,0-.365-.249.3.3,0,0,0-.241.365A.325.325,0,0,0,280.372,271.151Z" transform="translate(-259.224 -250.441)" fill="url(#a)"/><path d="M302.872,266.751a.3.3,0,0,0,.241-.365.311.311,0,0,0-.365-.249.3.3,0,0,0-.241.365A.3.3,0,0,0,302.872,266.751Z" transform="translate(-280.053 -246.368)" fill="url(#a)"/><path d="M323.372,262.851a.3.3,0,0,0,.241-.365.311.311,0,0,0-.365-.249.3.3,0,0,0-.241.365A.319.319,0,0,0,323.372,262.851Z" transform="translate(-299.03 -242.758)" fill="url(#a)"/><path d="M342.872,259.051a.3.3,0,0,0,.241-.365.311.311,0,0,0-.365-.249.3.3,0,0,0-.241.365A.313.313,0,0,0,342.872,259.051Z" transform="translate(-317.3 -239.24)" fill="url(#a)"/><path d="M91.8,377.726a.3.3,0,0,0,.319-.3.313.313,0,0,0-.3-.326.3.3,0,0,0-.319.3A.318.318,0,0,0,91.8,377.726Z" transform="translate(-84.724 -349.155)" fill="url(#a)"/><path d="M114.691,378.626a.3.3,0,0,0,.319-.3.312.312,0,0,0-.3-.326.315.315,0,0,0-.023.629Z" transform="translate(-105.919 -349.985)" fill="url(#a)"/><path d="M135.591,379.526a.3.3,0,0,0,.319-.3.312.312,0,0,0-.3-.326.315.315,0,0,0-.023.629Z" transform="translate(-125.267 -350.815)" fill="url(#a)"/><path d="M155.491,380.326a.3.3,0,0,0,.319-.3.312.312,0,0,0-.3-.326.315.315,0,0,0-.023.629Z" transform="translate(-143.689 -351.553)" fill="url(#a)"/></g></svg>