<svg xmlns="http://www.w3.org/2000/svg" xmlns:xlink="http://www.w3.org/1999/xlink" width="42.315" height="30" viewBox="0 0 42.315 30"><defs><radialGradient id="a" cx="0.5" cy="0.5" r="0.5" gradientUnits="objectBoundingBox"><stop offset="0" stop-color="#8e6042"/><stop offset="0.419" stop-color="#8e6042"/><stop offset="1" stop-color="#473021"/></radialGradient></defs><g transform="translate(0 0.436)"><g transform="translate(0 -0.436)"><path d="M27.259,9.05h0a3.8,3.8,0,0,0-2.694-1.158h-.146v-4.2A4.45,4.45,0,0,0,22.992.419,3.147,3.147,0,0,0,20.408-.4,39.272,39.272,0,0,1,8.023-.4,3.132,3.132,0,0,0,5.439.419,4.462,4.462,0,0,0,4.011,3.695v4.2H3.865a3.663,3.663,0,0,0-1.574.358.438.438,0,0,0-.234.267.545.545,0,0,0,.007.358.433.433,0,0,0,.256.244A.418.418,0,0,0,2.664,9.1a2.868,2.868,0,0,1,1.288-.274,2.575,2.575,0,0,1,.417.038c.015,0,.022,0,.029.008a3.158,3.158,0,0,1,2.474,3.131v7.655a1.668,1.668,0,0,0,1.632,1.7H19.917a1.668,1.668,0,0,0,1.632-1.7V12.013A3.109,3.109,0,0,1,24.47,8.837a2.915,2.915,0,0,1,2.152.884,3.138,3.138,0,0,1,.893,2.217,3.105,3.105,0,0,1-1.727,2.811.47.47,0,0,0-.264.427v8.3a1.984,1.984,0,0,1-1.94,2.019H4.831a1.984,1.984,0,0,1-1.94-2.019v-8.3a.47.47,0,0,0-.264-.427A3.135,3.135,0,0,1,.9,11.937,3.051,3.051,0,0,1,1.193,10.6a.481.481,0,0,0-.212-.632.452.452,0,0,0-.344-.023.456.456,0,0,0-.256.244,4.148,4.148,0,0,0,1.537,5.233l.073.046v8.013a2.91,2.91,0,0,0,2.847,2.963h.71V28.5a1.04,1.04,0,0,0,1.01,1.059h.974A1.041,1.041,0,0,0,8.55,28.5V26.448H19.9V28.5a1.041,1.041,0,0,0,1.017,1.059h.974A1.041,1.041,0,0,0,22.9,28.5V26.448h.71a2.91,2.91,0,0,0,2.847-2.963V15.471l.073-.046a4.112,4.112,0,0,0,1.918-3.489A4.241,4.241,0,0,0,27.259,9.05Zm-6.61,10.619a.741.741,0,0,1-.725.754H8.506a.742.742,0,0,1-.725-.754v-2.78H20.649ZM23.511,8.037l-.1.03a4.133,4.133,0,0,0-2.76,3.938v3.931H7.781V12.013a4.133,4.133,0,0,0-2.76-3.938l-.1-.03V3.7A3.525,3.525,0,0,1,6.032,1.143a2.257,2.257,0,0,1,1.859-.6,40.03,40.03,0,0,0,12.649,0,2.257,2.257,0,0,1,1.859.6A3.525,3.525,0,0,1,23.511,3.7ZM7.635,28.619H6.449V26.456H7.635Zm14.34,0H20.788V26.456h1.186Z" transform="translate(0 0.436)" fill="url(#a)"/><path d="M406.617,71.165h-4.579v-3.3h2.576a1.11,1.11,0,0,0,.881-.443,1.019,1.019,0,0,0,.133-.949l-1.5-3.991a1.066,1.066,0,0,0-1.006-.684h-3.183a1.066,1.066,0,0,0-1.006.684l-1.5,3.991a1,1,0,0,0,.133.949,1.094,1.094,0,0,0,.873.443h2.576v3.3H395.78A1.26,1.26,0,0,0,394.5,72.4v.8a1.26,1.26,0,0,0,1.28,1.239h.183v1.424a.516.516,0,0,0,1.031,0V74.44h8.419v4.7h-8.427V78.5a.516.516,0,0,0-1.031,0v6.421a.92.92,0,0,0,.59.853l.1.04v1.73a.95.95,0,0,0,.964.933h1.006a.95.95,0,0,0,.964-.933v-1.7h2.967v1.7a.95.95,0,0,0,.964.933h1.006a.95.95,0,0,0,.964-.933v-1.69l.141-.024a.932.932,0,0,0,.8-.9V74.44h.183a1.261,1.261,0,0,0,1.28-1.239v-.8A1.241,1.241,0,0,0,406.617,71.165Zm-8.061,16.317h-.881V85.849h.881Zm5.909,0h-.881V85.849h.881Zm.939-2.639h-8.419v-4.7H405.4Zm-7.022-17.966,1.529-4.071h3.241l1.529,4.071Zm8.485,6.324a.246.246,0,0,1-.249.241H395.763a.246.246,0,0,1-.249-.241v-.8a.246.246,0,0,1,.249-.241h10.854a.246.246,0,0,1,.249.241Z" transform="translate(-365.566 -58.48)" fill="url(#a)"/></g><path d="M471.829,242.973a.328.328,0,0,0,.324-.341.339.339,0,0,0-.332-.332.334.334,0,0,0-.324.341A.323.323,0,0,0,471.829,242.973Z" transform="translate(-436.163 -224.282)" fill="url(#a)"/><path d="M471.729,315.773a.328.328,0,0,0,.324-.341.339.339,0,0,0-.332-.332.334.334,0,0,0-.324.341A.323.323,0,0,0,471.729,315.773Z" transform="translate(-436.071 -291.874)" fill="url(#a)"/></g></svg>