<svg xmlns="http://www.w3.org/2000/svg" xmlns:xlink="http://www.w3.org/1999/xlink" width="30" height="30" viewBox="0 0 30 30"><defs><radialGradient id="a" cx="0.5" cy="0.5" r="0.5" gradientUnits="objectBoundingBox"><stop offset="0" stop-color="#3a3a3a"/><stop offset="0.468" stop-color="#8b5e41"/><stop offset="1" stop-color="#8b5e41"/></radialGradient></defs><g transform="translate(-16 17)"><g transform="translate(16 -17)"><rect width="0.886" height="0.886" transform="translate(24.951 19.577)" fill="none"/><path d="M54.292,0H31.737a.432.432,0,0,0-.426.427V7.89h.853V.855h21.7V28.567a.568.568,0,0,1-.531.578h-.15c-.082,0-.165-.007-.247-.015a.045.045,0,0,1-.03-.007,3.571,3.571,0,0,1-3.172-3.18v-.015a3.123,3.123,0,0,1-.022-.367V24.555a.432.432,0,0,0-.426-.427H32.164V15.075h-.853V24.12H27.226a.432.432,0,0,0-.426.427v1.005A4.447,4.447,0,0,0,31.236,30H53.342a1.425,1.425,0,0,0,1.376-1.433V.427A.427.427,0,0,0,54.292,0ZM31.236,29.145a3.593,3.593,0,0,1-3.583-3.592v-.578h21.2v.578a3.483,3.483,0,0,0,.03.487c0,.022.007.052.007.075s.007.038.007.053a3.429,3.429,0,0,0,.06.352c.007.03.015.06.022.083l.007.037c.03.128.067.24.1.353.015.03.022.067.037.1a3.67,3.67,0,0,0,.15.36l.015.03a.164.164,0,0,0,.022.037,3.509,3.509,0,0,0,.2.368.164.164,0,0,0,.022.037l.007.015a3.916,3.916,0,0,0,.254.36l.015.023a4.174,4.174,0,0,0,.344.382c.1.1.217.2.329.3l.165.135Z" transform="translate(-24.718)" fill="url(#a)"/><path d="M17.416,125.525l2.082-2.082a.45.45,0,0,0,0-.629l-2.082-2.082a.435.435,0,0,0-.311-.132H2.525a2.525,2.525,0,0,0,0,5.049H17.1A.481.481,0,0,0,17.416,125.525Zm-14.293-.761h-.6a1.639,1.639,0,1,1,0-3.278h.6Zm12.592-1.2.3,1.2H4.008v-3.278h12l-.3,1.2H5.2v.886Zm.8-.443.412-1.631,1.631,1.631-1.631,1.631Z" transform="translate(0 -111.618)" fill="url(#a)"/><path d="M147.578,90.168a.435.435,0,0,0,.311.132H163.5a.448.448,0,0,0,.443-.443V74.243a.423.423,0,0,0-.132-.311.435.435,0,0,0-.311-.132h0a.422.422,0,0,0-.311.132L147.578,89.546A.441.441,0,0,0,147.578,90.168ZM163.06,75.307v1.608h-1.041V77.8h1.041V79h-1.041v.886h1.041v1.2h-1.041v.886h1.041v1.2h-1.041v.886h1.041v1.2h-1.041v.886h1.041v1.2h-1.041v.886h1.041v1.2h-1.2V88.365h-.886v1.041h-1.2V88.365H158.9v1.041h-1.2V88.365h-.886v1.041h-1.2V88.365h-.886v1.041h-1.2V88.365h-.886v1.041h-1.2V88.365l-.963.963h0v.078h-1.53Z" transform="translate(-137.069 -68.489)" fill="url(#a)"/><path d="M199,260.3v.078l.078-.078Z" transform="translate(-184.076 -240.779)" fill="url(#a)"/><path d="M244.989,176.542h4.956a.448.448,0,0,0,.443-.443v-4.956a.448.448,0,0,0-.443-.443h0a.423.423,0,0,0-.311.132l-4.956,4.956a.439.439,0,0,0,.311.754Zm4.506-4.327v3.441h-3.441Z" transform="translate(-226.36 -158.003)" fill="url(#a)"/><rect width="13.377" height="0.886" transform="translate(11.245 5.205)" fill="url(#a)"/></g><path d="M208.807,47.129a.307.307,0,0,0,.3-.318.322.322,0,0,0-.311-.311.312.312,0,0,0-.3.318A.317.317,0,0,0,208.807,47.129Z" transform="translate(-186.466 -49.765)" fill="url(#a)"/><path d="M231.707,46.829a.307.307,0,0,0,.3-.318.317.317,0,0,0-.311-.311.312.312,0,0,0-.3.318A.3.3,0,0,0,231.707,46.829Z" transform="translate(-207.65 -49.488)" fill="url(#a)"/><path d="M252.607,46.629a.307.307,0,0,0,.3-.318A.317.317,0,0,0,252.6,46a.315.315,0,0,0,.008.629Z" transform="translate(-226.983 -49.303)" fill="url(#a)"/><path d="M272.507,46.329a.307.307,0,0,0,.3-.318.317.317,0,0,0-.311-.311.307.307,0,0,0-.3.318A.3.3,0,0,0,272.507,46.329Z" transform="translate(-245.392 -49.026)" fill="url(#a)"/></g></svg>