<svg xmlns="http://www.w3.org/2000/svg" xmlns:xlink="http://www.w3.org/1999/xlink" width="24.013" height="30" viewBox="0 0 24.013 30"><defs><radialGradient id="a" cx="0.5" cy="0.5" r="0.5" gradientUnits="objectBoundingBox"><stop offset="0" stop-color="#fff"/><stop offset="0" stop-color="#ebe3de"/><stop offset="0" stop-color="#8e6042"/><stop offset="0.438" stop-color="#8e6042"/><stop offset="1" stop-color="#473021"/></radialGradient></defs><g transform="translate(0 0.016)"><g transform="translate(0 5.558)"><path d="M18.614,117.2H.937V94.165A.465.465,0,0,0,.472,93.7.472.472,0,0,0,0,94.165v23.181a.781.781,0,0,0,.78.78H18.614a.465.465,0,1,0,0-.929Z" transform="translate(0 -93.7)" fill="url(#a)"/></g><g transform="translate(0 -0.015)"><g transform="translate(0 0)"><path d="M23.886,3.981,20.143.134A.416.416,0,0,0,19.831,0H.735A.732.732,0,0,0,0,.735V4.167a.438.438,0,0,0,.876,0V.884H19.638l3.491,3.587V29.122h-2.5a.439.439,0,0,0-.438.438.444.444,0,0,0,.438.438h2.644a.737.737,0,0,0,.735-.735V4.286A.433.433,0,0,0,23.886,3.981Z" transform="translate(0 0)" fill="url(#a)"/></g></g><g transform="translate(19.107 -0.017)"><g transform="translate(0 0)"><path d="M265.772,4.205,261.8.127a.474.474,0,0,0-.512-.11A.461.461,0,0,0,261,.449V4.528a.465.465,0,0,0,.465.465h3.969a.473.473,0,0,0,.433-.283A.448.448,0,0,0,265.772,4.205Zm-3.835-.142V1.6l2.394,2.465Z" transform="translate(-261 0.017)" fill="url(#a)"/></g></g><g transform="translate(3.411 8.361)"><path d="M47.438,113.87a.465.465,0,0,0-.654.087l-2.063,2.717-.622-.543a.469.469,0,1,0-.614.709l.992.874a.5.5,0,0,0,.307.118h.047a.481.481,0,0,0,.323-.181l2.362-3.11A.474.474,0,0,0,47.438,113.87Z" transform="translate(-43.321 -113.773)" fill="url(#a)"/></g><g transform="translate(7.91 8.422)"><path d="M131.021,113.8H119.265a.465.465,0,0,0-.465.465.471.471,0,0,0,.465.465h11.756a.465.465,0,1,0,0-.929Z" transform="translate(-118.8 -113.8)" fill="url(#a)"/></g><g transform="translate(8.555 9.89)"><path d="M126.895,133.6h-7.63a.465.465,0,0,0-.465.465.471.471,0,0,0,.465.465h7.63a.465.465,0,1,0,0-.929Z" transform="translate(-118.8 -133.6)" fill="url(#a)"/></g><g transform="translate(8.463 11.35)"><path d="M128.643,153.3h-9.378a.465.465,0,0,0-.465.465.471.471,0,0,0,.465.465h9.378a.465.465,0,0,0,.465-.465A.471.471,0,0,0,128.643,153.3Z" transform="translate(-118.8 -153.3)" fill="url(#a)"/></g><g transform="translate(3.411 14.302)"><path d="M47.438,194.57a.465.465,0,0,0-.654.087l-2.063,2.717-.622-.543a.469.469,0,0,0-.614.709l.992.874a.5.5,0,0,0,.307.118h.047a.481.481,0,0,0,.323-.181l2.362-3.11A.473.473,0,0,0,47.438,194.57Z" transform="translate(-43.321 -194.473)" fill="url(#a)"/></g><g transform="translate(7.91 14.397)"><path d="M131.021,194.4H119.265a.465.465,0,0,0,0,.929h11.756a.465.465,0,1,0,0-.929Z" transform="translate(-118.8 -194.4)" fill="url(#a)"/></g><g transform="translate(8.555 15.865)"><path d="M126.895,214.2h-7.63a.465.465,0,0,0-.465.465.471.471,0,0,0,.465.465h7.63a.465.465,0,0,0,0-.929Z" transform="translate(-118.8 -214.2)" fill="url(#a)"/></g><g transform="translate(8.463 17.333)"><path d="M128.643,234h-9.378a.465.465,0,1,0,0,.929h9.378a.465.465,0,0,0,0-.929Z" transform="translate(-118.8 -234)" fill="url(#a)"/></g><g transform="translate(7.91 20.38)"><path d="M131.021,275.1H119.265a.465.465,0,0,0-.465.465.471.471,0,0,0,.465.465h11.756a.465.465,0,0,0,.465-.465A.46.46,0,0,0,131.021,275.1Z" transform="translate(-118.8 -275.1)" fill="url(#a)"/></g><g transform="translate(8.555 21.841)"><path d="M126.895,294.8h-7.63a.465.465,0,0,0,0,.929h7.63a.465.465,0,0,0,.465-.465A.46.46,0,0,0,126.895,294.8Z" transform="translate(-118.8 -294.8)" fill="url(#a)"/></g><g transform="translate(8.463 23.309)"><path d="M128.643,314.6h-9.378a.465.465,0,1,0,0,.929h9.378a.465.465,0,0,0,.465-.465A.471.471,0,0,0,128.643,314.6Z" transform="translate(-118.8 -314.6)" fill="url(#a)"/></g><g transform="translate(3.417 20.238)"><path d="M46.668,275.1H44.18a.781.781,0,0,0-.78.78v2.488a.781.781,0,0,0,.78.78h2.488a.781.781,0,0,0,.78-.78V275.88A.781.781,0,0,0,46.668,275.1Zm-.157,3.11H44.329v-2.181H46.51Z" transform="translate(-43.4 -275.1)" fill="url(#a)"/></g><path d="M52.719,48.738a.311.311,0,0,0,.307-.323A.328.328,0,0,0,52.7,48.1a.311.311,0,0,0-.307.323A.34.34,0,0,0,52.719,48.738Z" transform="translate(-43.653 -44.328)" fill="url(#a)"/><path d="M75.619,48.338a.311.311,0,0,0,.307-.323A.323.323,0,0,0,75.6,47.7a.319.319,0,0,0,.016.638Z" transform="translate(-64.918 -43.959)" fill="url(#a)"/><path d="M96.519,48.038a.311.311,0,0,0,.307-.323A.323.323,0,0,0,96.5,47.4a.311.311,0,0,0-.307.323A.322.322,0,0,0,96.519,48.038Z" transform="translate(-84.268 -43.683)" fill="url(#a)"/><path d="M116.419,47.638a.311.311,0,0,0,.307-.323A.323.323,0,0,0,116.4,47a.319.319,0,0,0,.016.638Z" transform="translate(-102.692 -43.314)" fill="url(#a)"/></g></svg>