<svg xmlns="http://www.w3.org/2000/svg" width="2.82mm" height="5.29mm" viewBox="0 0 8 15">
  <defs>
    <style>
      .a {
        fill: #fff;
      }
    </style>
  </defs>
  <title>fb</title>
  <path class="a" d="M7.7,0H5.78A3.39,3.39,0,0,0,2.23,3.69v1.7H.3A.31.31,0,0,0,0,5.7V8.17a.31.31,0,0,0,.3.3H2.23v6.22a.31.31,0,0,0,.3.31H5.05a.3.3,0,0,0,.3-.31V8.47H7.61a.31.31,0,0,0,.3-.3V5.7a.31.31,0,0,0-.09-.22.33.33,0,0,0-.21-.09H5.35V4c0-.69.16-1,1.06-1H7.7A.3.3,0,0,0,8,2.6V.31A.31.31,0,0,0,7.7,0Z"/>
</svg>
