<svg xmlns="http://www.w3.org/2000/svg" width="4.94mm" height="4.94mm" viewBox="0 0 14 14">
  <defs>
    <style>
      .a {
        fill: #fff;
      }
    </style>
  </defs>
  <title>instagram</title>
  <g>
    <path class="a" d="M10.14,0H3.86A3.86,3.86,0,0,0,0,3.86v6.28A3.86,3.86,0,0,0,3.86,14h6.28A3.86,3.86,0,0,0,14,10.14V3.86A3.86,3.86,0,0,0,10.14,0Zm2.62,10.14a2.63,2.63,0,0,1-2.62,2.62H3.86a2.63,2.63,0,0,1-2.62-2.62V3.86A2.63,2.63,0,0,1,3.86,1.24h6.28a2.63,2.63,0,0,1,2.62,2.62Z"/>
    <path class="a" d="M7,3.39A3.61,3.61,0,1,0,10.61,7,3.61,3.61,0,0,0,7,3.39Zm0,6A2.37,2.37,0,1,1,9.37,7,2.37,2.37,0,0,1,7,9.36Z"/>
    <path class="a" d="M10.76,2.34a.92.92,0,0,0-.91.91.91.91,0,0,0,.27.64.89.89,0,0,0,.64.27.92.92,0,0,0,.91-.91.89.89,0,0,0-.27-.64.91.91,0,0,0-.64-.27Z"/>
  </g>
</svg>
