<svg xmlns="http://www.w3.org/2000/svg" width="5.67mm" height="4.94mm" viewBox="0 0 16.08 14">
  <defs>
    <style>
      .a {
        fill: #fff;
      }
    </style>
  </defs>
  <title>teleg</title>
  <path class="a" d="M.28,6.71,4,8.1l1.43,4.61a.45.45,0,0,0,.7.21l2.06-1.69a.63.63,0,0,1,.75,0l3.73,2.71a.44.44,0,0,0,.68-.27L16.07.53a.44.44,0,0,0-.58-.5L.28,5.9a.43.43,0,0,0,0,.81Zm4.91.65L12.43,2.9a.13.13,0,0,1,.16.2l-6,5.55a1.21,1.21,0,0,0-.38.75L6,10.9a.18.18,0,0,1-.36,0L4.87,8.18a.73.73,0,0,1,.32-.82Z"/>
</svg>
