<svg xmlns="http://www.w3.org/2000/svg" width="17" height="13" viewBox="0 0 17 13">
  <defs>
    <style>
      .a {
        fill: #fff;
      }
    </style>
  </defs>
  <title>twitter</title>
  <path class="a" d="M17,1.54a7.46,7.46,0,0,1-2,.52A3.34,3.34,0,0,0,16.53.24a7.27,7.27,0,0,1-2.22.8,3.56,3.56,0,0,0-2.54-1A3.39,3.39,0,0,0,8.28,3.28,3.08,3.08,0,0,0,8.37,4,10.12,10.12,0,0,1,1.18.6,3.11,3.11,0,0,0,.71,2.25,3.24,3.24,0,0,0,2.26,5,3.63,3.63,0,0,1,.68,4.57v0a3.35,3.35,0,0,0,2.8,3.22A3.93,3.93,0,0,1,2.56,8a3.5,3.5,0,0,1-.65-.07,3.45,3.45,0,0,0,3.25,2.28A7.26,7.26,0,0,1,.83,11.57,7.55,7.55,0,0,1,0,11.52,10.25,10.25,0,0,0,5.35,13a9.56,9.56,0,0,0,9.92-9.34V3.23A6.82,6.82,0,0,0,17,1.54Z"/>
</svg>
