<svg xmlns="http://www.w3.org/2000/svg" width="7.41mm" height="4.23mm" viewBox="0 0 21 12">
  <defs>
    <style>
      .a {
        fill: #fff;
      }
    </style>
  </defs>
  <title>vk</title>
  <path class="a" d="M18.62,5l.71-.93C20.59,2.41,21.14,1.33,21,.87L20.9.76a.55.55,0,0,0-.33-.18,1.58,1.58,0,0,0-.7,0l-3.15,0a.79.79,0,0,0-.22,0l-.14,0-.06,0,0,0a.4.4,0,0,0-.12.11A.64.64,0,0,0,16,1a17.46,17.46,0,0,1-1.17,2.46c-.27.45-.52.85-.74,1.18a6.74,6.74,0,0,1-.57.73c-.16.16-.3.28-.42.38a.44.44,0,0,1-.28.12l-.19,0a.78.78,0,0,1-.24-.27,1.09,1.09,0,0,1-.13-.43,4.2,4.2,0,0,1,0-.44c0-.13,0-.3,0-.53s0-.38,0-.46c0-.28,0-.58,0-.9s0-.58,0-.77,0-.4,0-.61a2.29,2.29,0,0,0,0-.5,1.57,1.57,0,0,0-.11-.35.58.58,0,0,0-.23-.26,1.34,1.34,0,0,0-.36-.15A8.17,8.17,0,0,0,10.1,0,7.3,7.3,0,0,0,7.49.26a1.85,1.85,0,0,0-.42.33C6.94.75,6.92.84,7,.86A1.3,1.3,0,0,1,8,1.33L8,1.46a1.61,1.61,0,0,1,.16.5,6,6,0,0,1,.1.8,10.37,10.37,0,0,1,0,1.37c0,.38-.08.68-.11.89A1.54,1.54,0,0,1,8,5.53a1.08,1.08,0,0,1-.13.24l0,.06a1,1,0,0,1-.3,0,.72.72,0,0,1-.37-.15,2.44,2.44,0,0,1-.45-.42,5,5,0,0,1-.53-.75,11.62,11.62,0,0,1-.61-1.14L5.39,3.1c-.11-.2-.26-.5-.45-.89s-.36-.77-.5-1.14A.79.79,0,0,0,4.18.72l-.06,0A.52.52,0,0,0,4,.6,1.17,1.17,0,0,0,3.7.53l-3,0A.74.74,0,0,0,.08.76L0,.82A.42.42,0,0,0,0,1a.71.71,0,0,0,.07.29c.43,1,.91,2,1.42,3S2.45,6,2.83,6.58,3.6,7.72,4,8.24s.66.85.78,1l.3.33.28.26a5.31,5.31,0,0,0,.77.63,12.78,12.78,0,0,0,1.12.73,6.55,6.55,0,0,0,1.44.58,5,5,0,0,0,1.6.18h1.26a.84.84,0,0,0,.57-.24l.05-.06a.81.81,0,0,0,.08-.2,1,1,0,0,0,0-.3,3.7,3.7,0,0,1,.07-.85,2.09,2.09,0,0,1,.19-.57,1,1,0,0,1,.23-.32A.91.91,0,0,1,13,9.24l.08,0a.7.7,0,0,1,.62.17,3.35,3.35,0,0,1,.67.64q.31.38.75.84a4.53,4.53,0,0,0,.76.7l.22.14a4.08,4.08,0,0,0,.57.24,1.2,1.2,0,0,0,.61.05l2.8,0a1.31,1.31,0,0,0,.65-.14.54.54,0,0,0,.27-.3.91.91,0,0,0,0-.37,2,2,0,0,0-.08-.29l-.07-.14a11,11,0,0,0-2.09-2.42l0,0h0c-.46-.45-.76-.75-.88-.9a.83.83,0,0,1-.15-.89,7.88,7.88,0,0,1,1-1.43Z"/>
</svg>
