<svg xmlns="http://www.w3.org/2000/svg" width="203" height="131.252" viewBox="0 0 203 131.252"><g transform="translate(1 1)"><g transform="translate(0.5 0.5)"><line x2="200" transform="translate(0 128.252)" stroke-width="3" stroke="#fff" stroke-linecap="round" stroke-linejoin="round" fill="none"/><path d="M138.272,30.6v87.05H18.23V4.15" transform="translate(52.998 10.603)" fill="none" stroke="#fff" stroke-linecap="round" stroke-linejoin="round" stroke-width="3"/><path d="M2.79,101.957H65.2V9.4L2.79,45.776Z" transform="translate(6.466 26.294)" fill="none" stroke="#fff" stroke-linecap="round" stroke-linejoin="round" stroke-width="3"/><rect width="32.941" height="46.279" transform="translate(23.2 81.973)" stroke-width="3" stroke="#fff" stroke-linecap="round" stroke-linejoin="round" fill="none"/><rect width="32.941" height="14.631" transform="translate(23.2 97.776)" stroke-width="3" stroke="#fff" stroke-linecap="round" stroke-linejoin="round" fill="none"/><line y1="113.499" transform="translate(71.506 14.753)" stroke-width="3" stroke="#fff" stroke-linecap="round" stroke-linejoin="round" fill="none"/><path d="M153.572,28.793,16.07.5V13.474l137.5,28.293Z" transform="translate(46.428 -0.5)" fill="none" stroke="#fff" stroke-linecap="round" stroke-linejoin="round" stroke-width="3"/><rect width="23.766" height="34.557" transform="translate(118.578 93.694)" stroke-width="3" stroke="#fff" stroke-linecap="round" stroke-linejoin="round" fill="none"/><rect width="17.905" height="20.613" transform="translate(88.023 51.441)" stroke-width="3" stroke="#fff" stroke-linecap="round" stroke-linejoin="round" fill="none"/><rect width="17.905" height="20.613" transform="translate(122.136 51.441)" stroke-width="3" stroke="#fff" stroke-linecap="round" stroke-linejoin="round" fill="none"/><rect width="17.905" height="20.613" transform="translate(156.187 51.441)" stroke-width="3" stroke="#fff" stroke-linecap="round" stroke-linejoin="round" fill="none"/><rect width="17.905" height="20.613" transform="translate(88.023 93.694)" stroke-width="3" stroke="#fff" stroke-linecap="round" stroke-linejoin="round" fill="none"/><rect width="17.905" height="20.613" transform="translate(155.257 93.694)" stroke-width="3" stroke="#fff" stroke-linecap="round" stroke-linejoin="round" fill="none"/></g></g></svg>