<svg xmlns="http://www.w3.org/2000/svg" width="24.781" height="25" viewBox="0 0 24.781 25"><g transform="translate(-2.15)"><path d="M23.509,3.152A12.072,12.072,0,0,0,15.007,0a12.692,12.692,0,0,0-9.1,3.585A11.839,11.839,0,0,0,2.15,12.51a12.209,12.209,0,0,0,3.575,8.8A12.838,12.838,0,0,0,15.374,25a18.065,18.065,0,0,0,7.176-1.5,1.529,1.529,0,0,0,.826-1.974h0a1.525,1.525,0,0,0-2.02-.826,15.105,15.105,0,0,1-5.987,1.316,9.2,9.2,0,0,1-7.206-2.836,9.626,9.626,0,0,1-2.55-6.65A9.475,9.475,0,0,1,8.346,5.6,9.047,9.047,0,0,1,15.053,2.83a8.9,8.9,0,0,1,6.191,2.28,7.4,7.4,0,0,1,2.524,5.737,6.468,6.468,0,0,1-1.158,3.937,3.129,3.129,0,0,1-2.4,1.571c-.449,0-.673-.24-.673-.724a13.425,13.425,0,0,1,.087-1.382l.949-7.757H17.307l-.209.76a4.235,4.235,0,0,0-2.734-1.02A5.229,5.229,0,0,0,10.33,8.109a6.954,6.954,0,0,0-1.678,4.83,6.981,6.981,0,0,0,1.489,4.656,4.528,4.528,0,0,0,3.585,1.77,4.066,4.066,0,0,0,3.2-1.571,3.317,3.317,0,0,0,2.953,1.5,6.276,6.276,0,0,0,4.957-2.5,9.077,9.077,0,0,0,2.091-6.023A9.984,9.984,0,0,0,23.509,3.152ZM15.991,14.887a2.53,2.53,0,0,1-2.065,1.168A1.487,1.487,0,0,1,12.61,15.2a4.135,4.135,0,0,1-.5-2.132,4.209,4.209,0,0,1,.7-2.54,2.1,2.1,0,0,1,1.744-.969,2.177,2.177,0,0,1,1.606.724,2.658,2.658,0,0,1,.7,1.933A4.414,4.414,0,0,1,15.991,14.887Z" fill="#fff"/></g></svg>