<svg xmlns="http://www.w3.org/2000/svg" width="26.231" height="25" viewBox="0 0 26.231 25"><g transform="translate(0 -10.773)"><g transform="translate(0 10.773)"><g transform="translate(0 0)"><path d="M347.234,336.762l5.255-5.255h-5.255Z" transform="translate(-327.202 -312.981)" fill="#fff"/><path d="M25.213,69.456v.878a2.8,2.8,0,0,1-5.579,0V69.109h-.557v1.225a2.7,2.7,0,0,1-2.79,2.618,2.7,2.7,0,0,1-2.79-2.618V69.109h-.557v1.225a2.7,2.7,0,0,1-2.79,2.618,2.7,2.7,0,0,1-2.79-2.618V69.109H6.805v1.225a2.7,2.7,0,0,1-2.79,2.618,2.7,2.7,0,0,1-2.79-2.618v-1A2.213,2.213,0,0,0,0,71.319V88.665a2.208,2.208,0,0,0,2.2,2.21H18.127V83.311a.859.859,0,0,1,.857-.861h7.247V71.319A2.212,2.212,0,0,0,25.213,69.456ZM10.152,86.476H4.272a1.148,1.148,0,0,1,0-2.3h5.879a1.148,1.148,0,0,1,0,2.3Zm4.63-3.894H4.272a1.148,1.148,0,0,1,0-2.3H14.782a1.148,1.148,0,0,1,0,2.3Zm6.282-3.894H4.272a1.148,1.148,0,0,1,0-2.3H21.064a1.148,1.148,0,0,1,0,2.3Z" transform="translate(0 -65.875)" fill="#fff"/><path d="M264.255,16.41a1.22,1.22,0,0,0,1.22-1.22v-3.2a1.22,1.22,0,0,0-2.439,0v3.2A1.22,1.22,0,0,0,264.255,16.41Z" transform="translate(-247.957 -10.773)" fill="#fff"/><path d="M156.873,16.41a1.22,1.22,0,0,0,1.22-1.22v-3.2a1.22,1.22,0,0,0-2.439,0v3.2A1.22,1.22,0,0,0,156.873,16.41Z" transform="translate(-146.731 -10.773)" fill="#fff"/><path d="M49.491,16.41a1.22,1.22,0,0,0,1.22-1.22v-3.2a1.22,1.22,0,1,0-2.439,0v3.2A1.22,1.22,0,0,0,49.491,16.41Z" transform="translate(-45.595 -10.773)" fill="#fff"/><path d="M371.637,16.41a1.22,1.22,0,0,0,1.22-1.22v-3.2a1.22,1.22,0,0,0-2.439,0v3.2A1.22,1.22,0,0,0,371.637,16.41Z" transform="translate(-349.099 -10.773)" fill="#fff"/></g></g></g></svg>