<svg xmlns="http://www.w3.org/2000/svg" width="24.103" height="24.104" viewBox="0 0 24.103 24.104"><path d="M23.661,0H1.442A.941.941,0,0,0,.5.942,9.2,9.2,0,0,0,3.584,7.809l4.124,3.665A3.355,3.355,0,0,1,8.832,13.98v9.182a.942.942,0,0,0,1.464.783l5.555-3.7a.942.942,0,0,0,.419-.783V13.98A3.355,3.355,0,0,1,17.4,11.474l4.123-3.665A9.2,9.2,0,0,0,24.6.942.941.941,0,0,0,23.661,0ZM20.268,6.4l-4.123,3.665a5.24,5.24,0,0,0-1.757,3.913v4.975L10.715,21.4V13.98a5.24,5.24,0,0,0-1.757-3.913L4.835,6.4A7.314,7.314,0,0,1,2.444,1.883H22.659A7.312,7.312,0,0,1,20.268,6.4Zm0,0" transform="translate(-0.5)" fill="#fff"/></svg>