<svg xmlns="http://www.w3.org/2000/svg" width="20" height="20" viewBox="0 0 20 20"><path d="M14.481,0H5.519A5.526,5.526,0,0,0,0,5.519v8.961A5.525,5.525,0,0,0,5.519,20h8.961A5.526,5.526,0,0,0,20,14.481V5.519A5.526,5.526,0,0,0,14.481,0Zm3.745,14.481a3.749,3.749,0,0,1-3.745,3.745H5.519a3.749,3.749,0,0,1-3.745-3.745V5.519A3.749,3.749,0,0,1,5.519,1.774h8.961a3.749,3.749,0,0,1,3.745,3.745v8.961Z" fill="#fff"/><path d="M46.065,40.97a5.1,5.1,0,1,0,5.1,5.1A5.1,5.1,0,0,0,46.065,40.97Zm0,8.438a3.342,3.342,0,1,1,3.342-3.342A3.346,3.346,0,0,1,46.065,49.408Z" transform="translate(-36.065 -36.067)" fill="#fff"/><path d="M120.237,28.251a1.316,1.316,0,1,0,.931.385A1.322,1.322,0,0,0,120.237,28.251Z" transform="translate(-104.877 -24.915)" fill="#fff"/></svg>