<svg xmlns="http://www.w3.org/2000/svg" width="25.066" height="25.068" viewBox="0 0 25.066 25.068"><path d="M25.023,19.423q-.106-.32-1.353-.943-.338-.2-.961-.534t-1.131-.623q-.508-.285-.953-.552-.071-.053-.445-.312a5,5,0,0,0-.632-.383,1.166,1.166,0,0,0-.507-.124,1.478,1.478,0,0,0-.89.507,8.668,8.668,0,0,0-.979,1.1,10.734,10.734,0,0,1-.943,1.1,1.357,1.357,0,0,1-.819.507,1.211,1.211,0,0,1-.4-.089c-.16-.059-.282-.11-.365-.151s-.225-.125-.427-.25-.315-.193-.338-.2a18.709,18.709,0,0,1-4.184-3.1A18.7,18.7,0,0,1,6.6,11.2q-.018-.036-.2-.338t-.249-.427a3.858,3.858,0,0,1-.151-.365,1.2,1.2,0,0,1-.089-.4,1.357,1.357,0,0,1,.507-.819,10.722,10.722,0,0,1,1.1-.943,8.665,8.665,0,0,0,1.1-.979,1.478,1.478,0,0,0,.507-.89A1.163,1.163,0,0,0,9,5.528,4.949,4.949,0,0,0,8.618,4.9q-.258-.374-.312-.445-.267-.445-.552-.952T7.131,2.368q-.338-.623-.534-.961Q5.974.16,5.654.054A1,1,0,0,0,5.28,0,5.865,5.865,0,0,0,4.025.178a7.05,7.05,0,0,0-1.22.374A4.773,4.773,0,0,0,.918,2.724,6.9,6.9,0,0,0,.01,6.035a6.875,6.875,0,0,0,.062.935A7.681,7.681,0,0,0,.295,7.993q.16.57.258.846t.365.988q.267.712.32.872a16.126,16.126,0,0,0,1.478,3.116,26.4,26.4,0,0,0,3.836,4.709,26.41,26.41,0,0,0,4.709,3.837,16.151,16.151,0,0,0,3.116,1.478q.16.053.872.321t.988.365q.276.1.846.258a7.749,7.749,0,0,0,1.024.223,6.6,6.6,0,0,0,4.246-.846,4.77,4.77,0,0,0,2.171-1.888,7.012,7.012,0,0,0,.374-1.219,5.853,5.853,0,0,0,.178-1.255A.993.993,0,0,0,25.023,19.423Z" transform="translate(-0.01)" fill="#fff"/></svg>