<svg xmlns="http://www.w3.org/2000/svg" width="24.948" height="20" viewBox="0 0 24.948 20"><g transform="translate(0 -7.858)"><g transform="translate(0 7.858)"><path d="M7.87,16.922a6.677,6.677,0,0,0-1.8-.256,5.787,5.787,0,0,0-2.257.45c.567-2.023,1.931-5.514,4.646-5.907a.64.64,0,0,0,.526-.452l.593-2.067A.614.614,0,0,0,9.5,8.176.647.647,0,0,0,9.044,7.9a4.626,4.626,0,0,0-.607-.04c-3.259,0-6.487,3.313-7.849,8.058-.8,2.783-1.034,6.968.935,9.6A5.931,5.931,0,0,0,6.3,27.857h.025a5.717,5.717,0,0,0,5.505-4.072,5.408,5.408,0,0,0-.524-4.233A5.712,5.712,0,0,0,7.87,16.922Z" transform="translate(0 -7.858)" fill="#575757"/><path d="M59.935,19.553A5.712,5.712,0,0,0,56.5,16.922a6.677,6.677,0,0,0-1.8-.256,5.788,5.788,0,0,0-2.258.45c.567-2.023,1.931-5.514,4.646-5.907a.64.64,0,0,0,.526-.452L58.2,8.689a.614.614,0,0,0-.082-.514A.646.646,0,0,0,57.67,7.9a4.62,4.62,0,0,0-.607-.04c-3.259,0-6.487,3.313-7.85,8.058-.8,2.783-1.034,6.968.936,9.6a5.931,5.931,0,0,0,4.779,2.339h.026a5.717,5.717,0,0,0,5.505-4.072A5.411,5.411,0,0,0,59.935,19.553Z" transform="translate(-35.724 -7.858)" fill="#575757"/></g></g></svg>