<svg xmlns="http://www.w3.org/2000/svg" width="24.265" height="25" viewBox="0 0 24.265 25"><g transform="translate(-43.13 77.036)"><g transform="translate(-96 -77.036)"><g transform="translate(139.13)"><path d="M157.88,8.824h5.515V1.1a1.1,1.1,0,0,0-1.1-1.1H147.218V8.824h5.515a1.1,1.1,0,1,1,0,2.206h-5.515v3.309a1.1,1.1,0,1,1-2.206,0V0h-4.779a1.1,1.1,0,0,0-1.1,1.1V23.9a1.1,1.1,0,0,0,1.1,1.1h4.779V19.485a1.1,1.1,0,1,1,2.206,0V25h15.074a1.1,1.1,0,0,0,1.1-1.1V11.029H157.88a1.1,1.1,0,1,1,0-2.206Z" transform="translate(-139.13)" fill="#fff"/></g></g></g></svg>