<svg xmlns="http://www.w3.org/2000/svg" width="21.996" height="22" viewBox="0 0 21.996 22"><g transform="translate(0.95 1)" fill="#fff"><path d="M 19.45132827758789 20.5 C 19.16470909118652 20.5 18.88228797912598 20.3819694519043 18.67649841308594 20.17617034912109 L 14.13741683959961 15.63708782196045 C 12.55309963226318 16.87737083435059 10.59664249420166 17.55542945861816 8.577718734741211 17.55542945861816 C 3.599818706512451 17.55542945861816 -0.4500013291835785 13.50562000274658 -0.4500013291835785 8.52772045135498 C -0.4500013291835785 3.549819946289063 3.599818706512451 -0.5 8.577718734741211 -0.5 C 13.55561828613281 -0.5 17.60542869567871 3.549819946289063 17.60542869567871 8.52772045135498 C 17.60542869567871 10.54664421081543 16.9273681640625 12.50309276580811 15.687087059021 14.08740901947021 L 20.22616958618164 18.62649917602539 C 20.65221977233887 19.05253982543945 20.6534481048584 19.74499320983887 20.22979164123535 20.17252922058105 C 20.02768898010254 20.38070297241211 19.74421119689941 20.5 19.45132827758789 20.5 Z M 8.573278427124023 1.69734001159668 C 4.806998729705811 1.69734001159668 1.742908716201782 4.761439800262451 1.742908716201782 8.52772045135498 C 1.742908716201782 12.29644966125488 4.806998729705811 15.36252975463867 8.573278427124023 15.36252975463867 C 12.33955860137939 15.36252975463867 15.40365886688232 12.29644966125488 15.40365886688232 8.52772045135498 C 15.40365886688232 4.761439800262451 12.33955860137939 1.69734001159668 8.573278427124023 1.69734001159668 Z" stroke="none"/><path d="M 19.45132827758789 20 C 19.60210800170898 20 19.7573184967041 19.94235038757324 19.87261772155762 19.8226203918457 C 20.10321807861328 19.59202003479004 20.10321807861328 19.21064949035645 19.87261772155762 18.98004913330078 L 15.01230907440186 14.11972999572754 C 16.31607818603516 12.62084007263184 17.10542869567871 10.66518974304199 17.10542869567871 8.52772045135498 C 17.10542869567871 3.822619915008545 13.2783784866333 0 8.577718734741211 0 C 3.872618675231934 0 0.04999865964055061 3.827049970626831 0.04999865964055061 8.52772045135498 C 0.04999865964055061 13.22838020324707 3.87704873085022 17.05542945861816 8.577718734741211 17.05542945861816 C 10.71518898010254 17.05542945861816 12.67084884643555 16.26608085632324 14.16973876953125 14.96230983734131 L 19.03004837036133 19.8226203918457 C 19.14534950256348 19.93791961669922 19.30055809020996 20 19.45132827758789 20 M 8.573278427124023 1.19734001159668 C 12.6176290512085 1.19734001159668 15.90365886688232 4.487810134887695 15.90365886688232 8.52772045135498 C 15.90365886688232 12.56762981414795 12.6176290512085 15.86252975463867 8.573278427124023 15.86252975463867 C 4.533368587493896 15.86252975463867 1.242908716201782 12.57205963134766 1.242908716201782 8.52772045135498 C 1.242908716201782 4.483369827270508 4.533368587493896 1.19734001159668 8.573278427124023 1.19734001159668 M 19.45132827758789 21 C 19.03308868408203 21 18.6218090057373 20.82859039306641 18.32293891906738 20.52972984313965 L 14.08959102630615 16.29638290405273 C 12.48477172851563 17.43618202209473 10.55966949462891 18.05542945861816 8.577718734741211 18.05542945861816 C 3.324118614196777 18.05542945861816 -0.9500013589859009 13.7813196182251 -0.9500013589859009 8.52772045135498 C -0.9500013589859009 3.274120092391968 3.324118614196777 -1 8.577718734741211 -1 C 13.83131885528564 -1 18.10542869567871 3.274120092391968 18.10542869567871 8.52772045135498 C 18.10542869567871 10.50966262817383 17.48617935180664 12.43476486206055 16.34638023376465 14.03958320617676 L 20.5797290802002 18.27293968200684 C 21.19971656799316 18.89293670654297 21.2019214630127 19.90035629272461 20.58632469177246 20.52309608459473 C 20.29071617126465 20.8263111114502 19.87761688232422 21 19.45132827758789 21 Z M 8.573278427124023 2.19734001159668 C 5.082698822021484 2.19734001159668 2.242908716201782 5.037139892578125 2.242908716201782 8.52772045135498 C 2.242908716201782 12.02075004577637 5.082698822021484 14.86252975463867 8.573278427124023 14.86252975463867 C 12.06385898590088 14.86252975463867 14.90365886688232 12.02075004577637 14.90365886688232 8.52772045135498 C 14.90365886688232 5.037139892578125 12.06385898590088 2.19734001159668 8.573278427124023 2.19734001159668 Z" stroke="none" fill="#fff"/></g></svg>