<svg xmlns="http://www.w3.org/2000/svg" width="20" height="11.411" viewBox="0 0 20 11.411"><path d="M19.894,128.054a1.369,1.369,0,0,0-.068-.13,10.365,10.365,0,0,0-1.989-2.3l-.021-.021-.01-.01-.01-.01h-.011q-.666-.635-.843-.854a.8.8,0,0,1-.146-.844,7.862,7.862,0,0,1,.937-1.364q.427-.552.677-.885,1.8-2.4,1.562-3.061l-.062-.1a.609.609,0,0,0-.323-.172,1.64,1.64,0,0,0-.667-.026l-3,.021a.389.389,0,0,0-.208.005l-.135.031-.052.026-.041.031a.463.463,0,0,0-.115.109.714.714,0,0,0-.1.182,17,17,0,0,1-1.114,2.343q-.385.646-.708,1.119a5.385,5.385,0,0,1-.541.7,3.775,3.775,0,0,1-.4.359q-.177.136-.271.115l-.177-.042a.693.693,0,0,1-.234-.255,1.142,1.142,0,0,1-.12-.406q-.031-.245-.036-.422t.005-.5q.011-.323.01-.437,0-.4.015-.859t.026-.734q.011-.271.01-.573a2.406,2.406,0,0,0-.036-.474,1.621,1.621,0,0,0-.109-.333.561.561,0,0,0-.213-.25,1.2,1.2,0,0,0-.349-.141,6.929,6.929,0,0,0-1.406-.135,6.831,6.831,0,0,0-2.489.25,1.4,1.4,0,0,0-.4.312q-.187.229-.052.25a1.276,1.276,0,0,1,.885.448l.063.125a1.992,1.992,0,0,1,.146.479,4.833,4.833,0,0,1,.094.76,8.106,8.106,0,0,1,0,1.3q-.052.542-.1.843a1.689,1.689,0,0,1-.141.489,2.066,2.066,0,0,1-.125.229.179.179,0,0,1-.052.052.78.78,0,0,1-.281.052.66.66,0,0,1-.354-.146,2.5,2.5,0,0,1-.432-.4,5.358,5.358,0,0,1-.505-.713Q5.6,121.623,5.3,121l-.167-.3q-.156-.291-.427-.849t-.479-1.078a.686.686,0,0,0-.25-.333l-.052-.031a.713.713,0,0,0-.167-.089,1.105,1.105,0,0,0-.24-.068l-2.853.021a.725.725,0,0,0-.594.2l-.042.062A.337.337,0,0,0,0,118.7a.829.829,0,0,0,.063.281q.625,1.468,1.359,2.832t1.276,2.2q.541.833,1.1,1.572t.744.948q.182.209.286.312l.26.25a6.178,6.178,0,0,0,.734.6,12.524,12.524,0,0,0,1.073.688,5.818,5.818,0,0,0,1.369.552,4.735,4.735,0,0,0,1.52.172h1.2a.829.829,0,0,0,.552-.229l.041-.052a.69.69,0,0,0,.078-.192,1.058,1.058,0,0,0,.036-.286,3.431,3.431,0,0,1,.068-.807,2.122,2.122,0,0,1,.177-.541,1.331,1.331,0,0,1,.224-.307.9.9,0,0,1,.177-.151.679.679,0,0,1,.083-.036.661.661,0,0,1,.589.162,3.456,3.456,0,0,1,.635.6q.3.359.713.807a4.9,4.9,0,0,0,.729.666l.208.125a2.535,2.535,0,0,0,.542.229,1.167,1.167,0,0,0,.583.052l2.666-.042a1.208,1.208,0,0,0,.614-.13.516.516,0,0,0,.26-.286.807.807,0,0,0,.005-.354A1.307,1.307,0,0,0,19.894,128.054Z" transform="translate(0 -117.748)" fill="#fff"/></svg>