<svg xmlns="http://www.w3.org/2000/svg" width="718" height="217" viewBox="0 0 718 217"><g transform="translate(-665.788 -1206.703)"><g transform="translate(1019.749 1231.527)"><g transform="translate(0.039 0.176)" fill="none" stroke="#fd0" stroke-width="3"><rect width="125" height="125" stroke="none"/><rect x="1.5" y="1.5" width="122" height="122" fill="none"/></g><g transform="translate(63.039 67.176)" fill="none" stroke="#fd0" stroke-width="3"><circle cx="62.5" cy="62.5" r="62.5" stroke="none"/><circle cx="62.5" cy="62.5" r="61" fill="none"/></g><path d="M0,59.024A62.717,62.717,0,0,1,62.606,0V59.024Z" transform="translate(62.453 66.75)" fill="#fd0"/></g><line x1="129.885" transform="translate(1176.354 1258.584)" fill="none" stroke="#fff" stroke-width="3"/><line x2="109.965" transform="translate(1206.414 1355.973)" fill="none" stroke="#fd0" stroke-width="3"/><path d="M12.69,0,25.38,22.394H0Z" transform="translate(1159.932 1271.274) rotate(-90)" fill="#fff"/><g transform="translate(1332.801 1343.283) rotate(90)" fill="#fd0"><path d="M 24.5217456817627 21.89388465881348 L 0.858031153678894 21.89388465881348 L 12.68988800048828 1.014177441596985 L 24.5217456817627 21.89388465881348 Z" stroke="none"/><path d="M 12.68988800048828 2.028341293334961 L 1.716058731079102 21.39388465881348 L 23.66371726989746 21.39388465881348 L 12.68988800048828 2.028341293334961 M 12.68988800048828 3.814697265625e-06 L 25.3797779083252 22.39388465881348 L -1.9073486328125e-06 22.39388465881348 L 12.68988800048828 3.814697265625e-06 Z" stroke="none" fill="#fd0"/></g><g transform="translate(665.788 1231.703)" fill="none" stroke="#fd0" stroke-width="3"><rect width="195" height="105" stroke="none"/><rect x="1.5" y="1.5" width="192" height="102" fill="none"/></g><g transform="translate(859.649 1245.894)"><path d="M0,.222,103.831.042,128.41,0" transform="translate(0 12.69)" fill="none" stroke="#fd0" stroke-width="3"/><line x2="129.885" transform="translate(160.326 65.073) rotate(180)" fill="none" stroke="#fd0" stroke-width="3"/><path d="M12.69,0,25.38,22.394H0Z" transform="translate(144.832 0) rotate(90)" fill="#fd0"/><g transform="translate(14.018 77.763) rotate(-90)" fill="#fd0"><path d="M 24.52170562744141 21.89388275146484 L 0.8580313920974731 21.89388275146484 L 12.68986892700195 1.014177680015564 L 24.52170562744141 21.89388275146484 Z" stroke="none"/><path d="M 12.68986892700195 2.028341293334961 L 1.716058731079102 21.39388275146484 L 23.6636791229248 21.39388275146484 L 12.68986892700195 2.028341293334961 M 12.68986892700195 3.814697265625e-06 L 25.37973976135254 22.39388275146484 L -1.9073486328125e-06 22.39388275146484 L 12.68986892700195 3.814697265625e-06 Z" stroke="none" fill="#fd0"/></g><path d="M0,.222,103.831.042,128.41,0" transform="translate(0 12.69)" fill="none" stroke="#fd0" stroke-width="3"/></g><text transform="translate(1347.788 1310.703)" fill="#fff" font-size="11" font-family="Roboto-Regular, Roboto" letter-spacing="0.025em"><tspan x="0" y="0">Clients</tspan></text><text transform="translate(1239.788 1379.703)" fill="#fd0" font-size="11" font-family="Roboto-Regular, Roboto" letter-spacing="0.025em"><tspan x="0" y="0">Service</tspan></text><text transform="translate(932.788 1334.703)" fill="#fd0" font-size="11" font-family="Roboto-Regular, Roboto" letter-spacing="0.025em"><tspan x="0" y="0">Stake hlx</tspan></text><text transform="translate(1044.788 1216.703)" fill="#fd0" font-size="11" font-family="Roboto-Regular, Roboto" letter-spacing="0.025em"><tspan x="0" y="0">CatalystNode</tspan></text><text transform="translate(892.788 1241.703)" fill="#fd0" font-size="11" font-family="Roboto-Regular, Roboto" letter-spacing="0.025em"><tspan x="0" y="0">Blockchain</tspan></text><text transform="translate(726.788 1287.703)" fill="#fd0" font-size="11" font-family="Roboto-Regular, Roboto" letter-spacing="0.025em"><tspan x="0" y="0">HelixProtocol</tspan></text><text transform="translate(1192.788 1241.703)" fill="#fff" font-size="11" font-family="Roboto-Regular, Roboto" letter-spacing="0.025em"><tspan x="0" y="0" xml:space="preserve">     Fiat Payments </tspan></text></g></svg>