<svg xmlns="http://www.w3.org/2000/svg" xmlns:xlink="http://www.w3.org/1999/xlink" width="61.977" height="50.571" viewBox="0 0 61.977 50.571"><defs><radialGradient id="a" cx="0.5" cy="0.5" r="0.5" gradientUnits="objectBoundingBox"><stop offset="0"/><stop offset="0.433" stop-color="#8e6042"/><stop offset="1" stop-color="#8e6042"/></radialGradient></defs><g transform="translate(0 0.221)"><g transform="translate(0 -0.221)"><path d="M26.519,242.61a.754.754,0,0,0,.762.762c2.742,0,4.981-2.528,4.981-5.636s-2.239-5.636-4.981-5.636-4.981,2.528-4.981,5.636a.762.762,0,0,0,1.523,0c0-2.269,1.554-4.112,3.458-4.112s3.458,1.843,3.458,4.112-1.554,4.112-3.458,4.112A.764.764,0,0,0,26.519,242.61Z" transform="translate(-18.903 -196.714)" fill="url(#a)"/><path d="M90.711,140.032a.762.762,0,0,0,0-1.523c-1.919,0-3.488-1.858-3.488-4.143s1.569-4.143,3.488-4.143,3.488,1.858,3.488,4.143a.762.762,0,1,0,1.523,0c0-3.122-2.239-5.666-5.011-5.666s-5.011,2.544-5.011,5.666S87.954,140.032,90.711,140.032Z" transform="translate(-72.647 -109.064)" fill="url(#a)"/><path d="M53.6,31.235H50.172l.168-.244a10.346,10.346,0,0,0,1.8-5.925A10.8,10.8,0,0,0,51.345,21a.758.758,0,0,0-1.4.579,9.278,9.278,0,0,1,.35,5.971l-.03.107H35.626a.762.762,0,0,0,0,1.523H49.654l-.122.228a7.753,7.753,0,0,1-1.325,1.782l-.046.046H27.919a7.558,7.558,0,0,0-4.112,1.234l-1.188.762.99-1.005a10.215,10.215,0,0,0,2.833-7.159,11.5,11.5,0,0,0-.076-1.264l-.015-.168h9.261a.762.762,0,0,0,0-1.523H26.03L26,22.005A9.782,9.782,0,0,0,22.938,17.3l-.335-.274H43.745A6.143,6.143,0,0,1,47.9,18.669a.811.811,0,0,0,.548.2.743.743,0,0,0,.518-.259.751.751,0,0,0-.061-1.066A7.714,7.714,0,0,0,43.745,15.5H26.411l-1.005-2.787.076-.076c1.066-.944,3.427-3.458,2.346-6.443C26.107,1.443,21.431.041,20.5-.187A.979.979,0,0,0,19.45.194c-.548.762-3.244,4.844-1.508,9.6.762,2.1,2.924,3.351,5.94,3.427h.107l.822,2.269H18.08c-4.615,0-8.377,4.28-8.377,9.55a10.281,10.281,0,0,0,1.813,5.925l.168.244H8.377a7.452,7.452,0,0,0-3.686.975.778.778,0,0,0-.366.457.766.766,0,0,0,.061.579.778.778,0,0,0,.457.366.766.766,0,0,0,.579-.061,5.978,5.978,0,0,1,2.94-.777c3.777,0,6.854,3.61,6.854,8.042s-3.077,8.042-6.854,8.042-6.854-3.61-6.854-8.042a8.822,8.822,0,0,1,1.386-4.844.761.761,0,1,0-1.279-.822A10.636,10.636,0,0,0,0,40.8c0,5.255,3.747,9.535,8.347,9.55h38.2a.762.762,0,0,0,0-1.523H32.458l.335-.274a10.077,10.077,0,0,0,3.5-7.768,11.126,11.126,0,0,0-.213-2.132l-.03-.183H52.792a.762.762,0,0,0,0-1.523H35.581l-.046-.091a9.426,9.426,0,0,0-2.757-3.838l-.335-.274H53.584c3.777,0,6.854,3.61,6.854,8.042A9.261,9.261,0,0,1,60,43.618l-.03.107H48.649a.762.762,0,1,0,0,1.523H59.3l-.137.228A6.621,6.621,0,0,1,53.6,48.828H50.462a.762.762,0,0,0,0,1.523H53.6c4.615,0,8.377-4.28,8.377-9.565S58.23,31.235,53.6,31.235ZM22.405,4.474a.761.761,0,1,0-1.432.518l2.437,6.717-.244-.03c-2.528-.289-3.458-1.447-3.808-2.376A9.02,9.02,0,0,1,20.41,1.5l.061-.107.107.03a9.025,9.025,0,0,1,5.8,5.3c.335.929.366,2.422-1.386,4.265l-.168.183ZM11.21,25.082c0-4.432,3.077-8.027,6.854-8.042h.046c3.762.015,6.824,3.625,6.824,8.042,0,4.432-3.077,8.042-6.854,8.042S11.21,29.514,11.21,25.082Zm1.706,23.761.335-.274a10.413,10.413,0,0,0,.868-14.714l-.685-.746.868.5a7.436,7.436,0,0,0,3.732,1.021h3.473l-.168.244A10.281,10.281,0,0,0,19.527,40.8a10.077,10.077,0,0,0,3.5,7.768l.335.274ZM34.773,40.8c0,4.432-3.077,8.042-6.854,8.042s-6.854-3.61-6.854-8.042,3.077-8.042,6.854-8.042S34.773,36.368,34.773,40.8Z" transform="translate(0 0.221)" fill="url(#a)"/><path d="M154.394,230.5a.762.762,0,0,0,0,1.523c2.026,0,3.671,1.965,3.671,4.371s-1.645,4.371-3.671,4.371-3.671-1.965-3.671-4.371a.762.762,0,0,0-1.523,0c0,3.244,2.33,5.879,5.194,5.879s5.194-2.635,5.194-5.879S157.257,230.5,154.394,230.5Z" transform="translate(-126.475 -195.358)" fill="url(#a)"/></g><path d="M280.218,145.677a.521.521,0,0,0,.548-.518.543.543,0,0,0-.518-.564.521.521,0,0,0-.548.518A.544.544,0,0,0,280.218,145.677Z" transform="translate(-237.098 -122.759)" fill="url(#a)"/><path d="M259.018,289.977a.521.521,0,0,0,.548-.518.543.543,0,0,0-.518-.564.521.521,0,0,0-.548.518A.544.544,0,0,0,259.018,289.977Z" transform="translate(-219.127 -245.08)" fill="url(#a)"/></g></svg>