<svg xmlns="http://www.w3.org/2000/svg" xmlns:xlink="http://www.w3.org/1999/xlink" width="52.258" height="50.609" viewBox="0 0 52.258 50.609"><defs><radialGradient id="a" cx="0.5" cy="0.5" r="0.5" gradientUnits="objectBoundingBox"><stop offset="0"/><stop offset="0.443" stop-color="#8e6042"/><stop offset="1" stop-color="#8e6042"/></radialGradient></defs><g transform="translate(0.008 -0.034)"><g transform="translate(-0.008 0.034)"><path d="M212.086,210.445a3.076,3.076,0,0,0,.337,4.344l2.111,1.82a1.244,1.244,0,0,0,.811.306h.092a1.287,1.287,0,0,0,.857-.428l1.958-2.279a.77.77,0,0,0-1.162-1.01l-1.774,2.065-1.912-1.637a1.574,1.574,0,0,1-.535-1.055,1.538,1.538,0,0,1,.367-1.132l3.885-4.512a1.564,1.564,0,0,1,2.187-.168l1.912,1.637-1.881,2.187a.77.77,0,0,0,1.163,1.01l2.05-2.386a1.274,1.274,0,0,0-.138-1.774l-2.1-1.835a3.079,3.079,0,0,0-4.344.337Z" transform="translate(-179.015 -173.526)" fill="url(#a)"/><path d="M51.479,35.591,35.51,21.871a1.4,1.4,0,0,0-1.055-.306,1.173,1.173,0,0,0-.826.535l-.122.2L22.784,13.106l-1.468-1.254a.77.77,0,1,0-1.01,1.162l1.468,1.254L32.68,23.63l-2.723,4.359a1.144,1.144,0,0,0,.184,1.5l1.162.994-3.763,6.9-1.071-.964.076-2.248a1.3,1.3,0,0,0-.337-.933,1.245,1.245,0,0,0-.887-.413l-2.356-.092.092-2.356a1.274,1.274,0,0,0-1.239-1.331l-2.509-.092L19.4,26.6a1.268,1.268,0,0,0-.337-.918,1.308,1.308,0,0,0-.887-.413l-2.356-.092.092-2.371a1.3,1.3,0,0,0-1.239-1.331l-2.432-.092.092-2.356A1.274,1.274,0,0,0,11.1,17.7L8.742,17.6l.092-2.356A1.268,1.268,0,0,0,8.5,14.33a1.308,1.308,0,0,0-.887-.413l-2.57-.061L5.132,11.5a1.282,1.282,0,0,0-1.224-1.346l-2.356-.092L1.63,7.952,7.167,1.7l10.4,8.933a.77.77,0,0,0,1.01-1.162L7.916.35A1.193,1.193,0,0,0,6.249.4L.421,6.973l-.015.015-.031.046a1,1,0,0,0-.291.8l-.092,2.432a1.268,1.268,0,0,0,.337.918,1.308,1.308,0,0,0,.887.413l2.356.092L3.48,14.039a1.232,1.232,0,0,0,.337.9,1.414,1.414,0,0,0,.979.428l2.432.092-.092,2.356a1.268,1.268,0,0,0,.337.918,1.313,1.313,0,0,0,.9.413l2.356.092L10.669,21.6a1.274,1.274,0,0,0,1.239,1.331l2.432.092-.092,2.356a1.277,1.277,0,0,0,.352.933,1.245,1.245,0,0,0,.887.413l2.356.092-.092,2.356a1.235,1.235,0,0,0,.382.948,1.431,1.431,0,0,0,.933.382l2.432.092-.092,2.356a1.274,1.274,0,0,0,1.239,1.331L25,34.368,24.925,36.6a.942.942,0,0,0,.382.841l1.484,1.315-.26.474a1.31,1.31,0,0,0,.229,1.667h0c1.973,1.7,3.717,3.2,5.476,4.7,1.744,1.5,3.487,3,5.461,4.7h0a1.039,1.039,0,0,0,.75.352.96.96,0,0,0,.291-.046,1,1,0,0,0,.627-.933l.5-4.711c0-.046.015-.107.015-.153.015-.015.015-.031.031-.046l5.2-6.072.031-.031a.875.875,0,0,1,.107-.122c.061-.015.138-.015.214-.031l5.491-.566c.673-.076,1.086-.337,1.239-.8.245-.719-.444-1.315-.719-1.545Zm-6.164,1.423a1.559,1.559,0,0,0-1.331.673l-5.216,6.088a1.553,1.553,0,0,0-.413,1.025l-.4,3.686c-1.667-1.438-3.2-2.738-4.726-4.053-1.7-1.468-3.411-2.922-5.308-4.558l.489-.9c0-.015.015-.015.015-.031l4.237-7.755a1.23,1.23,0,0,0,.245-.857,1.276,1.276,0,0,0-.444-.872l-1.055-.9,2.906-4.635c.015-.015.031-.046.046-.061l.382-.612L50.194,36.509Z" transform="translate(0.008 -0.034)" fill="url(#a)"/></g><path d="M232.62,185.882a.523.523,0,0,0,.551-.52.545.545,0,0,0-.52-.566.514.514,0,0,0-.551.52A.537.537,0,0,0,232.62,185.882Z" transform="translate(-196.605 -156.501)" fill="url(#a)"/></g></svg>