<svg xmlns="http://www.w3.org/2000/svg" xmlns:xlink="http://www.w3.org/1999/xlink" width="50.711" height="50.682" viewBox="0 0 50.711 50.682"><defs><radialGradient id="a" cx="0.5" cy="0.5" r="0.5" gradientUnits="objectBoundingBox"><stop offset="0" stop-color="#8e6042"/><stop offset="0.443" stop-color="#745b4a"/><stop offset="1" stop-color="#545454"/></radialGradient></defs><g transform="translate(0 -0.001)"><g transform="translate(0 0.001)"><path d="M50.228,1.583l-.47-.626A2.414,2.414,0,0,0,46.406.471L39.39,5.733a.653.653,0,0,0-.266.454.68.68,0,0,0,.125.517l.846,1.128L38.2,9.257a2.791,2.791,0,0,0-1.112,2.381l.078,1.535a1.4,1.4,0,0,1-.564,1.206l-1.9,1.425-3.931-5.247a1.824,1.824,0,0,0-1.6-.736,1.705,1.705,0,0,0-1.394.908L20.752,23.807H.689A.7.7,0,0,0,0,24.5V33a.7.7,0,0,0,.689.689H6.8V40.8H.689A.7.7,0,0,0,0,41.489v8.5a.7.7,0,0,0,.689.689H41.5a.7.7,0,0,0,.689-.689V42.179H48.3a.7.7,0,0,0,.689-.689v-8.5A.7.7,0,0,0,48.3,32.3H42.193V24.481a.7.7,0,0,0-.689-.689H39.75L39.8,23.6a1.825,1.825,0,0,0-.313-1.472l-3.931-5.247,1.9-1.425a2.791,2.791,0,0,0,1.112-2.381l-.078-1.535a1.4,1.4,0,0,1,.564-1.206l1.9-1.425.846,1.128a.653.653,0,0,0,.454.266h.094a.721.721,0,0,0,.423-.141L49.774,4.9A2.363,2.363,0,0,0,50.228,1.583ZM14.988,25.2H20l-.392.72a1.816,1.816,0,0,0,.157,1.942h0a1.792,1.792,0,0,0,1.817.7l5.607-1.19v4.934H14.973V25.2Zm19.029,8.5v7.111H21.8V33.705Zm-13.61,0v7.111H8.191V33.705ZM1.394,32.312V28.6H3.258a.689.689,0,1,0,0-1.378H1.394V25.2H13.61v7.111H1.394ZM13.61,49.32H1.394V42.21H13.61Zm13.595,0H14.988V42.21H27.2Zm13.61,0H28.6V42.21H40.815Zm6.8-15.615v7.111H35.4V33.705Zm-6.8-8.5v7.111H28.6V27.08L37.463,25.2Zm-2.443-2.208a.384.384,0,0,1,.063.407.324.324,0,0,1-.266.219L21.3,27.206h-.078a.419.419,0,0,1-.36-.188.431.431,0,0,1-.047-.454l8.16-15.192a.351.351,0,0,1,.3-.188h.016a.437.437,0,0,1,.36.188l3.931,5.247-3.634,2.725a.683.683,0,0,0-.141.971.7.7,0,0,0,.971.141l3.634-2.725Zm10.54-19.17-6.468,4.84-1.676-2.24,6.468-4.84h0a1,1,0,0,1,1.41.2l.47.626A1,1,0,0,1,48.912,3.823Z" transform="translate(0 -0.001)" fill="url(#a)"/></g><path d="M42.133,175.408a.535.535,0,0,0,.564-.533.558.558,0,0,0-.533-.579.527.527,0,0,0-.564.533A.57.57,0,0,0,42.133,175.408Z" transform="translate(-35.085 -146.996)" fill="url(#a)"/></g></svg>