<svg xmlns="http://www.w3.org/2000/svg" xmlns:xlink="http://www.w3.org/1999/xlink" width="29.857" height="29.829" viewBox="0 0 29.857 29.829"><defs><radialGradient id="a" cx="0.5" cy="0.5" r="0.5" gradientUnits="objectBoundingBox"><stop offset="0"/><stop offset="0.468" stop-color="#422d1f"/><stop offset="1" stop-color="#8e6042"/></radialGradient></defs><path d="M29.349,0H18.727a.516.516,0,0,0-.516.516V3.133a.516.516,0,0,0,.516.516h1v4.2H9.626a.516.516,0,0,0-.516.516v2.617a.516.516,0,0,0,.516.516h1v4.2H7.072a.516.516,0,0,0-.516.516.522.522,0,0,0,.516.516h3.55v1.585H1.041V16.735h2.1a.516.516,0,0,0,.516-.516.522.522,0,0,0-.516-.516H.516A.516.516,0,0,0,0,16.219v2.617a.516.516,0,0,0,.516.516H1.3v9.961a.516.516,0,0,0,.516.516H29.34a.516.516,0,0,0,.516-.516V.516A.508.508,0,0,0,29.349,0ZM10.142,10.486V8.9h9.581v1.585ZM28.824,28.824H2.345V19.379h8.793a.516.516,0,0,0,.516-.516V11.519h8.585A.516.516,0,0,0,20.755,11V6.285h2.028a.516.516,0,0,0,.516-.516.522.522,0,0,0-.516-.516H20.755V3.658h8.069Zm0-26.207H19.243V1.041h9.581Z" fill="url(#a)"/><path d="M52.84,175.93a.352.352,0,0,0,.371-.353.364.364,0,0,0-.344-.38.367.367,0,0,0-.027.734Z" transform="translate(-47.742 -159.331)" fill="url(#a)"/><path d="M266.144,59.73a.352.352,0,0,0,.371-.353.364.364,0,0,0-.344-.38.352.352,0,0,0-.371.353A.364.364,0,0,0,266.144,59.73Z" transform="translate(-241.73 -53.653)" fill="url(#a)"/></svg>