<svg xmlns="http://www.w3.org/2000/svg" xmlns:xlink="http://www.w3.org/1999/xlink" width="30" height="30" viewBox="0 0 30 30"><defs><radialGradient id="a" cx="0.5" cy="0.5" r="0.5" gradientUnits="objectBoundingBox"><stop offset="0"/><stop offset="0.493" stop-color="#462f21"/><stop offset="1" stop-color="#8e6042"/></radialGradient></defs><g transform="translate(5.964)"><path d="M88.827,2.616a.515.515,0,0,0,.509-.509V.509A.509.509,0,0,0,88.827,0H65.809A.515.515,0,0,0,65.3.509V23.527a.515.515,0,0,0,.509.509H88.827a.515.515,0,0,0,.509-.509V3.8a.509.509,0,0,0-.509-.509.515.515,0,0,0-.509.509v8.714H86.3a.515.515,0,0,0-.509.509.509.509,0,0,0,.509.509h2.018v9.482H73.782V20.554a.509.509,0,0,0-1.018,0v2.464H66.318v-22h6.455V16.893a.509.509,0,1,0,1.018,0V13.536h9.054a.515.515,0,0,0,.509-.509.509.509,0,0,0-.509-.509H73.782V1.018H88.318V2.107A.509.509,0,0,0,88.827,2.616Z" transform="translate(-65.3)" fill="url(#a)"/></g><g transform="translate(0.006)"><path d="M4.351,2.938,2.673.241a.5.5,0,0,0-.857,0L.137,2.938a.512.512,0,0,0-.009.518.507.507,0,0,0,.446.259h1.17V5.839a.509.509,0,0,0,1.018,0V3.714h1.17a.507.507,0,0,0,.446-.259A.534.534,0,0,0,4.351,2.938ZM1.485,2.7l.759-1.223L3,2.7Z" transform="translate(-0.062 0)" fill="url(#a)"/></g><g transform="translate(0 6.768)"><path d="M4.311,88.893a.507.507,0,0,0-.446-.259H2.695V75.509a.509.509,0,1,0-1.018,0V88.634H.507a.507.507,0,0,0-.446.259.534.534,0,0,0,.009.518l1.679,2.7a.5.5,0,0,0,.429.241.491.491,0,0,0,.429-.241l1.679-2.7A.494.494,0,0,0,4.311,88.893ZM2.186,90.866l-.759-1.223H2.945Z" transform="translate(0.002 -75)" fill="url(#a)"/></g><g transform="translate(5.964 25.63)"><path d="M89.095,287.315l-2.7-1.679a.512.512,0,0,0-.518-.009.507.507,0,0,0-.259.446v1.17H69.014v-1.17a.507.507,0,0,0-.259-.446.534.534,0,0,0-.518.009l-2.7,1.679a.5.5,0,0,0-.241.429.491.491,0,0,0,.241.429l2.7,1.679a.507.507,0,0,0,.518.018.507.507,0,0,0,.259-.446v-1.17H85.622v1.17a.507.507,0,0,0,.259.446.507.507,0,0,0,.518-.018l2.7-1.679a.5.5,0,0,0,.241-.429A.491.491,0,0,0,89.095,287.315ZM68,288.5l-1.223-.759L68,286.985Zm18.643,0v-1.527l1.223.768Z" transform="translate(-65.3 -285.562)" fill="url(#a)"/></g><path d="M132.435,235.319a.347.347,0,0,0,.366-.348.359.359,0,0,0-.339-.375.362.362,0,0,0-.027.723Z" transform="translate(-120.247 -213.554)" fill="url(#a)"/><path d="M307.735,120.819a.347.347,0,0,0,.366-.348.359.359,0,0,0-.339-.375.362.362,0,0,0-.027.723Z" transform="translate(-279.816 -109.324)" fill="url(#a)"/></svg>