<svg xmlns="http://www.w3.org/2000/svg" xmlns:xlink="http://www.w3.org/1999/xlink" width="37.933" height="30" viewBox="0 0 37.933 30"><defs><radialGradient id="a" cx="0.5" cy="0.5" r="0.5" gradientUnits="objectBoundingBox"><stop offset="0" stop-color="#8e6042"/><stop offset="0.458" stop-color="#735b4a"/><stop offset="1" stop-color="#545454"/></radialGradient></defs><path d="M36.191,14.287a9.449,9.449,0,0,0-4.3-.857H12.554l-.027-.144a3.771,3.771,0,0,0-.857-1.742L8.935,8.52A3.829,3.829,0,0,0,6.327,7.3l-.487-.036a1.754,1.754,0,0,0-.677.09l-.235.081V5.578a1.741,1.741,0,0,0-.56-1.291L4.242,4.17l.108-.126a2.459,2.459,0,1,0-3.782,0l.108.126-.126.117A1.8,1.8,0,0,0,0,5.578V29.431A.566.566,0,0,0,.569,30H3.15a.569.569,0,0,0,.569-.514c.09-.93.6-3.592,1.877-4.8l.054-.045H7.726a.569.569,0,1,0,0-1.137H1.146v-6.94H11.48v2.13A1.914,1.914,0,0,0,13.394,20.6H36.011a1.831,1.831,0,0,0,.542-.081l.235-.072V23.5H14.305a.569.569,0,1,0,0,1.137H32.283l.054.045c1.273,1.2,1.787,3.872,1.877,4.8a.569.569,0,0,0,.569.514h2.581a.566.566,0,0,0,.569-.569V17.1A3.221,3.221,0,0,0,36.191,14.287ZM1.137,24.639H4.143l-.171.271a11.192,11.192,0,0,0-1.3,3.8l-.027.153H1.137Zm2.653-9.206H1.137V5.578a.647.647,0,0,1,.65-.65H3.141a.647.647,0,0,1,.65.65ZM2.464,3.791A1.327,1.327,0,1,1,3.791,2.464,1.329,1.329,0,0,1,2.464,3.791ZM4.928,15.433V12.509l2.626,2.924Zm6.534-1.074-.009.072a.984.984,0,0,1-.316.794.89.89,0,0,1-.6.19H10.28A2.7,2.7,0,0,1,8.3,14.558L5.578,11.534a2.708,2.708,0,0,1-.65-1.922V9.468A1.054,1.054,0,0,1,5.217,8.6a1.059,1.059,0,0,1,.894-.19c.045,0,.09.009.144.009A2.643,2.643,0,0,1,8.1,9.269l2.726,3.023A2.821,2.821,0,0,1,11.462,14.359ZM36.769,28.872H35.253l-.027-.153a11.394,11.394,0,0,0-1.3-3.8l-.171-.271H36.76v4.224Zm0-10.171a.774.774,0,0,1-.776.767H13.375a.782.782,0,0,1-.776-.776V14.567H31.9a8.328,8.328,0,0,1,3.773.731A2.007,2.007,0,0,1,36.76,17.1Z" fill="url(#a)"/><path d="M118.555,263.567a.466.466,0,0,0,.491-.467.482.482,0,0,0-.455-.5.466.466,0,0,0-.491.467A.49.49,0,0,0,118.555,263.567Z" transform="translate(-107.508 -239.09)" fill="url(#a)"/></svg>