<svg xmlns="http://www.w3.org/2000/svg" xmlns:xlink="http://www.w3.org/1999/xlink" width="32.265" height="30" viewBox="0 0 32.265 30"><defs><radialGradient id="a" cx="0.5" cy="0.5" r="0.5" gradientTransform="translate(1 5.239) rotate(180) scale(1 9.479)" gradientUnits="objectBoundingBox"><stop offset="0"/><stop offset="0.493" stop-color="#8e6042"/><stop offset="1" stop-color="#8e6042"/></radialGradient></defs><g transform="translate(0 -17.749)"><path d="M326.677,17.749a5.4,5.4,0,0,0-4.109,1.9,4.731,4.731,0,0,0-6.173,1.382c-.384.54-1.122,1.37-.323,1.939l7.1,5.049c.79.562,1.341-.4,1.726-.941a4.731,4.731,0,0,0-.9-6.439,3.669,3.669,0,0,1,6.355,2.5v4.679a.862.862,0,0,0,1.722,0V23.142A5.4,5.4,0,0,0,326.677,17.749Zm-3.186,8.332-.026.036-5.693-4.051.026-.036a2.989,2.989,0,0,1,1.951-1.223,4.122,4.122,0,0,1,4.257,3.029A2.99,2.99,0,0,1,323.491,26.081Z" transform="translate(-299.804)" fill="url(#a)"/><path d="M.638,209.951c-.352,0-.638.386-.638.861V219.6a9.617,9.617,0,0,0,1.161,4.651,5.735,5.735,0,0,0,3.621,2.934l-.319,1.073c-.689,2.314,1.632,4.189,2.826,2.325l2.112-3.3H23.074l2.112,3.3c1.192,1.861,3.516-.006,2.826-2.325l-.334-1.121a5.816,5.816,0,0,0,3.425-2.886,9.618,9.618,0,0,0,1.161-4.651V208c0-1.106-1.276-1.107-1.276,0v1.951H.638Zm30.351,5.017H12.317v-3.3H30.989Zm-19.948-3.3v9.056H6.309v-9.056Zm-6.008,0v3.3H1.276v-3.3Zm1.29,17.785c-.279.435-.845.009-.676-.556l.48-1.613H7.714Zm20.465-.051a.349.349,0,0,1-.636.051l-1.39-2.17h1.587l.48,1.613A.7.7,0,0,1,26.789,229.407Zm3.3-6.2a4.185,4.185,0,0,1-3.519,2.355H5.7a4.185,4.185,0,0,1-3.519-2.355,7.463,7.463,0,0,1-.9-3.609v-2.911H5.033v4.9c0,.476.286.861.638.861h6.008c.352,0,.638-.386.638-.861v-4.9H30.989V219.6a7.463,7.463,0,0,1-.9,3.609Z" transform="translate(0 -183.595)" fill="url(#a)"/><path d="M486.167,167.332a.861.861,0,1,0-.522-.922A.869.869,0,0,0,486.167,167.332Z" transform="translate(-455.092 -138.634)" fill="url(#a)"/></g></svg>