<svg xmlns="http://www.w3.org/2000/svg" xmlns:xlink="http://www.w3.org/1999/xlink" width="36.737" height="30" viewBox="0 0 36.737 30"><defs><radialGradient id="a" cx="0.5" cy="0.5" r="0.5" gradientUnits="objectBoundingBox"><stop offset="0"/><stop offset="0.443" stop-color="#3f2b1d"/><stop offset="1" stop-color="#8e6042"/></radialGradient></defs><path d="M31.717,18.5H29.862a6.2,6.2,0,0,0,1.079-3.549,6.4,6.4,0,0,0-.473-2.434.54.54,0,0,0-1,.41,5.348,5.348,0,0,1,.392,2.024,5.183,5.183,0,0,1-.2,1.445H21.1a.535.535,0,0,0,0,1.07h8.132a4.166,4.166,0,0,1-.767,1.025H16.549a4.514,4.514,0,0,0-2.47.74,6.087,6.087,0,0,0,1.7-4.289,7.062,7.062,0,0,0-.045-.758h5.368a.535.535,0,0,0,0-1.07H15.515a5.758,5.758,0,0,0-1.837-2.818H25.9a3.521,3.521,0,0,1,2.39.954.537.537,0,1,0,.713-.8,4.6,4.6,0,0,0-3.112-1.222H15.738L15.185,7.7c1.159-1.025,1.935-2.452,1.409-3.9A6.423,6.423,0,0,0,12.216-.024.672.672,0,0,0,11.5.235a6.4,6.4,0,0,0-.9,5.742c.526,1.445,2.033,2.042,3.585,2.087l.419,1.159H10.771c-2.773,0-5.029,2.568-5.029,5.725A6.234,6.234,0,0,0,6.821,18.5H5.02a4.441,4.441,0,0,0-2.211.589.537.537,0,1,0,.526.936,3.461,3.461,0,0,1,1.694-.446c2.185,0,3.95,2.087,3.95,4.655S7.2,28.884,5.029,28.884,1.079,26.8,1.079,24.23a5.164,5.164,0,0,1,.8-2.809.535.535,0,0,0-.9-.58A6.2,6.2,0,0,0,0,24.23c0,3.157,2.247,5.716,5.02,5.725H27.553a.535.535,0,1,0,0-1.07H19.492a6.014,6.014,0,0,0,2.1-4.655,6.649,6.649,0,0,0-.125-1.275h9.764a.535.535,0,0,0,0-1.07H21.142a5.611,5.611,0,0,0-1.659-2.3H31.708c2.176,0,3.95,2.087,3.95,4.655a5.184,5.184,0,0,1-.259,1.641H28.8a.535.535,0,0,0,0,1.07h6.117a3.822,3.822,0,0,1-3.21,1.935H29.853a.535.535,0,1,0,0,1.07h1.855c2.773,0,5.029-2.568,5.029-5.725S34.49,18.5,31.717,18.5ZM11.6,5.62A5.227,5.227,0,0,1,12.216,1.1a5.246,5.246,0,0,1,3.371,3.076,2.453,2.453,0,0,1-.8,2.425L13.393,2.776a.536.536,0,0,0-1.008.366l1.391,3.825A2.463,2.463,0,0,1,11.6,5.62ZM10.745,10.3h.027c2.176.009,3.932,2.1,3.932,4.655s-1.774,4.655-3.95,4.655S6.8,17.524,6.8,14.956,8.569,10.3,10.745,10.3ZM10.058,24.23A6.119,6.119,0,0,0,8.48,20.065a4.475,4.475,0,0,0,2.247.615H12.6A6.213,6.213,0,0,0,11.52,24.23a6.014,6.014,0,0,0,2.1,4.655H7.963a6.014,6.014,0,0,0,2.1-4.655Zm10.45,0c0,2.568-1.774,4.655-3.95,4.655s-3.95-2.087-3.95-4.655,1.774-4.655,3.95-4.655S20.508,21.661,20.508,24.23Z" transform="translate(0 0.046)" fill="url(#a)"/><path d="M274.33,291.507a.342.342,0,0,0,.36-.342.353.353,0,0,0-.334-.369.356.356,0,0,0-.026.711Z" transform="translate(-249.557 -264.8)" fill="url(#a)"/><path d="M278.53,151.707a.341.341,0,0,0,.36-.342.353.353,0,0,0-.334-.369.342.342,0,0,0-.36.342A.348.348,0,0,0,278.53,151.707Z" transform="translate(-253.382 -137.523)" fill="url(#a)"/></svg>