<svg xmlns="http://www.w3.org/2000/svg" xmlns:xlink="http://www.w3.org/1999/xlink" width="32.15" height="30" viewBox="0 0 32.15 30"><defs><radialGradient id="a" cx="0.5" cy="0.5" r="0.5" gradientUnits="objectBoundingBox"><stop offset="0"/><stop offset="0.448" stop-color="#402b1e"/><stop offset="1" stop-color="#8e6042"/></radialGradient></defs><path d="M28.39,202.5H3.742c-2.1,0-3.742,2.638-3.742,6s1.646,6,3.751,6H28.4c2.1,0,3.751-2.638,3.751-6S30.495,202.5,28.39,202.5ZM3.751,213.409c-1.448,0-2.681-2.244-2.681-4.909s1.223-4.909,2.681-4.909,2.681,2.244,2.681,4.909S5.2,213.409,3.751,213.409ZM30.6,205.761a7.355,7.355,0,0,1,.45,2.2H28.39a.55.55,0,0,0,0,1.1h2.663a7.96,7.96,0,0,1-.45,2.2.151.151,0,0,0-.063-.009H14.465a.55.55,0,0,0,0,1.1H30.054a2.11,2.11,0,0,1-1.664,1.09H5.937a.407.407,0,0,0,.072-.1,2.975,2.975,0,0,0,.207-.266c.036-.055.072-.1.108-.156l.189-.3a1.49,1.49,0,0,0,.09-.165,3.154,3.154,0,0,0,.189-.394c.018-.037.036-.073.054-.119.072-.174.144-.366.207-.559.018-.046.027-.1.045-.147.045-.147.09-.293.126-.449a1.905,1.905,0,0,0,.045-.22c.027-.137.054-.275.081-.421.009-.082.027-.156.036-.238.018-.147.036-.3.054-.458a1.81,1.81,0,0,0,.018-.22c0-.046.009-.1.009-.147h2.7a.55.55,0,0,0,0-1.1h-2.7c0-.055-.009-.1-.009-.147-.009-.073-.009-.147-.018-.22-.018-.156-.027-.311-.054-.458-.009-.082-.027-.156-.036-.238-.027-.147-.054-.284-.081-.421a1.906,1.906,0,0,1-.045-.22c-.036-.156-.081-.3-.126-.449,0-.009-.009-.018-.009-.027h8.969a.55.55,0,0,0,0-1.1H6.666a.81.81,0,0,0-.054-.092c-.027-.055-.063-.11-.09-.165l-.189-.3c-.036-.055-.072-.11-.108-.156-.072-.092-.135-.183-.207-.266a.959.959,0,0,1-.072-.1H28.408a2.124,2.124,0,0,1,1.664,1.09H26.807a.55.55,0,0,0,0,1.1h3.751C30.558,205.77,30.576,205.761,30.6,205.761Z" transform="translate(0 -184.499)" fill="url(#a)"/><path d="M25.714,227.577a.542.542,0,1,0-.55-.934c-.568.33-1.365,1.7-1.365,3.728s.8,3.4,1.365,3.728a.518.518,0,0,0,.256.073.554.554,0,0,0,.458-.256.563.563,0,0,0-.156-.751,4.04,4.04,0,0,1-.824-2.794A4.089,4.089,0,0,1,25.714,227.577Z" transform="translate(-21.62 -206.361)" fill="url(#a)"/><path d="M99.119,297.8H95.85a.55.55,0,0,0,0,1.1h3.27a.55.55,0,0,0,0-1.1Z" transform="translate(-86.751 -271.07)" fill="url(#a)"/><path d="M134.819,262h-3.27a.55.55,0,1,0,0,1.1h3.27a.55.55,0,1,0,0-1.1Z" transform="translate(-119.249 -238.448)" fill="url(#a)"/><path d="M199.778,262H191.05a.55.55,0,1,0,0,1.1h8.729a.55.55,0,1,0,0-1.1Z" transform="translate(-173.497 -238.448)" fill="url(#a)"/><path d="M197.05,227.3h1.09a.55.55,0,1,0,0-1.1h-1.09a.551.551,0,0,0-.55.55A.545.545,0,0,0,197.05,227.3Z" transform="translate(-178.847 -205.866)" fill="url(#a)"/><path d="M232.84,227.3h3.279a.55.55,0,1,0,0-1.1h-3.27a.551.551,0,0,0-.55.55A.538.538,0,0,0,232.84,227.3Z" transform="translate(-211.462 -205.866)" fill="url(#a)"/><path d="M27.319,0H21.427a.546.546,0,0,0-.54.55v.687L.378,7.657A.549.549,0,0,0,0,8.179v4.387a.286.286,0,0,0,.027.119.354.354,0,0,0,.027.092.513.513,0,0,0,.045.073.7.7,0,0,0,.072.1l.009.009,1.214,1.09a.528.528,0,0,0,.711,0l.855-.769.855.769a.528.528,0,0,0,.711,0l.855-.769.855.769a.528.528,0,0,0,.711,0l.855-.769.855.769a.528.528,0,0,0,.711,0l.855-.769.855.769a.528.528,0,0,0,.711,0l.855-.769.855.769a.528.528,0,0,0,.711,0l.855-.769.855.769a.528.528,0,0,0,.711,0l.855-.769.855.769a.528.528,0,0,0,.711,0l.855-.769.855.769a.528.528,0,0,0,.711,0l.864-.769.864.769a.789.789,0,0,0,.09.055c.027.018.045.027.072.046a.476.476,0,0,0,.2.037h6.962a1.623,1.623,0,0,0,1.61-1.64V4.909A4.84,4.84,0,0,0,27.319,0ZM23.037,12.429l-.324-.293a.528.528,0,0,0-.711,0l-.864.769-.855-.769a.528.528,0,0,0-.711,0l-.855.769-.855-.769a.528.528,0,0,0-.711,0l-.855.769-.855-.769a.528.528,0,0,0-.711,0l-.855.769-.855-.769a.528.528,0,0,0-.711,0l-.855.769-.855-.769a.528.528,0,0,0-.711,0l-.855.769-.855-.769a.528.528,0,0,0-.711,0l-.855.769-.855-.769a.528.528,0,0,0-.711,0l-.855.769-.864-.769a.528.528,0,0,0-.711,0l-.855.769L1.1,12.3V8.582l19.826-6.21V6a.518.518,0,0,0,.09.3l2.051,3.133v3Zm8.033.119a.546.546,0,0,1-.54.55H24.108V9.278a.518.518,0,0,0-.09-.3L21.967,5.844V1.09h5.361a3.789,3.789,0,0,1,3.751,3.819v7.639Z" fill="url(#a)"/><path d="M281.989,23.8H280.35a.551.551,0,0,0-.55.55v8.729a.551.551,0,0,0,.55.55h3.819a.551.551,0,0,0,.55-.55V26.53A2.73,2.73,0,0,0,281.989,23.8Zm1.64,8.729H280.9V24.89h1.09a1.638,1.638,0,0,1,1.64,1.64Z" transform="translate(-254.758 -21.62)" fill="url(#a)"/></svg>