<svg xmlns="http://www.w3.org/2000/svg" xmlns:xlink="http://www.w3.org/1999/xlink" width="30" height="30" viewBox="0 0 30 30"><defs><radialGradient id="a" cx="0.5" cy="0.5" r="0.5" gradientUnits="objectBoundingBox"><stop offset="0"/><stop offset="0.414" stop-color="#3b281b"/><stop offset="1" stop-color="#8e6042"/></radialGradient></defs><path d="M116.531,103.431a4.065,4.065,0,1,0,0-8.131h-6.1a.674.674,0,0,0-.676.676v6.1h-.676a.676.676,0,1,0,0,1.352h.676v2.714h-.676a.676.676,0,1,0,0,1.352h.676v3.39a.676.676,0,1,0,1.352,0V107.5h4.741a.676.676,0,1,0,0-1.352h-4.752v-2.714ZM111.1,96.652h5.427a2.714,2.714,0,1,1,0,5.427H111.1Z" transform="translate(-99.494 -87.928)" fill="url(#a)"/><path d="M15,30A15.27,15.27,0,0,0,30,15,15.27,15.27,0,0,0,15,0,15.27,15.27,0,0,0,0,15,15.27,15.27,0,0,0,15,30ZM15,1.168A14.193,14.193,0,0,1,28.832,15,14.193,14.193,0,0,1,15,28.832,14.2,14.2,0,0,1,1.168,15,14.2,14.2,0,0,1,15,1.168Z" fill="url(#a)"/><path d="M50.035,63.745A11.192,11.192,0,0,0,60.969,52.84a11.239,11.239,0,0,0-8.584-10.624.557.557,0,1,0-.265,1.083,10.108,10.108,0,0,1,7.72,9.541,9.81,9.81,0,0,1-19.621,0A10.108,10.108,0,0,1,47.94,43.3a.557.557,0,1,0-.265-1.083A11.243,11.243,0,0,0,39.1,52.84,11.2,11.2,0,0,0,50.035,63.745Z" transform="translate(-35.035 -37.811)" fill="url(#a)"/><path d="M163.291,41.438a.4.4,0,0,0,.426-.405.418.418,0,0,0-.4-.437A.4.4,0,0,0,162.9,41,.411.411,0,0,0,163.291,41.438Z" transform="translate(-148.32 -36.375)" fill="url(#a)"/></svg>