<svg xmlns="http://www.w3.org/2000/svg" xmlns:xlink="http://www.w3.org/1999/xlink" width="42" height="30" viewBox="0 0 42 30"><defs><clipPath id="a"><rect width="42" height="30" transform="translate(1248.537 1261)" fill="#fff" stroke="#707070" stroke-width="1"/></clipPath><radialGradient id="b" cx="0.5" cy="0.5" r="0.5" gradientUnits="objectBoundingBox"><stop offset="0" stop-color="#8e6042"/><stop offset="0.409" stop-color="#8e6042"/><stop offset="1" stop-color="#545454"/></radialGradient></defs><g transform="translate(-1248.537 -1261)" clip-path="url(#a)"><g transform="matrix(0.695, 0.719, -0.719, 0.695, 1267.707, 1252.614)"><g transform="translate(3.469)"><g transform="translate(0)"><path d="M30.679,2.384A8.139,8.139,0,0,0,18.063,12.517L3.982,26.6A1.755,1.755,0,1,0,6.465,29.08l1.513-1.513L9.9,29.486A1.755,1.755,0,0,0,12.378,27l-1.016-1.016,1.128-1.128,1.016,1.015a1.755,1.755,0,1,0,2.482-2.482L14.07,21.474,20.545,15A8.139,8.139,0,0,0,30.679,2.384ZM30,13.216a7.183,7.183,0,0,1-9.238.776.479.479,0,0,0-.616.051l-7.093,7.093a.479.479,0,0,0,0,.677l2.257,2.257A.8.8,0,1,1,14.183,25.2l-1.354-1.354a.479.479,0,0,0-.677,0l-1.805,1.805a.479.479,0,0,0,0,.677L11.7,27.68a.8.8,0,1,1-1.128,1.128L8.316,26.552a.479.479,0,0,0-.677,0L5.788,28.4a.8.8,0,1,1-1.128-1.128l14.36-14.36a.479.479,0,0,0,.051-.616A7.181,7.181,0,1,1,30,13.216Z" transform="translate(-3.469)" fill="url(#b)"/></g></g><g transform="translate(19.102 2.598)"><path d="M285.257,48.984a.487.487,0,0,0-.507.467,4.694,4.694,0,1,1-.265-1.766.487.487,0,1,0,.918-.325,5.684,5.684,0,0,0-9.376-2.121,5.683,5.683,0,1,0,9.7,4.252A.487.487,0,0,0,285.257,48.984Z" transform="translate(-274.366 -43.575)" fill="url(#b)"/></g></g></g></svg>