<svg xmlns="http://www.w3.org/2000/svg" width="14.727" height="20" viewBox="0 0 14.727 20">
  <g id="placeholder-filled-point" transform="translate(-12.883)">
    <path id="Path_103" data-name="Path 103" d="M20.246,0a7.372,7.372,0,0,0-7.363,7.363,7.182,7.182,0,0,0,.644,3.006,46.425,46.425,0,0,0,6.409,9.489.41.41,0,0,0,.621,0,46.449,46.449,0,0,0,6.409-9.489,7.179,7.179,0,0,0,.644-3.006A7.372,7.372,0,0,0,20.246,0Zm0,11.188a3.825,3.825,0,1,1,3.825-3.825A3.829,3.829,0,0,1,20.246,11.188Z" fill="#fd0"/>
  </g>
</svg>
