<svg xmlns="http://www.w3.org/2000/svg" width="50" height="39.583" viewBox="0 0 50 39.583">
  <path id="medium" d="M46.01,7.152,50,3.335V2.5H36.179l-9.85,24.517L15.123,2.5H.631v.835l4.66,5.61a1.955,1.955,0,0,1,.631,1.631V32.625a2.514,2.514,0,0,1-.673,2.187L0,41.175V42H14.885v-.835l-5.25-6.352a2.592,2.592,0,0,1-.723-2.187V13.554L21.979,42.01H23.5L34.733,13.554V36.223c0,.6,0,.721-.392,1.112L30.3,41.246v.837H49.908v-.835l-3.9-3.815a1.159,1.159,0,0,1-.446-1.112V8.265a1.154,1.154,0,0,1,.444-1.113Z" transform="translate(0 -2.5)" fill="#3b48fa"/>
</svg>
