<svg xmlns="http://www.w3.org/2000/svg" width="50" height="43.533" viewBox="0 0 50 43.533">
  <g id="telegram" transform="translate(0 -19.401)">
    <path id="XMLID_497_" d="M.883,40.275l11.521,4.3,4.459,14.341a1.356,1.356,0,0,0,2.154.649l6.422-5.235a1.916,1.916,0,0,1,2.336-.065l11.583,8.41a1.358,1.358,0,0,0,2.127-.821l8.485-40.815a1.358,1.358,0,0,0-1.818-1.543L.87,37.734A1.359,1.359,0,0,0,.883,40.275Zm15.262,2.011L38.661,28.418a.392.392,0,0,1,.474.621L20.552,46.312a3.852,3.852,0,0,0-1.194,2.3l-.633,4.691a.582.582,0,0,1-1.137.082l-2.435-8.554A2.267,2.267,0,0,1,16.145,42.286Z" transform="translate(0 0)" fill="#3b48fa"/>
  </g>
</svg>
