<svg xmlns="http://www.w3.org/2000/svg" width="25" height="20" viewBox="0 0 25 20"><g><g><path fill="#3b65ef" d="M2.232 19.999c-.562 0-1.049-.19-1.463-.562l7.084-7.213c.178.13.342.25.49.36.53.398.96.708 1.29.93.33.223.77.45 1.318.682.55.233 1.06.348 1.535.348h.028c.474 0 .986-.115 1.534-.348.549-.232.988-.459 1.319-.681.33-.223.76-.533 1.29-.93l.49-.36 7.084 7.212a2.115 2.115 0 0 1-1.463.562zm4.01-8.934L0 17.42V6.449c.41.464.88.876 1.41 1.236a475.951 475.951 0 0 1 4.833 3.38zM25 6.449V17.42l-6.24-6.353c1.33-.946 2.945-2.073 4.845-3.382A7.72 7.72 0 0 0 25 6.449zm-.662-5.78c.44.445.662.98.662 1.605 0 .748-.228 1.463-.683 2.144a6.708 6.708 0 0 1-1.702 1.747 12988.527 12988.527 0 0 0-6.529 4.616l-.209.151-.384.282c-.302.223-.553.403-.754.54-.2.137-.441.29-.725.461-.284.17-.551.299-.802.384a2.184 2.184 0 0 1-.698.128h-.027c-.214 0-.447-.043-.698-.128a4.183 4.183 0 0 1-.802-.384c-.284-.17-.526-.323-.726-.461-.2-.137-.45-.317-.753-.54l-.385-.282c-.093-.068-.163-.12-.208-.151A912.814 912.814 0 0 0 5.26 8.189 595.474 595.474 0 0 1 2.4 6.165c-.577-.398-1.121-.945-1.632-1.64C.256 3.828 0 3.182 0 2.585 0 1.848.193 1.233.58.74.964.247 1.515.001 2.231.001h20.536c.604 0 1.127.223 1.57.667z"/></g></g></svg>