<svg xmlns="http://www.w3.org/2000/svg" width="234.5" height="234.506" viewBox="0 0 234.5 234.506">
  <g id="icon" transform="translate(2.247 2.683)" opacity="0.304">
    <g id="Group_29" data-name="Group 29" transform="translate(49.743 53.569)">
      <g id="Group_28" data-name="Group 28">
        <path id="Path_187" data-name="Path 187" d="M165.222,112.006a61.219,61.219,0,1,0,61.219,61.219A61.219,61.219,0,0,0,165.222,112.006ZM147.07,122.892a58.873,58.873,0,0,0-8.088,15.9H124.25A53.719,53.719,0,0,1,147.07,122.892ZM118.9,146.442h17.879a110.923,110.923,0,0,0-3.015,22.957H111.849A53.118,53.118,0,0,1,118.9,146.442Zm0,53.566a53.118,53.118,0,0,1-7.054-22.957h21.918a110.922,110.922,0,0,0,3.015,22.957Zm5.346,7.652h14.733a58.879,58.879,0,0,0,8.088,15.9A53.725,53.725,0,0,1,124.249,207.66ZM161.4,225.979c-5.347-2.132-10.547-8.588-14.318-18.318H161.4Zm0-25.971H144.589a102.482,102.482,0,0,1-3.174-22.957H161.4v22.957Zm0-30.609h-19.98a102.482,102.482,0,0,1,3.174-22.957H161.4Zm0-30.609H147.077c3.772-9.73,8.972-16.187,14.318-18.318Zm50.145,7.652a53.117,53.117,0,0,1,7.054,22.957H196.676a110.924,110.924,0,0,0-3.015-22.957Zm-5.346-7.652H191.461a58.88,58.88,0,0,0-8.088-15.9A53.725,53.725,0,0,1,206.194,138.789Zm-37.146-18.318c5.347,2.132,10.547,8.588,14.318,18.318H169.048Zm0,25.971h16.807a102.482,102.482,0,0,1,3.174,22.957h-19.98V146.442Zm0,30.609h19.98a102.484,102.484,0,0,1-3.174,22.957H169.047V177.051Zm0,48.928V207.66h14.318C179.595,217.391,174.395,223.847,169.048,225.979Zm14.325-2.421a58.872,58.872,0,0,0,8.088-15.9h14.733A53.719,53.719,0,0,1,183.373,223.558Zm28.167-23.55H193.661a110.923,110.923,0,0,0,3.015-22.957h21.918A53.111,53.111,0,0,1,211.54,200.008Z" transform="translate(-104.003 -112.006)" fill="#fff" stroke="#13183f" stroke-width="4.5"/>
      </g>
    </g>
    <g id="Group_31" data-name="Group 31" transform="translate(57.396 179.833)">
      <g id="Group_30" data-name="Group 30">
        <path id="Path_188" data-name="Path 188" d="M234.526,384.536a7.966,7.966,0,0,0-8.045-5.885h-.037l-56.912,5.011-5.472-3.285a3.805,3.805,0,0,0-1.97-.545H142.96a3.824,3.824,0,0,0-3.822-3.826H123.829A3.824,3.824,0,0,0,120,379.828v30.614a3.824,3.824,0,0,0,3.822,3.826h15.309a3.824,3.824,0,0,0,3.826-3.822v0h2.915l29.515,14.894a3.822,3.822,0,0,0,3.729-.157l51.649-31.846A7.739,7.739,0,0,0,234.526,384.536Zm-99.219,22.079h-7.652V383.658h7.652Zm91.57-19.871-49.953,30.8L148.509,403.2a3.836,3.836,0,0,0-1.723-.411H142.96v-15.3h18.07l12.17,7.3a2.913,2.913,0,0,1,.991,4c-.022.036-.044.072-.068.108a2.913,2.913,0,0,1-4.032.8l-5.877-3.916-4.245,6.367,5.877,3.916a10.5,10.5,0,0,0,5.836,1.779,10.712,10.712,0,0,0,2.089-.209,10.5,10.5,0,0,0,6.722-4.5A10.631,10.631,0,0,0,182,394.95a10.452,10.452,0,0,0-2.291-4.486l47.361-4.089Z" transform="translate(-120.003 -376.006)" fill="#fff" stroke="#13183f" stroke-width="4.5"/>
      </g>
    </g>
    <g id="Group_33" data-name="Group 33" transform="translate(57.392 0)">
      <g id="Group_32" data-name="Group 32">
        <path id="Path_189" data-name="Path 189" d="M230.962,11.481H215.653a3.824,3.824,0,0,0-3.826,3.822v0h-2.915L179.4.414a3.8,3.8,0,0,0-3.729.157L124.019,32.417a7.739,7.739,0,0,0-3.759,8.8A7.966,7.966,0,0,0,128.3,47.1h.037l56.912-5.011,5.472,3.285a3.8,3.8,0,0,0,1.969.545h19.131a3.824,3.824,0,0,0,3.822,3.826h15.309a3.824,3.824,0,0,0,3.826-3.822V15.307A3.823,3.823,0,0,0,230.962,11.481ZM211.827,38.264h-18.07l-12.17-7.3a2.913,2.913,0,0,1-.991-4c.022-.036.044-.072.068-.108a2.913,2.913,0,0,1,4.032-.8l5.877,3.916,4.245-6.367-5.877-3.916A10.557,10.557,0,0,0,172.784,30.8a10.453,10.453,0,0,0,2.291,4.486l-47.361,4.089.194-.37,49.953-30.8,28.416,14.34a3.828,3.828,0,0,0,1.723.411h3.826V38.264Zm15.3,3.826h-7.652V19.134h7.652Z" transform="translate(-119.995 0)" fill="#fff" stroke="#13183f" stroke-width="4.5"/>
      </g>
    </g>
    <g id="Group_35" data-name="Group 35" transform="translate(7.655 0.003)">
      <g id="Group_34" data-name="Group 34">
        <rect id="Rectangle_134" data-name="Rectangle 134" width="7" height="8" transform="translate(0.348 -0.436)" fill="#fff" stroke="#13183f" stroke-width="4.5"/>
      </g>
    </g>
    <g id="Group_37" data-name="Group 37" transform="translate(7.655 15.307)">
      <g id="Group_36" data-name="Group 36">
        <rect id="Rectangle_135" data-name="Rectangle 135" width="7" height="7" transform="translate(0.348 0.259)" fill="#fff" stroke="#13183f" stroke-width="4.5"/>
      </g>
    </g>
    <g id="Group_39" data-name="Group 39" transform="translate(15.308 7.655)">
      <g id="Group_38" data-name="Group 38">
        <rect id="Rectangle_136" data-name="Rectangle 136" width="8" height="8" transform="translate(-0.305 -0.088)" fill="#fff" stroke="#13183f" stroke-width="4.5"/>
      </g>
    </g>
    <g id="Group_41" data-name="Group 41" transform="translate(0.003 7.655)">
      <g id="Group_40" data-name="Group 40">
        <rect id="Rectangle_137" data-name="Rectangle 137" width="8" height="8" transform="translate(0 -0.088)" fill="#fff" stroke="#13183f" stroke-width="4.5"/>
      </g>
    </g>
    <g id="Group_43" data-name="Group 43" transform="translate(214.269 0.003)">
      <g id="Group_42" data-name="Group 42">
        <rect id="Rectangle_138" data-name="Rectangle 138" width="8" height="8" transform="translate(-0.266 -0.436)" fill="#fff" stroke="#13183f" stroke-width="4.5"/>
      </g>
    </g>
    <g id="Group_45" data-name="Group 45" transform="translate(214.269 15.307)">
      <g id="Group_44" data-name="Group 44">
        <rect id="Rectangle_139" data-name="Rectangle 139" width="8" height="7" transform="translate(-0.266 0.259)" fill="#fff" stroke="#13183f" stroke-width="4.5"/>
      </g>
    </g>
    <g id="Group_47" data-name="Group 47" transform="translate(221.921 7.655)">
      <g id="Group_46" data-name="Group 46">
        <rect id="Rectangle_140" data-name="Rectangle 140" width="8" height="8" transform="translate(0.082 -0.088)" fill="#fff" stroke="#13183f" stroke-width="4.5"/>
      </g>
    </g>
    <g id="Group_49" data-name="Group 49" transform="translate(206.616 7.655)">
      <g id="Group_48" data-name="Group 48">
        <rect id="Rectangle_141" data-name="Rectangle 141" width="7" height="8" transform="translate(0.387 -0.088)" fill="#fff" stroke="#13183f" stroke-width="4.5"/>
      </g>
    </g>
    <g id="Group_51" data-name="Group 51" transform="translate(214.269 206.616)">
      <g id="Group_50" data-name="Group 50">
        <rect id="Rectangle_142" data-name="Rectangle 142" width="8" height="8" transform="translate(-0.266 -0.049)" fill="#fff" stroke="#13183f" stroke-width="4.5"/>
      </g>
    </g>
    <g id="Group_53" data-name="Group 53" transform="translate(214.269 221.921)">
      <g id="Group_52" data-name="Group 52">
        <rect id="Rectangle_143" data-name="Rectangle 143" width="8" height="8" transform="translate(-0.266 -0.354)" fill="#fff" stroke="#13183f" stroke-width="4.5"/>
      </g>
    </g>
    <g id="Group_55" data-name="Group 55" transform="translate(221.921 214.268)">
      <g id="Group_54" data-name="Group 54">
        <rect id="Rectangle_144" data-name="Rectangle 144" width="8" height="7" transform="translate(0.082 0.298)" fill="#fff" stroke="#13183f" stroke-width="4.5"/>
      </g>
    </g>
    <g id="Group_57" data-name="Group 57" transform="translate(206.616 214.268)">
      <g id="Group_56" data-name="Group 56">
        <rect id="Rectangle_145" data-name="Rectangle 145" width="7" height="7" transform="translate(0.387 0.298)" fill="#fff" stroke="#13183f" stroke-width="4.5"/>
      </g>
    </g>
    <g id="Group_59" data-name="Group 59" transform="translate(7.655 206.616)">
      <g id="Group_58" data-name="Group 58">
        <rect id="Rectangle_146" data-name="Rectangle 146" width="7" height="8" transform="translate(0.348 -0.049)" fill="#fff" stroke="#13183f" stroke-width="4.5"/>
      </g>
    </g>
    <g id="Group_61" data-name="Group 61" transform="translate(7.655 221.921)">
      <g id="Group_60" data-name="Group 60">
        <rect id="Rectangle_147" data-name="Rectangle 147" width="7" height="8" transform="translate(0.348 -0.354)" fill="#fff" stroke="#13183f" stroke-width="4.5"/>
      </g>
    </g>
    <g id="Group_63" data-name="Group 63" transform="translate(15.308 214.268)">
      <g id="Group_62" data-name="Group 62">
        <rect id="Rectangle_148" data-name="Rectangle 148" width="8" height="7" transform="translate(-0.305 0.298)" fill="#fff" stroke="#13183f" stroke-width="4.5"/>
      </g>
    </g>
    <g id="Group_65" data-name="Group 65" transform="translate(0.003 214.268)">
      <g id="Group_64" data-name="Group 64">
        <rect id="Rectangle_149" data-name="Rectangle 149" width="8" height="7" transform="translate(0 0.298)" fill="#fff" stroke="#13183f" stroke-width="4.5"/>
      </g>
    </g>
    <g id="Group_67" data-name="Group 67" transform="translate(171.43 52.934)">
      <g id="Group_66" data-name="Group 66">
        <path id="Path_190" data-name="Path 190" d="M365.839,110.678l-5.657,5.156a84.173,84.173,0,0,1-1.749,115.256l5.5,5.321A91.83,91.83,0,0,0,365.839,110.678Z" transform="translate(-358.433 -110.678)" fill="#fff" stroke="#13183f" stroke-width="4.5"/>
      </g>
    </g>
    <g id="Group_69" data-name="Group 69" transform="translate(19.134 50.909)">
      <g id="Group_68" data-name="Group 68">
        <path id="Path_191" data-name="Path 191" d="M71.363,111.765l-5.5-5.321a91.826,91.826,0,0,0,0,127.758l5.5-5.321A84.174,84.174,0,0,1,71.363,111.765Z" transform="translate(-40.002 -106.444)" fill="#fff" stroke="#13183f" stroke-width="4.5"/>
      </g>
    </g>
  </g>
</svg>
