<svg xmlns="http://www.w3.org/2000/svg" width="213.347" height="227.99" viewBox="0 0 213.347 227.99">
  <g id="icon3" transform="translate(-13.818 2)" opacity="0.299">
    <g id="Group_115" data-name="Group 115" transform="translate(138.51 9.255)">
      <g id="Group_114" data-name="Group 114">
        <path id="Path_206" data-name="Path 206" d="M279.9,19.832l-1.371,7.339A97.473,97.473,0,0,1,332.9,57.864l5.563-4.98A104.982,104.982,0,0,0,279.9,19.832Z" transform="translate(-278.532 -19.832)" fill="#13183f" stroke="#fff" stroke-width="4"/>
      </g>
    </g>
    <g id="Group_117" data-name="Group 117" transform="translate(43.102 9.255)">
      <g id="Group_116" data-name="Group 116" transform="translate(0)">
        <path id="Path_207" data-name="Path 207" d="M132.154,19.832a105,105,0,0,0-58.076,32.52L79.6,57.368a97.513,97.513,0,0,1,53.92-30.2Z" transform="translate(-74.078 -19.832)" fill="#13183f" stroke="#fff" stroke-width="4"/>
      </g>
    </g>
    <g id="Group_119" data-name="Group 119" transform="translate(16 77.152)">
      <g id="Group_118" data-name="Group 118">
        <path id="Path_208" data-name="Path 208" d="M28.986,167.822l-7.036-2.49a105,105,0,0,0,0,69.687l7.036-2.49A97.581,97.581,0,0,1,28.986,167.822Z" transform="translate(-16 -165.332)" fill="#13183f" stroke="#fff" stroke-width="4"/>
      </g>
    </g>
    <g id="Group_121" data-name="Group 121" transform="translate(46.97 180.957)">
      <g id="Group_120" data-name="Group 120" transform="translate(0)">
        <path id="Path_209" data-name="Path 209" d="M87.624,387.781l-5.257,5.3a103.983,103.983,0,0,0,54.208,28.475l1.371-7.339A96.515,96.515,0,0,1,87.624,387.781Z" transform="translate(-82.367 -387.781)" fill="#13183f" stroke="#fff" stroke-width="4"/>
      </g>
    </g>
    <g id="Group_123" data-name="Group 123" transform="translate(142.1 180.299)">
      <g id="Group_122" data-name="Group 122">
        <path id="Path_210" data-name="Path 210" d="M333.62,386.371a96.8,96.8,0,0,1-47.394,26.355l1.655,7.281a104.222,104.222,0,0,0,51.039-28.381Z" transform="translate(-286.226 -386.371)" fill="#13183f" stroke="#fff" stroke-width="4"/>
      </g>
    </g>
    <g id="Group_125" data-name="Group 125" transform="translate(212.072 84.897)">
      <g id="Group_124" data-name="Group 124">
        <path id="Path_211" data-name="Path 211" d="M445.61,181.93l-7.211,1.932a97.692,97.692,0,0,1-2.227,57.52l7.036,2.49A105.124,105.124,0,0,0,445.61,181.93Z" transform="translate(-436.172 -181.93)" fill="#13183f" stroke="#fff" stroke-width="4"/>
      </g>
    </g>
    <g id="Group_127" data-name="Group 127" transform="translate(198.925 52.264)">
      <g id="Group_126" data-name="Group 126">
        <path id="Path_212" data-name="Path 212" d="M426.668,112H411.733A3.732,3.732,0,0,0,408,115.731v14.935a3.732,3.732,0,0,0,3.731,3.733h14.935a3.732,3.732,0,0,0,3.733-3.731V115.733A3.732,3.732,0,0,0,426.668,112Zm-3.735,14.933h-7.466v-7.466h7.466Z" transform="translate(-408 -112)" fill="#13183f" stroke="#fff" stroke-width="4"/>
      </g>
    </g>
    <g id="Group_129" data-name="Group 129" transform="translate(109.329 0)">
      <g id="Group_128" data-name="Group 128">
        <path id="Path_213" data-name="Path 213" d="M234.668,0H219.733A3.732,3.732,0,0,0,216,3.731V18.666a3.732,3.732,0,0,0,3.731,3.733h14.935a3.732,3.732,0,0,0,3.733-3.731V3.733A3.732,3.732,0,0,0,234.668,0Zm-3.735,14.933h-7.466V7.466h7.466Z" transform="translate(-216 0)" fill="#13183f" stroke="#fff" stroke-width="4"/>
      </g>
    </g>
    <g id="Group_131" data-name="Group 131" transform="translate(23.466 48.531)">
      <g id="Group_130" data-name="Group 130">
        <path id="Path_214" data-name="Path 214" d="M50.668,104H35.733A3.732,3.732,0,0,0,32,107.731v14.935a3.732,3.732,0,0,0,3.731,3.733H50.666a3.732,3.732,0,0,0,3.733-3.731V107.733A3.732,3.732,0,0,0,50.668,104Zm-3.735,14.933H39.466v-7.466h7.466Z" transform="translate(-32 -104)" fill="#13183f" stroke="#fff" stroke-width="4"/>
      </g>
    </g>
    <g id="Group_133" data-name="Group 133" transform="translate(23.466 153.06)">
      <g id="Group_132" data-name="Group 132">
        <path id="Path_215" data-name="Path 215" d="M50.668,328H35.733A3.732,3.732,0,0,0,32,331.731v14.935a3.732,3.732,0,0,0,3.731,3.733H50.666a3.732,3.732,0,0,0,3.733-3.731V331.733A3.732,3.732,0,0,0,50.668,328Zm-3.735,14.933H39.466v-7.466h7.466Z" transform="translate(-32 -328)" fill="#13183f" stroke="#fff" stroke-width="4"/>
      </g>
    </g>
    <g id="Group_135" data-name="Group 135" transform="translate(109.329 201.591)">
      <g id="Group_134" data-name="Group 134">
        <path id="Path_216" data-name="Path 216" d="M234.668,432H219.733A3.732,3.732,0,0,0,216,435.731v14.935a3.732,3.732,0,0,0,3.731,3.733h14.935a3.732,3.732,0,0,0,3.733-3.731V435.733A3.732,3.732,0,0,0,234.668,432Zm-3.735,14.933h-7.466v-7.466h7.466Z" transform="translate(-216 -432)" fill="#13183f" stroke="#fff" stroke-width="4"/>
      </g>
    </g>
    <g id="Group_137" data-name="Group 137" transform="translate(195.192 153.06)">
      <g id="Group_136" data-name="Group 136">
        <path id="Path_217" data-name="Path 217" d="M418.668,328H403.733A3.732,3.732,0,0,0,400,331.731v14.935a3.732,3.732,0,0,0,3.731,3.733h14.935a3.732,3.732,0,0,0,3.733-3.731V331.733A3.732,3.732,0,0,0,418.668,328Zm-3.735,14.933h-7.466v-7.466h7.466Z" transform="translate(-400 -328)" fill="#13183f" stroke="#fff" stroke-width="4"/>
      </g>
    </g>
    <g id="Group_139" data-name="Group 139" transform="translate(45.865 37.332)">
      <g id="Group_138" data-name="Group 138">
        <path id="Path_218" data-name="Path 218" d="M154.663,80a74.663,74.663,0,1,0,74.663,74.663A74.663,74.663,0,0,0,154.663,80ZM132.84,91.176A63.153,63.153,0,0,0,122.377,108.1c-4.838-.545-9.535-1.2-14.035-1.994A67.219,67.219,0,0,1,132.84,91.176Zm-30.477,21.393c5.486,1.095,11.253,2.021,17.274,2.743A122.82,122.82,0,0,0,113.7,150.93H87.656A66.813,66.813,0,0,1,102.363,112.569ZM87.655,158.4H113.7a122.834,122.834,0,0,0,5.938,35.618c-6.021.723-11.788,1.649-17.274,2.743A66.819,66.819,0,0,1,87.655,158.4Zm20.686,44.825c4.5-.79,9.2-1.45,14.035-1.994a63.16,63.16,0,0,0,10.464,16.925A67.232,67.232,0,0,1,108.342,203.221Zm42.588,18.173c-7.991-1.862-15.214-9.613-20.565-20.94,6.667-.546,13.549-.866,20.565-.95Zm0-29.356c-8.052.094-15.95.484-23.555,1.172a114.351,114.351,0,0,1-6.212-34.814H150.93Zm0-41.108H121.163a114.351,114.351,0,0,1,6.212-34.814c7.605.689,15.5,1.078,23.555,1.172Zm0-41.107c-7.016-.084-13.9-.4-20.565-.95,5.351-11.327,12.574-19.078,20.565-20.941Zm70.741,41.107H195.628a122.834,122.834,0,0,0-5.938-35.618c6.021-.723,11.788-1.649,17.274-2.743A66.82,66.82,0,0,1,221.672,150.93Zm-20.686-44.825c-4.5.79-9.2,1.45-14.035,1.994a63.16,63.16,0,0,0-10.464-16.925A67.232,67.232,0,0,1,200.985,106.106ZM158.4,87.933c7.991,1.862,15.214,9.613,20.565,20.941-6.667.546-13.549.866-20.565.95Zm0,29.356c8.052-.094,15.95-.484,23.555-1.172a114.351,114.351,0,0,1,6.212,34.814H158.4Zm0,41.108h29.767a114.351,114.351,0,0,1-6.212,34.814c-7.605-.689-15.5-1.078-23.555-1.172Zm0,63V199.5c7.016.084,13.9.4,20.565.95C173.611,211.781,166.387,219.532,158.4,221.394Zm18.09-3.243a63.154,63.154,0,0,0,10.464-16.925c4.838.545,9.535,1.2,14.035,1.994A67.219,67.219,0,0,1,176.487,218.151Zm30.477-21.393c-5.486-1.095-11.253-2.021-17.274-2.743a122.822,122.822,0,0,0,5.938-35.618h26.044A66.813,66.813,0,0,1,206.964,196.758Z" transform="translate(-80 -80)" fill="#13183f" stroke="#fff" stroke-width="4"/>
      </g>
    </g>
  </g>
</svg>
