<svg xmlns="http://www.w3.org/2000/svg" width="164.865" height="182.261" viewBox="0 0 164.865 182.261">
  <g id="icon4" transform="translate(1.25 1.25)" opacity="0.298">
    <path id="Path_219" data-name="Path 219" d="M5.8,17.4H92.78v20.3a2.9,2.9,0,0,0,2.9,2.9h20.3V63.786h5.8V37.692a2.894,2.894,0,0,0-.852-2.053L97.735,12.453a2.9,2.9,0,0,0-2.056-.855H17.4V5.8H127.572V69.585h5.8V2.9a2.9,2.9,0,0,0-2.9-2.9H14.5a2.9,2.9,0,0,0-2.9,2.9v8.7H2.9A2.9,2.9,0,0,0,0,14.5V176.862a2.9,2.9,0,0,0,2.9,2.9h98.579v-5.8H5.8Zm92.78,4.1,13.3,13.3h-13.3Zm0,0" fill="#fff" stroke="#13183f" stroke-width="2.5"/>
    <path id="Path_220" data-name="Path 220" d="M292.082,209.488h-4.366a43.372,43.372,0,0,1-33.409-15.645l-.586-.705a3,3,0,0,0-4.457,0l-.586.7a43.376,43.376,0,0,1-33.412,15.648H210.9a2.9,2.9,0,0,0-2.9,2.9v46.958a31.962,31.962,0,0,0,16.071,27.693l25.981,14.848a2.9,2.9,0,0,0,2.877,0l25.981-14.848a31.962,31.962,0,0,0,16.071-27.693V212.388A2.9,2.9,0,0,0,292.082,209.488Zm-2.9,49.857A26.139,26.139,0,0,1,276.033,282l-24.543,14.031-24.543-14.027a26.151,26.151,0,0,1-13.149-22.66V215.287h1.467a49.149,49.149,0,0,0,36.225-15.863,49.144,49.144,0,0,0,36.225,15.863h1.467Zm0,0" transform="translate(-132.616 -122.507)" fill="#fff" stroke="#13183f" stroke-width="2.5"/>
    <path id="Path_221" data-name="Path 221" d="M271.893,264a31.893,31.893,0,1,0,31.893,31.893A31.931,31.931,0,0,0,271.893,264Zm0,57.987a26.094,26.094,0,1,1,26.094-26.094A26.123,26.123,0,0,1,271.893,321.987Zm0,0" transform="translate(-153.019 -168.321)" fill="#fff" stroke="#13183f" stroke-width="2.5"/>
    <path id="Path_222" data-name="Path 222" d="M307.709,334.046l-5.265-5.265-4.1,4.1,8.7,8.7a2.892,2.892,0,0,0,2.05.849,2.952,2.952,0,0,0,.708-.086,2.91,2.91,0,0,0,2.07-1.981l8.7-28.994-5.555-1.665Zm0,0" transform="translate(-190.218 -197.46)" fill="#fff" stroke="#13183f" stroke-width="2.5"/>
    <path id="Path_223" data-name="Path 223" d="M32,128h75.384v5.8H32Zm0,0" transform="translate(-20.403 -81.61)" fill="#fff" stroke="#13183f" stroke-width="2.5"/>
    <path id="Path_224" data-name="Path 224" d="M32,160h75.384v5.8H32Zm0,0" transform="translate(-20.403 -102.013)" fill="#fff" stroke="#13183f" stroke-width="2.5"/>
    <path id="Path_225" data-name="Path 225" d="M32,192h75.384v5.8H32Zm0,0" transform="translate(-20.403 -122.415)" fill="#fff" stroke="#13183f" stroke-width="2.5"/>
    <path id="Path_226" data-name="Path 226" d="M32,224H89.987v5.8H32Zm0,0" transform="translate(-20.403 -142.818)" fill="#fff" stroke="#13183f" stroke-width="2.5"/>
    <path id="Path_227" data-name="Path 227" d="M32,256H89.987v5.8H32Zm0,0" transform="translate(-20.403 -163.22)" fill="#fff" stroke="#13183f" stroke-width="2.5"/>
    <path id="Path_228" data-name="Path 228" d="M32,288H89.987v5.8H32Zm0,0" transform="translate(-20.403 -183.623)" fill="#fff" stroke="#13183f" stroke-width="2.5"/>
    <path id="Path_229" data-name="Path 229" d="M32,384H89.987v5.8H32Zm0,0" transform="translate(-20.403 -244.83)" fill="#fff" stroke="#13183f" stroke-width="2.5"/>
    <path id="Path_230" data-name="Path 230" d="M32,416H89.987v5.8H32Zm0,0" transform="translate(-20.403 -265.233)" fill="#fff" stroke="#13183f" stroke-width="2.5"/>
    <path id="Path_231" data-name="Path 231" d="M32,448H89.987v5.8H32Zm0,0" transform="translate(-20.403 -285.635)" fill="#fff" stroke="#13183f" stroke-width="2.5"/>
    <path id="Path_232" data-name="Path 232" d="M40,64h5.8v5.8H40Zm0,0" transform="translate(-25.503 -40.805)" fill="#fff" stroke="#13183f" stroke-width="2.5"/>
    <path id="Path_233" data-name="Path 233" d="M72,64h5.8v5.8H72Zm0,0" transform="translate(-45.906 -40.805)" fill="#fff" stroke="#13183f" stroke-width="2.5"/>
    <path id="Path_234" data-name="Path 234" d="M104,64h5.8v5.8H104Zm0,0" transform="translate(-66.308 -40.805)" fill="#fff" stroke="#13183f" stroke-width="2.5"/>
    <path id="Path_235" data-name="Path 235" d="M136,64h37.692v5.8H136Zm0,0" transform="translate(-86.711 -40.805)" fill="#fff" stroke="#13183f" stroke-width="2.5"/>
  </g>
</svg>
