<svg xmlns="http://www.w3.org/2000/svg" xmlns:xlink="http://www.w3.org/1999/xlink" width="51.681" height="70.857" viewBox="0 0 51.681 70.857"><defs><radialGradient id="a" cx="0.5" cy="0.5" r="0.5" gradientUnits="objectBoundingBox"><stop offset="0"/><stop offset="0.522" stop-color="#8e6042"/><stop offset="1" stop-color="#8e6042"/></radialGradient></defs><g transform="translate(0.025 0.025)"><path d="M50.365,22.195l-3.334-4.024a3.532,3.532,0,0,1-.8-1.932l-.483-5.22a5.711,5.711,0,0,0-5.128-5.128l-5.2-.506a3.532,3.532,0,0,1-1.932-.8L29.439,1.269a5.717,5.717,0,0,0-7.244,0L18.171,4.6a3.532,3.532,0,0,1-1.932.8l-5.22.506a5.687,5.687,0,0,0-5.105,5.105l-.506,5.2a3.532,3.532,0,0,1-.8,1.932L1.269,22.195a5.717,5.717,0,0,0,0,7.244L4.6,33.463a3.532,3.532,0,0,1,.8,1.932l.506,5.2a5.711,5.711,0,0,0,5.128,5.128l3.173.3L6.65,64.117A1.355,1.355,0,0,0,6.9,65.566a1.393,1.393,0,0,0,1.4.414l6.554-1.863a.084.084,0,0,1,.069.023l3.288,5.979a1.374,1.374,0,0,0,1.2.713h.069a1.346,1.346,0,0,0,1.2-.851l7.98-19.087a9.307,9.307,0,0,0,.782-.529l4.024-3.334a3.631,3.631,0,0,1,1.771-.782l7.221,17.27L37.349,62.07a2.169,2.169,0,0,0-2.484,1.035l-2.553,4.668-3.4-8.118a1.087,1.087,0,0,0-1.38-.575,1.055,1.055,0,0,0-.552,1.38l3.978,9.5a1.361,1.361,0,0,0,1.2.828h.069a1.347,1.347,0,0,0,1.2-.713l3.288-5.979c.023-.023.046-.046.069-.023l6.554,1.863a1.393,1.393,0,0,0,1.4-.414,1.379,1.379,0,0,0,.23-1.449L37.4,46l3.173-.3A5.711,5.711,0,0,0,45.7,40.569l.506-5.2a3.532,3.532,0,0,1,.8-1.932l3.334-4.024A5.656,5.656,0,0,0,50.365,22.195ZM19.32,67.8l-2.553-4.668a2.169,2.169,0,0,0-2.484-1.035L9.179,63.542,16.4,46.272a3.631,3.631,0,0,1,1.771.782l4.024,3.334a5.608,5.608,0,0,0,3.61,1.288h.253ZM48.756,28.105l-3.334,4.024a5.573,5.573,0,0,0-1.265,3.081l-.506,5.2a3.58,3.58,0,0,1-3.219,3.219l-4.576.437h-.046l-.575.046a5.9,5.9,0,0,0-3.081,1.265L28.128,48.71a3.6,3.6,0,0,1-4.553,0L19.55,45.375a5.573,5.573,0,0,0-3.081-1.265l-.575-.046h-.046l-4.576-.437a3.58,3.58,0,0,1-3.219-3.219l-.506-5.2a5.9,5.9,0,0,0-1.265-3.081L2.947,28.105a3.635,3.635,0,0,1,0-4.576L6.282,19.5a5.573,5.573,0,0,0,1.265-3.081l.506-5.2a3.58,3.58,0,0,1,3.219-3.219l5.2-.506A5.9,5.9,0,0,0,19.55,6.236L23.575,2.9a3.544,3.544,0,0,1,4.553,0l4.024,3.334A5.573,5.573,0,0,0,35.234,7.5l5.2.506a3.58,3.58,0,0,1,3.219,3.219l.506,5.2A5.9,5.9,0,0,0,45.421,19.5l3.334,4.024A3.635,3.635,0,0,1,48.756,28.105Z" fill="url(#a)"/><path d="M57.419,41a15.732,15.732,0,0,0-2.093.138,1.054,1.054,0,1,0,.253,2.093,16.126,16.126,0,0,1,1.84-.115,14.289,14.289,0,1,1-5.841,1.242,1.045,1.045,0,1,0-.851-1.909A16.377,16.377,0,1,0,57.419,41Z" transform="translate(-31.591 -31.591)" fill="url(#a)"/><path d="M63.881,85.808a3.248,3.248,0,0,0,0,4.553l4.6,4.6a3.2,3.2,0,0,0,2.277.943,3.281,3.281,0,0,0,2.277-.943L83.06,84.935a3.22,3.22,0,0,0-4.553-4.553l-7.75,7.75-2.323-2.323A3.206,3.206,0,0,0,63.881,85.808Zm6.853,4.852a1.064,1.064,0,0,0,.736-.3l8.509-8.509a1.106,1.106,0,0,1,1.564,1.564L71.516,93.443a1.11,1.11,0,0,1-1.564,0l-4.6-4.6a1.1,1.1,0,0,1,0-1.564,1.11,1.11,0,0,1,1.564,0l3.058,3.058A1.124,1.124,0,0,0,70.734,90.661Z" transform="translate(-48.493 -61.199)" fill="url(#a)"/><path d="M67.226,248a1.426,1.426,0,1,0,1.426,1.426A1.448,1.448,0,0,0,67.226,248Z" transform="translate(-50.688 -190.989)" fill="url(#a)"/><path d="M142.926,247.9a1.426,1.426,0,1,0,1.426,1.426A1.433,1.433,0,0,0,142.926,247.9Z" transform="translate(-108.98 -190.912)" fill="url(#a)"/></g></svg>