<svg xmlns="http://www.w3.org/2000/svg" xmlns:xlink="http://www.w3.org/1999/xlink" width="72.293" height="70.193" viewBox="0 0 72.293 70.193"><defs><radialGradient id="a" cx="0.5" cy="0.5" r="0.5" gradientUnits="objectBoundingBox"><stop offset="0"/><stop offset="0.522" stop-color="#8e6042"/><stop offset="1" stop-color="#8e6042"/></radialGradient></defs><path d="M212.288,28.707a32.048,32.048,0,0,1,4.153,2.548v4.577a1.038,1.038,0,1,0,2.076,0V32.883a31.42,31.42,0,0,1,7.2,8.989,1.024,1.024,0,0,0,.92.543,1.268,1.268,0,0,0,.5-.118,1.048,1.048,0,0,0,.425-1.416,33.559,33.559,0,0,0-9.037-10.688V25.238a1.038,1.038,0,0,0-2.076,0v3.468a33.388,33.388,0,0,0-3.209-1.864,1.023,1.023,0,0,0-1.392.448A1.071,1.071,0,0,0,212.288,28.707Z" transform="translate(-161.772 -18.49)" fill="url(#a)"/><path d="M79.135,34.105A33.463,33.463,0,0,0,77.6,28.443a1.045,1.045,0,0,0-1.958.731,32.117,32.117,0,0,1,1.439,5.309.224.224,0,0,1-.118.26.243.243,0,0,1-.307,0,13.99,13.99,0,0,0-18.545,3.4A99.925,99.925,0,0,0,54.1,16.433a24.341,24.341,0,0,0-3.822-7.645,30.337,30.337,0,0,1,6.111,1.463,1.037,1.037,0,1,0,.684-1.958,32.974,32.974,0,0,0-8.116-1.722L48.3,4.046a2.342,2.342,0,0,0-4.53,0l-.661,2.525a33.6,33.6,0,0,0-13.52,4.153c-.024,0-.047.024-.071.024V3.786a1.038,1.038,0,1,0-2.076,0v8.234a33.908,33.908,0,0,0-9.792,10.028,1.037,1.037,0,0,0,.33,1.439.99.99,0,0,0,.566.165,1.008,1.008,0,0,0,.873-.472,31.557,31.557,0,0,1,8.046-8.612v4.176a1.038,1.038,0,1,0,2.076,0V13.153A31.475,31.475,0,0,1,41.809,8.788a24.341,24.341,0,0,0-3.822,7.645A97.158,97.158,0,0,0,33.975,38.14a13.99,13.99,0,0,0-18.545-3.4.285.285,0,0,1-.307,0,.252.252,0,0,1-.118-.26,31.246,31.246,0,0,1,2.241-7.267,1.035,1.035,0,0,0-1.888-.849,33.022,33.022,0,0,0-2.383,7.739,2.321,2.321,0,0,0,.991,2.359,2.364,2.364,0,0,0,2.572.047,11.938,11.938,0,0,1,16.375,3.752,2.355,2.355,0,0,0,1.935,1.085,2.381,2.381,0,0,0,2.006-1.038A11.145,11.145,0,0,1,45.041,35.5V54.727A2.671,2.671,0,0,0,43.413,57.2V64.9a7.055,7.055,0,0,0,14.109,0,2.69,2.69,0,0,0-5.38,0,1.675,1.675,0,0,1-3.35,0V57.2a2.734,2.734,0,0,0-1.628-2.477V35.5a11.187,11.187,0,0,1,8.187,4.813,2.356,2.356,0,0,0,1.958,1.038h.047a2.388,2.388,0,0,0,1.935-1.085,11.938,11.938,0,0,1,16.375-3.752,2.319,2.319,0,0,0,2.572-.047A2.442,2.442,0,0,0,79.135,34.105ZM45.8,4.541a.233.233,0,0,1,.236-.189.213.213,0,0,1,.236.189l.5,1.888H45.3Zm4.6,64.106a3.786,3.786,0,0,0,3.775-3.775.59.59,0,1,1,1.18,0,4.955,4.955,0,1,1-9.91,0V57.181a.59.59,0,1,1,1.18,0v7.692A3.786,3.786,0,0,0,50.4,68.647ZM46.032,33.374a13.282,13.282,0,0,0-9.98,4.53C37.774,18.792,42.4,8.529,46.032,8.529c2.029,0,4.247,3.138,6.087,8.588A96.768,96.768,0,0,1,56.012,37.9,13.2,13.2,0,0,0,46.032,33.374Z" transform="translate(-9.885 -1.757)" fill="url(#a)"/><path d="M149.835,4.884a1.047,1.047,0,0,0,1.038-1.038V1.038a1.038,1.038,0,0,0-2.076,0V3.846A1.018,1.018,0,0,0,149.835,4.884Z" transform="translate(-113.689)" fill="url(#a)"/><path d="M50.163,32.9a1.463,1.463,0,1,0,1.463,1.463A1.455,1.455,0,0,0,50.163,32.9Z" transform="translate(-37.21 -25.137)" fill="url(#a)"/><path d="M256.663,38.9a1.463,1.463,0,1,0,1.463,1.463A1.455,1.455,0,0,0,256.663,38.9Z" transform="translate(-194.987 -29.722)" fill="url(#a)"/><path d="M1.463,95.8A1.455,1.455,0,0,0,0,97.263a1.47,1.47,0,0,0,1.463,1.463,1.463,1.463,0,1,0,0-2.926Z" transform="translate(0 -73.197)" fill="url(#a)"/><path d="M295.463,114.8a1.463,1.463,0,1,0,1.463,1.463A1.47,1.47,0,0,0,295.463,114.8Z" transform="translate(-224.632 -87.714)" fill="url(#a)"/></svg>