<svg xmlns="http://www.w3.org/2000/svg" xmlns:xlink="http://www.w3.org/1999/xlink" width="48.017" height="70.2" viewBox="0 0 48.017 70.2"><defs><radialGradient id="a" cx="0.5" cy="0.5" r="0.5" gradientUnits="objectBoundingBox"><stop offset="0"/><stop offset="0.522" stop-color="#8e6042"/><stop offset="1" stop-color="#8e6042"/></radialGradient></defs><path d="M27.082,39.907V21.79a1.04,1.04,0,1,0-2.08,0V40.438a1.051,1.051,0,0,0,.439.855,14.789,14.789,0,1,1-17.146,0,1.021,1.021,0,0,0,.439-.855V10.213a8.134,8.134,0,1,1,16.268,0v7.394a1.04,1.04,0,0,0,2.08,0V10.213a10.213,10.213,0,1,0-20.427,0V39.907a16.868,16.868,0,1,0,20.427,0Z" fill="url(#a)"/><path d="M35.246,81.006a9.264,9.264,0,0,1-5.292-1.664,1.045,1.045,0,1,0-1.2,1.71A11.319,11.319,0,0,0,41.785,62.543L39.89,61.2V28.668a4.668,4.668,0,0,0-9.335,0V61.2l-1.895,1.34a11.3,11.3,0,0,0-2.819,15.551,1.048,1.048,0,1,0,1.733-1.178A9.088,9.088,0,0,1,26,71.763a9.286,9.286,0,0,1,3.882-7.533l2.357-1.641a1.02,1.02,0,0,0,.439-.855V57.714h5.153v4.021a1.051,1.051,0,0,0,.439.855l2.334,1.664a9.23,9.23,0,0,1-5.361,16.753Zm2.565-41.293h-5.13V33.821h5.153v5.892Zm-5.13,2.08h5.153v5.892H32.681ZM35.246,26.1a2.574,2.574,0,0,1,2.565,2.565v3.073h-5.13V28.668A2.574,2.574,0,0,1,35.246,26.1ZM32.681,55.634V49.742h5.153v5.892Z" transform="translate(-18.377 -18.454)" fill="url(#a)"/><path d="M168.252,55.841c-.716,0-1.132.277-1.178.832-.162,1.225-.393,3.1-3.281,3.1-2.38,0-3.535-1.2-3.535-3.674V48.123c0-2.449,1.155-3.674,3.443-3.674,2.657,0,3.3,1.618,3.374,2.981.023.531.439.832,1.178.832s1.178-.208,1.178-1.294c0-2.75-2.38-4.668-5.777-4.668-3.651,0-5.754,2.126-5.754,5.823v7.949a5.787,5.787,0,0,0,1.687,4.506,5.991,5.991,0,0,0,4.044,1.317c3.42,0,5.8-1.964,5.8-4.76C169.431,56.072,168.968,55.841,168.252,55.841Z" transform="translate(-121.413 -32.526)" fill="url(#a)"/><path d="M136.633,23.7a1.433,1.433,0,1,0,1.433,1.433A1.44,1.44,0,0,0,136.633,23.7Z" transform="translate(-103.959 -18.224)" fill="url(#a)"/></svg>