<svg xmlns="http://www.w3.org/2000/svg" xmlns:xlink="http://www.w3.org/1999/xlink" width="64.627" height="70.043" viewBox="0 0 64.627 70.043"><defs><radialGradient id="a" cx="0.5" cy="0.5" r="0.5" gradientUnits="objectBoundingBox"><stop offset="0"/><stop offset="0.522" stop-color="#8e6042"/><stop offset="1" stop-color="#8e6042"/></radialGradient></defs><g transform="translate(0.4)"><path d="M35.433,135.8a1.028,1.028,0,0,0-1.033,1.033v1.859a24.623,24.623,0,0,0,9.57,19.553l9.754,7.573a2.047,2.047,0,0,0,1.216.413,1.949,1.949,0,0,0,1.216-.413l7.619-5.921a1.031,1.031,0,1,0-1.262-1.629l-7.55,5.9-9.708-7.528a22.535,22.535,0,0,1-8.767-17.924v-1.859a1.083,1.083,0,0,0-1.056-1.056Z" transform="translate(-26.813 -104.634)" fill="url(#a)"/><path d="M119.223,274.5a1.423,1.423,0,1,0,1.423,1.423A1.445,1.445,0,0,0,119.223,274.5Z" transform="translate(-91.073 -211.503)" fill="url(#a)"/><path d="M119.223,24.3a1.423,1.423,0,1,0,1.423,1.423A1.43,1.43,0,0,0,119.223,24.3Z" transform="translate(-91.073 -18.723)" fill="url(#a)"/><path d="M216.8,62.023a1.423,1.423,0,1,0,1.423-1.423A1.43,1.43,0,0,0,216.8,62.023Z" transform="translate(-167.353 -46.692)" fill="url(#a)"/><path d="M18.1,62.023A1.423,1.423,0,1,0,19.523,60.6,1.43,1.43,0,0,0,18.1,62.023Z" transform="translate(-14.254 -46.692)" fill="url(#a)"/><path d="M62.138,63.3V38.257a3.554,3.554,0,0,0-1.515-6.77H48.69V18.957a1.987,1.987,0,0,0-1.767-1.974,47.687,47.687,0,0,1-10.9-2.479,31.069,31.069,0,0,1-5.944-2.869,3.689,3.689,0,0,0-3.879,0A31.069,31.069,0,0,1,20.255,14.5a48.346,48.346,0,0,1-10.9,2.479,1.987,1.987,0,0,0-1.767,1.974v8.377a1.033,1.033,0,1,0,2.065,0V19.025a48.609,48.609,0,0,0,11.314-2.593A33.108,33.108,0,0,0,27.3,13.38a1.576,1.576,0,0,1,1.675,0,33.108,33.108,0,0,0,6.334,3.052,49.519,49.519,0,0,0,11.314,2.593V31.51H41.093A3.547,3.547,0,0,0,39.6,38.28V60.748l-7.711,5.99a6.1,6.1,0,0,1-3.741,1.285,5.963,5.963,0,0,1-3.741-1.285L13.393,58.2a30.225,30.225,0,0,1-11.7-23.914V11.8a.485.485,0,0,1,.482-.482L5.5,11.245C16.927,11.154,22.5,7.3,24.8,4.98a19.405,19.405,0,0,0,1.928-2.226,1.8,1.8,0,0,1,1.4-.711h0a1.729,1.729,0,0,1,1.4.711A22.348,22.348,0,0,0,31.454,4.98c1.859,1.859,7.436,6.173,19.3,6.265l3.351.023a.485.485,0,0,1,.482.482V27.264a1.033,1.033,0,1,0,2.065,0V11.75A2.537,2.537,0,0,0,54.129,9.2L50.8,9.18C39.693,9.088,34.6,5.21,32.946,3.534a17.916,17.916,0,0,1-1.721-2A3.815,3.815,0,0,0,28.172,0h0A3.752,3.752,0,0,0,25.12,1.538a20.756,20.756,0,0,1-1.744,2.02c-2.111,2.065-7.183,5.554-17.9,5.623L2.124,9.2A2.537,2.537,0,0,0-.4,11.75V34.241A32.314,32.314,0,0,0,12.131,59.784l11.016,8.537a8.132,8.132,0,0,0,10.006,0l5.095-3.947a3.563,3.563,0,0,0,2.869,5.669H60.669a3.56,3.56,0,0,0,3.557-3.557A3.681,3.681,0,0,0,62.138,63.3ZM41.667,51.339a25.894,25.894,0,0,0,2.41-2.846,9.877,9.877,0,0,0,2.57,2.226,11.051,11.051,0,0,0-4.957,7.206V51.339Zm0-7.849a11.949,11.949,0,0,0,1.17,3.167q-.551.826-1.17,1.584ZM43.5,60.082c0-3.672,2.547-7.413,5.577-8.17a1.247,1.247,0,0,0,.941-1.193,1.228,1.228,0,0,0-.941-1.193c-3.029-.757-5.577-4.5-5.577-8.17V38.624H58.214v2.731c0,3.672-2.547,7.413-5.577,8.17a1.247,1.247,0,0,0-.941,1.193,1.228,1.228,0,0,0,.941,1.193c3.029.757,5.577,4.5,5.577,8.17v2.869H43.5Zm16.57-2.088a11.034,11.034,0,0,0-4.98-7.275,11.088,11.088,0,0,0,4.98-7.275ZM41.093,33.553H60.646a1.492,1.492,0,0,1,0,2.983H41.093a1.492,1.492,0,1,1,0-2.983ZM60.623,68H41.07a1.492,1.492,0,0,1,0-2.983H60.623a1.492,1.492,0,0,1,0,2.983Z" transform="translate(0)" fill="url(#a)"/><path d="M68.761,113.954h0a3.159,3.159,0,0,0,2.456-1.17l13.058-16.57a3.123,3.123,0,0,0,.643-2.272,3.039,3.039,0,0,0-1.147-2.065,3.123,3.123,0,0,0-2.272-.643,3.039,3.039,0,0,0-2.065,1.147l-10.58,13.426-4.819-6.288a3.1,3.1,0,0,0-5.531,1.469,3.063,3.063,0,0,0,.62,2.295l7.206,9.455A3.054,3.054,0,0,0,68.761,113.954Zm-8.239-12.691a1.163,1.163,0,0,1,.39-.688,1.057,1.057,0,0,1,.62-.207,1.011,1.011,0,0,1,.826.413l5.623,7.344a1.034,1.034,0,0,0,.8.413,1.056,1.056,0,0,0,.826-.39L81.016,93.666a1.1,1.1,0,0,1,.688-.39,1.088,1.088,0,0,1,.757.207,1.1,1.1,0,0,1,.39.688,1.088,1.088,0,0,1-.207.757L69.587,111.5a1.011,1.011,0,0,1-.8.39h0a1,1,0,0,1-.8-.413l-7.229-9.455a1,1,0,0,1-.229-.757Z" transform="translate(-45.362 -70.28)" fill="url(#a)"/></g></svg>