<svg xmlns="http://www.w3.org/2000/svg" xmlns:xlink="http://www.w3.org/1999/xlink" width="70.014" height="70.07" viewBox="0 0 70.014 70.07"><defs><radialGradient id="a" cx="0.5" cy="0.5" r="0.5" gradientUnits="objectBoundingBox"><stop offset="0"/><stop offset="0.522" stop-color="#8e6042"/><stop offset="1" stop-color="#8e6042"/></radialGradient></defs><g transform="translate(0.04 0.043)"><g transform="translate(-0.04 -0.043)"><g transform="translate(0 0)"><path d="M36.153,199.822a15.82,15.82,0,0,0-12.111-.868l-1.942.663a56.368,56.368,0,0,1,15.013,8.592l7.838,6.261v-.457a15.662,15.662,0,0,0-.823-5.027A15.859,15.859,0,0,0,36.153,199.822Z" transform="translate(-17.041 -152.854)" fill="none"/><path d="M193.69,140.5a12.755,12.755,0,0,0-12.157,8.935h0l-1.234,3.907A50.046,50.046,0,0,1,202.694,142.9l-4.776-1.668A12.1,12.1,0,0,0,193.69,140.5Z" transform="translate(-139.091 -108.385)" fill="none"/><path d="M53.8,71.274,48.2,69.4l.8,3.588a18.119,18.119,0,0,0,15.264,14.1L54.85,77.672l1.828-1.828L65.932,85.1A18.266,18.266,0,0,0,53.8,71.274Z" transform="translate(-37.177 -53.532)" fill="none"/><path d="M69.3,33.991l-9.734-3.4a15.088,15.088,0,0,0-19.24,9.254c-.046.137-.091.3-.137.434L37.6,48.41l-2.719,2.034V33.352a6.8,6.8,0,0,1,2.948-5.621l-.023-.023.114-.069a.41.41,0,0,0,.16-.114A23.164,23.164,0,0,0,44.8,9.77L44.254.949a1.049,1.049,0,0,0-.914-.983A1.061,1.061,0,0,0,42.2.652L38.4,11.255a36.329,36.329,0,0,0-2.125,12.294v2.7l-.046.046a8.976,8.976,0,0,0-3.473,7.061v2.6L31.343,34.54v-.046a20.541,20.541,0,0,0-14.03-18.989L9.566,12.9a1.025,1.025,0,0,0-1.325.663.976.976,0,0,0-.023.571l1.28,5.8a20.431,20.431,0,0,0,19.949,16.11h.411l2.9,2.9V64.908l-2.582-1.28V61.138A18.186,18.186,0,0,0,6.23,43.863L.7,45.714a1.079,1.079,0,0,0-.617.526.986.986,0,0,0-.069.8,1.045,1.045,0,0,0,.617.663l.046.023,1.257.411a53.623,53.623,0,0,1,16.612,9.026l9.917,7.952a.459.459,0,0,0,.183.091l.114.046v.023l4,2.011v2.742h2.1V53.095l4.159-3.131v-.023l.091-.091a.228.228,0,0,0,.114-.091A47.762,47.762,0,0,1,66.739,36.3l2.308-.3a1.135,1.135,0,0,0,.708-.411.969.969,0,0,0,.206-.777A.916.916,0,0,0,69.3,33.991ZM38.4,23.572a33.961,33.961,0,0,1,2.011-11.585l2.057-5.758L42.7,9.907a21.048,21.048,0,0,1-4.09,13.8l-.206.274v-.411Zm-10.74,10.26-.32-.046a18.347,18.347,0,0,1-15.79-14.3h0l-.891-3.976,5.987,1.988A18.363,18.363,0,0,1,28.989,31.866l.069.343-9.62-9.6L17.953,24.1Zm.411,28.243-8.2-6.581A56.019,56.019,0,0,0,4.631,46.811l-.3-.114,2.559-.845A16.077,16.077,0,0,1,28.075,61.115v.96ZM64.019,34.608A49.8,49.8,0,0,0,41.009,45.325l-.3.251,1.462-4.639a13,13,0,0,1,12.385-9.095,13.289,13.289,0,0,1,4.319.731l5.576,1.965Z" transform="translate(0.04 0.043)" fill="url(#a)"/></g><path d="M77.717,215.7a1.417,1.417,0,1,0,1.417,1.417A1.409,1.409,0,0,0,77.717,215.7Z" transform="translate(-58.856 -166.401)" fill="url(#a)"/><path d="M218.517,150.6a1.417,1.417,0,1,0,1.417,1.417A1.424,1.424,0,0,0,218.517,150.6Z" transform="translate(-167.482 -116.177)" fill="url(#a)"/></g></g></svg>