<svg xmlns="http://www.w3.org/2000/svg" xmlns:xlink="http://www.w3.org/1999/xlink" width="70.193" height="70.193" viewBox="0 0 70.193 70.193"><defs><radialGradient id="a" cx="0.5" cy="0.5" r="0.5" gradientUnits="objectBoundingBox"><stop offset="0"/><stop offset="0.522" stop-color="#8e6042"/><stop offset="1" stop-color="#8e6042"/></radialGradient></defs><path d="M117.956,78.29a.953.953,0,0,0-.789.307l-38.56,38.56a1.09,1.09,0,0,0-.307.789,1.013,1.013,0,0,0,.395.745,28.2,28.2,0,0,0,17.537,6.028,28.526,28.526,0,0,0,28.5-28.5A28.2,28.2,0,0,0,118.7,78.685,1.013,1.013,0,0,0,117.956,78.29ZM104.431,94.512h.592a3.934,3.934,0,0,1,3.924,3.924v1.644a1.029,1.029,0,0,0,1.03,1.03h7.212v1.228h-7.212a1.029,1.029,0,0,0-1.03,1.03v1.644a3.934,3.934,0,0,1-3.924,3.924H94.588a3.968,3.968,0,0,1-3.2-1.666l.9-.9a2.653,2.653,0,0,0,2.3,1.315h10.435a2.685,2.685,0,0,0,2.674-2.674v-1.644a1.029,1.029,0,0,0-1.03-1.03H96.32l1.228-1.228h9.119a1.029,1.029,0,0,0,1.03-1.03V98.436a2.685,2.685,0,0,0-2.674-2.674h-2.1l1.271-1.271C104.277,94.49,104.343,94.512,104.431,94.512ZM94.588,104.4h11.049v.614a.613.613,0,0,1-.614.614H94.588a.614.614,0,1,1,0-1.228Zm6.313-6.642a1.111,1.111,0,0,0,.285.044h3.836a.613.613,0,0,1,.614.614v.614H99.608Zm-4.669,24.925a26.112,26.112,0,0,1-15.345-4.91l9.032-9.032A6.011,6.011,0,0,0,94.588,111h10.435a5.992,5.992,0,0,0,5.985-5.985V104.4h7.212a1.029,1.029,0,0,0,1.03-1.03V100.08a1.029,1.029,0,0,0-1.03-1.03h-7.212v-.614a6,6,0,0,0-4.889-5.875L117.781,80.9a26.436,26.436,0,0,1-21.549,41.783Z" transform="translate(-61.135 -61.125)" fill="url(#a)"/><path d="M76.64,36.961a1.013,1.013,0,0,0-.395-.745,28.5,28.5,0,0,0-12.956-5.743,1.033,1.033,0,0,0-.329,2.039,26.4,26.4,0,0,1,11.092,4.625L56.318,54.85a.822.822,0,0,0-.241-.022H48.427c-2.039,0-7.212-4.209-10-6.861a1.035,1.035,0,0,0-1.732.745V66.293a1.035,1.035,0,0,0,1.732.745c2.784-2.653,7.958-6.862,10-6.862h2.565L37.137,74.031A26.087,26.087,0,0,1,32.161,58.6,26.467,26.467,0,0,1,58.6,32.161a1.03,1.03,0,0,0,0-2.061A28.526,28.526,0,0,0,30.1,58.6a28.156,28.156,0,0,0,6.116,17.647,1.014,1.014,0,0,0,.745.395h.066a1.032,1.032,0,0,0,.723-.307L76.333,37.751A1.008,1.008,0,0,0,76.64,36.961ZM48.427,58.116c-1.6,0-3.946,1.25-7.19,3.792-.921.723-1.8,1.447-2.477,2.061V51.035c.7.614,1.556,1.337,2.477,2.061,3.244,2.543,5.612,3.792,7.19,3.792H54.28l-1.228,1.228Z" transform="translate(-23.502 -23.502)" fill="url(#a)"/><path d="M68.7,24.881A35.247,35.247,0,0,0,46.145,1.754c-.811-.263-1.622-.5-2.455-.723C43.142.9,42.572.767,42.024.658A36.542,36.542,0,0,0,35.1,0a34.472,34.472,0,0,0-6.905.68c-.57.11-1.118.241-1.666.373a24.2,24.2,0,0,0-2.455.723A34.928,34.928,0,0,0,10.281,10.3a35.062,35.062,0,0,0,0,49.609A35.1,35.1,0,0,0,70.193,35.1,35.329,35.329,0,0,0,68.7,24.881ZM35.1,68.133A33.036,33.036,0,1,1,68.133,35.1,33.072,33.072,0,0,1,35.1,68.133Z" fill="url(#a)"/><path d="M58.459,248a1.359,1.359,0,1,0,1.359,1.359A1.38,1.38,0,0,0,58.459,248Z" transform="translate(-44.583 -193.634)" fill="url(#a)"/><path d="M251.159,57.9a1.359,1.359,0,1,0,1.359,1.359A1.366,1.366,0,0,0,251.159,57.9Z" transform="translate(-195.04 -45.207)" fill="url(#a)"/></svg>