<svg xmlns="http://www.w3.org/2000/svg" xmlns:xlink="http://www.w3.org/1999/xlink" width="51.971" height="70.063" viewBox="0 0 51.971 70.063"><defs><radialGradient id="a" cx="0.5" cy="0.5" r="0.5" gradientUnits="objectBoundingBox"><stop offset="0"/><stop offset="0.522" stop-color="#8e6042"/><stop offset="1" stop-color="#8e6042"/></radialGradient></defs><path d="M139.984,35.91s.4-.07,1-1.374c1.49-3.19,2.235-8.01,2.189-14.3A94.65,94.65,0,0,0,142.359,8.9h-1.7c.163,1.513.466,4.354.675,7.241.675,9.127-.093,10.152-.442,10.618a1.436,1.436,0,0,1-1.4.582c-.955-.14-1.979-.885-4.96-8.266-.186-.466-.373-.908-.536-1.374v2.165c.163.745.955,4.447,2.119,8.15C138.447,35.584,139.984,35.887,139.984,35.91Z" transform="translate(-102.799 -6.828)" fill="none"/><path d="M134,153.4v32.3h3.353A123.2,123.2,0,0,0,134,153.4Z" transform="translate(-102.799 -117.682)" fill="none"/><path d="M139.262,23.888a61.628,61.628,0,0,0-.233-7.847c-.21-2.934-.512-5.751-.675-7.241H134v2.189A95.748,95.748,0,0,0,139.262,23.888Z" transform="translate(-102.799 -6.751)" fill="none"/><path d="M29.316,8.8H24.1a43.089,43.089,0,0,1,4.471,12.527,106.269,106.269,0,0,1,2.142,21.165,215.017,215.017,0,0,1-2.375,32.272h3.074c-.652-3.353-1.863-11.107.326-13.994a1.527,1.527,0,0,1,1.49-.629c.931.14,2.189.885,5.332,8.1.233.512.466,1.071.7,1.653v-.279c-1.816-5.751-4.051-17.859-6.683-36C30.969,22.258,29.688,11.9,29.316,8.8Z" transform="translate(-18.488 -6.751)" fill="none"/><path d="M145.386,31.991c1.56-10.8,3.237-19.722,3.912-23.191h-4.61c.233,1.746.605,5.123.745,9.058.256,7.73-.536,13.645-2.352,17.556-.908,1.933-2.026,2.817-3.353,2.678-2.585-.3-4.424-5.029-5.728-9.221v4.773a123.719,123.719,0,0,1,3.237,12.9,122.1,122.1,0,0,1,2.422,28.221h2.491C141.637,61.516,143.616,44.216,145.386,31.991Z" transform="translate(-102.799 -6.751)" fill="none"/><path d="M58.689,8.8H56.5c.722,5.984,4.284,34.321,7.661,51.063V45.8C60.272,30.92,58.991,13.876,58.689,8.8Z" transform="translate(-43.344 -6.751)" fill="none"/><path d="M14.668,22.119C13.2,15.32,11.059,10.709,9.662,8.8H8.8v7.963c.536,1.025,2.282,4.89,3.586,12.83,2.422,14.855,1.4,32.738.116,45.172H14.3a211.807,211.807,0,0,0,2.422-31.993A104.988,104.988,0,0,0,14.668,22.119Z" transform="translate(-6.751 -6.751)" fill="none"/><path d="M178.7,74.765h3.19c-.14-11.735.163-28.663,2.352-42.82A67.428,67.428,0,0,1,186.99,19.7V8.8H185.9C178.165,48.22,178.538,70.434,178.7,74.765Z" transform="translate(-137.045 -6.751)" fill="none"/><path d="M22.143,70.063h.047c.023,0,.023,0,.047-.023h.023a.081.081,0,0,0,.047-.023l.023-.023c.023,0,.023-.023.047-.023l.07-.047c.023-.023.023-.023.047-.023l.023-.023.047-.047.07-.093c.023-.023.023-.023.023-.047s.023-.023.023-.047l.023-.023c0-.023.023-.023.023-.047l.023-.023c0-.023.023-.023.023-.047v-.023c0-.023,0-.023.023-.047V17.626a.909.909,0,0,0-.908-.908.925.925,0,0,0-.908.908V29.571l-.233.023A247.193,247.193,0,0,1,17.393,1.956V1.839h3.656V13.5a.909.909,0,0,0,.908.908.925.925,0,0,0,.908-.908V.908A.909.909,0,0,0,21.957,0H.908A.925.925,0,0,0,0,.908V49.014a.909.909,0,0,0,.908.908.925.925,0,0,0,.908-.908V15.2l.233.815C6.543,32.086,4.983,55.58,3.656,68.153v.093H1.816V53.135a.908.908,0,0,0-1.816,0v16.02a.909.909,0,0,0,.908.908H22.143ZM7.73,68.246H5.5l.023-.14c1.3-12.434,2.352-30.363-.093-45.242-1.3-7.94-3.074-11.782-3.586-12.76l-.023-.023V1.816H3.027l.023.047C4.471,3.749,6.659,8.406,8.15,15.3A103.857,103.857,0,0,1,10.175,36,213.768,213.768,0,0,1,7.754,68.13Zm7.358,0-.023-.093c-.7-3.353-1.583-9.71-.489-12.317l.07-.186.116.14c.582.722,1.7,2.515,3.586,6.892.885,2.049,1.676,4.051,2.189,5.379l.07.163H15.088Zm5.938-3.912-.233-.536c-.326-.768-.629-1.513-.931-2.189-3.376-7.707-4.54-7.87-5.146-7.963a1.345,1.345,0,0,0-1.281.536c-2.165,2.864-.908,10.711-.256,13.947l.023.14H9.593l.023-.14a213.387,213.387,0,0,0,2.4-32.365A105.593,105.593,0,0,0,9.873,14.646C8.429,8.1,6.613,4.168,5.309,2.026l-.116-.186h5.821l.023.093c.349,2.934,1.653,13.435,3.306,24.914C16.951,44.985,19.21,57.07,21,62.821v1.513Zm0-8.918L20.793,54.3C17.324,37.581,13.6,7.777,12.876,1.956l-.023-.14h2.678v.116c.3,4.913,1.583,22.1,5.472,37.092V55.417Z" fill="url(#a)"/><path d="M94.847,300.9Z" transform="translate(-72.726 -230.837)" fill="url(#a)"/><path d="M89.8,233.1Z" transform="translate(-68.891 -178.824)" fill="url(#a)"/><path d="M146.126,50.411a.909.909,0,0,0,.908.908.925.925,0,0,0,.908-.908V.908A.909.909,0,0,0,147.034,0H126.008a.909.909,0,0,0-.908.908V69.155a.909.909,0,0,0,.908.908h21.026a.909.909,0,0,0,.908-.908V54.509a.909.909,0,0,0-.908-.908.925.925,0,0,0-.908.908V68.223h-3.26v-.116c-.14-11.619.163-28.407,2.305-42.447.233-1.49.466-2.957.745-4.308l.233.023V50.411ZM126.939,1.816h4.8v.093c.163,1.444.466,4.331.7,7.335a58.068,58.068,0,0,1,.21,8.266l-.023.349-.186-.3a92.1,92.1,0,0,1-5.472-13.272V1.816Zm0,7.8.233.582c.256.629.512,1.3.768,1.956,2.911,7.265,3.958,8.01,4.773,8.126a1.2,1.2,0,0,0,1.164-.489c.349-.466,1.071-1.42.4-10.478-.21-2.98-.512-5.891-.675-7.381l-.023-.14h2.165l.023.093a94.314,94.314,0,0,1,.815,11.479c.047,6.333-.7,11.176-2.212,14.39-.512,1.118-.978,1.49-1.211,1.49h-.023c-.163-.023-1.723-.419-4.075-8.033-1.164-3.749-1.979-7.474-2.119-8.2v-3.4Zm3.8,58.514v.116h-3.8V33.739l.233.955C129.128,42.843,131.34,55.277,130.735,68.13Zm1.839.116V68.13a122.777,122.777,0,0,0-2.4-28.291,118.52,118.52,0,0,0-3.237-12.9V20.56l.373,1.234c1.3,4.191,3.1,9.011,5.612,9.314.093,0,.163.023.256.023,1.094,0,2.049-.862,2.841-2.561,1.816-3.865,2.608-9.733,2.328-17.44-.14-4.051-.536-7.474-.768-9.174l-.023-.14h5.169l-.023.14c-.652,3.353-2.352,12.364-3.935,23.308-1.77,12.224-3.749,29.594-3.213,42.843v.116h-2.98Zm13.551-55.231a67.343,67.343,0,0,0-2.748,12.224c-2.189,14.18-2.468,31.154-2.352,42.89v.116h-3.632V68.13c-.4-9.849.536-23.191,2.794-39.63,1.77-12.876,3.819-23.61,4.4-26.567l.023-.093h1.513Z" transform="translate(-95.971)" fill="url(#a)"/><path d="M67.644,271.4a1.444,1.444,0,1,0,1.444,1.444A1.436,1.436,0,0,0,67.644,271.4Z" transform="translate(-50.786 -208.206)" fill="url(#a)"/><path d="M140.244,14a1.444,1.444,0,1,0,1.444,1.444A1.466,1.466,0,0,0,140.244,14Z" transform="translate(-106.481 -10.74)" fill="url(#a)"/></svg>