<svg xmlns="http://www.w3.org/2000/svg" xmlns:xlink="http://www.w3.org/1999/xlink" width="63.532" height="50" viewBox="0 0 63.532 50"><defs><radialGradient id="a" cx="0.5" cy="0.5" r="0.5" gradientUnits="objectBoundingBox"><stop offset="0"/><stop offset="0.448" stop-color="#3e2a1d"/><stop offset="1" stop-color="#8b5e41"/></radialGradient></defs><g transform="translate(95.1 -55)"><g transform="translate(-95 55)"><g transform="translate(-0.1)"><path d="M62.606,48.387H48.7V41.446l.213-.025a9.375,9.375,0,0,0,6.978-4.965l.05-.1.113-.025a9.249,9.249,0,0,0,5.128-3.277,10.567,10.567,0,0,0,2.251-6.566A10.232,10.232,0,0,0,58.6,17.671l-.113-.063-.013-.138c-.313-6.178-5.04-11.006-10.768-11.006a10.108,10.108,0,0,0-5.165,1.426.856.856,0,0,0-.375.488.762.762,0,0,0,.088.613.856.856,0,0,0,.488.375.762.762,0,0,0,.613-.088,8.512,8.512,0,0,1,4.352-1.2c5.053,0,9.167,4.49,9.167,10.018a.813.813,0,0,0,.438.713,8.564,8.564,0,0,1,4.49,7.679c0,4.152-2.814,7.741-6.553,8.367a.778.778,0,0,0-.588.45,8.029,8.029,0,0,1-5.69,4.49l-.288.05V30.1l5.278-4.852a.822.822,0,0,0,.263-.563.753.753,0,0,0-.213-.575.822.822,0,0,0-.563-.263.753.753,0,0,0-.575.213L48.7,27.889V20.273a.8.8,0,1,0-1.6,0V33.617l-4.177-3.852a.77.77,0,0,0-.575-.213.822.822,0,0,0-.563.263.77.77,0,0,0-.213.575.822.822,0,0,0,.263.563l5.278,4.852v4.052l-.288-.038a7.891,7.891,0,0,1-6.053-4.6.8.8,0,0,0-.563-.438,8.309,8.309,0,0,1-6.241-8.3,8.568,8.568,0,0,1,4.2-7.529.8.8,0,0,0,.413-.713v-.15a10.536,10.536,0,0,1,1.926-6.153.789.789,0,0,0,.138-.6.811.811,0,0,0-.325-.525.789.789,0,0,0-.6-.138.811.811,0,0,0-.525.325,12.226,12.226,0,0,0-2.214,6.641v.125l-.113.075a10.182,10.182,0,0,0-4.5,8.617,9.934,9.934,0,0,0,7.029,9.755l.1.025.05.1a9.435,9.435,0,0,0,7.341,5.09l.225.025v6.916H45.936l-.013-.238a6.427,6.427,0,0,0-4.49-5.753l-.1-.038-.05-.1a6.043,6.043,0,0,0-4.14-3.3l-.163-.038-.038-.15a5.985,5.985,0,0,0-11.056-1.663l-.063.125h-.138a6.164,6.164,0,0,0-5.015,2.914l-.275.438-.175-.488a5,5,0,0,0-4.352-3.289l-.238-.013V33.542l.213-.025a8.975,8.975,0,0,0,6.653-4.74l.05-.1.113-.025A8.876,8.876,0,0,0,27.576,25.5a10.1,10.1,0,0,0,2.164-6.3,9.8,9.8,0,0,0-4.615-8.454l-.113-.063L25,10.543C24.712,4.64,20.173,0,14.682,0A9.8,9.8,0,0,0,8.8,1.963a.8.8,0,0,0,.963,1.288A8.216,8.216,0,0,1,14.682,1.6c4.815,0,8.742,4.29,8.742,9.555a.813.813,0,0,0,.438.713A8.169,8.169,0,0,1,28.139,19.2a7.914,7.914,0,0,1-6.253,7.966.778.778,0,0,0-.588.45,7.515,7.515,0,0,1-5.365,4.265l-.3.05v-9.28l5.04-4.627a.809.809,0,0,0,.05-1.138.822.822,0,0,0-.563-.263.753.753,0,0,0-.575.213L15.633,20.46v-7.2a.8.8,0,0,0-1.6,0V25.95L10.08,22.324a.77.77,0,0,0-.575-.213.822.822,0,0,0-.563.263.77.77,0,0,0-.213.575.822.822,0,0,0,.263.563l5.04,4.627v3.827l-.288-.038a7.564,7.564,0,0,1-5.715-4.377.8.8,0,0,0-.563-.438A7.915,7.915,0,0,1,1.526,19.2a8.169,8.169,0,0,1,4-7.179.83.83,0,0,0,.413-.713v-.125a10.232,10.232,0,0,1,.738-3.839,10.12,10.12,0,0,1,.5-1.051A.8.8,0,0,0,6.241,5.14a.813.813,0,0,0-.475.388A10.939,10.939,0,0,0,5.19,6.753a11.735,11.735,0,0,0-.838,4v.125l-.113.075A9.741,9.741,0,0,0-.087,19.21a9.544,9.544,0,0,0,6.728,9.367l.1.025.05.1a9.062,9.062,0,0,0,7,4.865l.225.025v3.427l-.163.063a4.979,4.979,0,0,0-2.651,2.164l-.063.113-.138.013A5.121,5.121,0,0,0,6.2,43.7l-.025.138-.125.05a6.6,6.6,0,0,0-3.677,4.327l-.05.188H.7A.8.8,0,1,0,.7,50H62.594a.806.806,0,0,0,.8-.8A.775.775,0,0,0,62.606,48.387Zm-58.6,0,.138-.338A4.941,4.941,0,0,1,7.2,45.16a.8.8,0,0,0,.563-.738,3.548,3.548,0,0,1,3.564-3.452,2.03,2.03,0,0,1,.263.013.809.809,0,0,0,.8-.488,3.389,3.389,0,0,1,6.5,1.051.784.784,0,0,0,.738.738,3.334,3.334,0,0,1,.9.2h.013c.05.025.1.038.15.063l.038.013a1.465,1.465,0,0,1,.138.063l.05.025c.063.038.125.063.188.1l.025.013c.025.013.05.038.075.05s.038.025.05.038l.025.013.113.075a.22.22,0,0,1,.063.05.876.876,0,0,0,.125.1l.038.025a2.545,2.545,0,0,1,.313.325l.025.038a1.325,1.325,0,0,0,.125.15l.025.025a3.812,3.812,0,0,1,.238.375l.025.05.075.15c.013.013.013.038.025.063a1.3,1.3,0,0,1,.075.2.8.8,0,0,0,.588.525l.3.075c.025.013.038.013.063.025l.025.013.188.075a.609.609,0,0,0,.088.038l.025.013c.05.025.113.05.163.075.025.013.063.038.088.05l.013.013c.05.025.1.063.15.088a1.153,1.153,0,0,0,.1.063c.05.038.1.063.15.1s.063.05.1.075.088.075.138.113l.013.013c.025.025.05.038.075.063.05.038.088.088.138.125l.025.025.063.063a.861.861,0,0,1,.138.163l.013.025.038.038a2.884,2.884,0,0,1,.175.238c.013.013.013.025.025.038l.013.013c.038.063.088.125.125.2a.273.273,0,0,0,.038.063l.013.025c.025.05.063.113.088.175a.61.61,0,0,1,.038.088l.013.025a.869.869,0,0,1,.063.163l.038.113a.921.921,0,0,1,.05.175c.013.038.025.075.038.125s.025.113.038.175c.013.038.013.088.025.125v.038l.05.3H4Zm23.662,0v-.263a2.949,2.949,0,0,0-.05-.35v-.025c-.025-.125-.05-.238-.075-.363v-.013c-.025-.113-.063-.225-.1-.35l-.013-.038a3.467,3.467,0,0,0-.125-.325l-.013-.05c-.038-.1-.088-.2-.138-.313l-.025-.05c-.05-.1-.1-.2-.163-.3l-.025-.038c-.063-.1-.125-.2-.188-.288l-.025-.038c-.075-.1-.138-.2-.213-.288l-.013-.025A2.5,2.5,0,0,0,26.263,45l-.013-.013c-.075-.075-.15-.163-.25-.25l-.025-.025a2.448,2.448,0,0,0-.263-.225l-.038-.025c-.088-.063-.175-.138-.275-.2l-.038-.025c-.088-.063-.188-.125-.288-.188l-.05-.025c-.1-.063-.2-.113-.3-.163l-.038-.025c-.113-.063-.225-.1-.325-.15l-.025-.013c-.125-.05-.238-.088-.35-.125l-.025-.013-.088-.05-.05-.1c-.038-.088-.088-.163-.125-.238-.013-.025-.038-.063-.05-.088l-.025-.038a1.318,1.318,0,0,0-.088-.138c-.025-.05-.063-.088-.088-.138a.687.687,0,0,0-.088-.113c-.038-.05-.075-.1-.1-.138-.013-.013-.025-.038-.038-.05l-.025-.025-.263-.3-.05-.05-.138-.138a.544.544,0,0,0-.088-.075c-.05-.038-.088-.075-.138-.113s-.063-.05-.1-.075l-.038-.025a.693.693,0,0,1-.1-.075c-.063-.05-.125-.088-.188-.138l-.05-.038-.2-.125.125-.213a4.619,4.619,0,0,1,3.952-2.251,3.28,3.28,0,0,1,.338.013.809.809,0,0,0,.8-.488,4.382,4.382,0,0,1,8.4,1.351.784.784,0,0,0,.738.738A4.379,4.379,0,0,1,39.97,43.3a.813.813,0,0,0,.588.513,4.814,4.814,0,0,1,3.752,4.277l.025.275H27.664Z" transform="translate(0.1)" fill="url(#a)"/></g><path d="M48.478,373.014a.489.489,0,0,0,.515-.49.514.514,0,0,0-.478-.528.489.489,0,0,0-.515.49A.523.523,0,0,0,48.478,373.014Z" transform="translate(-42.055 -325.49)" fill="url(#a)"/><path d="M119.374,316.014a.489.489,0,0,0,.515-.49.5.5,0,0,0-.478-.528.489.489,0,0,0-.515.49A.5.5,0,0,0,119.374,316.014Z" transform="translate(-104.115 -275.606)" fill="url(#a)"/><path d="M246.274,294.814a.489.489,0,0,0,.515-.49.5.5,0,0,0-.478-.528.51.51,0,0,0-.038,1.018Z" transform="translate(-215.146 -257.057)" fill="url(#a)"/><path d="M189.174,372.714a.489.489,0,0,0,.515-.49.5.5,0,0,0-.478-.528.51.51,0,0,0-.038,1.018Z" transform="translate(-165.186 -325.228)" fill="url(#a)"/><path d="M332.474,368.214a.489.489,0,0,0,.515-.49.5.5,0,0,0-.478-.528.489.489,0,0,0-.515.49A.5.5,0,0,0,332.474,368.214Z" transform="translate(-290.566 -321.294)" fill="url(#a)"/></g></g></svg>