<svg xmlns="http://www.w3.org/2000/svg" width="40.022" height="50" viewBox="0 0 40.022 50"><g transform="translate(0 0.017)"><g transform="translate(0 10.979)"><path d="M29.725,131.221H1.5V94.442A.743.743,0,0,0,.754,93.7.754.754,0,0,0,0,94.442V131.46A1.248,1.248,0,0,0,1.245,132.7h28.48a.742.742,0,1,0,0-1.484Z" transform="translate(0 -93.7)" fill="#fff"/></g><g transform="translate(0 -0.014)"><g transform="translate(0 0)"><path d="M39.81,6.635,33.571.223A.693.693,0,0,0,33.051,0H1.226A1.22,1.22,0,0,0,0,1.225V6.945a.73.73,0,0,0,1.461,0V1.473H32.73l5.818,5.979V48.537H34.388a.732.732,0,0,0-.73.73.74.74,0,0,0,.73.73H38.8a1.228,1.228,0,0,0,1.225-1.226V7.143A.722.722,0,0,0,39.81,6.635Z" transform="translate(0 0)" fill="#fff"/></g></g><g transform="translate(32.187 -0.017)"><g transform="translate(0 0)"><path d="M268.62,6.725,262.283.212a.757.757,0,0,0-.817-.176A.735.735,0,0,0,261,.727V7.241a.743.743,0,0,0,.742.742h6.337a.756.756,0,0,0,.692-.453A.716.716,0,0,0,268.62,6.725ZM262.5,6.5V2.563L266.319,6.5Z" transform="translate(-261 0.017)" fill="#fff"/></g></g><g transform="translate(5.447 14.037)"><path d="M49.895,113.927a.743.743,0,0,0-1.044.138L45.557,118.4l-.993-.868a.749.749,0,1,0-.981,1.132l1.584,1.4a.8.8,0,0,0,.49.189h.075a.769.769,0,0,0,.516-.289L50.021,115A.757.757,0,0,0,49.895,113.927Z" transform="translate(-43.321 -113.773)" fill="#fff"/></g><g transform="translate(14.307 14.066)"><path d="M138.315,113.8H119.542a.743.743,0,0,0-.742.742.751.751,0,0,0,.742.742h18.773a.742.742,0,1,0,0-1.484Z" transform="translate(-118.8 -113.8)" fill="#fff"/></g><g transform="translate(14.589 16.516)"><path d="M131.726,133.6H119.542a.743.743,0,0,0-.742.742.751.751,0,0,0,.742.742h12.184a.742.742,0,1,0,0-1.484Z" transform="translate(-118.8 -133.6)" fill="#fff"/></g><g transform="translate(14.548 18.953)"><path d="M134.518,153.3H119.542a.743.743,0,0,0-.742.742.751.751,0,0,0,.742.742h14.976a.743.743,0,0,0,.742-.742A.751.751,0,0,0,134.518,153.3Z" transform="translate(-118.8 -153.3)" fill="#fff"/></g><g transform="translate(5.447 24.003)"><path d="M49.895,194.627a.743.743,0,0,0-1.044.138L45.557,199.1l-.993-.868a.749.749,0,0,0-.981,1.132l1.584,1.4a.8.8,0,0,0,.49.189h.075a.769.769,0,0,0,.516-.289l3.772-4.967A.755.755,0,0,0,49.895,194.627Z" transform="translate(-43.321 -194.473)" fill="#fff"/></g><g transform="translate(14.307 24.038)"><path d="M138.315,194.4H119.542a.742.742,0,0,0,0,1.484h18.773a.742.742,0,1,0,0-1.484Z" transform="translate(-118.8 -194.4)" fill="#fff"/></g><g transform="translate(14.589 26.488)"><path d="M131.726,214.2H119.542a.743.743,0,0,0-.742.742.751.751,0,0,0,.742.742h12.184a.742.742,0,0,0,0-1.484Z" transform="translate(-118.8 -214.2)" fill="#fff"/></g><g transform="translate(14.548 28.938)"><path d="M134.518,234H119.542a.742.742,0,1,0,0,1.484h14.976a.742.742,0,0,0,0-1.484Z" transform="translate(-118.8 -234)" fill="#fff"/></g><g transform="translate(14.307 34.023)"><path d="M138.315,275.1H119.542a.743.743,0,0,0-.742.742.751.751,0,0,0,.742.742h18.773a.743.743,0,0,0,.742-.742A.735.735,0,0,0,138.315,275.1Z" transform="translate(-118.8 -275.1)" fill="#fff"/></g><g transform="translate(14.589 36.461)"><path d="M131.726,294.8H119.542a.742.742,0,0,0,0,1.484h12.184a.743.743,0,0,0,.742-.742A.735.735,0,0,0,131.726,294.8Z" transform="translate(-118.8 -294.8)" fill="#fff"/></g><g transform="translate(14.548 38.911)"><path d="M134.518,314.6H119.542a.742.742,0,0,0,0,1.484h14.976a.743.743,0,0,0,.742-.742A.751.751,0,0,0,134.518,314.6Z" transform="translate(-118.8 -314.6)" fill="#fff"/></g><g transform="translate(5.457 33.961)"><path d="M48.618,275.1H44.645a1.248,1.248,0,0,0-1.245,1.245v3.973a1.248,1.248,0,0,0,1.245,1.245h3.973a1.248,1.248,0,0,0,1.245-1.245v-3.973A1.248,1.248,0,0,0,48.618,275.1Zm-.251,4.967H44.884v-3.483h3.483Z" transform="translate(-43.4 -275.1)" fill="#fff"/></g><path d="M52.912,49.118a.5.5,0,0,0,.49-.516.524.524,0,0,0-.516-.5.5.5,0,0,0-.49.516A.542.542,0,0,0,52.912,49.118Z" transform="translate(-37.808 -42.066)" fill="#fff"/><path d="M75.812,48.718a.5.5,0,0,0,.49-.516.515.515,0,0,0-.516-.5.509.509,0,0,0,.025,1.018Z" transform="translate(-57.979 -41.717)" fill="#fff"/><path d="M96.712,48.418a.5.5,0,0,0,.49-.516.515.515,0,0,0-.516-.5.5.5,0,0,0-.49.516A.515.515,0,0,0,96.712,48.418Z" transform="translate(-76.293 -41.454)" fill="#fff"/><path d="M116.612,48.018a.5.5,0,0,0,.49-.516.515.515,0,0,0-.516-.5.509.509,0,0,0,.025,1.018Z" transform="translate(-93.73 -41.105)" fill="#fff"/></g></svg>