<svg xmlns="http://www.w3.org/2000/svg" xmlns:xlink="http://www.w3.org/1999/xlink" width="49.988" height="50" viewBox="0 0 49.988 50"><defs><radialGradient id="a" cx="0.5" cy="0.5" r="0.5" gradientUnits="objectBoundingBox"><stop offset="0"/><stop offset="0.404" stop-color="#8b5e41"/><stop offset="1" stop-color="#545454"/></radialGradient></defs><path d="M32.754,0a17.206,17.206,0,0,0-13.7,27.626L15.57,31.115c-.025.025-.037.05-.062.074a4.163,4.163,0,0,0-.882-.087,4.236,4.236,0,0,0-3.017,1.254L1.254,42.712A4.271,4.271,0,0,0,4.271,50a4.236,4.236,0,0,0,3.017-1.254L17.643,38.378A4.236,4.236,0,0,0,18.9,35.361a5.174,5.174,0,0,0-.087-.882c.025-.025.05-.037.074-.062l3.489-3.489A17.213,17.213,0,1,0,32.754,0ZM6.134,47.591a2.651,2.651,0,0,1-3.75-3.75l9.362-9.362,3.737,3.737Zm10.492-10.5L12.9,33.362a2.641,2.641,0,0,1,3.725,3.725Zm1.478-4.2a4.861,4.861,0,0,0-.459-.546,4.659,4.659,0,0,0-.546-.459l3-3c.323.348.658.7,1.018,1.018Zm14.651-.062A15.607,15.607,0,1,1,48.349,17.221,15.616,15.616,0,0,1,32.754,32.828Z" fill="url(#a)"/><path d="M166.793,27.8a13.8,13.8,0,1,0,13.793,13.8A13.818,13.818,0,0,0,166.793,27.8Zm0,25.979A12.174,12.174,0,1,1,178.967,41.6,12.192,12.192,0,0,1,166.793,53.779Z" transform="translate(-134.083 -24.339)" fill="url(#a)"/><path d="M300.284,68.163a.81.81,0,0,0-.884,1.357,8.714,8.714,0,0,1,1.967,12.846.816.816,0,0,0,.622,1.332.789.789,0,0,0,.622-.3,10.332,10.332,0,0,0-2.328-15.237Z" transform="translate(-261.935 -59.593)" fill="url(#a)"/><path d="M259.989,55.774a10.454,10.454,0,0,0-1.88-.174.809.809,0,1,0,0,1.618,8.3,8.3,0,0,1,1.581.149.606.606,0,0,0,.149.012.81.81,0,0,0,.149-1.606Z" transform="translate(-225.359 -48.679)" fill="url(#a)"/><path d="M46.159,350.967a.481.481,0,0,0,0-.7.52.52,0,0,0-.71-.012.481.481,0,0,0,0,.7A.52.52,0,0,0,46.159,350.967Z" transform="translate(-39.661 -306.669)" fill="url(#a)"/><path d="M62.559,334.935a.481.481,0,0,0,0-.7.507.507,0,0,0-.71-.012.481.481,0,0,0,0,.7A.5.5,0,0,0,62.559,334.935Z" transform="translate(-54.02 -292.628)" fill="url(#a)"/><path d="M77.559,320.335a.481.481,0,0,0,0-.7.507.507,0,0,0-.71-.012.5.5,0,0,0,.71.71Z" transform="translate(-67.177 -279.821)" fill="url(#a)"/></svg>