<svg xmlns="http://www.w3.org/2000/svg" xmlns:xlink="http://www.w3.org/1999/xlink" width="51.266" height="50" viewBox="0 0 51.266 50"><defs><radialGradient id="a" cx="0.5" cy="0.5" r="0.5" gradientUnits="objectBoundingBox"><stop offset="0"/><stop offset="0.438" stop-color="#8b5e41"/><stop offset="1" stop-color="#545454"/></radialGradient></defs><g transform="translate(0.02)"><path d="M15.356,11.707a46.758,46.758,0,0,0,10.159,1.127A46.549,46.549,0,0,0,35.661,11.72.665.665,0,0,0,36.194,11,11.187,11.187,0,0,0,28.3,1.474V.669a.669.669,0,1,0-1.338,0v.508a8.687,8.687,0,0,0-2.924,0V.669a.669.669,0,1,0-1.338,0v.793a11.157,11.157,0,0,0-7.891,9.527A.707.707,0,0,0,15.356,11.707Zm7.371-8.845V4.931a.669.669,0,1,0,1.338,0v-2.4a8.228,8.228,0,0,1,1.462-.136,9.566,9.566,0,0,1,1.462.124v2.4a.669.669,0,0,0,1.338,0V2.862a9.81,9.81,0,0,1,6.479,7.668,45.4,45.4,0,0,1-18.546,0A9.732,9.732,0,0,1,22.727,2.862ZM29.653,9.8a19.338,19.338,0,0,1-4.138.458A18.66,18.66,0,0,1,21.377,9.8a.666.666,0,0,1,.285-1.3,17.847,17.847,0,0,0,7.681,0,.667.667,0,0,1,.793.508A.634.634,0,0,1,29.653,9.8ZM14.39,14.718c.012-.434.05-1.747,1-2.106.929-.347,1.9.595,2.069.793a.666.666,0,0,1-.979.9,1.69,1.69,0,0,0-.607-.434,1.992,1.992,0,0,0-.149.88A2.9,2.9,0,0,0,17.475,17.7a.671.671,0,0,1,.434.458l.025.1c.012.037.012.087.025.124.508,6.083,5.315,8.053,7.569,8.053s7.061-1.97,7.569-8.053a.44.44,0,0,1,.025-.124l.025-.1a.7.7,0,0,1,.434-.458,2.9,2.9,0,0,0,1.747-2.948,1.992,1.992,0,0,0-.149-.88,1.922,1.922,0,0,0-.607.434.666.666,0,1,1-.979-.9c.186-.2,1.127-1.14,2.069-.793s.991,1.672,1,2.106A4.322,4.322,0,0,1,34.4,18.806c-.669,6.182-5.55,8.969-8.87,8.969s-8.2-2.787-8.87-8.969A4.267,4.267,0,0,1,14.39,14.718ZM47.207,28.01a69.8,69.8,0,0,1-20.553,3.444v16.08a.669.669,0,1,1-1.338,0V33.883A69.751,69.751,0,0,1,10.252,32.2a.428.428,0,0,1-.161-.037q-3.159-.706-6.244-1.71l.372,5.166a.676.676,0,0,1-.619.719H3.55a.674.674,0,0,1-.669-.619l-.446-6.157a.7.7,0,0,1,.26-.582.654.654,0,0,1,.619-.1,67.2,67.2,0,0,0,6.69,1.9,12.969,12.969,0,0,1,6.876-5.1l-.037-.694a.67.67,0,1,1,1.338-.074l.173,2.887,1.995-.719a.67.67,0,0,1,.446,1.264l-2.837,1.016a.7.7,0,0,1-.223.037.685.685,0,0,1-.372-.111.669.669,0,0,1-.3-.52l-.1-1.685A11.521,11.521,0,0,0,11.392,31.1a68.16,68.16,0,0,0,13.937,1.462V30.823A.666.666,0,0,1,26,30.154a67.268,67.268,0,0,0,11.707-1.1,13.685,13.685,0,0,0-3.543-1.995l-.111,1.685a.689.689,0,0,1-.3.52.655.655,0,0,1-.372.111.7.7,0,0,1-.223-.037L30.322,28.32a.67.67,0,1,1,.446-1.264l1.995.719.173-2.887a.667.667,0,0,1,.706-.632.675.675,0,0,1,.632.706l-.037.694a14.244,14.244,0,0,1,5.1,3.072A68.455,68.455,0,0,0,47.7,26.449a.653.653,0,0,1,.619.1.676.676,0,0,1,.26.57l-.421,8.969a.664.664,0,0,1-1.326-.062ZM50.44,38.392a3.869,3.869,0,0,0-2.849-.892,3.869,3.869,0,0,0-2.849.892,3.837,3.837,0,0,0-.78,2.924v4.633a3.642,3.642,0,1,0,7.284,0V41.316A3.944,3.944,0,0,0,50.44,38.392ZM49.883,41.3v4.646a2.308,2.308,0,0,1-2.3,2.3,2.282,2.282,0,0,1-2.094-1.363h1.363a.669.669,0,0,0,0-1.338H45.287V44.425h1.561a.669.669,0,0,0,0-1.338H45.287V41.873h1.561a.669.669,0,0,0,0-1.338H45.3a1.792,1.792,0,0,1,.384-1.2,2.694,2.694,0,0,1,1.908-.5,2.715,2.715,0,0,1,1.908.5A2.852,2.852,0,0,1,49.883,41.3ZM3.86,37.054A4.158,4.158,0,0,0,.812,38a4.117,4.117,0,0,0-.83,3.122v5a3.878,3.878,0,0,0,7.755,0V41.105a4.169,4.169,0,0,0-.83-3.122A4.192,4.192,0,0,0,3.86,37.054Zm0,11.62a2.543,2.543,0,0,1-2.54-2.54V41.117a3.125,3.125,0,0,1,.446-2.168,2.982,2.982,0,0,1,2.106-.557,3,3,0,0,1,2.106.557,2.026,2.026,0,0,1,.434,1.388H4.677a.669.669,0,1,0,0,1.338H6.424V43.1H4.665a.669.669,0,1,0,0,1.338H6.412v1.326H4.665a.669.669,0,1,0,0,1.338H6.213A2.543,2.543,0,0,1,3.86,48.674Z" transform="translate(0)" fill="url(#a)"/><path d="M280.6,271.536a.487.487,0,0,0,.391-.592.511.511,0,0,0-.592-.4.487.487,0,0,0-.391.592A.528.528,0,0,0,280.6,271.536Z" transform="translate(-245.341 -237.029)" fill="url(#a)"/><path d="M303.1,267.136a.487.487,0,0,0,.391-.592.5.5,0,0,0-.592-.4.487.487,0,0,0-.391.592A.492.492,0,0,0,303.1,267.136Z" transform="translate(-265.054 -233.174)" fill="url(#a)"/><path d="M323.6,263.236a.487.487,0,0,0,.391-.592.5.5,0,0,0-.592-.4.487.487,0,0,0-.391.592A.517.517,0,0,0,323.6,263.236Z" transform="translate(-283.016 -229.757)" fill="url(#a)"/><path d="M343.1,259.436a.487.487,0,0,0,.391-.592.5.5,0,0,0-.592-.4.487.487,0,0,0-.391.592A.507.507,0,0,0,343.1,259.436Z" transform="translate(-300.239 -226.427)" fill="url(#a)"/><path d="M91.979,378.117a.49.49,0,0,0,.517-.492.507.507,0,0,0-.479-.529.49.49,0,0,0-.517.492A.516.516,0,0,0,91.979,378.117Z" transform="translate(-80.186 -330.436)" fill="url(#a)"/><path d="M114.875,379.017a.49.49,0,0,0,.517-.491.506.506,0,0,0-.479-.529.511.511,0,0,0-.038,1.021Z" transform="translate(-100.247 -331.223)" fill="url(#a)"/><path d="M135.775,379.917a.49.49,0,0,0,.517-.492.506.506,0,0,0-.479-.529.511.511,0,0,0-.038,1.021Z" transform="translate(-118.558 -332.009)" fill="url(#a)"/><path d="M155.675,380.717a.49.49,0,0,0,.517-.491.506.506,0,0,0-.479-.529.511.511,0,0,0-.038,1.021Z" transform="translate(-135.994 -332.708)" fill="url(#a)"/></g></svg>