<svg xmlns="http://www.w3.org/2000/svg" xmlns:xlink="http://www.w3.org/1999/xlink" width="50" height="50" viewBox="0 0 50 50"><defs><radialGradient id="a" cx="0.5" cy="0.5" r="0.5" gradientUnits="objectBoundingBox"><stop offset="0" stop-color="#3a3a3a"/><stop offset="0.468" stop-color="#8b5e41"/><stop offset="1" stop-color="#8b5e41"/></radialGradient></defs><g transform="translate(-16 17)"><g transform="translate(16 -17)"><rect width="1.447" height="1.447" transform="translate(41.752 32.648)" fill="none"/><path d="M72.687,0H35.041a.72.72,0,0,0-.712.712V13.15h1.423V1.425H71.976V47.612a.948.948,0,0,1-.887.963h-.25c-.137,0-.275-.012-.412-.025a.075.075,0,0,1-.05-.012,5.956,5.956,0,0,1-5.294-5.3v-.025a5.2,5.2,0,0,1-.037-.612V40.925a.72.72,0,0,0-.712-.713H35.753V25.125H34.329V40.2H27.512a.72.72,0,0,0-.712.712v1.675A7.417,7.417,0,0,0,34.2,50H71.1a2.377,2.377,0,0,0,2.3-2.388V.712A.712.712,0,0,0,72.687,0ZM34.2,48.575a5.993,5.993,0,0,1-5.981-5.987v-.963H63.61v.963a5.8,5.8,0,0,0,.05.813c0,.037.012.087.012.125s.012.063.012.088a5.707,5.707,0,0,0,.1.587c.012.05.025.1.037.138l.012.063c.05.213.112.4.175.588.025.05.037.112.062.162a6.11,6.11,0,0,0,.25.6l.025.05a.273.273,0,0,0,.037.062,5.846,5.846,0,0,0,.337.613.274.274,0,0,0,.037.062l.012.025a6.528,6.528,0,0,0,.425.6l.025.037a6.961,6.961,0,0,0,.574.637c.175.175.362.338.549.5l.275.225Z" transform="translate(-23.399)" fill="url(#a)"/><path d="M28.45,128.645l3.4-3.4a.735.735,0,0,0,0-1.028l-3.4-3.4a.711.711,0,0,0-.508-.216H4.124a4.124,4.124,0,0,0,0,8.248H27.93A.786.786,0,0,0,28.45,128.645ZM5.1,127.4H4.124a2.678,2.678,0,1,1,0-5.355H5.1Zm20.57-1.954.495,1.954H6.548v-5.355H26.153L25.659,124H8.5v1.447Zm1.307-.723.673-2.665,2.665,2.665-2.665,2.665Z" transform="translate(0 -105.569)" fill="url(#a)"/><path d="M147.659,100.537a.711.711,0,0,0,.508.216h25.506a.731.731,0,0,0,.723-.723V74.523a.69.69,0,0,0-.216-.508.711.711,0,0,0-.508-.216h0a.69.69,0,0,0-.508.216L147.659,99.522A.72.72,0,0,0,147.659,100.537Zm25.29-24.275v2.627h-1.7v1.447h1.7v1.954h-1.7v1.447h1.7V85.69h-1.7v1.447h1.7v1.954h-1.7v1.447h1.7v1.954h-1.7v1.447h1.7v1.954h-1.7v1.447h1.7v1.954H171v-1.7h-1.447v1.7h-1.954v-1.7h-1.447v1.7h-1.954v-1.7h-1.447v1.7h-1.954v-1.7h-1.447v1.7h-1.954v-1.7h-1.447v1.7h-1.954v-1.7l-1.574,1.574h0v.127h-2.5Z" transform="translate(-129.498 -64.733)" fill="url(#a)"/><path d="M199,260.3v.127l.127-.127Z" transform="translate(-174.126 -227.764)" fill="url(#a)"/><path d="M245.267,180.243h8.1a.731.731,0,0,0,.723-.723v-8.1a.731.731,0,0,0-.723-.723h0a.69.69,0,0,0-.508.216l-8.1,8.1a.717.717,0,0,0,.508,1.231Zm7.36-7.068V178.8h-5.622Z" transform="translate(-214.089 -149.437)" fill="url(#a)"/><rect width="21.852" height="1.447" transform="translate(19.042 8.502)" fill="url(#a)"/></g><path d="M209,47.528a.5.5,0,0,0,.495-.52.526.526,0,0,0-.508-.508.509.509,0,0,0-.495.52A.517.517,0,0,0,209,47.528Z" transform="translate(-182.442 -40.599)" fill="url(#a)"/><path d="M231.9,47.228a.5.5,0,0,0,.495-.52.517.517,0,0,0-.508-.508.509.509,0,0,0-.495.52A.493.493,0,0,0,231.9,47.228Z" transform="translate(-202.481 -40.337)" fill="url(#a)"/><path d="M252.8,47.028a.5.5,0,0,0,.495-.52.517.517,0,0,0-.508-.508.514.514,0,0,0,.013,1.028Z" transform="translate(-220.769 -40.163)" fill="url(#a)"/><path d="M272.7,46.728a.5.5,0,0,0,.495-.52.517.517,0,0,0-.508-.508.5.5,0,0,0-.495.52A.493.493,0,0,0,272.7,46.728Z" transform="translate(-238.182 -39.901)" fill="url(#a)"/></g></svg>