<svg xmlns="http://www.w3.org/2000/svg" xmlns:xlink="http://www.w3.org/1999/xlink" width="56.013" height="50" viewBox="0 0 56.013 50"><defs><radialGradient id="a" cx="0.5" cy="0.5" r="0.5" gradientUnits="objectBoundingBox"><stop offset="0" stop-color="#8b5e41"/><stop offset="0.227" stop-color="#8e6042"/><stop offset="1" stop-color="#462f21"/></radialGradient></defs><g transform="translate(0.041)"><path d="M314.806,110.246a.834.834,0,0,0,.567.214.812.812,0,0,0,.567-.214.614.614,0,0,0,0-.932.834.834,0,0,0-.567-.214.812.812,0,0,0-.567.214.624.624,0,0,0-.214.466A.6.6,0,0,0,314.806,110.246Z" transform="translate(-275.006 -95.36)" fill="url(#a)"/><path d="M62.35,221.4H53.494a.74.74,0,0,0-.794.68v7.912a.74.74,0,0,0,.794.68H62.35a.74.74,0,0,0,.794-.68V222.08A.748.748,0,0,0,62.35,221.4Zm-.794,7.912H54.287v-6.564h7.269Z" transform="translate(-46.096 -193.518)" fill="url(#a)"/><path d="M215.992,164.112a.886.886,0,0,0-.882.151L203.873,174.3l-.025.038-.05.025-13.115,11.716-.038.038-6.866,6.135a.591.591,0,0,0-.164.706.808.808,0,0,0,.731.428h31.319a.74.74,0,0,0,.794-.68V164.729A.661.661,0,0,0,215.992,164.112Zm-1.1,27.943H186.21l5.052-4.51,1.272,1.134a.857.857,0,0,0,1.134,0,.614.614,0,0,0,0-.932l-1.323-1.184,3.288-2.935,1.272,1.134a.857.857,0,0,0,1.134,0,.614.614,0,0,0,0-.932l-1.323-1.184L200,179.708l1.272,1.134a.857.857,0,0,0,1.134,0,.614.614,0,0,0,0-.932l-1.323-1.184,3.288-2.935,1.272,1.134a.857.857,0,0,0,1.134,0,.614.614,0,0,0,0-.932l-1.323-1.184,3.288-2.935,1.272,1.134a.857.857,0,0,0,1.134,0,.614.614,0,0,0,0-.932l-1.323-1.184,5.014-4.472v25.637Z" transform="translate(-160.486 -143.402)" fill="url(#a)"/><path d="M303.107,258.95h0a.927.927,0,0,0-.894.164l-12.434,11.112a.591.591,0,0,0-.164.706.808.808,0,0,0,.731.428H302.78a.74.74,0,0,0,.794-.68V259.568A.661.661,0,0,0,303.107,258.95ZM302,270H292.21L302,261.256Z" transform="translate(-253.132 -226.298)" fill="url(#a)"/><path d="M20.556,48.652H3.755V23H7.962a.812.812,0,0,0,.567-.214L24.989,8.1,38.553,20.214,21.362,35.579V25.668h8.06a.688.688,0,1,0,0-1.36H20.568a.74.74,0,0,0-.793.68V36.461a.64.64,0,0,0,.038.214l.076.2L18.73,37.909a3.415,3.415,0,0,0,0,5.214,4.579,4.579,0,0,0,5.944,0l9.332-8.338a.614.614,0,0,0,0-.932.894.894,0,0,0-1.146,0l-7.279,6.511-3.7-3.3L42.57,18.577l3.69,3.3-7.985,7.141a.614.614,0,0,0,0,.932.894.894,0,0,0,1.146,0l8.488-7.582a.784.784,0,0,0,.176-.239l2.771-6.751a.591.591,0,0,0-.176-.68.873.873,0,0,0-.856-.164L42.268,17a.726.726,0,0,0-.29.164l-2.343,2.065L25.556,6.65a.834.834,0,0,0-.567-.214.812.812,0,0,0-.567.214l-16.788,15H2.6l22.392-20,12.04,10.756a.894.894,0,0,0,1.146,0,.614.614,0,0,0,0-.932L25.556.214A.858.858,0,0,0,24.989,0a.8.8,0,0,0-.567.214L.178,21.864a.591.591,0,0,0-.164.705A.807.807,0,0,0,.745,23H2.168V49.32a.74.74,0,0,0,.793.68H20.556a.74.74,0,0,0,.793-.68A.731.731,0,0,0,20.556,48.652Zm3.929-7.317-.957.856a2.792,2.792,0,0,1-3.652,0,2.21,2.21,0,0,1-.768-1.675,2.253,2.253,0,0,1,.768-1.675l.907-.806ZM48.792,16.3,47.028,20.6l-3.06-2.733Z" transform="translate(0 0)" fill="url(#a)"/><path d="M282.248,248.214a.834.834,0,0,0-.567-.214.812.812,0,0,0-.567.214.614.614,0,0,0,0,.932.9.9,0,0,0,.567.214.812.812,0,0,0,.567-.214.624.624,0,0,0,.214-.466A.6.6,0,0,0,282.248,248.214Z" transform="translate(-245.558 -216.766)" fill="url(#a)"/><path d="M171.693,125.479a3.466,3.466,0,1,0-3.893-3.439A3.7,3.7,0,0,0,171.693,125.479Zm0-5.543a2.1,2.1,0,1,1-2.305,2.091A2.212,2.212,0,0,1,171.693,119.935Z" transform="translate(-146.703 -103.664)" fill="url(#a)"/></g></svg>