<svg xmlns="http://www.w3.org/2000/svg" xmlns:xlink="http://www.w3.org/1999/xlink" width="70.525" height="50" viewBox="0 0 70.525 50"><defs><radialGradient id="a" cx="0.5" cy="0.5" r="0.5" gradientUnits="objectBoundingBox"><stop offset="0" stop-color="#8e6042"/><stop offset="0.419" stop-color="#8e6042"/><stop offset="1" stop-color="#473021"/></radialGradient></defs><g transform="translate(0 0.436)"><g transform="translate(0 -0.436)"><path d="M46.061,15.374h0a6.463,6.463,0,0,0-4.552-1.93h-.247v-7A7.37,7.37,0,0,0,38.85.99,5.366,5.366,0,0,0,34.484-.381a67.266,67.266,0,0,1-20.928,0A5.341,5.341,0,0,0,9.19.99,7.391,7.391,0,0,0,6.778,6.449v7H6.531a6.261,6.261,0,0,0-2.659.6.733.733,0,0,0-.4.444.9.9,0,0,0,.012.6.728.728,0,0,0,.433.406.715.715,0,0,0,.581-.025,4.9,4.9,0,0,1,2.177-.457,4.41,4.41,0,0,1,.705.063c.025,0,.037,0,.049.013A5.28,5.28,0,0,1,11.614,20.3V33.059a2.8,2.8,0,0,0,2.758,2.831H33.655a2.8,2.8,0,0,0,2.758-2.831V20.313a5.212,5.212,0,0,1,4.935-5.294,4.961,4.961,0,0,1,3.636,1.473,5.242,5.242,0,0,1-1.41,8.379.783.783,0,0,0-.445.711V39.42a3.328,3.328,0,0,1-3.278,3.364H8.163A3.328,3.328,0,0,1,4.886,39.42V25.582a.783.783,0,0,0-.445-.711,5.218,5.218,0,0,1-2.919-4.685,5.027,5.027,0,0,1,.495-2.222.8.8,0,0,0-.359-1.054.773.773,0,0,0-.581-.038.767.767,0,0,0-.433.406A6.73,6.73,0,0,0,0,20.186,6.82,6.82,0,0,0,3.241,26l.124.076V39.432a4.882,4.882,0,0,0,4.811,4.939h1.2V47.8a1.744,1.744,0,0,0,1.707,1.765h1.645A1.747,1.747,0,0,0,14.447,47.8V44.371H33.618V47.8a1.747,1.747,0,0,0,1.719,1.765h1.645A1.747,1.747,0,0,0,38.7,47.8V44.371h1.2a4.882,4.882,0,0,0,4.811-4.939V26.077L44.837,26a6.832,6.832,0,0,0,3.241-5.815A7.02,7.02,0,0,0,46.061,15.374Zm-11.169,17.7a1.244,1.244,0,0,1-1.225,1.257h-19.3a1.244,1.244,0,0,1-1.225-1.257V28.438H34.892Zm4.836-19.386-.173.051A6.9,6.9,0,0,0,34.892,20.3v6.551H13.148V20.313a6.9,6.9,0,0,0-4.663-6.564L8.312,13.7V6.462A5.839,5.839,0,0,1,10.192,2.2a3.846,3.846,0,0,1,3.142-1,68.566,68.566,0,0,0,21.373,0,3.846,3.846,0,0,1,3.142,1,5.839,5.839,0,0,1,1.88,4.266ZM12.9,47.989h-2V44.384h2Zm24.23,0h-2V44.384h2Z" transform="translate(0 0.436)" fill="url(#a)"/><path d="M414.121,77.464h-7.415V71.947h4.172a1.779,1.779,0,0,0,1.426-.74,1.751,1.751,0,0,0,.215-1.588L410.1,62.944a1.729,1.729,0,0,0-1.628-1.144h-5.154a1.729,1.729,0,0,0-1.628,1.144l-2.422,6.675a1.717,1.717,0,0,0,.215,1.588,1.754,1.754,0,0,0,1.413.74h4.172v5.518h-8.492a2.073,2.073,0,0,0-2.072,2.072v1.332a2.073,2.073,0,0,0,2.072,2.072h.3v2.382a.834.834,0,0,0,1.669,0V82.942h13.632V90.8H398.524V89.724a.834.834,0,0,0-1.669,0v10.739a1.539,1.539,0,0,0,.955,1.426l.161.067v2.893a1.562,1.562,0,0,0,1.561,1.561h1.628a1.562,1.562,0,0,0,1.561-1.561v-2.84h4.8v2.84a1.562,1.562,0,0,0,1.561,1.561h1.628a1.562,1.562,0,0,0,1.561-1.561v-2.826l.229-.04a1.542,1.542,0,0,0,1.292-1.507V82.942h.3a2.073,2.073,0,0,0,2.072-2.072V79.537A2.042,2.042,0,0,0,414.121,77.464Zm-13.054,27.292h-1.426v-2.732h1.426Zm9.568,0h-1.426v-2.732h1.426Zm1.521-4.414H398.524V92.483h13.632Zm-11.371-30.05,2.476-6.809h5.248l2.476,6.809Zm13.74,10.577a.4.4,0,0,1-.4.4H396.545a.4.4,0,0,1-.4-.4V79.537a.4.4,0,0,1,.4-.4h17.575a.4.4,0,0,1,.4.4Z" transform="translate(-345.642 -56.425)" fill="url(#a)"/></g><path d="M472.035,243.39a.532.532,0,0,0,.525-.552.549.549,0,0,0-.538-.538.54.54,0,0,0-.525.552A.523.523,0,0,0,472.035,243.39Z" transform="translate(-412.277 -211.958)" fill="url(#a)"/><path d="M471.935,316.19a.532.532,0,0,0,.525-.552.549.549,0,0,0-.538-.538.54.54,0,0,0-.525.552A.523.523,0,0,0,471.935,316.19Z" transform="translate(-412.19 -276.074)" fill="url(#a)"/></g></svg>