<svg xmlns="http://www.w3.org/2000/svg" xmlns:xlink="http://www.w3.org/1999/xlink" width="783" height="111" viewBox="0 0 783 111"><defs><clipPath id="a"><rect width="783" height="111" transform="translate(889 280)" fill="#fff" stroke="#707070" stroke-width="1"/></clipPath></defs><g transform="translate(-889 -280)" clip-path="url(#a)"><line x2="277" transform="translate(945.5 389.5)" fill="none" stroke="#fd0" stroke-width="3"/><line x1="108" transform="translate(1114.5 339.5)" fill="none" stroke="#3b48fa" stroke-width="3"/><line x1="56" transform="translate(889.5 282)" fill="none" stroke="#3b48fa" stroke-width="3"/><line x1="31" transform="translate(1361.5 389.5)" fill="none" stroke="#3b48fa" stroke-width="3"/><line x1="31" transform="translate(1501.5 282)" fill="none" stroke="#3b48fa" stroke-width="3"/><line x2="108" transform="translate(1392.5 370.5)" fill="none" stroke="#fd0" stroke-width="3"/><line x2="67" transform="translate(1604.5 339.5)" fill="none" stroke="#fd0" stroke-width="3"/><line x2="277" transform="translate(-14660.5 693.5)" fill="none" stroke="#fd0" stroke-width="3"/><line x1="108" transform="translate(-14491.5 643.5)" fill="none" stroke="#3b48fa" stroke-width="3"/><line x1="56" transform="translate(-14716.5 586)" fill="none" stroke="#3b48fa" stroke-width="3"/><line x1="31" transform="translate(-14244.5 693.5)" fill="none" stroke="#3b48fa" stroke-width="3"/><line x1="31" transform="translate(-14104.5 586)" fill="none" stroke="#3b48fa" stroke-width="3"/><line x2="108" transform="translate(-14213.5 674.5)" fill="none" stroke="#fd0" stroke-width="3"/><line x2="67" transform="translate(-14001.5 643.5)" fill="none" stroke="#fd0" stroke-width="3"/><line x2="277" transform="translate(-3338.5 410.5)" fill="none" stroke="#fd0" stroke-width="3"/><line x1="108" transform="translate(-3169.5 360.5)" fill="none" stroke="#3b48fa" stroke-width="3"/><line x1="56" transform="translate(-3394.5 303)" fill="none" stroke="#3b48fa" stroke-width="3"/><line x1="31" transform="translate(-2922.5 410.5)" fill="none" stroke="#3b48fa" stroke-width="3"/><line x2="108" transform="translate(-2891.5 391.5)" fill="none" stroke="#fd0" stroke-width="3"/><line x2="67" transform="translate(-2679.5 360.5)" fill="none" stroke="#fd0" stroke-width="3"/></g></svg>