<svg xmlns="http://www.w3.org/2000/svg" width="19.368" height="17" viewBox="0 0 19.368 17"><path d="M16.835.5H2.033A2.035,2.035,0,0,0,0,2.533V14.967A2.035,2.035,0,0,0,2.033,17h14.8a2.035,2.035,0,0,0,2.033-2.033V2.533A2.035,2.035,0,0,0,16.835.5Zm0,1.106a.917.917,0,0,1,.136.01L10.09,8.5a.929.929,0,0,1-1.312,0L1.9,1.616a.917.917,0,0,1,.136-.01Zm.927,13.361a.928.928,0,0,1-.927.927H2.033a.928.928,0,0,1-.927-.927V2.533a.937.937,0,0,1,.01-.136L8,9.278a2.035,2.035,0,0,0,2.875,0L17.753,2.4a.939.939,0,0,1,.01.136Zm0,0" transform="translate(0.25 -0.25)" fill="#8d6042" stroke="#8d6042" stroke-width="0.5"/></svg>