<svg id="facebook-w" xmlns="http://www.w3.org/2000/svg" width="10.846" height="20.061" viewBox="0 0 10.846 20.061">
  <path id="Path_5" data-name="Path 5" d="M32.515,0l-2.6,0A4.569,4.569,0,0,0,25.1,4.937V7.213H22.486a.409.409,0,0,0-.409.409v3.3a.409.409,0,0,0,.409.409H25.1v8.322a.409.409,0,0,0,.409.409h3.413a.409.409,0,0,0,.409-.409V11.33h3.058a.409.409,0,0,0,.409-.409v-3.3a.409.409,0,0,0-.409-.409H29.332V5.284c0-.927.221-1.4,1.429-1.4h1.752a.409.409,0,0,0,.409-.409V.413A.409.409,0,0,0,32.515,0Z" transform="translate(-22.077)" fill="#fff"/>
</svg>
