<svg xmlns="http://www.w3.org/2000/svg" width="16" height="16" viewBox="0 0 16 16"><path d="M11.584,0H4.415A4.42,4.42,0,0,0,0,4.415v7.169A4.42,4.42,0,0,0,4.415,16h7.169A4.42,4.42,0,0,0,16,11.585V4.415A4.42,4.42,0,0,0,11.584,0Zm3,11.585a3,3,0,0,1-3,3H4.415a3,3,0,0,1-3-3V4.415a3,3,0,0,1,3-3h7.169a3,3,0,0,1,3,3v7.169Z" fill="#c4c4c4"/><path d="M45.053,40.97a4.085,4.085,0,1,0,4.085,4.085A4.089,4.089,0,0,0,45.053,40.97Zm0,6.763a2.678,2.678,0,1,1,2.678-2.678A2.681,2.681,0,0,1,45.053,47.733Z" transform="translate(-37.053 -37.055)" fill="#c4c4c4"/><path d="M119.972,28.251a1.051,1.051,0,1,0,.744.308A1.055,1.055,0,0,0,119.972,28.251Z" transform="translate(-107.683 -25.581)" fill="#c4c4c4"/></svg>