<svg id="instagram-w" xmlns="http://www.w3.org/2000/svg" width="20.061" height="20.061" viewBox="0 0 20.061 20.061">
  <path id="Path_2" data-name="Path 2" d="M14.525,0H5.536A5.542,5.542,0,0,0,0,5.536v8.989a5.542,5.542,0,0,0,5.536,5.536h8.989a5.542,5.542,0,0,0,5.536-5.536V5.536A5.542,5.542,0,0,0,14.525,0Zm3.756,14.525a3.76,3.76,0,0,1-3.756,3.756H5.536A3.76,3.76,0,0,1,1.78,14.525V5.536A3.76,3.76,0,0,1,5.536,1.78h8.989a3.761,3.761,0,0,1,3.756,3.756v8.989Z" fill="#fff"/>
  <path id="Path_3" data-name="Path 3" d="M46.089,40.97a5.121,5.121,0,1,0,5.121,5.121A5.127,5.127,0,0,0,46.089,40.97Zm0,8.479a3.358,3.358,0,1,1,3.358-3.358A3.362,3.362,0,0,1,46.089,49.449Z" transform="translate(-36.059 -36.061)" fill="#fff"/>
  <path id="Path_4" data-name="Path 4" d="M120.239,28.251a1.317,1.317,0,1,0,.932.386A1.323,1.323,0,0,0,120.239,28.251Z" transform="translate(-104.831 -24.904)" fill="#fff"/>
</svg>
