<svg xmlns="http://www.w3.org/2000/svg" width="13.13" height="18.051" viewBox="0 0 13.13 18.051"><g transform="translate(-70.473 0.1)"><g transform="translate(70.573)"><g transform="translate(0)"><path d="M77.038,0a6.472,6.472,0,0,0-6.465,6.465c0,4.424,5.786,10.919,6.032,11.193a.582.582,0,0,0,.866,0c.246-.274,6.032-6.769,6.032-11.193A6.472,6.472,0,0,0,77.038,0Zm0,16.377c-1.947-2.313-5.3-6.876-5.3-9.912a5.3,5.3,0,1,1,10.6,0C82.339,9.5,78.986,14.064,77.038,16.377Z" transform="translate(-70.573)" fill="#8d6042" stroke="#8c6042" stroke-width="0.2"/></g></g><g transform="translate(73.785 3.212)"><g transform="translate(0)"><path d="M165.961,92.134a3.253,3.253,0,1,0,3.253,3.253A3.256,3.256,0,0,0,165.961,92.134Zm0,5.341a2.088,2.088,0,1,1,2.088-2.088A2.091,2.091,0,0,1,165.961,97.475Z" transform="translate(-162.708 -92.134)" fill="#8d6042" stroke="#8c6042" stroke-width="0.2"/></g></g></g></svg>