<svg id="mark" xmlns="http://www.w3.org/2000/svg" xmlns:xlink="http://www.w3.org/1999/xlink" width="52.605" height="69.728" viewBox="0 0 52.605 69.728">
  <defs>
    <linearGradient id="linear-gradient" x1="0.5" x2="0.5" y2="1" gradientUnits="objectBoundingBox">
      <stop offset="0" stop-color="#8d6042"/>
      <stop offset="1" stop-color="#72462a"/>
    </linearGradient>
  </defs>
  <path id="_1" data-name="1" d="M30.969,0a26.331,26.331,0,0,0-26.3,26.3c0,20.88,23.48,41.856,24.48,42.74a2.752,2.752,0,0,0,3.7-.053c1-.932,24.425-23.062,24.425-42.685A26.335,26.335,0,0,0,30.969,0Z" transform="translate(-4.669)" fill="url(#linear-gradient)"/>
  <g id="Слой_2" data-name="Слой 2" transform="translate(9.001 9.303)">
    <g id="Слой_1" data-name="Слой 1">
      <path id="Path_34" data-name="Path 34" d="M17.252,92.428A18.444,18.444,0,0,1,12.233,87.3a12.014,12.014,0,0,1-.808-1.51l-.135.135a12.194,12.194,0,0,0,.793,1.469,18.45,18.45,0,0,0,5.074,5.183l.085.05h.035a.62.62,0,0,0,.35,0A3.581,3.581,0,0,1,17.252,92.428Z" transform="translate(-7.973 -60.583)" fill="#fff"/>
      <path id="Path_35" data-name="Path 35" d="M57.663,97.192c-.026-.059-.053-.115-.079-.162a33.644,33.644,0,0,1-3.365,2.17,17.553,17.553,0,0,1-8.733,1.731,21.49,21.49,0,0,0-2.418.062c-.705.041-1.431.085-2.119.068a2.209,2.209,0,0,0,.212.182c.632,0,1.284-.035,1.919-.073a21.852,21.852,0,0,1,2.4-.062,17.651,17.651,0,0,0,8.832-1.763,34.08,34.08,0,0,0,3.351-2.153Z" transform="translate(-28.918 -68.52)" fill="#fff"/>
      <path id="Path_36" data-name="Path 36" d="M7.131,59.632a17.227,17.227,0,0,1-.937-6.191c.047-.914.091-1.807.2-2.671l-.185.038c-.1.852-.147,1.728-.191,2.624a17.38,17.38,0,0,0,.964,6.311Z" transform="translate(-4.242 -35.852)" fill="#fff"/>
      <path id="Path_37" data-name="Path 37" d="M101.135,51.1a20.627,20.627,0,0,0,1.407-6.693,5.189,5.189,0,0,0-.629-2.327,7.907,7.907,0,0,1-.52-1.422,7.639,7.639,0,0,0-1.763-3.57l-.206.035a7.5,7.5,0,0,1,1.784,3.573,8.042,8.042,0,0,0,.532,1.469,5.108,5.108,0,0,1,.614,2.248,20.427,20.427,0,0,1-1.393,6.626,10.444,10.444,0,0,1-3.232,3.62l.138.118a10.772,10.772,0,0,0,3.268-3.677Z" transform="translate(-69.014 -26.192)" fill="#fff"/>
      <path id="Path_38" data-name="Path 38" d="M8.04,27.562A9.065,9.065,0,0,0,7,30.694l.156.156A9.029,9.029,0,0,1,8.2,27.65a6.482,6.482,0,0,1,1.546-1.443,8.465,8.465,0,0,0,1.149-.984,10.8,10.8,0,0,1,2.48-2.007,1.725,1.725,0,0,0-.244-.056A10.7,10.7,0,0,0,10.763,25.1a8.359,8.359,0,0,1-1.117.961,6.4,6.4,0,0,0-1.606,1.5Z" transform="translate(-4.943 -16.355)" fill="#fff"/>
      <path id="Path_39" data-name="Path 39" d="M75.574,13.662c.611.347,1.175.676,1.66.9a5.846,5.846,0,0,1,1.719,1.651,8.365,8.365,0,0,0,1.1,1.211c.229.191.452.373.67.549.432.35.837.682,1.216,1.011l.176-.082c-.4-.347-.826-.7-1.281-1.067l-.667-.547a8.377,8.377,0,0,1-1.075-1.175,5.9,5.9,0,0,0-1.781-1.7c-.467-.22-1.04-.549-1.648-.9l-.685-.388c-.082.026-.162.053-.238.071C75.028,13.347,75.307,13.509,75.574,13.662Z" transform="translate(-52.779 -9.272)" fill="#fff"/>
      <path id="Path_40" data-name="Path 40" d="M28.979,12.1a27.377,27.377,0,0,1,2.8-1.446,19.339,19.339,0,0,0,1.957-1.1c1.525-.928,3.106-1.892,4.7-1.81a8.63,8.63,0,0,1,3.176,1.131,1.61,1.61,0,0,1-.024-.212,8.558,8.558,0,0,0-3.144-1.1c-1.66-.082-3.261.881-4.813,1.839a19.845,19.845,0,0,1-1.931,1.09,27.473,27.473,0,0,0-2.847,1.469,1.66,1.66,0,0,0,.126.139Z" transform="translate(-20.373 -5.341)" fill="#fff"/>
      <path id="Path_41" data-name="Path 41" d="M32.75,10.654c-.159-.294-1.557-1.175-1.519-1.4A1.117,1.117,0,0,0,30.8,8.2c-.538-.414-1.175-.958-1.933-1.587C27.5,5.47,25.808,4.048,24.089,2.843c-.244-.17-1.833-1.237-2.509-1.566A11.952,11.952,0,0,0,17.309,0c-2.88,0-5.877,2.453-8.274,4.425-.4.326-.779.638-1.122.908a1.222,1.222,0,0,0-.394.544A1.537,1.537,0,0,0,7,6.17c-.294.262-.77.611-1.272.981A21.215,21.215,0,0,0,2.547,9.843,10.39,10.39,0,0,0,.508,13.322l-.182.588A14.641,14.641,0,0,0,0,16.128a26.33,26.33,0,0,0,1.469,8.445c.12.341.5,1.31.682,1.7a12.594,12.594,0,0,0,4.434,5.583A11.859,11.859,0,0,0,9.1,33.029a1.431,1.431,0,0,0,.476.079,2.644,2.644,0,0,0,1.31-.447c.861,1.078,1.372,1.175,1.563,1.2a71.143,71.143,0,0,0,7.9.429c.635,0,.987.541,1.272.317.085,0,1.014-.379,1.1-.379.167,0,.881-.787,1.061-.837a21.373,21.373,0,0,0,5.7-2.591,1.434,1.434,0,0,0,.535-.658h0a1.266,1.266,0,0,0,.926-.391A17.381,17.381,0,0,0,35.28,18.543C35.292,15.726,33.346,11.794,32.75,10.654ZM30.22,29.045c-.347.367-1.548-.776-1.548-.776s.814,1.3.256,1.681A31.616,31.616,0,0,1,22.2,32.826a.685.685,0,0,1-.861-.5s.191.946-.976.946a69.789,69.789,0,0,1-7.734-.414c-.508-.085-1.51-1.625-1.51-1.625s-1.14,1.025-1.681.84a11.11,11.11,0,0,1-2.3-1.075,11.741,11.741,0,0,1-4.052-5.136c-.032-.071.135-.276.408-.549h0l.029-.038.035-.035.079-.076.029-.026.112-.106.038-.035.082-.076.05-.044L4.03,24.8l.047-.044L4.2,24.64l.056-.047.079-.071.065-.059.073-.062.068-.059.088-.073.1-.088.073-.062.076-.065L4.945,24l.076-.062.059-.053.138-.115.053-.044a.808.808,0,0,0,.076-.065l.05-.041.079-.062.038-.035.253-.206.038-.029.071-.05.044-.032a1.152,1.152,0,0,1,.1-.079l.038-.032L6.1,23.06l.038-.032L6.176,23l.032-.026.035-.029.047-.038H6.3l.029-.024h0l.029-.021a14.036,14.036,0,0,0-2.715.588c-.773.294-1.175.881-1.216.79a25.187,25.187,0,0,1-1.416-8.113,1.2,1.2,0,0,1,.018-.209h0a.752.752,0,0,1,0-.079v-.018a.448.448,0,0,1,.021-.071v-.021a.294.294,0,0,1,.026-.062v-.024c0-.021.021-.038.029-.056a.173.173,0,0,0,.065-.018l.035-.053V15.5l.038-.05v-.018l.041-.047.018-.015.044-.044h.018l.062-.047h.018l.053-.038h0l.059-.035h0a1.913,1.913,0,0,1,.511-.2h.652l-.8-.937h0l-.452-.441s.071-.226.223-.588h0c.029-.073.065-.153.1-.235v-.024c.018-.032.032-.068.05-.1v-.029c.018-.038.038-.076.059-.118h0l.073-.141V12.37l.068-.12.021-.041.062-.109a.049.049,0,0,1,.024-.041l.076-.132v-.018c.032-.053.062-.1.1-.156l.021-.035c.026-.038.05-.079.076-.12l.035-.05c.024-.038.05-.076.076-.112a.267.267,0,0,1,.112-.056c.032-.05.068-.1.1-.147h0l.12-.159L2.9,11.03l.091-.118.044-.053.094-.115L3.17,10.7c.044-.056.091-.109.138-.162A41.989,41.989,0,0,1,7.681,6.952c.494-.441,1.56.226,1.56.226S8.18,6.435,8.547,6.147l.212-.17.076-.059L8.979,5.8l.091-.073L9.2,5.618l.1-.079.144-.12.079-.065.27-.22.076-.062.159-.129.1-.085.141-.115.115-.091.138-.112.118-.094.141-.115L10.9,4.24l.144-.115.118-.091.147-.115.115-.091.15-.115.115-.085.156-.12.1-.073c.2-.147.4-.294.588-.435l.106-.073.159-.106.129-.1.156-.1.138-.079c.05-.035.1-.065.153-.1l.126-.079.156-.094.129-.076.153-.088.129-.073.153-.082.132-.071L14.5,1.8l.132-.065.153-.073.132-.059.15-.068.132-.053.153-.062.129-.047.153-.056.129-.041.15-.047.129-.035.153-.041.118-.024c.1-.024.2-.041.294-.056l.126-.021h0a4.381,4.381,0,0,1,.588-.041,10.347,10.347,0,0,1,3.82,1.175c.356.173.182.864.264,1.331a.13.13,0,0,0,0,.029.14.14,0,0,0,.021.088v.021a.408.408,0,0,0,.035.082h0a.423.423,0,0,0,.053.073h0a.391.391,0,0,0,.076.062.326.326,0,0,0,.079.035h0a.373.373,0,0,0,.082.018h0a.444.444,0,0,0,.088,0h.094a1.557,1.557,0,0,0,.217-.053h0l.118-.038h0l.176-.021h0c.391-.141.8-.294,1.055-.132,2.6,1.819,5.1,4.114,6.682,5.33.405.311-2.124,1.2-2.124,1.2l-.109.229h0l-.811,1.722H27.2l.062-.026H27.3l.062-.026.047-.021.056-.026.05-.021L27.6,12l.056-.024.068-.029.079-.032.085-.038.068-.026.091-.038.091-.038.085-.035.071-.029.132-.05.073-.029.1-.041.094-.035.115-.044.073-.026.153-.056.065-.021.118-.041.065-.024.159-.053.068-.021.15-.047.056-.018.141-.041.056-.018.15-.041h0c.829-.214,1.554-.276,1.763.091.99,1.9,2.424,5.174,2.424,7.4A16.276,16.276,0,0,1,30.22,29.045Z" transform="translate(0 0)" fill="#fff"/>
      <path id="Path_42" data-name="Path 42" d="M43.343,45.811a4.627,4.627,0,0,0-.535-2.057,6.831,6.831,0,0,1-.45-1.258A6.8,6.8,0,0,0,40.543,39l-.173.065a6.7,6.7,0,0,1,1.825,3.461,6.915,6.915,0,0,0,.458,1.29,4.559,4.559,0,0,1,.523,1.983A18.243,18.243,0,0,1,41.9,51.632c-1.058,2.136-3.479,3.714-5.918,5.1A14.772,14.772,0,0,1,29.2,58.2c-.32,0-.635,0-.934-.026-.2,0-.417-.018-.649-.018-.491,0-1,.026-1.487.053s-.978.05-1.452.05a5.27,5.27,0,0,1-2.835-.641,16.2,16.2,0,0,1-4.387-4.56,10.95,10.95,0,0,1-.782-1.525l-.135.115a11.233,11.233,0,0,0,.779,1.513,16.507,16.507,0,0,0,4.44,4.613,5.478,5.478,0,0,0,2.938.67c.479,0,.978-.026,1.469-.053s.99-.05,1.469-.05h.638c.294.021.623.029.946.029a15.04,15.04,0,0,0,6.864-1.507c2.471-1.4,4.907-3,5.982-5.177a18.376,18.376,0,0,0,1.279-5.875Z" transform="translate(-11.68 -27.541)" fill="#fff"/>
      <path id="Path_43" data-name="Path 43" d="M13.388,32.839a15.17,15.17,0,0,1-.843-5.683,12.049,12.049,0,0,1,1.193-5.539,5.753,5.753,0,0,1,1.375-1.261,7.6,7.6,0,0,0,1.023-.858,14.67,14.67,0,0,1,4.842-3.1,17.65,17.65,0,0,0,1.734-.949,8.376,8.376,0,0,1,3.964-1.566h.194a11.587,11.587,0,0,1,4.149,1.789c.538.311,1.043.608,1.469.808a5.169,5.169,0,0,1,1.5,1.469,7.727,7.727,0,0,0,.961,1.078l.588.488c.373.309.723.588,1.052.881l.05-.132c-.294-.294-.646-.588-1-.881-.191-.156-.388-.317-.588-.488a7.407,7.407,0,0,1-.937-1.052,5.208,5.208,0,0,0-1.56-1.516,13.372,13.372,0,0,1-1.446-.8A11.8,11.8,0,0,0,26.88,13.72h-.206a8.486,8.486,0,0,0-4.058,1.59,16.178,16.178,0,0,1-1.716.94A14.676,14.676,0,0,0,16,19.385a8.01,8.01,0,0,1-1,.837,5.419,5.419,0,0,0-1.419,1.308,12.19,12.19,0,0,0-1.216,5.615,15.382,15.382,0,0,0,.855,5.733Z" transform="translate(-8.725 -9.689)" fill="#fff"/>
      <path id="Path_44" data-name="Path 44" d="M42.166,41.641c.973,1.487,2.183,3.341,2.248,4.7a19.642,19.642,0,0,1-1.1,5.706c-.162.458-.92.976-1.651,1.469a5.965,5.965,0,0,0-1.387,1.131c-1.313,1.957-1.9,2.28-4.313,3.056a15.473,15.473,0,0,1-3.364.588c-.376.018-.846.059-1.343.106-.852.076-1.816.165-2.677.165a5.289,5.289,0,0,1-1.763-.217,13.009,13.009,0,0,1-5.4-4.413,7.275,7.275,0,0,1-.934-2l-.141.112a7.387,7.387,0,0,0,.937,1.986,13.2,13.2,0,0,0,5.5,4.481,5.427,5.427,0,0,0,1.8.229c.881,0,1.836-.088,2.691-.167.5-.044.964-.088,1.334-.106a15.3,15.3,0,0,0,3.408-.588c2.459-.793,3.059-1.122,4.407-3.123a5.744,5.744,0,0,1,1.34-1.084c.755-.517,1.537-1.049,1.719-1.557a20.365,20.365,0,0,0,1.1-5.774c-.068-1.4-1.293-3.276-2.277-4.784-.153-.235-.294-.461-.435-.676l-.156.071C41.854,41.162,42.007,41.4,42.166,41.641Z" transform="translate(-14.364 -28.868)" fill="#fff"/>
      <path id="Path_45" data-name="Path 45" d="M17.428,32.776a9.039,9.039,0,0,1,1.216-4.869,9.9,9.9,0,0,1,3.138-2.968c.356-.256.69-.5.987-.726,1.857-1.449,3.708-2.756,5.962-2.862.2,0,.4-.015.588-.015a7.98,7.98,0,0,1,3.661.9,20.274,20.274,0,0,1,2.524,1.39c.382.267.8.514,1.2.749a6.44,6.44,0,0,1,2.5,2.1c.076.132.162.273.256.42l.073-.191c-.071-.112-.135-.22-.194-.323a6.679,6.679,0,0,0-2.565-2.163c-.4-.232-.811-.476-1.175-.74a20.2,20.2,0,0,0-2.559-1.4,8.034,8.034,0,0,0-3.732-.911H28.72c-2.3.112-4.178,1.434-6.056,2.9-.294.229-.629.47-.984.723a10.061,10.061,0,0,0-3.188,3.032,9.4,9.4,0,0,0-1.237,4.963,22.108,22.108,0,0,0,.817,5.083l.167-.026a21.987,21.987,0,0,1-.814-5.066Z" transform="translate(-12.18 -14.95)" fill="#fff"/>
      <path id="Path_46" data-name="Path 46" d="M30.635,46.389a4.6,4.6,0,0,1-1.41-.179c-.232-.076-.617-.167-1.023-.264a10.443,10.443,0,0,1-1.983-.588,13.816,13.816,0,0,1-3.667-3.47A13.833,13.833,0,0,1,20.689,36.5a8.365,8.365,0,0,1,.834-3.47c.173-.447.335-.881.435-1.208a4.069,4.069,0,0,1,1.011-1.407,5.68,5.68,0,0,0,.717-.858c.109-.173.212-.347.311-.511.952-1.587,1.707-2.841,3.743-3.617a5.83,5.83,0,0,0,.958-.517,4.069,4.069,0,0,1,1.619-.705,20.392,20.392,0,0,1,2.309-.126,12.156,12.156,0,0,1,2.759.262c1.966.5,3.664,2.116,5.21,3.787a11.45,11.45,0,0,1,2.453,5.709,13.955,13.955,0,0,0,.358,1.593,5.284,5.284,0,0,1,.179,3.426,12.7,12.7,0,0,1-3.115,4.031l-.547.467a8.218,8.218,0,0,1-4.572,2.453c-.4.05-.881.123-1.366.2a22.545,22.545,0,0,1-3.35.38Zm2-22.134a20.675,20.675,0,0,0-2.289.126,3.975,3.975,0,0,0-1.551.682,6.117,6.117,0,0,1-.993.532c-1.98.755-2.683,1.925-3.658,3.544l-.309.5a6.129,6.129,0,0,1-.74.881,3.847,3.847,0,0,0-.973,1.337c-.1.344-.264.77-.438,1.222a8.274,8.274,0,0,0-.826,3.385,13.464,13.464,0,0,0,1.831,5.289,13.4,13.4,0,0,0,3.611,3.46,10.822,10.822,0,0,0,1.942.588c.411.1.8.188,1.037.267a4.442,4.442,0,0,0,1.357.17,22.273,22.273,0,0,0,3.326-.367c.5-.079.97-.156,1.375-.2a8.1,8.1,0,0,0,4.481-2.415l.547-.467A12.584,12.584,0,0,0,43.433,38.8a5.108,5.108,0,0,0-.185-3.314,14.18,14.18,0,0,1-.364-1.613,11.411,11.411,0,0,0-2.4-5.618c-1.528-1.651-3.206-3.232-5.13-3.74a12.047,12.047,0,0,0-2.715-.256Z" transform="translate(-14.595 -17.006)" fill="#fff"/>
      <path id="Path_47" data-name="Path 47" d="M35.427,48.951a2.986,2.986,0,0,1-.881-.141A15.669,15.669,0,0,1,30.1,46.422a10.263,10.263,0,0,1-2.4-5.071,3.863,3.863,0,0,1,.408-2.392c.109-.262.217-.532.314-.826a14.159,14.159,0,0,1,.832-1.939c.165-.294.311-.588.452-.9a4.657,4.657,0,0,1,1.416-2.019c.25-.173.552-.411.881-.664a9.582,9.582,0,0,1,3.461-2.057,7.459,7.459,0,0,1,1.1-.062,20.627,20.627,0,0,1,3.458.32A3.623,3.623,0,0,1,41.4,31.886a4.407,4.407,0,0,0,.964.843,4.686,4.686,0,0,1,2.853,2.835,10.549,10.549,0,0,1,.8,2.351c.05.259.129.588.214.931a8.514,8.514,0,0,1,.4,3.2,9.364,9.364,0,0,1-2.909,4.31c-1.149.984-3.661,1.678-5.465,1.972a10.232,10.232,0,0,0-1.29.317A5.431,5.431,0,0,1,35.427,48.951Zm1.134-18.3a7.075,7.075,0,0,0-1.075.068A9.323,9.323,0,0,0,32.1,32.738c-.323.253-.629.494-.881.673a4.526,4.526,0,0,0-1.36,1.951c-.144.294-.294.623-.461.917a14.081,14.081,0,0,0-.814,1.907c-.1.294-.212.588-.32.837a3.674,3.674,0,0,0-.4,2.295A9.807,9.807,0,0,0,30.218,46.3a15.637,15.637,0,0,0,4.369,2.351,2.838,2.838,0,0,0,.846.132,5.16,5.16,0,0,0,1.493-.294,10.321,10.321,0,0,1,1.31-.32c1.781-.294,4.26-.973,5.38-1.933a9.188,9.188,0,0,0,2.856-4.222,8.41,8.41,0,0,0-.4-3.118c-.085-.347-.165-.673-.217-.937a10.3,10.3,0,0,0-.79-2.321,4.536,4.536,0,0,0-2.774-2.759A4.407,4.407,0,0,1,41.274,32a3.613,3.613,0,0,0-1.29-1.028,20.168,20.168,0,0,0-3.423-.309Z" transform="translate(-19.52 -21.528)" fill="#fff"/>
      <path id="Path_48" data-name="Path 48" d="M42,50.032a9.213,9.213,0,0,1-3.015-.8l-.379-.147a10.913,10.913,0,0,0-1.322-.364c-1.149-.27-2.333-.549-2.906-1.449A3.393,3.393,0,0,1,33.94,45.2v-.77a12.526,12.526,0,0,1,.053-1.839c.041-.294.059-.588.076-.881a4.044,4.044,0,0,1,.505-2.1c.147-.22.314-.511.5-.82a8.2,8.2,0,0,1,2.154-2.774A15.249,15.249,0,0,1,41,34.764a.852.852,0,0,1,.126,0,3.923,3.923,0,0,1,1.343.432,3.755,3.755,0,0,0,1.049.376,4.041,4.041,0,0,1,3.232,1.39,8.956,8.956,0,0,1,1.407,1.66,6.559,6.559,0,0,1,.57,2.644c.024.276.044.535.073.743.047.361.135.746.217,1.117A4.435,4.435,0,0,1,49,46.218a5.929,5.929,0,0,1-2.662,2c-.4.2-.767.388-1.108.588l-.294.176A5.5,5.5,0,0,1,42.2,50.029C42.132,50.032,42.067,50.032,42,50.032Zm-.881-15.109a.5.5,0,0,0-.1,0A14.8,14.8,0,0,0,37.3,36.157a7.931,7.931,0,0,0-2.1,2.715c-.179.311-.35.588-.5.829a3.942,3.942,0,0,0-.476,2.013c-.018.294-.035.588-.079.881a11.647,11.647,0,0,0-.05,1.8v.782a3.268,3.268,0,0,0,.411,1.983c.535.84,1.687,1.111,2.8,1.372a11.039,11.039,0,0,1,1.363.4l.379.144a9.077,9.077,0,0,0,2.938.787h.185a5.4,5.4,0,0,0,2.662-1.025c.094-.059.191-.118.294-.176.344-.206.717-.4,1.117-.588a5.777,5.777,0,0,0,2.589-1.928,4.29,4.29,0,0,0,0-2.974c-.085-.376-.173-.764-.223-1.134-.026-.212-.05-.473-.073-.749A6.447,6.447,0,0,0,48,38.727,8.785,8.785,0,0,0,46.618,37.1a3.947,3.947,0,0,0-3.126-1.349,3.858,3.858,0,0,1-1.108-.388,3.87,3.87,0,0,0-1.255-.447Z" transform="translate(-23.959 -24.548)" fill="#fff"/>
      <path id="Path_49" data-name="Path 49" d="M43.176,51.566h-.241a2.938,2.938,0,0,1-.914-.347,4.038,4.038,0,0,0-.588-.256,7.419,7.419,0,0,1-2.483-1.469,7.931,7.931,0,0,0-.787-.549,3.9,3.9,0,0,1-1.64-1.548,5.479,5.479,0,0,1-.065-2.268c.026-.294.056-.588.059-.808a2.621,2.621,0,0,1,.37-1.034,3.652,3.652,0,0,0,.294-.635c.035-.123.068-.244.1-.361A4.369,4.369,0,0,1,38.9,39.472a3.338,3.338,0,0,0,.473-.464,2.462,2.462,0,0,1,.829-.717,9.532,9.532,0,0,1,2.976-.711,7.039,7.039,0,0,1,3.645,1.52,7.509,7.509,0,0,1,2.351,3.129,9.229,9.229,0,0,0,.461.917,3.544,3.544,0,0,1,.649,2.089A8.227,8.227,0,0,1,49.109,48.2a7.863,7.863,0,0,1-3.326,2.644,6.809,6.809,0,0,1-2.607.722Zm0-13.81a9.385,9.385,0,0,0-2.915.7,2.3,2.3,0,0,0-.779.649,3.526,3.526,0,0,1-.5.485,4.174,4.174,0,0,0-1.543,2.733c-.032.118-.065.238-.1.364a3.943,3.943,0,0,1-.294.664,2.474,2.474,0,0,0-.347.958c0,.229-.032.517-.062.82a5.479,5.479,0,0,0,.056,2.189,3.715,3.715,0,0,0,1.572,1.469,8.52,8.52,0,0,1,.805.558,7.15,7.15,0,0,0,2.418,1.449,3.723,3.723,0,0,1,.617.264,2.8,2.8,0,0,0,.849.326h.229a6.837,6.837,0,0,0,2.53-.682,7.663,7.663,0,0,0,3.25-2.594,8,8,0,0,0,1.149-2.9,3.358,3.358,0,0,0-.632-1.983,8.94,8.94,0,0,1-.467-.934,7.28,7.28,0,0,0-2.277-3.053,7.068,7.068,0,0,0-3.567-1.475Z" transform="translate(-25.688 -26.538)" fill="#fff"/>
      <path id="Path_50" data-name="Path 50" d="M49.185,54.865a2.416,2.416,0,0,1-.294-.018,1.837,1.837,0,0,1-.588-.256,2.351,2.351,0,0,0-.353-.179,4.628,4.628,0,0,1-1.516-1.031,4.838,4.838,0,0,0-.473-.37,2.525,2.525,0,0,1-.984-1.055,3.474,3.474,0,0,1,.041-1.446c.026-.188.056-.364.065-.5a1.666,1.666,0,0,1,.273-.649,2.159,2.159,0,0,0,.2-.382c.026-.076.05-.153.076-.223a2.784,2.784,0,0,1,1.128-1.731,2.14,2.14,0,0,0,.294-.27,1.607,1.607,0,0,1,.567-.414A6.1,6.1,0,0,1,49.564,46a4.484,4.484,0,0,1,2.254,1.1,4.7,4.7,0,0,1,1.366,2.057,5.8,5.8,0,0,0,.253.588,2.212,2.212,0,0,1,.335,1.357,5.136,5.136,0,0,1-.852,1.839,4.978,4.978,0,0,1-2.2,1.581,4.819,4.819,0,0,1-1.535.343Zm.253-8.7a6.208,6.208,0,0,0-1.731.332,1.413,1.413,0,0,0-.5.382,2.4,2.4,0,0,1-.335.294,2.636,2.636,0,0,0-1.064,1.642c-.024.073-.05.147-.076.223a2.279,2.279,0,0,1-.2.4,1.5,1.5,0,0,0-.25.588,3.522,3.522,0,0,1-.071.517,3.458,3.458,0,0,0-.044,1.366,2.321,2.321,0,0,0,.923.97,4.957,4.957,0,0,1,.488.385,4.484,4.484,0,0,0,1.469,1,2.422,2.422,0,0,1,.382.191,1.763,1.763,0,0,0,.511.235,2.01,2.01,0,0,0,.267.018,4.669,4.669,0,0,0,1.469-.338,4.769,4.769,0,0,0,2.121-1.5,5,5,0,0,0,.823-1.763,2.1,2.1,0,0,0-.323-1.252,6.173,6.173,0,0,1-.27-.623,4.569,4.569,0,0,0-1.308-1.992,4.334,4.334,0,0,0-2.163-1.064Z" transform="translate(-31.717 -32.484)" fill="#fff"/>
      <path id="Path_51" data-name="Path 51" d="M46.152,52.815a2.9,2.9,0,0,1-.344-.024,2.3,2.3,0,0,1-.723-.314,3.288,3.288,0,0,0-.455-.229,5.856,5.856,0,0,1-1.936-1.293,6.07,6.07,0,0,0-.6-.47,3.166,3.166,0,0,1-1.278-1.319,4.375,4.375,0,0,1,.062-1.825c.038-.238.073-.461.088-.638a2.139,2.139,0,0,1,.353-.817,3.294,3.294,0,0,0,.256-.488c.032-.1.065-.194.1-.294a3.558,3.558,0,0,1,1.452-2.189,2.848,2.848,0,0,0,.4-.347,1.969,1.969,0,0,1,.72-.52,7.8,7.8,0,0,1,2.448-.429,5.673,5.673,0,0,1,2.877,1.372A5.79,5.79,0,0,1,51.3,45.6a6.985,6.985,0,0,0,.323.752,2.777,2.777,0,0,1,.417,1.707,6.511,6.511,0,0,1-1.1,2.324,6.426,6.426,0,0,1-2.824,1.983A6.185,6.185,0,0,1,46.152,52.815Zm.4-11.03a8.148,8.148,0,0,0-2.245.432,1.9,1.9,0,0,0-.655.482,2.959,2.959,0,0,1-.429.367,3.388,3.388,0,0,0-1.381,2.1c-.032.094-.065.188-.1.294a3.077,3.077,0,0,1-.27.523,1.96,1.96,0,0,0-.326.743c-.015.182-.053.411-.091.655a4.289,4.289,0,0,0-.068,1.742,2.945,2.945,0,0,0,1.175,1.234,7.318,7.318,0,0,1,.635.482A5.8,5.8,0,0,0,44.666,52.1a2.847,2.847,0,0,1,.488.241,2.351,2.351,0,0,0,.661.294,2.577,2.577,0,0,0,.338.021,6.088,6.088,0,0,0,1.916-.435A6.282,6.282,0,0,0,50.8,50.285a6.352,6.352,0,0,0,1.07-2.26,2.65,2.65,0,0,0-.405-1.6,7.028,7.028,0,0,1-.332-.767,5.8,5.8,0,0,0-1.675-2.53,5.566,5.566,0,0,0-2.783-1.34Z" transform="translate(-28.767 -29.391)" fill="#fff"/>
      <path id="Path_52" data-name="Path 52" d="M53.255,56.64h-.326a2.35,2.35,0,0,1-.955-.426l-.238-.147A2.6,2.6,0,0,1,50.561,55a1.916,1.916,0,0,1-.191-1.031,5.014,5.014,0,0,1,.079-.679c.024-.1.041-.209.056-.311a1.545,1.545,0,0,1,.253-.767c.056-.073.123-.17.194-.273a2.839,2.839,0,0,1,.849-.926,4.754,4.754,0,0,1,1.355-.27h0a1.14,1.14,0,0,1,.508.241,1.32,1.32,0,0,0,.326.182,1.514,1.514,0,0,1,1.087.69,3.8,3.8,0,0,1,.435.693c.035.076.085.17.135.273a2.967,2.967,0,0,1,.385.993,3.1,3.1,0,0,1-.488,1.6A3.742,3.742,0,0,1,54.11,56.47,1.96,1.96,0,0,1,53.255,56.64Zm-.085-5.747a4.634,4.634,0,0,0-1.3.259,2.679,2.679,0,0,0-.782.881c-.073.1-.141.2-.2.279a1.44,1.44,0,0,0-.217.688c-.018.109-.032.217-.059.326a4.95,4.95,0,0,0-.073.646,1.763,1.763,0,0,0,.173.955,2.461,2.461,0,0,0,1.1.993c.079.044.159.1.244.15a2.254,2.254,0,0,0,.881.4h.314a1.816,1.816,0,0,0,.8-.17,3.6,3.6,0,0,0,1.36-.993,2.921,2.921,0,0,0,.464-1.5,2.991,2.991,0,0,0-.37-.931c-.053-.1-.1-.2-.141-.294a3.414,3.414,0,0,0-.414-.629,1.348,1.348,0,0,0-.993-.635,1.366,1.366,0,0,1-.379-.206,1.211,1.211,0,0,0-.408-.219Z" transform="translate(-35.564 -35.831)" fill="#fff"/>
      <path id="Path_53" data-name="Path 53" d="M56.091,58.754h-.4a.714.714,0,0,1-.276-.085.76.76,0,0,0-.147-.059l-.091-.018a1.155,1.155,0,0,1-.752-.391.976.976,0,0,0-.112-.106.679.679,0,0,1-.2-.223,2.544,2.544,0,0,1-.241-.767,1.842,1.842,0,0,1,.294-.976,1.8,1.8,0,0,1,.738-.661,2.189,2.189,0,0,0,.209-.126.843.843,0,0,1,.532-.2,1.954,1.954,0,0,1,.773.264l.167.094a1.4,1.4,0,0,1,.652.558l.065.126a1.584,1.584,0,0,1,.223.655,6.053,6.053,0,0,1-.026.69,1.763,1.763,0,0,1-.326.632l-.044.068a1.707,1.707,0,0,1-.655.473.855.855,0,0,1-.383.052Zm-.361-.179h.361a.7.7,0,0,0,.294-.041,1.563,1.563,0,0,0,.588-.42l.047-.068a1.613,1.613,0,0,0,.294-.564c.018-.091.026-.555.024-.658a1.519,1.519,0,0,0-.2-.588c-.023-.044-.044-.085-.065-.129a1.316,1.316,0,0,0-.588-.485l-.173-.1a1.892,1.892,0,0,0-.7-.241.735.735,0,0,0-.426.176,1.879,1.879,0,0,1-.223.135,1.648,1.648,0,0,0-.664.588,1.7,1.7,0,0,0-.294.881,2.583,2.583,0,0,0,.226.705.588.588,0,0,0,.156.167.926.926,0,0,1,.138.126.973.973,0,0,0,.658.332l.088.021a1.262,1.262,0,0,1,.182.068.57.57,0,0,0,.206.071Z" transform="translate(-38.042 -38.938)" fill="#fff"/>
      <path id="Path_54" data-name="Path 54" d="M58.087,60.466a.788.788,0,0,1-.115,0H57.9a.453.453,0,0,1-.238-.059l-.073-.044a.785.785,0,0,1-.294-.226,1.41,1.41,0,0,1-.132-.382.323.323,0,0,1,.044-.185.45.45,0,0,0,.026-.071.47.47,0,0,1,.147-.353.963.963,0,0,1,.173-.15l.059-.041a.705.705,0,0,1,.267-.144.817.817,0,0,1,.464.094,1.252,1.252,0,0,1,.353.385.555.555,0,0,0,.059.079.4.4,0,0,1,.1.223,1.411,1.411,0,0,1-.044.447.931.931,0,0,1-.344.379.388.388,0,0,1-.223.056h-.156Zm-.132-1.5H57.9a.793.793,0,0,0-.191.112l-.068.047a.761.761,0,0,0-.135.118.311.311,0,0,0-.106.253.45.45,0,0,1-.041.132.452.452,0,0,0-.035.088,1.469,1.469,0,0,0,.112.329.8.8,0,0,0,.229.167l.082.05a.308.308,0,0,0,.153.029.883.883,0,0,1,.091,0,1.319,1.319,0,0,0,.156,0h.094a.206.206,0,0,0,.129-.029.732.732,0,0,0,.276-.294,1.287,1.287,0,0,0,.041-.373.259.259,0,0,0-.068-.132.694.694,0,0,1-.071-.1,1.046,1.046,0,0,0-.294-.323.746.746,0,0,0-.3-.079Z" transform="translate(-40.363 -41.528)" fill="#fff"/>
      <path id="Path_55" data-name="Path 55" d="M87.269,76.042s-1.017-.5-2.022-.882a27.853,27.853,0,0,0-3.367-.811,26.161,26.161,0,0,1,3.082,1.064,10.592,10.592,0,0,0,2.307.629Z" transform="translate(-57.821 -52.504)" fill="#fff"/>
      <path id="Path_56" data-name="Path 56" d="M82.649,44.05s-.805.267-1.537.588A20.642,20.642,0,0,0,78.9,45.966a21.009,21.009,0,0,1,2.192-1.049,8.5,8.5,0,0,0,1.557-.867Z" transform="translate(-55.717 -31.107)" fill="#fff"/>
      <path id="Path_57" data-name="Path 57" d="M19.88,39.06a13.643,13.643,0,0,1,2.092.978,30.818,30.818,0,0,1,4.26,4.275,7.91,7.91,0,0,1,.82,1.4s-1.155-1.3-1.719-1.851a27.417,27.417,0,0,0-2.894-2.351A24.152,24.152,0,0,1,19.88,39.06Z" transform="translate(-14.039 -27.583)" fill="#fff"/>
      <path id="Path_58" data-name="Path 58" d="M30.2,70.729c-.191-.144-.931.162-1.951.264s-2.351.353-2.351.353a8.746,8.746,0,0,0,2.195,0,17.151,17.151,0,0,0,2.107-.617Z" transform="translate(-18.29 -49.92)" fill="#fff"/>
      <path id="Path_59" data-name="Path 59" d="M63.82,89.4a14.369,14.369,0,0,1,1.945,3.112,12.046,12.046,0,0,1,0,2.4s-.379-1.933-.458-2.271S63.82,89.4,63.82,89.4Z" transform="translate(-45.068 -63.132)" fill="#fff"/>
    </g>
  </g>
</svg>
