<svg xmlns="http://www.w3.org/2000/svg" width="27.653" height="20" viewBox="0 0 27.653 20">
  <g id="menu-close" transform="translate(0 0)">
    <path id="Path_610" data-name="Path 610" d="M8.129,74.595H24.916l-2.351-2.361a.81.81,0,0,1,1.148-1.143l3.7,3.72a.807.807,0,0,1,.236.583s0,.007,0,.011a.809.809,0,0,1-.36.674l-3.58,3.6a.81.81,0,0,1-1.148-1.143l2.306-2.315H8.129a6.508,6.508,0,0,0,0,13.017H26.843a.81.81,0,1,1,0,1.62H8.129a8.129,8.129,0,0,1,0-16.257Z" transform="translate(0 -70.852)" fill="#fff"/>
  </g>
</svg>
