<svg xmlns="http://www.w3.org/2000/svg" width="17.299" height="17.3" viewBox="0 0 17.299 17.3"><path d="M15.975,12.4q-.068-.2-.864-.6-.216-.125-.613-.341t-.722-.4q-.324-.182-.608-.352-.045-.034-.284-.2a3.194,3.194,0,0,0-.4-.244.744.744,0,0,0-.324-.079.943.943,0,0,0-.568.324,5.533,5.533,0,0,0-.625.7,6.851,6.851,0,0,1-.6.7.866.866,0,0,1-.523.324.773.773,0,0,1-.256-.057c-.1-.038-.18-.07-.233-.1s-.144-.08-.272-.159-.2-.123-.216-.131a11.941,11.941,0,0,1-2.67-1.977A11.935,11.935,0,0,1,4.214,7.147q-.011-.023-.131-.216t-.159-.273a2.463,2.463,0,0,1-.1-.233.769.769,0,0,1-.057-.256A.866.866,0,0,1,4.1,5.647a6.844,6.844,0,0,1,.7-.6,5.53,5.53,0,0,0,.7-.625.943.943,0,0,0,.324-.568.742.742,0,0,0-.079-.324,3.159,3.159,0,0,0-.244-.4q-.165-.239-.2-.284-.17-.284-.352-.608t-.4-.722q-.216-.4-.341-.614-.4-.8-.6-.863A.636.636,0,0,0,3.374,0a3.744,3.744,0,0,0-.8.114,4.5,4.5,0,0,0-.778.239A3.046,3.046,0,0,0,.59,1.738,4.406,4.406,0,0,0,.01,3.852a4.388,4.388,0,0,0,.04.6A4.9,4.9,0,0,0,.192,5.1q.1.364.165.54t.233.631q.17.455.2.557a10.293,10.293,0,0,0,.943,1.989,16.849,16.849,0,0,0,2.449,3.006,16.856,16.856,0,0,0,3.006,2.449,10.308,10.308,0,0,0,1.989.943q.1.034.557.2t.631.233q.176.063.54.165a4.946,4.946,0,0,0,.653.142,4.215,4.215,0,0,0,2.71-.54,3.044,3.044,0,0,0,1.386-1.2,4.475,4.475,0,0,0,.239-.778,3.736,3.736,0,0,0,.114-.8A.634.634,0,0,0,15.975,12.4Z" transform="translate(0.64 0.65)" fill="none" stroke="#8e6042" stroke-width="1.3"/></svg>