<svg xmlns="http://www.w3.org/2000/svg" width="15.366" height="16.3" viewBox="0 0 15.366 16.3"><g transform="translate(49.2)"><path d="M26.249,10.472a2.917,2.917,0,0,0-2.308,1.137l-4.478-2.5a2.924,2.924,0,0,0,.162-.961,2.86,2.86,0,0,0-.166-.965l4.474-2.5a2.911,2.911,0,1,0-.6-1.77,2.845,2.845,0,0,0,.166.965l-4.471,2.5a2.911,2.911,0,1,0,.007,3.537l4.474,2.5a2.913,2.913,0,1,0,2.742-1.943Zm0-9.555a2,2,0,1,1-2,2A2,2,0,0,1,26.249.917Zm-9.531,9.23a2,2,0,1,1,2-2A2,2,0,0,1,16.717,10.147Zm9.531,5.236a2,2,0,1,1,2-2A2,2,0,0,1,26.249,15.383Z" transform="translate(-63)" fill="#8e6042"/></g></svg>