<svg xmlns="http://www.w3.org/2000/svg" width="15.128" height="17.25" viewBox="0 0 15.128 17.25"><g transform="translate(0.15 0.153)"><path d="M46.432,3.034,39.647.056a.662.662,0,0,0-.534,0L32.394,3.035A.662.662,0,0,0,32,3.641V8.87a8.525,8.525,0,0,0,2.143,5.543,7.741,7.741,0,0,0,2.347,1.829,6.493,6.493,0,0,0,2.924.7,6.711,6.711,0,0,0,3.964-1.318.662.662,0,0,0-.779-1.07,5.4,5.4,0,0,1-3.185,1.065c-3.187,0-6.09-3.218-6.09-6.752v-4.8l6.058-2.686L45.5,4.073v4.8a7.008,7.008,0,0,1-1.013,3.567.662.662,0,0,0,1.138.676,8.332,8.332,0,0,0,1.2-4.244V3.641A.662.662,0,0,0,46.432,3.034Z" transform="translate(-32 0)" fill="#919191" stroke="#919191" stroke-width="0.3"/><path d="M131.517,150.247l-4.1,5.136-2.3-2.217a.662.662,0,0,0-.917.956l2.33,2.247,0,0a1.273,1.273,0,0,0,.885.355h.053a1.274,1.274,0,0,0,.906-.428l.024-.028,4.146-5.195a.662.662,0,1,0-1.033-.829Z" transform="translate(-120.949 -145.039)" fill="#919191" stroke="#919191" stroke-width="0.3"/></g></svg>