<svg xmlns="http://www.w3.org/2000/svg" width="161.07" height="158.231" viewBox="0 0 161.07 158.231"><path d="M38.508,116.094c-7.767-4.87-17.439-14.756-22.912-23.409a54.852,54.852,0,0,1-3.689-6.9l-.617.617a55.669,55.669,0,0,0,3.622,6.707c5.567,8.8,15.306,18.78,23.167,23.663l.389.228h.161a2.831,2.831,0,0,0,1.6,0,16.353,16.353,0,0,1-1.717-.912Z" transform="translate(3.855 29.294)" fill="#8f6042"/><path d="M117.252,97.768c-.121-.268-.241-.523-.362-.738a153.593,153.593,0,0,1-15.36,9.913c-10.866,6.291-27.862,8.5-39.868,7.9a98.117,98.117,0,0,0-11.04.282c-3.22.188-6.533.389-9.672.309a10.072,10.072,0,0,0,.966.832c2.884,0,5.862-.161,8.76-.335a99.764,99.764,0,0,1,10.946-.282c12.073.617,29.3-1.623,40.324-8.049A155.607,155.607,0,0,0,117.252,97.768Z" transform="translate(13.983 33.132)" fill="#8f6042"/><path d="M11.135,91.229A78.65,78.65,0,0,1,6.856,62.964c.215-4.172.416-8.25.912-12.194l-.845.174c-.47,3.89-.671,7.888-.872,11.979a79.348,79.348,0,0,0,4.4,28.815Z" transform="translate(2.051 17.336)" fill="#8f6042"/><path d="M113.278,101.064c3.582-7.432,5.943-20.994,6.426-30.559.188-3.676-1.341-7.217-2.871-10.624a36.1,36.1,0,0,1-2.374-6.493,34.878,34.878,0,0,0-8.049-16.3l-.939.161a34.261,34.261,0,0,1,8.143,16.312,36.715,36.715,0,0,0,2.428,6.707c1.462,3.327,2.978,6.707,2.8,10.262-.483,9.484-2.817,22.912-6.359,30.25-3.045,6.3-8.371,11.7-14.756,16.527l.63.537C104.8,112.91,110.165,107.463,113.278,101.064Z" transform="translate(33.371 12.665)" fill="#8f6042"/><path d="M11.749,43.255A41.384,41.384,0,0,0,7,57.555l.711.711a41.223,41.223,0,0,1,4.762-14.609c1.18-2.066,4.172-4.36,7.056-6.587a38.647,38.647,0,0,0,5.245-4.494A49.285,49.285,0,0,1,36.1,23.415a7.874,7.874,0,0,0-1.113-.255,48.856,48.856,0,0,0-10.812,8.88,38.164,38.164,0,0,1-5.1,4.387C16.068,38.694,13.023,41.042,11.749,43.255Z" transform="translate(2.39 7.908)" fill="#8f6042"/><path d="M78.55,15.558c2.79,1.583,5.366,3.085,7.579,4.1C88.986,21,91.495,24.157,93.977,27.2a38.192,38.192,0,0,0,5.017,5.527c1.046.872,2.066,1.7,3.059,2.509,1.972,1.6,3.823,3.112,5.554,4.615l.8-.376c-1.811-1.583-3.77-3.179-5.849-4.87l-3.045-2.5a38.245,38.245,0,0,1-4.91-5.366c-2.509-3.112-5.111-6.332-8.129-7.754-2.133-1.006-4.749-2.509-7.526-4.091L75.827,13.13c-.376.121-.738.241-1.087.322C76.055,14.123,77.329,14.86,78.55,15.558Z" transform="translate(25.521 4.483)" fill="#8f6042"/><path d="M29.44,28.271a124.993,124.993,0,0,1,12.784-6.6,88.3,88.3,0,0,0,8.934-5C58.121,12.428,65.338,8.028,72.622,8.4c4.172.2,9.39,2.5,14.5,5.165a7.338,7.338,0,0,1-.107-.966C82,10,76.848,7.8,72.662,7.586c-7.579-.376-14.89,4.024-21.973,8.4a90.6,90.6,0,0,1-8.84,4.95,125.427,125.427,0,0,0-13,6.707A7.579,7.579,0,0,0,29.44,28.271Z" transform="translate(9.851 2.583)" fill="#8f6042"/><path d="M149.52,48.641c-.724-1.341-7.11-5.366-6.935-6.385a5.1,5.1,0,0,0-1.945-4.829c-2.455-1.891-5.366-4.373-8.827-7.244C125.588,24.965,117.848,18.472,110,12.972c-1.113-.778-8.371-5.648-11.456-7.15C95.7,4.454,86.068,0,79.026,0,65.879,0,52.2,11.2,41.25,20.2c-1.824,1.489-3.555,2.911-5.124,4.145a5.58,5.58,0,0,0-1.8,2.482,7.016,7.016,0,0,0-2.374,1.341c-1.341,1.194-3.515,2.79-5.809,4.48A96.855,96.855,0,0,0,11.631,44.939a47.434,47.434,0,0,0-9.31,15.883L1.489,63.5A66.845,66.845,0,0,0,0,73.633a120.208,120.208,0,0,0,6.707,38.554c.55,1.556,2.307,5.983,3.112,7.754,5.366,11.711,12.073,20.27,20.243,25.488a54.142,54.142,0,0,0,11.5,5.366,6.533,6.533,0,0,0,2.173.362,12.073,12.073,0,0,0,5.983-2.039c3.93,4.923,6.265,5.366,7.137,5.46,8.773,1.476,29.821,1.959,36.085,1.959,2.9,0,4.507,2.468,5.809,1.449.389,0,4.628-1.73,5.044-1.73.765,0,4.024-3.6,4.843-3.823a97.578,97.578,0,0,0,25.984-11.791,6.546,6.546,0,0,0,2.441-3h0a5.782,5.782,0,0,0,4.226-1.784c11.832-12.516,19.787-33.08,19.787-51.19C161.123,71.8,152.243,53.846,149.52,48.641ZM137.97,132.6c-1.583,1.677-7.07-3.541-7.07-3.541s3.716,5.956,1.167,7.673c-6.439,4.346-21.463,10.4-30.693,13.133a3.126,3.126,0,0,1-3.931-2.307s.872,4.32-4.454,4.32c-7.418,0-27.312-.55-35.307-1.891-2.321-.389-6.9-7.418-6.9-7.418s-5.2,4.682-7.673,3.837A50.721,50.721,0,0,1,32.6,141.5c-7.888-5.057-14.018-13.589-18.5-23.449-.148-.322.617-1.261,1.865-2.509h0l.134-.174.161-.161.362-.349.134-.121.51-.483.174-.161.376-.349.228-.2.376-.335.215-.2.563-.51.255-.215.362-.322.3-.268.335-.282.309-.268.4-.335.456-.4.335-.282.349-.3.282-.241.349-.282.268-.241.63-.523.241-.2a3.689,3.689,0,0,0,.349-.3l.228-.188.362-.282.174-.161,1.154-.939.174-.134.322-.228.2-.148a5.254,5.254,0,0,1,.443-.362l.174-.148.2-.161.174-.148.174-.134.148-.121.161-.134.215-.174h.067l.134-.107h0l.134-.094a64.081,64.081,0,0,0-12.4,2.683c-3.528,1.341-5.366,4.024-5.554,3.609A114.99,114.99,0,0,1,4.641,73.633a5.473,5.473,0,0,1,.08-.952h0a3.434,3.434,0,0,1,0-.362v-.08a2.047,2.047,0,0,1,.094-.322v-.094a1.341,1.341,0,0,1,.121-.282v-.107c0-.094.094-.174.134-.255a.791.791,0,0,0,.3-.08l.161-.241v-.094l.174-.228v-.08l.188-.215.08-.067.2-.2h.08l.282-.215h.08l.241-.174h0l.268-.161h0A8.733,8.733,0,0,1,9.457,68.5h2.978L8.773,64.216h0L6.707,62.2s.322-1.033,1.02-2.683h0c.134-.335.3-.7.47-1.073V58.34c.08-.148.148-.309.228-.47v-.134c.08-.174.174-.349.268-.537h0l.335-.644v-.08l.309-.55.094-.188.282-.5a.222.222,0,0,1,.107-.188l.349-.6v-.08c.148-.241.282-.47.443-.711L10.7,53.5c.121-.174.228-.362.349-.55l.161-.228c.107-.174.228-.349.349-.51a1.221,1.221,0,0,1,.51-.255c.148-.228.309-.443.47-.671h0l.55-.724.148-.2.416-.537.2-.241.429-.523.188-.215c.2-.255.416-.5.63-.738,6-6.707,15.668-12.543,19.961-16.366,2.254-2.012,7.123,1.033,7.123,1.033s-4.843-3.394-3.166-4.709l.966-.778.349-.268L41,26.48l.416-.335.617-.5.443-.362.657-.55.362-.3,1.234-1.006.349-.282.724-.59.456-.389.644-.523.523-.416.63-.51.537-.429.644-.523.537-.416.657-.523.537-.416.671-.523.523-.416.684-.523.523-.389.711-.55.47-.335c.912-.671,1.824-1.341,2.683-1.985l.483-.335.724-.483.59-.443.711-.47.63-.362c.228-.161.47-.3.7-.443l.577-.362.711-.429.59-.349.7-.4.59-.335.7-.376.6-.322.684-.349.6-.3.7-.335.6-.268.684-.309.6-.241.7-.282.59-.215.7-.255.59-.188.684-.215.59-.161.7-.188.537-.107c.443-.107.9-.188,1.341-.255l.577-.094h0a20,20,0,0,1,2.683-.188c4.682,0,12.073,2.683,17.439,5.366,1.623.791.832,3.944,1.207,6.077a.591.591,0,0,0,0,.134.639.639,0,0,0,.094.4v.094a1.864,1.864,0,0,0,.161.376h0a1.932,1.932,0,0,0,.241.335h0a1.785,1.785,0,0,0,.349.282,1.489,1.489,0,0,0,.362.161h0a1.7,1.7,0,0,0,.376.08h0a2.026,2.026,0,0,0,.4,0h.429a7.11,7.11,0,0,0,.993-.241h0l.537-.174h0l.8-.094h0c1.784-.644,3.635-1.341,4.816-.6,11.885,8.3,23.274,18.78,30.5,24.334,1.851,1.422-9.7,5.5-9.7,5.5l-.5,1.046h0l-3.7,7.861h.309l.282-.121h.121l.282-.121.215-.094.255-.121.228-.094.4-.188.255-.107.309-.134.362-.148.389-.174.309-.121.416-.174.416-.174.389-.161.322-.134.6-.228.335-.134.47-.188.429-.161.523-.2.335-.121.7-.255.3-.094.537-.188.3-.107.724-.241.309-.094.684-.215.255-.08.644-.188.255-.08.684-.188h0c3.783-.979,7.1-1.261,8.049.416,4.521,8.652,11.067,23.623,11.067,33.8C156.482,101.16,149.05,120.893,137.97,132.6Z" fill="#8f6042"/><path d="M138.908,70.1c.2-3.26-1.154-6.385-2.441-9.39a31.189,31.189,0,0,1-2.052-5.741A31.028,31.028,0,0,0,126.124,39l-.791.3a30.585,30.585,0,0,1,8.33,15.8,31.565,31.565,0,0,0,2.093,5.889c1.261,2.938,2.562,5.983,2.388,9.055-.5,8.357-2.683,20.122-5.835,26.628-4.829,9.752-15.883,16.956-27.017,23.3-7.378,4.172-19.237,6.707-30.948,6.707-1.462,0-2.9,0-4.266-.121-.926,0-1.9-.08-2.965-.08-2.24,0-4.548.121-6.788.241s-4.467.228-6.627.228c-3.89,0-8.867-.335-12.945-2.924-6.815-4.346-15.239-13.106-20.028-20.82a50,50,0,0,1-3.568-6.962l-.617.523a51.284,51.284,0,0,0,3.555,6.909c4.843,7.807,13.415,16.661,20.27,21.061,4.239,2.683,9.39,3.059,13.415,3.059,2.187,0,4.467-.121,6.707-.241s4.521-.228,6.707-.228H70.1c1.341.094,2.844.134,4.32.134,11.845,0,23.851-2.683,31.337-6.882,11.282-6.4,22.4-13.7,27.312-23.637C136.225,90.485,138.412,78.52,138.908,70.1Z" transform="translate(5.648 13.317)" fill="#8f6042"/><path d="M17.07,101.009a69.26,69.26,0,0,1-3.85-25.944c.537-9.122,1.046-17.748,5.446-25.287,1.06-1.811,3.716-3.81,6.278-5.755a34.69,34.69,0,0,0,4.668-3.917c5.621-6.372,15.306-11.134,22.107-14.152a80.581,80.581,0,0,0,7.915-4.333c5.9-3.5,11.939-7.15,18.1-7.15h.885c5.446.322,12.932,4.668,18.941,8.17,2.455,1.422,4.762,2.777,6.707,3.689,2.509,1.207,4.709,4.024,6.855,6.707a35.279,35.279,0,0,0,4.387,4.923l2.683,2.227c1.7,1.409,3.3,2.683,4.8,4.024l.228-.6c-1.341-1.341-2.951-2.683-4.588-4.024-.872-.711-1.771-1.449-2.683-2.227a33.818,33.818,0,0,1-4.279-4.8c-2.187-2.763-4.454-5.634-7.123-6.922A61.052,61.052,0,0,1,97.947,22C91.87,18.455,84.318,14.1,78.67,13.72h-.939c-6.359,0-12.543,3.689-18.526,7.257a73.861,73.861,0,0,1-7.834,4.293C44.517,28.3,34.684,33.1,29.009,39.583a36.568,36.568,0,0,1-4.561,3.823c-2.683,1.972-5.366,4.024-6.479,5.97-4.494,7.7-5,16.406-5.554,25.635a70.226,70.226,0,0,0,3.9,26.172Z" transform="translate(4.219 4.685)" fill="#8f6042"/><path d="M119.984,44.354c4.44,6.788,9.967,15.252,10.262,21.463.309,6.52-2.683,19.787-5,26.051-.738,2.093-4.2,4.454-7.539,6.707-2.683,1.851-5.272,3.6-6.332,5.165-6,8.934-8.679,10.41-19.693,13.951a70.643,70.643,0,0,1-15.36,2.683c-1.717.08-3.863.268-6.13.483-3.89.349-8.29.751-12.221.751a24.146,24.146,0,0,1-8.049-.993c-10.235-3.77-19.706-13.213-24.67-20.149a33.215,33.215,0,0,1-4.266-9.135l-.644.51a33.724,33.724,0,0,0,4.279,9.068c5.03,7.029,14.635,16.594,25.112,20.457a24.776,24.776,0,0,0,8.237,1.046c4.024,0,8.384-.4,12.288-.765,2.267-.2,4.4-.4,6.09-.483a69.837,69.837,0,0,0,15.561-2.683c11.228-3.622,13.965-5.124,20.122-14.26.979-1.449,3.474-3.152,6.117-4.95,3.448-2.361,7.016-4.789,7.848-7.11,2.267-6.332,5.366-19.746,5.044-26.36-.309-6.4-5.9-14.957-10.4-21.839-.7-1.073-1.341-2.106-1.985-3.085l-.711.322C118.562,42.168,119.26,43.241,119.984,44.354Z" transform="translate(6.945 13.959)" fill="#8f6042"/><path d="M18.069,74.158c-.4-8.465,1.637-14.313,5.554-22.228,2.562-5.138,8.813-9.6,14.327-13.549,1.623-1.167,3.152-2.267,4.507-3.313C50.935,28.454,59.386,22.485,69.675,22c.926,0,1.811-.067,2.683-.067,6.479,0,10.557,1.341,16.715,4.091A92.562,92.562,0,0,1,100.6,32.371c1.744,1.221,3.635,2.348,5.473,3.421,4.387,2.576,8.907,5.232,11.429,9.591.349.6.738,1.248,1.167,1.918L119,46.43c-.322-.51-.617-1.006-.885-1.476-2.683-4.534-7.244-7.244-11.711-9.873-1.811-1.06-3.7-2.173-5.366-3.38a92.211,92.211,0,0,0-11.684-6.372C83.09,22.5,78.944,21.17,72.318,21.17H69.635c-10.5.51-19.076,6.546-27.648,13.227-1.341,1.046-2.871,2.146-4.494,3.3-5.58,4.024-11.912,8.532-14.555,13.844C19.048,59.4,16.915,65.6,17.291,74.2A100.932,100.932,0,0,0,21.02,97.405l.765-.121a100.381,100.381,0,0,1-3.716-23.127Z" transform="translate(5.89 7.229)" fill="#8f6042"/><path d="M66.173,125.923a21.007,21.007,0,0,1-6.439-.818c-1.06-.349-2.817-.765-4.668-1.207a47.676,47.676,0,0,1-9.055-2.683c-6.023-3.34-12.824-10.6-16.741-15.843-4.548-6.023-7.579-17.989-8.5-24.576-.617-4.333,1.838-10.732,3.81-15.843.791-2.039,1.529-4.024,1.985-5.513.644-2.213,2.683-4.36,4.615-6.426A25.93,25.93,0,0,0,34.448,49.1c.5-.791.966-1.583,1.422-2.334,4.346-7.244,7.794-12.972,17.09-16.513a26.615,26.615,0,0,0,4.373-2.361,18.579,18.579,0,0,1,7.391-3.22,93.1,93.1,0,0,1,10.544-.577,55.5,55.5,0,0,1,12.6,1.194c8.974,2.294,16.728,9.659,23.784,17.291,6.144,6.627,10.074,17.868,11.2,26.065a63.7,63.7,0,0,0,1.637,7.271c1.435,5.366,2.9,10.852.818,15.641a57.992,57.992,0,0,1-14.22,18.4l-2.5,2.133c-6.023,5.2-11.711,10.115-20.873,11.2-1.824.228-4.024.563-6.238.926A102.919,102.919,0,0,1,66.173,125.923ZM75.3,24.871a94.386,94.386,0,0,0-10.45.577,18.15,18.15,0,0,0-7.083,3.112,27.929,27.929,0,0,1-4.534,2.428c-9.041,3.448-12.248,8.787-16.7,16.178L35.118,49.46a27.984,27.984,0,0,1-3.38,4.024c-1.891,2-3.837,4.024-4.44,6.1-.456,1.57-1.207,3.515-2,5.58-1.945,5.044-4.36,11.322-3.77,15.454.912,6.506,3.89,18.311,8.357,24.146,3.917,5.326,10.584,12.529,16.487,15.789a49.407,49.407,0,0,0,8.867,2.683c1.878.443,3.649.859,4.735,1.221a20.283,20.283,0,0,0,6.2.778,101.68,101.68,0,0,0,15.185-1.677c2.28-.362,4.427-.711,6.278-.926,8.921-1.06,14.515-5.9,20.457-11.027l2.5-2.133a57.455,57.455,0,0,0,14-18.23c1.972-4.548.6-9.685-.845-15.132a64.742,64.742,0,0,1-1.663-7.365c-1.14-8.049-4.977-19.143-10.973-25.649-6.976-7.539-14.635-14.756-23.422-17.077a55,55,0,0,0-12.4-1.167Z" transform="translate(7.057 8.223)" fill="#8f6042"/><path d="M63.188,114.789a13.63,13.63,0,0,1-4.024-.644c-5.768-1.811-16.285-7.2-20.31-10.906-5.366-4.923-9.39-15.172-10.946-23.154-.845-4.36.47-7.552,1.865-10.92.5-1.194.993-2.428,1.435-3.77A64.646,64.646,0,0,1,35,56.543c.751-1.341,1.422-2.683,2.066-4.132,1.57-3.407,3.206-6.922,6.466-9.216,1.14-.791,2.522-1.878,4.024-3.032,4.843-3.81,10.893-8.559,15.8-9.39a34.06,34.06,0,0,1,5-.282,94.171,94.171,0,0,1,15.789,1.462c1.891.389,4.118,2.683,6.291,4.923a20.122,20.122,0,0,0,4.4,3.85c7.66,3.515,9.109,5.366,13.026,12.945A48.158,48.158,0,0,1,111.535,64.4c.228,1.18.59,2.683.979,4.252,1.194,4.937,2.683,11.094,1.824,14.6-1.932,7.78-8.357,15.467-13.281,19.679-5.245,4.494-16.715,7.66-24.951,9a46.707,46.707,0,0,0-5.889,1.449A24.79,24.79,0,0,1,63.188,114.789Zm5.178-83.533a32.3,32.3,0,0,0-4.91.309c-4.709.778-10.732,5.446-15.454,9.2-1.476,1.154-2.871,2.254-4.024,3.072C40.893,46,39.3,49.433,37.768,52.746c-.657,1.341-1.341,2.844-2.106,4.185a64.282,64.282,0,0,0-3.716,8.706c-.456,1.341-.966,2.683-1.462,3.823-1.341,3.407-2.683,6.345-1.811,10.477C30.188,87.8,34.038,97.873,39.4,102.662c4.024,3.649,14.327,8.961,19.948,10.732a12.959,12.959,0,0,0,3.863.6,23.555,23.555,0,0,0,6.815-1.341,47.114,47.114,0,0,1,5.983-1.462c8.129-1.341,19.451-4.44,24.562-8.827,4.843-4.145,11.148-11.671,13.039-19.277.818-3.313-.644-9.39-1.824-14.233-.389-1.583-.751-3.072-.993-4.279a47.019,47.019,0,0,0-3.609-10.6c-3.823-7.432-5.218-9.176-12.663-12.6a20.122,20.122,0,0,1-4.641-4.024c-1.985-2.052-4.226-4.36-5.889-4.7a92.077,92.077,0,0,0-15.628-1.409Z" transform="translate(9.439 10.41)" fill="#8f6042"/><path d="M70.781,104.475c-4.373,0-9.578-2.012-13.763-3.635l-1.73-.671a49.824,49.824,0,0,0-6.037-1.663C44.005,97.272,38.6,96,35.983,91.892c-2.093-3.273-2.039-6.291-2-9.484V78.893a57.186,57.186,0,0,1,.241-8.4c.188-1.341.268-2.683.349-4.024.188-3.273.389-6.707,2.307-9.565.671-1.006,1.435-2.334,2.267-3.743,2.683-4.641,6.1-10.437,9.833-12.663s12.757-4.923,17.238-5.728a3.891,3.891,0,0,1,.577,0,17.909,17.909,0,0,1,6.13,1.972,17.144,17.144,0,0,0,4.789,1.717c7.365.4,9.109,1.341,14.756,6.345A40.888,40.888,0,0,1,98.9,52.386c1.824,2.844,2.254,7.955,2.6,12.073.107,1.261.2,2.441.335,3.394.215,1.65.617,3.407.993,5.1,1.087,4.8,2.213,9.766-.08,14.112-2.146,4.024-7.23,6.627-12.154,9.122-1.811.912-3.5,1.771-5.057,2.683l-1.341.8c-4.44,2.683-7.378,4.44-12.5,4.789C71.385,104.475,71.089,104.475,70.781,104.475ZM66.757,35.5a2.266,2.266,0,0,0-.443,0c-4.413.791-13.24,3.38-17.01,5.634s-6.9,7.821-9.578,12.4c-.818,1.422-1.6,2.683-2.28,3.783-1.8,2.683-1.985,6.01-2.173,9.189-.08,1.341-.161,2.683-.362,4.024a53.176,53.176,0,0,0-.228,8.237v3.568c0,3.206-.094,5.983,1.878,9.055,2.441,3.837,7.7,5.071,12.784,6.265a50.4,50.4,0,0,1,6.224,1.824l1.73.657c4.132,1.61,9.256,3.6,13.415,3.6h.845c4.95-.349,7.807-2.066,12.154-4.682.429-.268.872-.537,1.341-.8,1.57-.939,3.273-1.811,5.1-2.683,4.816-2.441,9.793-4.963,11.818-8.8,2.16-4.024,1.073-8.907,0-13.576-.389-1.717-.791-3.488-1.02-5.178-.121-.966-.228-2.16-.335-3.421-.335-4.024-.751-9.015-2.468-11.7a40.109,40.109,0,0,0-6.291-7.418c-5.46-4.789-7.15-5.768-14.273-6.157a17.613,17.613,0,0,1-5.057-1.771A17.667,17.667,0,0,0,66.8,35.5Z" transform="translate(11.585 11.87)" fill="#8f6042"/><path d="M67.423,101.434h-1.1a13.415,13.415,0,0,1-4.172-1.583,18.431,18.431,0,0,0-2.683-1.167c-4.2-1.113-8.478-4.387-11.335-6.707a36.218,36.218,0,0,0-3.6-2.509c-3.059-1.959-6.224-4.024-7.485-7.07-1.046-2.589-.657-6.707-.3-10.356.121-1.341.255-2.683.268-3.689a11.966,11.966,0,0,1,1.69-4.722,16.674,16.674,0,0,0,1.341-2.9c.161-.563.309-1.113.456-1.65,1.341-5.138,2.482-9.2,7.365-12.865a15.24,15.24,0,0,0,2.16-2.12,11.241,11.241,0,0,1,3.783-3.273A43.518,43.518,0,0,1,67.41,37.58c5.634,0,11.335,3.327,16.661,6.922,4.95,3.327,8.84,9.779,10.732,14.287a42.127,42.127,0,0,0,2.106,4.185c1.677,3.072,3.421,6.238,2.965,9.538a37.561,37.561,0,0,1-5.366,13.562A35.9,35.9,0,0,1,79.322,98.147C75.27,99.851,71.5,101.434,67.423,101.434Zm0-63.049a42.846,42.846,0,0,0-13.307,3.193,10.49,10.49,0,0,0-3.555,2.965,16.1,16.1,0,0,1-2.28,2.213c-4.682,3.528-5.7,7.284-7.043,12.476-.148.537-.3,1.087-.443,1.663a18,18,0,0,1-1.341,3.032A11.3,11.3,0,0,0,37.87,68.3c0,1.046-.148,2.361-.282,3.743-.322,3.38-.738,7.579.255,9.994,1.154,2.857,4.226,4.816,7.177,6.707A38.9,38.9,0,0,1,48.7,91.292c2.79,2.321,6.989,5.527,11.04,6.613a17,17,0,0,1,2.817,1.207A12.8,12.8,0,0,0,66.43,100.6h1.046c3.917,0,7.633-1.516,11.55-3.112A34.985,34.985,0,0,0,93.863,85.645,36.514,36.514,0,0,0,99.108,72.4c.416-3.045-1.18-5.97-2.884-9.055a40.809,40.809,0,0,1-2.133-4.266c-1.945-4.762-5.9-10.92-10.4-13.938-5.285-3.474-10.866-6.734-16.285-6.734Z" transform="translate(12.421 12.832)" fill="#8f6042"/><path d="M64.414,86.472a11.029,11.029,0,0,1-1.341-.08,8.384,8.384,0,0,1-2.683-1.167,10.731,10.731,0,0,0-1.61-.818A21.128,21.128,0,0,1,51.857,79.7a22.08,22.08,0,0,0-2.16-1.69c-1.784-1.341-3.81-2.777-4.494-4.816-.577-1.7-.174-4.306.188-6.6.121-.859.255-1.663.3-2.294a7.606,7.606,0,0,1,1.248-2.965,9.86,9.86,0,0,0,.9-1.744c.121-.349.228-.7.349-1.02,1.06-3.22,1.9-5.755,5.151-7.9a9.765,9.765,0,0,0,1.341-1.234,7.338,7.338,0,0,1,2.589-1.891A27.849,27.849,0,0,1,66.144,46c3.568.228,7.056,2.535,10.289,5.017a21.463,21.463,0,0,1,6.238,9.39,26.48,26.48,0,0,0,1.154,2.683c.966,2.012,1.945,4.024,1.529,6.2a23.449,23.449,0,0,1-3.89,8.4A22.724,22.724,0,0,1,71.4,84.9,22,22,0,0,1,64.414,86.472Zm1.154-39.707a28.345,28.345,0,0,0-7.9,1.516,6.453,6.453,0,0,0-2.294,1.744,10.96,10.96,0,0,1-1.529,1.341c-3.018,2-3.8,4.306-4.856,7.5-.107.335-.228.671-.349,1.02a10.41,10.41,0,0,1-.926,1.838,6.868,6.868,0,0,0-1.14,2.683,16.082,16.082,0,0,1-.322,2.361c-.322,2.093-.724,4.709-.2,6.238.6,1.8,2.441,3.139,4.212,4.427a22.615,22.615,0,0,1,2.227,1.757A20.471,20.471,0,0,0,59.2,83.735a11.054,11.054,0,0,1,1.744.872,8.049,8.049,0,0,0,2.334,1.073,9.177,9.177,0,0,0,1.221.08A21.316,21.316,0,0,0,71.2,84.218a21.772,21.772,0,0,0,9.685-6.855,22.8,22.8,0,0,0,3.756-8.049c.362-1.851-.523-3.729-1.476-5.715a28.174,28.174,0,0,1-1.234-2.844,20.86,20.86,0,0,0-5.97-9.1c-3.139-2.4-6.506-4.655-9.873-4.856Z" transform="translate(15.336 15.707)" fill="#8f6042"/><path d="M65.465,92.73a13.24,13.24,0,0,1-1.57-.107,10.49,10.49,0,0,1-3.3-1.435,15.009,15.009,0,0,0-2.079-1.046c-3.354-1.073-6.64-3.89-8.84-5.9a27.717,27.717,0,0,0-2.75-2.146c-2.348-1.637-4.91-3.474-5.835-6.023-.724-2.133-.188-5.366.282-8.33.174-1.087.335-2.106.4-2.911a9.766,9.766,0,0,1,1.61-3.729,15.038,15.038,0,0,0,1.167-2.227c.148-.456.3-.885.443-1.341,1.341-4.024,2.482-7.271,6.627-9.994a13,13,0,0,0,1.838-1.583,8.988,8.988,0,0,1,3.287-2.374A35.589,35.589,0,0,1,67.919,41.62c4.561.241,9,3.152,13.133,6.265,3.823,2.884,6.707,8.223,7.915,11.912a31.886,31.886,0,0,0,1.476,3.434c1.207,2.522,2.455,5.151,1.9,7.794A29.727,29.727,0,0,1,87.33,81.636a29.338,29.338,0,0,1-12.891,9.055A28.237,28.237,0,0,1,65.465,92.73Zm1.824-50.359A37.2,37.2,0,0,0,57.04,44.343a8.693,8.693,0,0,0-2.991,2.2A13.509,13.509,0,0,1,52.09,48.22c-3.917,2.576-4.923,5.513-6.3,9.591-.148.429-.3.859-.456,1.341A14.045,14.045,0,0,1,44.1,61.541a8.947,8.947,0,0,0-1.489,3.394c-.067.832-.241,1.878-.416,2.991-.443,2.683-.979,6-.309,7.955.778,2.307,3.139,4.024,5.366,5.634a33.405,33.405,0,0,1,2.9,2.2c2.133,1.972,5.366,4.709,8.532,5.755a13,13,0,0,1,2.227,1.1,10.732,10.732,0,0,0,3.018,1.341,11.762,11.762,0,0,0,1.543.094,27.8,27.8,0,0,0,8.746-1.985A28.681,28.681,0,0,0,86.7,81.18a29,29,0,0,0,4.883-10.316c.483-2.388-.644-4.776-1.851-7.311a32.077,32.077,0,0,1-1.516-3.5c-1.341-3.877-4.2-8.948-7.646-11.55-4.024-3.032-8.357-5.876-12.7-6.117Z" transform="translate(13.91 14.212)" fill="#8f6042"/><path d="M63.573,77.677H62.084a10.732,10.732,0,0,1-4.36-1.945l-1.087-.671c-2.213-1.274-4.293-2.6-5.366-4.883a8.746,8.746,0,0,1-.872-4.709,22.885,22.885,0,0,1,.362-3.1c.107-.456.188-.952.255-1.422a7.056,7.056,0,0,1,1.154-3.5c.255-.335.563-.778.885-1.248,1.1-1.583,2.468-3.568,3.877-4.226a21.7,21.7,0,0,1,6.184-1.234h0a5.2,5.2,0,0,1,2.321,1.1,6.023,6.023,0,0,0,1.489.832c2.562.537,3.193,1.046,4.963,3.152a17.359,17.359,0,0,1,1.985,3.166c.161.349.389.778.617,1.248a13.549,13.549,0,0,1,1.757,4.534,14.139,14.139,0,0,1-2.227,7.311c-1.167,1.851-4.252,3.756-6.546,4.816A8.948,8.948,0,0,1,63.573,77.677Zm-.389-26.239a21.155,21.155,0,0,0-5.916,1.181c-1.221.563-2.576,2.522-3.568,4.024-.335.47-.644.926-.912,1.274a6.573,6.573,0,0,0-.993,3.139c-.08.5-.148.993-.268,1.489a22.6,22.6,0,0,0-.335,2.951,8.049,8.049,0,0,0,.791,4.36c.966,2.066,2.938,3.327,5.03,4.534.362.2.724.443,1.113.684a10.289,10.289,0,0,0,4.024,1.838h1.435a8.29,8.29,0,0,0,3.649-.778c2.361-1.1,5.2-2.924,6.211-4.534a13.334,13.334,0,0,0,2.12-6.868,13.656,13.656,0,0,0-1.69-4.252c-.241-.47-.47-.912-.644-1.341a15.586,15.586,0,0,0-1.891-2.871c-1.69-2.012-2.173-2.415-4.534-2.9a6.238,6.238,0,0,1-1.73-.939,5.527,5.527,0,0,0-1.891-.993Z" transform="translate(17.196 17.326)" fill="#8f6042"/><path d="M64.011,71.64H62.187a3.26,3.26,0,0,1-1.261-.389,3.474,3.474,0,0,0-.671-.268l-.416-.08a5.272,5.272,0,0,1-3.434-1.784,4.452,4.452,0,0,0-.51-.483,3.1,3.1,0,0,1-.926-1.02,11.617,11.617,0,0,1-1.1-3.5,8.411,8.411,0,0,1,1.341-4.454,8.237,8.237,0,0,1,3.367-3.018,9.993,9.993,0,0,0,.952-.577,3.85,3.85,0,0,1,2.428-.926,8.921,8.921,0,0,1,3.528,1.207l.765.429a6.4,6.4,0,0,1,2.978,2.549l.3.577a7.231,7.231,0,0,1,1.02,2.991,27.639,27.639,0,0,1-.121,3.152,8.049,8.049,0,0,1-1.489,2.884l-.2.309a7.794,7.794,0,0,1-2.991,2.16,3.9,3.9,0,0,1-1.73.241Zm-1.65-.818h1.65a3.206,3.206,0,0,0,1.341-.188,7.137,7.137,0,0,0,2.683-1.918l.215-.309a7.365,7.365,0,0,0,1.341-2.576c.08-.416.121-2.535.107-3a6.936,6.936,0,0,0-.926-2.683c-.107-.2-.2-.389-.3-.59A6.01,6.01,0,0,0,65.8,57.34L65,56.9a8.639,8.639,0,0,0-3.193-1.1,3.354,3.354,0,0,0-1.945.8,8.572,8.572,0,0,1-1.02.617A7.526,7.526,0,0,0,55.815,59.9a7.74,7.74,0,0,0-1.341,4.024,11.791,11.791,0,0,0,1.033,3.22,2.683,2.683,0,0,0,.711.765,4.226,4.226,0,0,1,.63.577,4.44,4.44,0,0,0,3,1.516l.4.094a5.754,5.754,0,0,1,.832.309,2.6,2.6,0,0,0,.939.322Z" transform="translate(18.395 18.828)" fill="#8f6042"/><path d="M61.4,66.377a3.594,3.594,0,0,1-.523,0h-.349a2.066,2.066,0,0,1-1.087-.268l-.335-.2a3.582,3.582,0,0,1-1.341-1.033,6.439,6.439,0,0,1-.6-1.744,1.476,1.476,0,0,1,.2-.845,2.052,2.052,0,0,0,.121-.322,2.146,2.146,0,0,1,.671-1.61,4.4,4.4,0,0,1,.791-.684l.268-.188a3.22,3.22,0,0,1,1.221-.657,3.729,3.729,0,0,1,2.12.429,5.715,5.715,0,0,1,1.61,1.757,2.534,2.534,0,0,0,.268.362,1.811,1.811,0,0,1,.469,1.02,6.439,6.439,0,0,1-.2,2.039,4.252,4.252,0,0,1-1.57,1.73,1.771,1.771,0,0,1-1.02.255H61.4Zm-.6-6.868h-.241a3.622,3.622,0,0,0-.872.51l-.309.215a3.474,3.474,0,0,0-.617.537,1.422,1.422,0,0,0-.483,1.154,2.052,2.052,0,0,1-.188.6,2.066,2.066,0,0,0-.161.4,6.707,6.707,0,0,0,.51,1.5,3.649,3.649,0,0,0,1.046.765l.376.228a1.408,1.408,0,0,0,.7.134,4.028,4.028,0,0,1,.416,0,6.038,6.038,0,0,0,.711,0h.429a.939.939,0,0,0,.59-.134,3.34,3.34,0,0,0,1.261-1.341,5.876,5.876,0,0,0,.188-1.7,1.181,1.181,0,0,0-.309-.6,3.166,3.166,0,0,1-.322-.443,4.776,4.776,0,0,0-1.341-1.476,3.407,3.407,0,0,0-1.382-.349Z" transform="translate(19.517 20.081)" fill="#8f6042"/><path d="M106.482,82.077s-4.641-2.28-9.229-4.024-15.373-3.7-15.373-3.7S93.457,77.7,95.952,79.206,106.482,82.077,106.482,82.077Z" transform="translate(27.959 25.388)" fill="#8f6042"/><path d="M96.017,44.05S92.341,45.271,89,46.733A94.238,94.238,0,0,0,78.9,52.8s7.915-4.252,10.007-4.789S96.017,44.05,96.017,44.05Z" transform="translate(26.942 15.041)" fill="#8f6042"/><path d="M19.88,39.06a62.284,62.284,0,0,1,9.551,4.467c4.856,2.83,17.439,17,19.451,19.518a36.112,36.112,0,0,1,3.743,6.372s-5.272-5.929-7.848-8.451A125.174,125.174,0,0,0,31.564,50.234C28.09,47.967,19.88,39.06,19.88,39.06Z" transform="translate(6.788 13.338)" fill="#8f6042"/><path d="M45.539,70.864c-.872-.657-4.252.738-8.907,1.207S25.9,73.681,25.9,73.681a39.92,39.92,0,0,0,10.021,0,78.3,78.3,0,0,0,9.618-2.817Z" transform="translate(8.844 24.138)" fill="#8f6042"/><path d="M63.82,89.4s8.2,10.477,8.88,14.206a55,55,0,0,1,0,10.973s-1.73-8.827-2.093-10.37S63.82,89.4,63.82,89.4Z" transform="translate(21.792 30.527)" fill="#8f6042"/></svg>