<svg xmlns="http://www.w3.org/2000/svg" xmlns:xlink="http://www.w3.org/1999/xlink" width="53.634" height="70.066" viewBox="0 0 53.634 70.066"><defs><radialGradient id="a" cx="0.5" cy="0.5" r="0.5" gradientUnits="objectBoundingBox"><stop offset="0"/><stop offset="0.473" stop-color="#3f2b1d"/><stop offset="1" stop-color="#8e6042"/></radialGradient></defs><g transform="translate(2.846 46.28)"><path d="M51.536,338.357a1.136,1.136,0,1,0-1.177,1.943,7.221,7.221,0,0,1,3.5,6.213v13.178H39.6V347.348l4.954,3.517a1.132,1.132,0,0,0,.657.205,1.115,1.115,0,0,0,.424-.082,1.14,1.14,0,0,0,.684-.848l1.355-7.472a1.141,1.141,0,1,0-2.244-.411l-1.026,5.72-5.3-3.763a1.154,1.154,0,0,0-1.314,0l-5.3,3.763-1.026-5.707a1.141,1.141,0,1,0-2.244.411l1.355,7.472a1.14,1.14,0,0,0,.684.848,1.162,1.162,0,0,0,1.095-.123l4.954-3.517v12.344H23.072V346.513a7.221,7.221,0,0,1,3.5-6.213,1.136,1.136,0,1,0-1.177-1.943,9.505,9.505,0,0,0-4.6,8.17v14.314a1.133,1.133,0,0,0,1.136,1.136H55.012a1.133,1.133,0,0,0,1.136-1.136V346.513A9.512,9.512,0,0,0,51.536,338.357Z" transform="translate(-20.8 -338.192)" fill="url(#a)"/></g><path d="M41.013,29.408a4.683,4.683,0,0,0-4.16-4.653l-.1-.944H37.7a1.126,1.126,0,0,0,1.108-1.355L37.893,17.9a1.143,1.143,0,0,0-1.122-.917h-.233a15.872,15.872,0,0,0-2.71-7.855A1.133,1.133,0,1,0,31.954,10.4a13.761,13.761,0,0,1,2.313,6.582H24.756V4.995a13.441,13.441,0,0,1,4.023,2.094,1.143,1.143,0,0,0,1.6-.219,1.122,1.122,0,0,0-.233-1.587,15.845,15.845,0,0,0-5.392-2.641V1.136A1.133,1.133,0,0,0,23.62,0H17.393a1.133,1.133,0,0,0-1.136,1.136V2.614A16.095,16.095,0,0,0,4.475,16.983H4.229a1.143,1.143,0,0,0-1.122.917L2.19,22.457a1.123,1.123,0,0,0,.233.944,1.138,1.138,0,0,0,.876.411h.944l-.1.944A4.684,4.684,0,0,0,3.3,33.883,12.594,12.594,0,0,0,8.484,44.639l6.227,4.53a9.816,9.816,0,0,0,11.577,0l6.227-4.53a12.693,12.693,0,0,0,4.762-6.9,12.255,12.255,0,0,0,.424-3.859A4.652,4.652,0,0,0,41.013,29.408Zm-37.5,2.107a2.405,2.405,0,0,1,.411-4.393Zm15.026-28V2.272h3.941V16.983H18.543V3.517ZM16.257,4.995V17H6.747A13.893,13.893,0,0,1,16.257,4.995ZM5.611,33.432l.931-9.62H7.814V32.98L5.6,35.2A10.886,10.886,0,0,1,5.611,33.432Zm25.577,9.374-6.227,4.53a7.579,7.579,0,0,1-8.909,0l-6.227-4.53a10.415,10.415,0,0,1-3.681-4.94l3.6-3.613a1.127,1.127,0,0,0,.328-.807V23.811h3l.725,2.929A1.131,1.131,0,0,0,14.9,27.6H26.069a1.142,1.142,0,0,0,1.108-.862l.725-2.929h3.134v9.634a1.187,1.187,0,0,0,.328.807L34.9,37.77A10.4,10.4,0,0,1,31.187,42.806ZM15.436,23.825h10.14l-.369,1.519H15.819ZM35.43,35.087,33.336,32.98V23.811h1.15l.931,9.62A11.161,11.161,0,0,1,35.43,35.087ZM4.708,21.54l.452-2.272H35.854l.452,2.272Zm32.8,9.976-.424-4.379a2.4,2.4,0,0,1,.424,4.379Z" fill="url(#a)"/><g transform="translate(37.558 29.107)"><path d="M289.811,224.236l-1.656-2.86a1.141,1.141,0,1,0-1.971,1.15l1.656,2.86a2.94,2.94,0,0,1,0,3,2.971,2.971,0,0,1-2.586,1.492h-1.615V226a1.136,1.136,0,1,0-2.272,0v3.873h-1.615a2.99,2.99,0,0,1-2.586-4.489l5.351-9.264,1.888,3.284a1.141,1.141,0,0,0,1.971-1.15l-2.874-4.981a1.132,1.132,0,0,0-1.971,0l-6.363,10.961a5.262,5.262,0,0,0,4.557,7.9h1.615v4.475a2.9,2.9,0,0,0-1.765,2.669v8.156a2.9,2.9,0,0,0,5.8,0v-8.142a2.9,2.9,0,0,0-1.765-2.669v-4.475h1.615a5.208,5.208,0,0,0,4.557-2.627A5.151,5.151,0,0,0,289.811,224.236Zm-6.692,23.209a.63.63,0,0,1-1.259,0v-8.156a.628.628,0,0,1,.63-.629.619.619,0,0,1,.63.629Z" transform="translate(-274.45 -212.7)" fill="url(#a)"/></g><path d="M67.875,471.2h0a.569.569,0,0,0-.575.575.578.578,0,0,0,.575.575.569.569,0,0,0,.575-.575A.578.578,0,0,0,67.875,471.2Z" transform="translate(-58.09 -406.718)" fill="url(#a)"/><path d="M67.875,443.9h0a.569.569,0,0,0-.575.575.578.578,0,0,0,.575.575.569.569,0,0,0,.575-.575A.578.578,0,0,0,67.875,443.9Z" transform="translate(-58.09 -383.154)" fill="url(#a)"/><path d="M222.575,443.1h0a.569.569,0,0,0-.575.575.578.578,0,0,0,.575.575.57.57,0,0,0,.575-.575A.578.578,0,0,0,222.575,443.1Z" transform="translate(-191.62 -382.463)" fill="url(#a)"/><path d="M222.575,471.2h0a.569.569,0,0,0-.575.575.578.578,0,0,0,.575.575.569.569,0,0,0,.575-.575A.578.578,0,0,0,222.575,471.2Z" transform="translate(-191.62 -406.718)" fill="url(#a)"/></svg>