<svg xmlns="http://www.w3.org/2000/svg" xmlns:xlink="http://www.w3.org/1999/xlink" width="71.367" height="70.962" viewBox="0 0 71.367 70.962"><defs><radialGradient id="a" cx="0.5" cy="0.5" r="0.5" gradientUnits="objectBoundingBox"><stop offset="0" stop-color="#3b3b3b"/><stop offset="0" stop-color="#8e6042"/><stop offset="0.468" stop-color="#4a423c"/><stop offset="1" stop-color="#8b5e41"/></radialGradient></defs><path d="M193.027,131.5H181.209a5.907,5.907,0,0,0-5.909,5.909v23.636a5.907,5.907,0,0,0,5.909,5.909h11.818a5.907,5.907,0,0,0,5.909-5.909V137.409A5.907,5.907,0,0,0,193.027,131.5Zm3.562,29.545a3.529,3.529,0,0,1-3.535,3.535H181.236a3.529,3.529,0,0,1-3.535-3.535V137.409a3.529,3.529,0,0,1,3.535-3.535h11.791a3.529,3.529,0,0,1,3.535,3.535v23.636Z" transform="translate(-128.001 -96.019)" fill="url(#a)"/><path d="M229.464,98.145a5.944,5.944,0,0,0-8.364,0l1.673,1.673a3.567,3.567,0,0,1,5.019,0h0Z" transform="translate(-161.443 -70.408)" fill="url(#a)"/><path d="M222.083,83.639l1.673-1.673a10.65,10.65,0,0,0-15.056,0l1.673,1.673a8.322,8.322,0,0,1,11.71,0Z" transform="translate(-152.389 -57.575)" fill="url(#a)"/><path d="M207.967,190.354a2.37,2.37,0,1,1-3.346.189,1.246,1.246,0,0,1,.189-.189l-1.565-1.754a4.739,4.739,0,1,0,6.692.378,4.984,4.984,0,0,0-.378-.378Z" transform="translate(-147.257 -137.712)" fill="url(#a)"/><path d="M214.7,179.7h2.374v5.909H214.7Z" transform="translate(-156.77 -131.214)" fill="url(#a)"/><path d="M105.2,175.3h16.567v2.374H105.2Z" transform="translate(-76.815 -128.001)" fill="url(#a)"/><path d="M54.974,5.909a3.529,3.529,0,0,1,3.535-3.535H86.894a3.529,3.529,0,0,1,3.535,3.535v27.2H92.8V5.909A5.907,5.907,0,0,0,86.894,0H58.509A5.907,5.907,0,0,0,52.6,5.909V29.545h2.374Z" transform="translate(-38.408)" fill="url(#a)"/><path d="M99.1,49.781V47.434a3.548,3.548,0,0,0-7.1,0v2.374a3.548,3.548,0,1,0,7.1-.027Zm-2.347,0a1.187,1.187,0,1,1-2.374,0V47.434a1.187,1.187,0,1,1,2.374,0Z" transform="translate(-67.177 -32.054)" fill="url(#a)"/><path d="M119.909,83.3h-4.722A1.2,1.2,0,0,0,114,84.487v2.374a3.535,3.535,0,1,0,7.069,0V84.487A1.158,1.158,0,0,0,119.909,83.3Zm-1.187,3.535a1.187,1.187,0,1,1-2.374,0V85.647h2.374Z" transform="translate(-83.241 -60.824)" fill="url(#a)"/><path d="M139.435,43.8a3.529,3.529,0,0,0-3.535,3.535v2.374a3.535,3.535,0,0,0,7.069,0V47.362A3.518,3.518,0,0,0,139.435,43.8Zm1.187,5.909a1.187,1.187,0,0,1-2.374,0V47.362a1.187,1.187,0,0,1,2.374,0Z" transform="translate(-99.232 -31.982)" fill="url(#a)"/><path d="M85.48,17.5a15.38,15.38,0,1,0,15.38,15.38A15.373,15.373,0,0,0,85.48,17.5Zm0,28.385A13.005,13.005,0,1,1,98.485,32.88,13.012,13.012,0,0,1,85.48,45.885Z" transform="translate(-51.186 -12.778)" fill="url(#a)"/><path d="M105.2,149h16.567v2.374H105.2Z" transform="translate(-76.815 -108.797)" fill="url(#a)"/><path d="M24.823,125.469H22.449v-3.535a3.535,3.535,0,1,0-7.069,0v3.535H10.631v-3.535a3.535,3.535,0,1,0-7.069,0v3.535H1.187A1.2,1.2,0,0,0,0,126.656v9.471a8.285,8.285,0,0,0,8.283,8.283H9.471v11.818a1.2,1.2,0,0,0,1.187,1.187H15.38a1.2,1.2,0,0,0,1.187-1.187V144.411h1.187a8.285,8.285,0,0,0,8.283-8.283v-9.471A1.221,1.221,0,0,0,24.823,125.469Zm-7.1-3.535a1.187,1.187,0,1,1,2.374,0v3.535H17.727Zm-11.818,0a1.187,1.187,0,1,1,2.374,0v3.535H5.909v-3.535Zm17.727,5.909v2.374H2.374v-2.374Zm-9.444,27.2H11.818V144.411h2.374Zm3.535-13.005H8.283a5.907,5.907,0,0,1-5.909-5.909v-3.535H23.663v3.535A5.948,5.948,0,0,1,17.727,142.036Z" transform="translate(0 -86.453)" fill="url(#a)"/><path d="M234.179,115.759a1.079,1.079,0,1,0-1.079-1.079A1.082,1.082,0,0,0,234.179,115.759Z" transform="translate(-170.205 -82.949)" fill="url(#a)"/><path d="M194.379,151.359a1.079,1.079,0,1,0-1.079-1.079A1.082,1.082,0,0,0,194.379,151.359Z" transform="translate(-141.144 -108.943)" fill="url(#a)"/><path d="M211.379,151.359a1.079,1.079,0,1,0-1.079-1.079A1.082,1.082,0,0,0,211.379,151.359Z" transform="translate(-153.557 -108.943)" fill="url(#a)"/></svg>