<svg xmlns="http://www.w3.org/2000/svg" xmlns:xlink="http://www.w3.org/1999/xlink" width="70.728" height="70.728" viewBox="0 0 70.728 70.728"><defs><radialGradient id="a" cx="0.5" cy="0.5" r="0.5" gradientUnits="objectBoundingBox"><stop offset="0" stop-color="#8b5e41"/><stop offset="0.478" stop-color="#8e6042"/><stop offset="1" stop-color="#462f21"/></radialGradient></defs><path d="M257.11,86.1a.948.948,0,0,0-.715.3.987.987,0,0,0-.3.715.948.948,0,0,0,.3.715.987.987,0,0,0,.715.3.948.948,0,0,0,.715-.3.987.987,0,0,0,.3-.715.948.948,0,0,0-.3-.715A.987.987,0,0,0,257.11,86.1Z" transform="translate(-192.987 -64.882)" fill="url(#a)"/><path d="M106.635,251.3h0a1.026,1.026,0,0,0-1.035,1.035,1.041,1.041,0,0,0,1.035,1.035,1.026,1.026,0,0,0,1.035-1.035A1.041,1.041,0,0,0,106.635,251.3Z" transform="translate(-79.576 -189.37)" fill="url(#a)"/><path d="M66.908,5.594H61.757V4.387a4.387,4.387,0,0,0-8.773,0V5.594H39.7V4.387a4.387,4.387,0,1,0-8.773,0V5.594H17.694V4.387a4.387,4.387,0,1,0-8.773,0V5.594H3.82A3.8,3.8,0,0,0,0,9.389V66.908a3.823,3.823,0,0,0,3.82,3.82H55.7a.948.948,0,0,0,.715-.3L70.432,56.41a.987.987,0,0,0,.3-.715V9.389A3.8,3.8,0,0,0,66.908,5.594ZM55.054,4.387a2.317,2.317,0,1,1,4.633,0v6.851a2.317,2.317,0,1,1-4.633,0Zm-22.032,0a2.317,2.317,0,0,1,4.633,0v6.851a2.317,2.317,0,1,1-4.633,0Zm-22.032,0a2.317,2.317,0,0,1,4.633,0v6.851a2.317,2.317,0,1,1-4.633,0ZM56.705,67.228V58.48a1.767,1.767,0,0,1,1.774-1.774h8.749ZM68.682,54.66H58.48a3.823,3.823,0,0,0-3.82,3.82v10.2H3.82a1.767,1.767,0,0,1-1.774-1.774V63.975H21.465a1.035,1.035,0,0,0,0-2.07H2.045V23.264H58.529a1.035,1.035,0,1,0,0-2.07H2.045V9.389A1.767,1.767,0,0,1,3.82,7.615H8.946v3.573a4.387,4.387,0,1,0,8.773,0V7.64H31v3.573a4.387,4.387,0,1,0,8.773,0V7.64H53.058v3.573a4.387,4.387,0,1,0,8.773,0V7.64h5.151a1.767,1.767,0,0,1,1.774,1.774V54.66Z" fill="url(#a)"/><path d="M76.873,148.4H70.835a1.035,1.035,0,0,0,0,2.07h6.333v4.091H70.835a1.035,1.035,0,0,0,0,2.07h6.333v4.091H70.835a1.035,1.035,0,0,0,0,2.07h6.038a2.34,2.34,0,0,0,2.341-2.341v-9.636A2.357,2.357,0,0,0,76.873,148.4Z" transform="translate(-52.599 -111.829)" fill="url(#a)"/><path d="M133.079,150.37a1.035,1.035,0,0,0,0-2.07h-6.038a2.34,2.34,0,0,0-2.341,2.341v9.66a2.34,2.34,0,0,0,2.341,2.341h4.732a2.34,2.34,0,0,0,2.341-2.341v-3.5a2.34,2.34,0,0,0-2.341-2.341h-5.027V150.37Zm-1.035,6.136V160.6h-5.3v-4.091Z" transform="translate(-93.969 -111.753)" fill="url(#a)"/><path d="M187.879,150.37a1.035,1.035,0,0,0,0-2.07h-6.038a2.34,2.34,0,0,0-2.341,2.341v3.5a2.34,2.34,0,0,0,2.341,2.341h5.027v4.091h-6.333a1.035,1.035,0,0,0,0,2.07h6.038a2.34,2.34,0,0,0,2.341-2.341v-3.5a2.34,2.34,0,0,0-2.341-2.341h-5.027V150.37Z" transform="translate(-135.264 -111.753)" fill="url(#a)"/></svg>