<svg xmlns="http://www.w3.org/2000/svg" xmlns:xlink="http://www.w3.org/1999/xlink" width="82.137" height="70.196" viewBox="0 0 82.137 70.196"><defs><radialGradient id="a" cx="0.5" cy="0.5" r="0.5" gradientUnits="objectBoundingBox"><stop offset="0"/><stop offset="0.438" stop-color="#8e6042"/><stop offset="1" stop-color="#545454"/></radialGradient></defs><g transform="translate(0.005 -1.001)"><path d="M81.824,42v-.032a.24.24,0,0,0-.016-.113l-4.163-28.95a1.175,1.175,0,0,0-.6-.875,1.207,1.207,0,0,0-1.053-.081l-19.133,7.7a1.221,1.221,0,0,0,.907,2.268L75.457,14.8l.032.211,3.888,27.038v.016a.551.551,0,0,0,.016.162,22.028,22.028,0,0,1-32.773,22.7c-.016-.016-.049-.016-.065-.032l-.6-.292.518-.405a32.918,32.918,0,0,0,3-2.608l.081-.081.049-.016,19.035-5.1a1.248,1.248,0,0,0,.745-.567A1.154,1.154,0,0,0,69.5,54.9a1.248,1.248,0,0,0-.567-.745,1.154,1.154,0,0,0-.923-.113l-15.633,4.2.6-.891a29.176,29.176,0,0,0,3.661-7.728l.065-.211L69.933,45.86a1.248,1.248,0,0,0,.745-.567,1.154,1.154,0,0,0,.113-.923,1.248,1.248,0,0,0-.567-.745,1.228,1.228,0,0,0-.923-.13l-10.53,2.819,4.18-7.225L70.727,37a1.248,1.248,0,0,0,.745-.567,1.154,1.154,0,0,0,.113-.923,1.248,1.248,0,0,0-.567-.745,1.153,1.153,0,0,0-.923-.113l-5.427,1.458,3.937-6.82a1.228,1.228,0,0,0,.13-.923,1.248,1.248,0,0,0-.567-.745,1.228,1.228,0,0,0-.923-.13,1.248,1.248,0,0,0-.745.567l-3.937,6.82L61.1,29.449a1.248,1.248,0,0,0-.567-.745,1.153,1.153,0,0,0-.923-.113,1.248,1.248,0,0,0-.745.567,1.153,1.153,0,0,0-.113.923l2.09,7.776L57.88,42.992l.016-1.555a28.719,28.719,0,0,0-3.872-14.71A29.015,29.015,0,0,0,39.347,14.2l-.032-.016-7.339-2.981a1.217,1.217,0,0,0-.923,2.252l7.258,2.948a.23.23,0,0,0,.1.032A26.521,26.521,0,0,1,51.918,27.926a26.233,26.233,0,0,1,2.624,20.088A26.552,26.552,0,0,1,43.575,63.243l-.356.243-3.013-5.233,5.946-22.162a1.159,1.159,0,0,0-.13-.923,1.2,1.2,0,0,0-.745-.567,1.228,1.228,0,0,0-.923.13,1.2,1.2,0,0,0-.567.745L38.472,55.289,31.895,43.9l4.131-15.423a1.223,1.223,0,0,0-.113-.923,1.2,1.2,0,0,0-.745-.567,1.216,1.216,0,0,0-1.49.859l-3.5,13.074-5.3-9.186,2.511-9.348a1.216,1.216,0,0,0-2.349-.632l-1.879,7.015-4.974-8.6a1.2,1.2,0,0,0-.745-.567,1.223,1.223,0,0,0-.923.113,1.239,1.239,0,0,0-.454,1.669l4.974,8.6-7-1.879a1.223,1.223,0,0,0-1.377,1.782,1.2,1.2,0,0,0,.745.567l9.348,2.511,5.3,9.186-13.074-3.5a1.159,1.159,0,0,0-.923.13,1.2,1.2,0,0,0-.567.745,1.223,1.223,0,0,0,.113.923,1.2,1.2,0,0,0,.745.567l15.423,4.131L36.35,56.536,16.537,51.222a1.159,1.159,0,0,0-.923.13,1.2,1.2,0,0,0-.567.745,1.223,1.223,0,0,0,.113.923,1.2,1.2,0,0,0,.745.567l22.178,5.9L41.1,64.717l-.389.194A26.249,26.249,0,0,1,28.914,67.7,26.393,26.393,0,0,1,2.8,36.885a.665.665,0,0,0,.016-.178v-.049l4.7-32.725L18.724,8.486A1.217,1.217,0,0,0,20.311,6.9a1.186,1.186,0,0,0-.664-.648L6.995,1.1a1.184,1.184,0,0,0-1.069.065,1.2,1.2,0,0,0-.6.875L.385,36.5c0,.049-.016.081-.016.13v.032A28.9,28.9,0,0,0,41.987,66.985l.34-.178,2.187,3.775a1.219,1.219,0,0,0,1.053.616,1.112,1.112,0,0,0,.6-.162,1.2,1.2,0,0,0,.567-.745,1.149,1.149,0,0,0-.13-.923l-1.426-2.479,1.231.632A24.255,24.255,0,0,0,64,69.448,24.421,24.421,0,0,0,81.824,42Z" fill="url(#a)"/><path d="M149.415,50.23a1.217,1.217,0,1,0-.859-.356A1.214,1.214,0,0,0,149.415,50.23Z" transform="translate(-124.195 -39.217)" fill="url(#a)"/><path d="M425.956,136.244a1.218,1.218,0,1,0,1.976-1.426l-.016-.016a1.214,1.214,0,0,0-.794-.486.789.789,0,0,0-.194-.016,1.243,1.243,0,0,0-.713.227,1.214,1.214,0,0,0-.486.794,1.264,1.264,0,0,0,.227.923Z" transform="translate(-356.751 -111.704)" fill="url(#a)"/></g></svg>