<svg xmlns="http://www.w3.org/2000/svg" xmlns:xlink="http://www.w3.org/1999/xlink" width="71" height="71" viewBox="0 0 71 71"><defs><radialGradient id="a" cx="0.5" cy="0.5" r="0.5" gradientUnits="objectBoundingBox"><stop offset="0" stop-color="#8e6042"/><stop offset="0.463" stop-color="#6d4a33"/><stop offset="1" stop-color="#473021"/></radialGradient></defs><path d="M170.152,145.9A1.152,1.152,0,1,0,169,144.752,1.156,1.156,0,0,0,170.152,145.9Z" transform="translate(-120.322 -102.238)" fill="url(#a)"/><path d="M71,61.869l-9.1-4.551H36.523V52.768H66.19V22.956a3.9,3.9,0,0,0,.835.115,3.737,3.737,0,0,0,3.744-3.744v-.6a3.767,3.767,0,0,0-1.584-3.053L46.777,0,36.638,7.086H8.5L.259,20.8H2.275V34.881L0,37.473V71H36.523V66.449H61.9ZM39.95,59.594H60.487v4.551H39.95Zm-2.3,4.551H33.095a2.275,2.275,0,0,1,0-4.551h4.551Zm25.116-.691V60.285l3.168,1.584Zm-5.7-12.99H47.929V37.905a1.156,1.156,0,0,1,1.152-1.152h6.855a1.156,1.156,0,0,1,1.152,1.152V50.463Zm2.275,0V37.905a3.417,3.417,0,0,0-3.428-3.428H49.052a3.417,3.417,0,0,0-3.428,3.428V50.463H36.494V27.651H29.667V21.718L46.777,9.649,63.886,21.718V50.463H59.335Zm8.5-32.922a1.413,1.413,0,0,1,.634,1.181v.6A1.475,1.475,0,0,1,67,20.8a1.372,1.372,0,0,1-.835-.259L46.777,6.855,27.392,20.537a1.5,1.5,0,0,1-.835.259,1.475,1.475,0,0,1-1.469-1.469v-.6a1.413,1.413,0,0,1,.634-1.181L46.777,2.794ZM9.764,9.39H33.383l-8.958,6.279a3.758,3.758,0,0,0-1.584,2.852H4.292ZM4.551,20.8H23.1a3.732,3.732,0,0,0,3.456,2.275,2.784,2.784,0,0,0,.835-.115v4.695H8.612L4.58,32.289V20.8ZM7.979,31.828v4.954H3.658Zm26.24,36.9H2.275V39.057h7.979V29.927H34.218V57.319H33.066a4.551,4.551,0,0,0,0,9.1h1.152Z" fill="url(#a)"/><path d="M35.789,133.846H34.119a.127.127,0,0,1-.086-.2l1.728-2.045a.562.562,0,0,0-.086-.806l-.864-.72a.562.562,0,0,0-.806.086l-2.909,3.514a.518.518,0,0,1-.432.2H16.376a.578.578,0,0,0-.576.576v14.834a.578.578,0,0,0,.576.576H35.761a.578.578,0,0,0,.576-.576V134.451A.546.546,0,0,0,35.789,133.846Zm-1.728,13.682H18.1V136.122H28.992L23.75,142.43,21.618,140.3a.557.557,0,0,0-.806,0l-.806.806a.557.557,0,0,0,0,.807l3.456,3.456a.6.6,0,0,0,.864-.029l7.662-9.188h2.131v11.377Z" transform="translate(-11.249 -92.513)" fill="url(#a)"/><path d="M130.7,75.055h18.261V68.2H130.7v6.855Zm2.3-4.58h13.682v2.275H133Z" transform="translate(-93.054 -48.556)" fill="url(#a)"/><path d="M33.852,206.4a1.152,1.152,0,1,0-1.152-1.152A1.137,1.137,0,0,0,33.852,206.4Z" transform="translate(-23.281 -145.312)" fill="url(#a)"/><path d="M48.852,206.4a1.152,1.152,0,1,0-1.152-1.152A1.137,1.137,0,0,0,48.852,206.4Z" transform="translate(-33.961 -145.312)" fill="url(#a)"/><path d="M63.852,206.4a1.152,1.152,0,1,0-1.152-1.152A1.137,1.137,0,0,0,63.852,206.4Z" transform="translate(-44.64 -145.312)" fill="url(#a)"/></svg>