<svg xmlns="http://www.w3.org/2000/svg" xmlns:xlink="http://www.w3.org/1999/xlink" width="66.144" height="70.084" viewBox="0 0 66.144 70.084"><defs><radialGradient id="a" cx="0.5" cy="0.5" r="0.5" gradientUnits="objectBoundingBox"><stop offset="0" stop-color="#8b5e41"/><stop offset="0.483" stop-color="#8e6042"/><stop offset="1" stop-color="#462f21"/></radialGradient></defs><path d="M78.864,39.605l-1.194.43a5.651,5.651,0,0,0-3.558,4.179l-.406,2.1a3.617,3.617,0,0,0,.74,2.937,3.551,3.551,0,0,0,2.746,1.289H87.46a3.516,3.516,0,0,0,2.722-1.266,3.557,3.557,0,0,0,.764-2.913l-.382-2.1a5.646,5.646,0,0,0-3.582-4.25l-1.266-.454V37.695a.3.3,0,0,0-.024-.143,5.051,5.051,0,0,0,1.433-3.51V31.3a4.9,4.9,0,1,0-9.79,0v2.842a4.856,4.856,0,0,0,1.433,3.439v.119Zm9.719,5.038.382,2.1a1.5,1.5,0,0,1-.334,1.218,1.55,1.55,0,0,1-1.146.549H77.216a1.4,1.4,0,0,1-1.146-.549,1.441,1.441,0,0,1-.31-1.242l.406-2.1a3.5,3.5,0,0,1,2.245-2.627l.788-.287c.024.024.048.048.072.048a4.739,4.739,0,0,0,6.209.024c.024-.024.072-.048.1-.1l.812.287A3.472,3.472,0,0,1,88.583,44.643ZM79.485,31.3a2.839,2.839,0,0,1,5.588-.716c-.143.072-.263.119-.406.191a3.527,3.527,0,0,1-2.579.239,1.03,1.03,0,1,0-1.17,1.7,3.325,3.325,0,0,0,1.958.525,6.9,6.9,0,0,0,2.292-.43v1.266a3,3,0,0,1-.884,2.1,3.038,3.038,0,0,1-.884.6c-.024,0-.048.024-.072.024a3.145,3.145,0,0,1-1.051.191,2.834,2.834,0,0,1-2.77-2.842Zm2.746,7.737h.1a4.689,4.689,0,0,0,1.409-.215v1.648a2.673,2.673,0,0,1-2.794,0V38.817A3.747,3.747,0,0,0,82.231,39.032Z" transform="translate(-56.06 -20.096)" fill="url(#a)"/><path d="M39.027,194.554H71a1.027,1.027,0,1,0,0-2.054H39.027A1.019,1.019,0,0,0,38,193.527,1.034,1.034,0,0,0,39.027,194.554Z" transform="translate(-28.926 -146.533)" fill="url(#a)"/><path d="M39.027,217.754H71a1.027,1.027,0,0,0,0-2.054H39.027A1.019,1.019,0,0,0,38,216.727,1.034,1.034,0,0,0,39.027,217.754Z" transform="translate(-28.926 -164.193)" fill="url(#a)"/><path d="M39.027,240.954H71a1.027,1.027,0,0,0,0-2.054H39.027A1.019,1.019,0,0,0,38,239.927,1.034,1.034,0,0,0,39.027,240.954Z" transform="translate(-28.926 -181.853)" fill="url(#a)"/><path d="M39.027,264.154H71a1.027,1.027,0,1,0,0-2.054H39.027A1.019,1.019,0,0,0,38,263.127,1.051,1.051,0,0,0,39.027,264.154Z" transform="translate(-28.926 -199.514)" fill="url(#a)"/><path d="M38,147.227a1.019,1.019,0,0,0,1.027,1.027H71a1.027,1.027,0,1,0,0-2.054H39.027A1.034,1.034,0,0,0,38,147.227Z" transform="translate(-28.926 -111.289)" fill="url(#a)"/><path d="M39.027,171.454H71a1.027,1.027,0,0,0,0-2.054H39.027A1.019,1.019,0,0,0,38,170.427,1.034,1.034,0,0,0,39.027,171.454Z" transform="translate(-28.926 -128.949)" fill="url(#a)"/><path d="M23.224,194.554a1.027,1.027,0,1,0-1.027-1.027A1,1,0,0,0,23.224,194.554Z" transform="translate(-16.896 -146.533)" fill="url(#a)"/><path d="M23.227,148.254a1.027,1.027,0,1,0-1.027-1.027A1.019,1.019,0,0,0,23.227,148.254Z" transform="translate(-16.899 -111.289)" fill="url(#a)"/><path d="M23.227,171.454a1.027,1.027,0,1,0-1.027-1.027A1.019,1.019,0,0,0,23.227,171.454Z" transform="translate(-16.899 -128.949)" fill="url(#a)"/><path d="M23.224,217.754a1.027,1.027,0,1,0-1.027-1.027A1,1,0,0,0,23.224,217.754Z" transform="translate(-16.896 -164.193)" fill="url(#a)"/><path d="M23.224,240.954a1.027,1.027,0,1,0-1.027-1.027A1,1,0,0,0,23.224,240.954Z" transform="translate(-16.896 -181.853)" fill="url(#a)"/><path d="M23.224,264.154a1.027,1.027,0,1,0-1.027-1.027A1,1,0,0,0,23.224,264.154Z" transform="translate(-16.896 -199.514)" fill="url(#a)"/><path d="M64.5,16.166a7.72,7.72,0,0,1-1-1.48,6.609,6.609,0,0,1-.358-1.839A5.667,5.667,0,0,0,61.87,9.313a5.667,5.667,0,0,0-3.534-1.266A8.962,8.962,0,0,1,56.5,7.689a6.752,6.752,0,0,1-1.48-1,7.519,7.519,0,0,0-2.46-1.48V4.9a4.9,4.9,0,0,0-4.9-4.9H4.9A4.9,4.9,0,0,0,0,4.9V8.859A1.019,1.019,0,0,0,1.027,9.886,1.019,1.019,0,0,0,2.054,8.859V4.9A2.833,2.833,0,0,1,4.9,2.054H47.662A2.833,2.833,0,0,1,50.5,4.9v.31a8.05,8.05,0,0,0-2.46,1.48,7.72,7.72,0,0,1-1.48,1,6.609,6.609,0,0,1-1.839.358,5.667,5.667,0,0,0-3.534,1.266,5.667,5.667,0,0,0-1.266,3.534,8.961,8.961,0,0,1-.358,1.839,6.752,6.752,0,0,1-1,1.48,5.831,5.831,0,0,0-1.648,3.486,5.7,5.7,0,0,0,1.648,3.486,7.72,7.72,0,0,1,1,1.48,6.608,6.608,0,0,1,.358,1.839,5.667,5.667,0,0,0,1.266,3.534,5.667,5.667,0,0,0,3.534,1.266c.358.048.716.1,1.027.143V46.922a1.554,1.554,0,0,0,.884,1.409,1.622,1.622,0,0,0,1.672-.167l2.173-1.719V65.189a2.833,2.833,0,0,1-2.842,2.842H4.9a2.833,2.833,0,0,1-2.842-2.842V13.372a1.019,1.019,0,0,0-1.027-1.027A1.034,1.034,0,0,0,0,13.372V65.189a4.9,4.9,0,0,0,4.9,4.9H47.662a4.9,4.9,0,0,0,4.9-4.9V46.444l2.173,1.719a1.617,1.617,0,0,0,.979.334,1.413,1.413,0,0,0,.692-.167,1.554,1.554,0,0,0,.884-1.409V35.46a1.027,1.027,0,0,0-2.054,0V45.943L52.51,43.818a1.6,1.6,0,0,0-1.958,0l-2.722,2.149V32.475c.072.048.143.119.215.167a5.831,5.831,0,0,0,3.486,1.648,5.7,5.7,0,0,0,3.486-1.648,7.72,7.72,0,0,1,1.48-1,6.609,6.609,0,0,1,1.839-.358,5.667,5.667,0,0,0,3.534-1.266,5.667,5.667,0,0,0,1.266-3.534,8.962,8.962,0,0,1,.358-1.839,6.752,6.752,0,0,1,1-1.48,5.831,5.831,0,0,0,1.648-3.486,5.969,5.969,0,0,0-1.648-3.51Zm-1.624,5.683a9.572,9.572,0,0,0-1.289,1.958,8.884,8.884,0,0,0-.5,2.364,4.318,4.318,0,0,1-.692,2.34,4.251,4.251,0,0,1-2.34.692,8.884,8.884,0,0,0-2.364.5,7.52,7.52,0,0,0-1.958,1.289,4.211,4.211,0,0,1-2.2,1.194,4.126,4.126,0,0,1-2.2-1.194,9.572,9.572,0,0,0-1.958-1.289,1.164,1.164,0,0,0-.263-.1,9.085,9.085,0,0,0-2.1-.406,4.318,4.318,0,0,1-2.34-.692,4.251,4.251,0,0,1-.692-2.34,8.884,8.884,0,0,0-.5-2.364,7.52,7.52,0,0,0-1.289-1.958,4.211,4.211,0,0,1-1.194-2.2,4.126,4.126,0,0,1,1.194-2.2A9.572,9.572,0,0,0,41.478,15.5a8.884,8.884,0,0,0,.5-2.364,4.318,4.318,0,0,1,.692-2.34,4.251,4.251,0,0,1,2.34-.692,8.884,8.884,0,0,0,2.364-.5A7.52,7.52,0,0,0,49.334,8.31a4.126,4.126,0,0,1,2.2-1.194h0a4.126,4.126,0,0,1,2.2,1.194A9.572,9.572,0,0,0,55.685,9.6a8.884,8.884,0,0,0,2.364.5,4.318,4.318,0,0,1,2.34.692,4.251,4.251,0,0,1,.692,2.34,8.884,8.884,0,0,0,.5,2.364,7.52,7.52,0,0,0,1.289,1.958,4.211,4.211,0,0,1,1.194,2.2,4.126,4.126,0,0,1-1.194,2.2Z" transform="translate(0 0)" fill="url(#a)"/><path d="M198.352,54.061l-3.486-.979-2.03-3.009a1.294,1.294,0,0,0-2.149,0l-2.03,3.009-3.486.979a1.341,1.341,0,0,0-.883.836,1.267,1.267,0,0,0,.215,1.194l2.245,2.842-.143,3.63a1.324,1.324,0,0,0,.525,1.1,1.262,1.262,0,0,0,.764.239,1.5,1.5,0,0,0,.454-.072l3.415-1.242,3.415,1.242a1.309,1.309,0,0,0,1.218-.167,1.264,1.264,0,0,0,.525-1.1l-.143-3.63,2.245-2.842a1.267,1.267,0,0,0,.215-1.194,1.248,1.248,0,0,0-.884-.836Zm-3.367,3.844a1.381,1.381,0,0,0-.287.86l.1,2.77-2.6-.955a1.472,1.472,0,0,0-.907,0l-2.6.955.1-2.77a1.431,1.431,0,0,0-.287-.86l-1.719-2.173,2.674-.764a1.319,1.319,0,0,0,.716-.525l1.552-2.316,1.552,2.316a1.213,1.213,0,0,0,.716.525l2.674.764Z" transform="translate(-140.231 -37.68)" fill="url(#a)"/></svg>