<svg xmlns="http://www.w3.org/2000/svg" xmlns:xlink="http://www.w3.org/1999/xlink" width="78.573" height="70.539" viewBox="0 0 78.573 70.539"><defs><radialGradient id="a" cx="0.5" cy="0.5" r="0.5" gradientUnits="objectBoundingBox"><stop offset="0" stop-color="#3b3b3b"/><stop offset="1" stop-color="#8e6042"/><stop offset="1" stop-color="#7c7c7c"/></radialGradient></defs><ellipse cx="1.124" cy="1.124" rx="1.124" ry="1.124" transform="translate(38.177 15.507)" fill="url(#a)"/><path d="M45.324,145.847a1.124,1.124,0,1,0-1.124-1.124A1.127,1.127,0,0,0,45.324,145.847Z" transform="translate(-31.783 -103.26)" fill="url(#a)"/><path d="M72.533,37.587l.028-.112.084-.084a21.3,21.3,0,0,0,5.927-14.552c0-6.208-2.95-12.023-8.315-16.349A29.787,29.787,0,0,0,51.689,0c-13.625,0-25,9.383-25.873,21.378l-.028.365-.365.028A29.926,29.926,0,0,0,7.781,28.682,20.783,20.783,0,0,0,0,44.554,21.3,21.3,0,0,0,5.927,59.105l.084.084.028.112a9.9,9.9,0,0,1-2.613,9.3,1.132,1.132,0,0,0,.787,1.938,16.933,16.933,0,0,0,11.574-4.663l.2-.169.253.084a35.078,35.078,0,0,0,10.647,1.657c13.653,0,25.03-9.383,25.9-21.35l.028-.365.365-.028a34.456,34.456,0,0,0,9.186-1.629l.253-.084.2.169a16.8,16.8,0,0,0,11.574,4.663,1.132,1.132,0,0,0,.787-1.938A9.917,9.917,0,0,1,72.533,37.587ZM26.884,65.145A31.991,31.991,0,0,1,16.1,63.291a1.188,1.188,0,0,0-1.264.281,14.46,14.46,0,0,1-7.163,4.27l-.9.225.421-.815a12.174,12.174,0,0,0,.927-8.933,1.193,1.193,0,0,0-.281-.478,19.118,19.118,0,0,1-5.59-13.287c0-11.152,11.265-20.591,24.608-20.591,13.063,0,23.681,9.242,23.681,20.591S39.947,65.145,26.884,65.145ZM70.9,46.127a14.142,14.142,0,0,1-7.163-4.27,1.165,1.165,0,0,0-1.264-.281,30.665,30.665,0,0,1-9.27,1.826l-.421.028-.028-.421a21.74,21.74,0,0,0-8.231-15.17l-.927-.758H65a1.124,1.124,0,1,0,0-2.247H39.89l-.084-.056a28.62,28.62,0,0,0-11.377-3.006l-.421-.028.028-.421c.955-10.7,11.321-19.074,23.653-19.074,13.344,0,24.608,9.439,24.608,20.591A19.053,19.053,0,0,1,70.707,36.1h0a1.193,1.193,0,0,0-.281.478,12.051,12.051,0,0,0,.927,8.933l.421.815Z" transform="translate(0 0)" fill="url(#a)"/><path d="M66.3,144.724a1.127,1.127,0,0,0,1.124,1.124H86.976a1.124,1.124,0,1,0,0-2.247H67.424A1.127,1.127,0,0,0,66.3,144.724Z" transform="translate(-47.675 -103.26)" fill="url(#a)"/><path d="M71.084,176.7H45.324a1.124,1.124,0,0,0,0,2.247h25.76a1.124,1.124,0,0,0,0-2.247Z" transform="translate(-31.783 -127.062)" fill="url(#a)"/><path d="M178.648,55.2H159.124a1.124,1.124,0,0,0,0,2.247h19.552a1.124,1.124,0,1,0-.028-2.247Z" transform="translate(-113.615 -39.693)" fill="url(#a)"/></svg>