<svg xmlns="http://www.w3.org/2000/svg" xmlns:xlink="http://www.w3.org/1999/xlink" width="71.002" height="71.002" viewBox="0 0 71.002 71.002"><defs><radialGradient id="a" cx="0.5" cy="0.5" r="0.5" gradientUnits="objectBoundingBox"><stop offset="0" stop-color="#3b3b3b"/><stop offset="1" stop-color="#8e6042"/><stop offset="1" stop-color="#7c7c7c"/></radialGradient></defs><g transform="translate(0 0)"><path d="M67.661,39.9H60.74v1.909h6.921a1.436,1.436,0,0,1,1.432,1.432V80.162a1.436,1.436,0,0,1-1.432,1.432H3.341a1.436,1.436,0,0,1-1.432-1.432V43.241a1.436,1.436,0,0,1,1.432-1.432h6.921V39.9H3.341A3.351,3.351,0,0,0,0,43.241V80.162A3.351,3.351,0,0,0,3.341,83.5H28.592V94.7H25.967a.957.957,0,0,0-.955.955v4.773a.957.957,0,0,0,.955.955H45.036a.957.957,0,0,0,.955-.955V95.652a.957.957,0,0,0-.955-.955H42.41V83.5H67.661A3.351,3.351,0,0,0,71,80.162V43.241A3.351,3.351,0,0,0,67.661,39.9ZM30.5,83.5h4.057v5.012a.955.955,0,0,0,1.909,0V83.5h4.057V94.7h-10V83.5Zm13.58,13.1V99.47H26.921V96.606Z" transform="translate(0 -30.377)" fill="url(#a)"/><path d="M80.74,10.477a.936.936,0,0,0-.1-.43L75.871.525A.925.925,0,0,0,75.012,0H41.671a.951.951,0,0,0-.859.525l-4.773,9.523a.936.936,0,0,0-.1.43V38.114H30v1.909H86.706V38.114H80.74ZM76.205,5.465l2.029,4.057H74.176ZM74.439,1.909l.716,1.432-3.1,6.205H67.04l3.819-7.637Zm-2.745,9.523v2.625a2.625,2.625,0,0,1-5.251,0V11.432ZM68.711,1.909,64.893,9.547H59.881L63.7,1.909Zm-4.177,9.523v2.625a2.625,2.625,0,1,1-5.251,0V11.432ZM61.575,1.909,57.756,9.547H52.745l3.819-7.637ZM57.4,11.432v2.625a2.625,2.625,0,1,1-5.251,0V11.432ZM54.415,1.909,50.6,9.547H45.585L49.4,1.909Zm-4.177,9.523v2.625a2.625,2.625,0,0,1-5.251,0V11.432Zm-8-9.523h5.012L43.437,9.547H38.425Zm-4.391,9.523H43.1v2.625a2.625,2.625,0,1,1-5.251,0ZM72.888,38.114H65.25V23.341h7.637Zm5.943,0H74.773V22.387a.957.957,0,0,0-.955-.955H64.3a.957.957,0,0,0-.955.955V38.114H37.852V17.757l.358.215a4.518,4.518,0,0,0,5.656-.931l.191-.215.191.215a4.526,4.526,0,0,0,6.372.406,3.258,3.258,0,0,0,.406-.406l.191-.215.191.215a4.421,4.421,0,0,0,3.1,1.527,4.465,4.465,0,0,0,3.27-1.122,3.258,3.258,0,0,0,.406-.406l.191-.215.191.215a4.526,4.526,0,0,0,6.372.406,3.258,3.258,0,0,0,.406-.406l.191-.215.191.215a4.5,4.5,0,0,0,6.372.406,3.258,3.258,0,0,0,.406-.406l.191-.215.191.215a4.518,4.518,0,0,0,5.656.931l.358-.215V38.114Zm0-24.057a2.625,2.625,0,1,1-5.251,0V11.432H78.83Z" transform="translate(-22.84 0)" fill="url(#a)"/><path d="M96.344,89.9H80.855a.957.957,0,0,0-.955.955v10.716a.957.957,0,0,0,.955.955H96.344a.957.957,0,0,0,.955-.955V90.831A.952.952,0,0,0,96.344,89.9Zm-.955,10.716H81.809V91.785h13.58Z" transform="translate(-60.831 -68.444)" fill="url(#a)"/><path d="M185.655,126.709a.955.955,0,1,0-.955-.955A.957.957,0,0,0,185.655,126.709Z" transform="translate(-140.619 -95.015)" fill="url(#a)"/><path d="M118.355,188.809a.955.955,0,1,0-.955-.955A.957.957,0,0,0,118.355,188.809Z" transform="translate(-89.381 -142.294)" fill="url(#a)"/><path d="M141.255,188.809a.955.955,0,1,0-.955-.955A.957.957,0,0,0,141.255,188.809Z" transform="translate(-106.816 -142.294)" fill="url(#a)"/><path d="M162.055,188.809a.955.955,0,1,0-.955-.955A.973.973,0,0,0,162.055,188.809Z" transform="translate(-122.651 -142.294)" fill="url(#a)"/><path d="M181.955,188.809a.955.955,0,1,0-.955-.955A.957.957,0,0,0,181.955,188.809Z" transform="translate(-137.802 -142.294)" fill="url(#a)"/></g></svg>