<svg xmlns="http://www.w3.org/2000/svg" width="243" height="207.885" viewBox="0 0 243 207.885"><g transform="translate(-180.51 -1353.737)"><g transform="translate(251.649 1406.693)"><g fill="none" stroke="#3b48fa" stroke-width="3"><circle cx="50.357" cy="50.357" r="50.357" stroke="none"/><circle cx="50.357" cy="50.357" r="48.857" fill="none"/></g><rect width="6.329" height="33.757" transform="translate(47.104 26.212)" fill="none" stroke="#3b48fa" stroke-width="3"/><ellipse cx="4.22" cy="4.22" rx="4.22" ry="4.22" transform="translate(46.048 66.298)" fill="none" stroke="#3b48fa" stroke-width="3"/></g><g transform="translate(180.51 1471.978)" fill="none" stroke="#fd0" stroke-width="3"><rect width="104.842" height="55.31" stroke="none"/><rect x="1.5" y="1.5" width="101.842" height="52.31" fill="none"/></g><path d="M0,0H31.536V32.5A50.54,50.54,0,0,1,0,0Z" transform="translate(253.89 1472.214)" fill="#3b48fa"/><line x2="31.669" y2="0.136" transform="translate(352.238 1411.992)" fill="none" stroke="#fd0" stroke-miterlimit="10" stroke-width="3"/><line x2="49.031" transform="translate(374.479 1406.927)" fill="none" stroke="#3b48fa" stroke-miterlimit="10" stroke-width="3"/><g transform="translate(228.457 1353.737)" fill="none" stroke="#e2e5f2" stroke-width="3"><circle cx="18.162" cy="18.162" r="18.162" stroke="none"/><circle cx="18.162" cy="18.162" r="16.662" fill="none"/></g><path d="M273.7,24.1l18.757,30.472-37.727.061Z" transform="translate(97.768 1505.485)" fill="none" stroke="#e2e5f2" stroke-miterlimit="10" stroke-width="3"/></g></svg>