<svg xmlns="http://www.w3.org/2000/svg" width="230.863" height="194.213" viewBox="0 0 230.863 194.213"><g transform="translate(-178.147 -1353.737)"><path d="M0,74.957V34.449" transform="translate(407.489 1441.812)" fill="none" stroke="#3b48fa" stroke-width="3"/><g transform="translate(324.025 1481.696)" fill="none" stroke="#e2e5f2" stroke-width="3"><circle cx="10.021" cy="10.021" r="10.021" stroke="none"/><circle cx="10.021" cy="10.021" r="8.521" fill="none"/></g><line y1="27.571" transform="translate(407.51 1449.114)" fill="none" stroke="#fd0" stroke-miterlimit="10" stroke-width="3"/><path d="M286.871,24.1l31.782,51.631-63.923.1Z" transform="translate(-73.883 1470.613)" fill="none" stroke="#fd0" stroke-miterlimit="10" stroke-width="3"/><path d="M273.883,24.1l18.939,30.768-38.092.061Z" transform="translate(-46.023 1492.677)" fill="#3b48fa"/><g transform="translate(242.51 1353.737)" fill="none" stroke="#e2e5f2" stroke-width="3"><rect width="69" height="34" stroke="none"/><rect x="1.5" y="1.5" width="66" height="31" fill="none"/></g><path d="M62.455,66.832a16.158,16.158,0,0,0-2.176,2.724L32.736,52.837a15.761,15.761,0,0,0,0-11.773L60.287,24.473a16.022,16.022,0,1,0-1.438-2.856L31.263,38.23a15.941,15.941,0,1,0,0,17.441L58.843,72.412a15.926,15.926,0,1,0,3.612-5.58ZM73.725,3.188A12.751,12.751,0,1,1,60.974,15.939,12.766,12.766,0,0,1,73.725,3.188ZM17.938,59.7A12.751,12.751,0,1,1,30.689,46.951,12.766,12.766,0,0,1,17.938,59.7Zm64.8,27.417A12.751,12.751,0,1,1,86.477,78.1,12.765,12.765,0,0,1,82.741,87.119Z" transform="translate(247.195 1403.179)" fill="#3b48fa" stroke="#fff" stroke-width="0.5"/></g></svg>