<svg xmlns="http://www.w3.org/2000/svg" width="226.126" height="190.843" viewBox="0 0 226.126 190.843"><g transform="translate(-178.147 -1353.237)"><path d="M0,39.663V0" transform="translate(193.201 1359.286) rotate(-90)" fill="none" stroke="#3b48fa" stroke-width="3"/><line y1="26.996" transform="translate(180.961 1354.737) rotate(-90)" fill="none" stroke="#fd0" stroke-miterlimit="10" stroke-width="3"/><g transform="translate(243.237 1402.276)"><path d="M13.595,69.107V1.868c0-.94-.761-.871-1.7-.871-.842,0-1.543-.171-1.7.871.007-.145,0,.733,0,.828V69.107a11.9,11.9,0,1,0,3.4,0ZM11.9,89.363a8.5,8.5,0,1,1,8.5-8.5A8.506,8.506,0,0,1,11.9,89.363Z" transform="translate(0 -0.986)" fill="#3b48fa" stroke="#fff" stroke-width="0.5"/><path d="M34.884,34.466V1.784c0-.94-.761-.787-1.7-.787s-1.7-.153-1.7.787V34.359a12.243,12.243,0,0,0,0,24.338V91.9c0,.94.761.862,1.7.862s1.7.078,1.7-.862V58.59a12.233,12.233,0,0,0,0-24.124ZM32.833,55.376a8.849,8.849,0,1,1,8.849-8.849A8.859,8.859,0,0,1,32.833,55.376Z" transform="translate(14.397 -0.987)" fill="#3b48fa" stroke="#fff" stroke-width="0.5"/><path d="M65.791,12.9A11.9,11.9,0,1,0,52.2,24.655V91.87c0,.94.761.895,1.7.895s1.7.045,1.7-.895V24.655A11.9,11.9,0,0,0,65.791,12.9Zm-11.9,8.5a8.5,8.5,0,1,1,8.5-8.5A8.506,8.506,0,0,1,53.9,21.392Z" transform="translate(29.373 -0.99)" fill="#3b48fa" stroke="#fff" stroke-width="0.5"/></g><path d="M271.8,24.1l16.874,27.413-33.939.055Z" transform="translate(-73.883 1371.097)" fill="none" stroke="#e2e5f2" stroke-miterlimit="10" stroke-width="3"/><path d="M0,0,57.243.757" transform="translate(346.149 1510.521)" fill="none" stroke="#fd0" stroke-width="3"/><line x1="12.076" y2="32.454" transform="translate(390.791 1510.593)" fill="none" stroke="#fd0" stroke-miterlimit="10" stroke-width="3"/><line x1="24.05" y1="0.063" transform="translate(367.413 1542.516)" fill="none" stroke="#fd0" stroke-miterlimit="10" stroke-width="3"/><path d="M703.66,464.3a25.451,25.451,0,0,1-1.418,8.443H667L679.665,438.8a25.574,25.574,0,0,1,24,25.5Z" transform="translate(-333.959 1070.911)" fill="#3b48fa"/><g transform="translate(214.618 1517.009)" fill="none" stroke="#e2e5f2" stroke-width="3"><circle cx="9.812" cy="9.812" r="9.812" stroke="none"/><circle cx="9.812" cy="9.812" r="8.312" fill="none"/></g></g></svg>