<svg xmlns="http://www.w3.org/2000/svg" width="236.363" height="198" viewBox="0 0 236.363 198"><g transform="translate(-178.147 -1353.737)"><path d="M0,65.443V0" transform="translate(274.728 1534.592) rotate(-90)" fill="none" stroke="#3b48fa" stroke-width="3"/><line y1="28.368" transform="translate(340.385 1359.289) rotate(-90)" fill="none" stroke="#fd0" stroke-miterlimit="10" stroke-width="3"/><g transform="translate(246.582 1479.205) rotate(-90)"><path d="M45.887,99.926H0V93.37H0V13.155H0V6.678H5.336q.215-.016.434-.016H16.655V0H36.64V6.662H47.525c.146,0,.291.005.434.016H53.29V12.2c0,.076,0,.152,0,.229V94.157c0,.076,0,.152,0,.229v5.54ZM3.308,88.261h.023v5c0,2.9,1.527,3.331,2.438,3.331H47.525a2.441,2.441,0,0,0,2.438-2.438V78.276H3.332v2.848H3.308Zm.023-75.83V74.945H49.964V12.431a2.441,2.441,0,0,0-2.438-2.438H5.77A2.441,2.441,0,0,0,3.332,12.431ZM19.986,6.662H33.309V3.331H19.986Z" transform="translate(0)" fill="#3b48fa" stroke="#fff" stroke-width="0.5"/><circle cx="1.586" cy="1.586" r="1.586" transform="translate(6.083 78.347)" fill="#e2e5f2"/><circle cx="1.586" cy="1.586" r="1.586" transform="translate(10.842 83.106)" fill="#e2e5f2"/><circle cx="1.586" cy="1.586" r="1.586" transform="translate(17.187 78.347)" fill="#e2e5f2"/><circle cx="1.586" cy="1.586" r="1.586" transform="translate(26.705 78.347)" fill="#e2e5f2"/><circle cx="1.586" cy="1.586" r="1.586" transform="translate(21.946 83.106)" fill="#e2e5f2"/><circle cx="1.586" cy="1.586" r="1.586" transform="translate(31.464 83.106)" fill="#e2e5f2"/><circle cx="1.586" cy="1.586" r="1.586" transform="translate(36.222 78.347)" fill="#e2e5f2"/><circle cx="1.586" cy="1.586" r="1.586" transform="translate(46.533 78.347)" fill="#e2e5f2"/><circle cx="1.586" cy="1.586" r="1.586" transform="translate(41.774 83.106)" fill="#e2e5f2"/><circle cx="1.586" cy="1.586" r="1.586" transform="translate(6.083 87.864)" fill="#e2e5f2"/><circle cx="1.586" cy="1.586" r="1.586" transform="translate(10.842 93.416)" fill="#e2e5f2"/><circle cx="1.586" cy="1.586" r="1.586" transform="translate(17.187 87.864)" fill="#e2e5f2"/><circle cx="1.586" cy="1.586" r="1.586" transform="translate(26.705 87.864)" fill="#e2e5f2"/><circle cx="1.586" cy="1.586" r="1.586" transform="translate(21.946 93.416)" fill="#e2e5f2"/><circle cx="1.586" cy="1.586" r="1.586" transform="translate(31.464 93.416)" fill="#e2e5f2"/><circle cx="1.586" cy="1.586" r="1.586" transform="translate(36.222 87.864)" fill="#e2e5f2"/><circle cx="1.586" cy="1.586" r="1.586" transform="translate(46.533 87.864)" fill="#e2e5f2"/><circle cx="1.586" cy="1.586" r="1.586" transform="translate(41.774 93.416)" fill="#e2e5f2"/><g transform="translate(37.015 26) rotate(90)" fill="#fff" stroke="#3b48fa" stroke-width="3"><rect width="33.311" height="20.621" stroke="none"/><rect x="1.5" y="1.5" width="30.311" height="17.621" fill="none"/></g></g><path d="M278.634,24.1l23.637,38.4-47.541.076Z" transform="translate(-73.883 1360.957)" fill="none" stroke="#fd0" stroke-miterlimit="10" stroke-width="3"/><path d="M14.546,0,30.36,25.5,0,25.55A29.826,29.826,0,0,1,14.546,0Z" transform="translate(199.615 1398.742)" fill="#3b48fa"/><g transform="translate(414.51 1516.737) rotate(90)" fill="none" stroke="#e2e5f2" stroke-width="3"><rect width="35" height="55" stroke="none"/><rect x="1.5" y="1.5" width="32" height="52" fill="none"/></g><g transform="translate(373.51 1353.737)" fill="#fff" stroke="#e2e5f2" stroke-width="3"><circle cx="5.5" cy="5.5" r="5.5" stroke="none"/><circle cx="5.5" cy="5.5" r="4" fill="none"/></g></g></svg>