<svg xmlns="http://www.w3.org/2000/svg" width="20.4" height="20.4" viewBox="0 0 20.4 20.4"><path d="M17.071,2.929A10,10,0,0,0,2.929,17.071a10.01,10.01,0,0,0,10.964,2.143l-.482-1.139A8.764,8.764,0,1,1,18.763,10c0,2.116-1.3,3.08-2.509,3.08s-2.509-.964-2.509-3.08a3.749,3.749,0,1,0-.751,2.247,3.863,3.863,0,0,0,.661.953,3.58,3.58,0,0,0,5.2,0A4.53,4.53,0,0,0,20,10,9.935,9.935,0,0,0,17.071,2.929ZM10,12.509A2.509,2.509,0,1,1,12.509,10,2.511,2.511,0,0,1,10,12.509Z" transform="translate(0.2 0.2)" fill="#3b48fa" stroke="#3b48fa" stroke-width="0.4"/></svg>