<svg xmlns="http://www.w3.org/2000/svg" width="29.214" height="20" viewBox="0 0 29.214 20"><path d="M52.535,89.782h0A10.287,10.287,0,0,1,46.7,87.945,6.65,6.65,0,0,1,45,86.2a29.212,29.212,0,0,1,1.816-9.832A27.51,27.51,0,0,1,48.634,72.3a12.361,12.361,0,0,1,6.921-2.516h.076l.271.267a14.61,14.61,0,0,0-6.456,3.044s.025-.013.055-.027c.164-.077.665-.313,1.424-.638a22.622,22.622,0,0,1,18.569.8A16.5,16.5,0,0,0,63.3,70.181l.369-.362a12.344,12.344,0,0,1,6.891,2.5,27.531,27.531,0,0,1,1.826,4.078,29.514,29.514,0,0,1,1.826,9.828.012.012,0,0,0-.01,0c-.033,0-.119.089-.261.236A10.152,10.152,0,0,1,66.43,89.64l-.009-.01c-.227-.259-1.011-1.168-1.591-1.971a8.077,8.077,0,0,0,4.437-2.782A19.392,19.392,0,0,1,67.148,86c-.245.116-.475.226-.692.335a18.549,18.549,0,0,1-3.542,1.042l-.079.017a20.881,20.881,0,0,1-3.326.282,19.4,19.4,0,0,1-8.021-1.889l-.6-.247-1.036-.526A8.119,8.119,0,0,0,54.155,87.8c-.793.9-1.586,1.94-1.62,1.984ZM64.107,78.527v.006h0a2.03,2.03,0,1,0,0-.007Zm-9.14,0-.007.006h0a1.846,1.846,0,1,0,.008-.007Z" transform="translate(-45.003 -69.782)" fill="#fff"/></svg>