<svg xmlns="http://www.w3.org/2000/svg" width="25.263" height="20" viewBox="0 0 25.263 20"><path d="M23.247,4.851l2.016-1.928V2.5H18.28L13.3,14.887,7.641,2.5H.319v.422L2.674,5.757a.988.988,0,0,1,.319.824v11.14a1.27,1.27,0,0,1-.34,1.105L0,22.041v.417H7.521v-.422L4.868,18.826A1.31,1.31,0,0,1,4.5,17.721V8.085l6.6,14.378h.767L17.549,8.085V19.539c0,.3,0,.364-.2.562l-2.042,1.976V22.5h9.907v-.422l-1.968-1.927a.585.585,0,0,1-.225-.562V5.413a.583.583,0,0,1,.224-.562Z" transform="translate(0 -2.5)" fill="#fff"/></svg>