<svg xmlns="http://www.w3.org/2000/svg" width="20.408" height="20.4" viewBox="0 0 20.408 20.4"><g transform="translate(259.208 -74.274)"><path d="M.625,20a.625.625,0,0,1-.591-.827l1.385-4.051a10.017,10.017,0,1,1,3.46,3.46L.827,19.966a.625.625,0,0,1-.2.034Zm4.331-2.731a.629.629,0,0,1,.337.1,8.769,8.769,0,1,0-2.661-2.661.625.625,0,0,1,.065.539L1.628,18.372,4.754,17.3A.623.623,0,0,1,4.956,17.269Z" transform="translate(-259 74.474)" fill="#3b48fa" stroke="#3b48fa" stroke-width="0.4"/><path d="M225.624,269.653a.624.624,0,1,1-.883,0,.624.624,0,0,1,.883,0" transform="translate(-473.872 -185.995)" fill="#3b48fa" stroke="#3b48fa" stroke-width="0.4"/><path d="M150.771,269.653a.624.624,0,1,1-.883,0,.624.624,0,0,1,.883,0" transform="translate(-402.248 -185.995)" fill="#3b48fa" stroke="#3b48fa" stroke-width="0.4"/><path d="M300.476,269.653a.624.624,0,1,1-.883,0,.624.624,0,0,1,.883,0" transform="translate(-545.494 -185.995)" fill="#3b48fa" stroke="#3b48fa" stroke-width="0.4"/></g></svg>