<svg xmlns="http://www.w3.org/2000/svg" width="36.236" height="40" viewBox="0 0 36.236 40"><g transform="translate(-0.326 0)"><path d="M132.813,15.48h5.919v4.634a17.759,17.759,0,0,1-5.277,12.954,18.779,18.779,0,0,1-2.9,2.406,22.741,22.741,0,0,1,2.9,2.381,17.928,17.928,0,0,1,5.277,13.018V55.48h-5.919V50.872a12.193,12.193,0,1,0-24.381,0v4.6h-5.881v-4.6a17.874,17.874,0,0,1,5.315-12.966,18.315,18.315,0,0,1,2.821-2.432,16.839,16.839,0,0,1-2.871-2.419A17.693,17.693,0,0,1,102.5,20.114V15.48h5.881v4.634a11.872,11.872,0,0,0,3.577,8.691,11.707,11.707,0,0,0,8.639,3.686,11.446,11.446,0,0,0,8.589-3.686,11.936,11.936,0,0,0,3.589-8.691Z" transform="translate(-102.173 -15.48)" fill="#fff"/></g></svg>