<svg xmlns="http://www.w3.org/2000/svg" width="112.298" height="40.628" viewBox="0 0 112.298 40.628"><path d="M123.091,15.48h4.021v3.1a11.771,11.771,0,0,1-3.584,8.657,12.712,12.712,0,0,1-1.968,1.608,15.4,15.4,0,0,1,1.968,1.591,11.882,11.882,0,0,1,3.584,8.7v3.08h-4.021v-3.08a8.281,8.281,0,1,0-16.562,0V42.2h-3.995V39.133a11.848,11.848,0,0,1,3.61-8.666,12.387,12.387,0,0,1,1.916-1.625,11.394,11.394,0,0,1-1.95-1.617,11.728,11.728,0,0,1-3.61-8.649v-3.1h3.995v3.1a7.87,7.87,0,0,0,2.43,5.809,8.016,8.016,0,0,0,5.868,2.464,7.836,7.836,0,0,0,5.834-2.464,7.913,7.913,0,0,0,2.438-5.809Z" transform="translate(-14.815 -2.237)" fill="#fd0"/><path d="M0,0H3.995V15q.59-.385,1.232-.77a12.832,12.832,0,0,1,6.348-1.642,12.832,12.832,0,0,1,9.6,4.123A13.8,13.8,0,0,1,25.116,26.6V39.967H21.121V26.6a9.821,9.821,0,0,0-2.814-7.092,9.025,9.025,0,0,0-6.732-2.9,9.136,9.136,0,0,0-4.457,1.155,9.675,9.675,0,0,0-3.122,2.763V39.967H0ZM55.6,35.074a14,14,0,0,1-4.945,4.072,13.542,13.542,0,0,1-6.176,1.48A13.345,13.345,0,0,1,34.6,36.511a13.414,13.414,0,0,1-4.123-9.889A13.439,13.439,0,0,1,34.6,16.716a13.422,13.422,0,0,1,9.881-4.1,14.038,14.038,0,0,1,10.881,5.253,1.925,1.925,0,0,1,.462,1.454,2.01,2.01,0,0,1-.744,1.36L39.094,35.023a9.769,9.769,0,0,0,5.389,1.565,10.188,10.188,0,0,0,4.457-1,10.035,10.035,0,0,0,3.507-2.943ZM34.492,26.63a9.769,9.769,0,0,0,1.711,5.6L50.977,19.025A10.078,10.078,0,0,0,48.8,17.614a9.769,9.769,0,0,0-4.277-1,9.564,9.564,0,0,0-7.066,2.951,9.53,9.53,0,0,0-2.968,7.066ZM62.833,0h3.995V39.967H62.833ZM76.521,13.243h3.995V39.967H76.555Z" fill="#fff"/></svg>