<svg width="21" height="45" viewBox="0 0 21 45" fill="none" xmlns="http://www.w3.org/2000/svg">
<g opacity="0.3" clip-path="url(#clip0)">
<path d="M10.4882 0C10.2985 0.000149493 10.1106 0.0376399 9.93548 0.110313C9.76035 0.182986 9.60139 0.289406 9.46777 0.423447C9.33414 0.557488 9.22848 0.716503 9.15687 0.891336C9.08526 1.06617 9.04911 1.25337 9.05051 1.44216V40.099L2.46297 33.5448C2.19262 33.2758 1.82594 33.1247 1.44361 33.1247C1.06127 33.1247 0.694598 33.2758 0.424247 33.5448C0.153896 33.8138 0.00201417 34.1786 0.00201416 34.559C0.00201416 34.9394 0.153896 35.3042 0.424247 35.5732L9.47475 44.5779C9.60894 44.7124 9.76871 44.819 9.94473 44.8915C10.1207 44.964 10.3095 45.0009 10.5 45C10.8844 44.9995 11.2529 44.8478 11.5253 44.5779L20.5758 35.5732C20.8461 35.3042 20.998 34.9394 20.998 34.559C20.998 34.1786 20.8461 33.8138 20.5758 33.5448C20.3054 33.2758 19.9387 33.1247 19.5564 33.1247C19.1741 33.1247 18.8074 33.2758 18.537 33.5448L11.9495 40.099V1.44216C11.9452 1.05898 11.7894 0.692895 11.516 0.423032C11.2426 0.153168 10.8734 0.00120791 10.4882 0V0Z" fill="#071D53"/>
</g>
<defs>
<clipPath id="clip0">
<rect width="21" height="45" fill="white"/>
</clipPath>
</defs>
</svg>
