<svg width="20" height="20" viewBox="0 0 20 20" fill="none" xmlns="http://www.w3.org/2000/svg">
<g clip-path="url(#clip0)">
<path d="M19.4755 15.4292L15.4274 12.7296C14.9137 12.3898 14.2251 12.5016 13.8453 12.9865L12.6661 14.5027C12.5146 14.7025 12.2391 14.7604 12.0199 14.6386L11.7956 14.515C11.0521 14.1097 10.1269 13.6051 8.26282 11.7404C6.39876 9.87568 5.89317 8.94981 5.48788 8.20761L5.36489 7.98331C5.24143 7.76412 5.2983 7.48748 5.49819 7.33473L7.01328 6.15592C7.49805 5.7761 7.61002 5.08768 7.27058 4.57382L4.57098 0.525745C4.2231 0.00246303 3.52516 -0.154623 2.98661 0.169118L1.29385 1.18596C0.761977 1.49865 0.371761 2.00506 0.205028 2.59907C-0.40453 4.82007 0.0540344 8.65317 5.70054 14.3003C10.1922 18.7917 13.5361 19.9995 15.8344 19.9995C16.3633 20.0018 16.8902 19.9329 17.4008 19.7949C17.995 19.6283 18.5015 19.2381 18.8139 18.7061L19.8318 17.0143C20.156 16.4756 19.999 15.7773 19.4755 15.4292ZM19.2575 16.6723L18.242 18.3651C18.0176 18.7491 17.6533 19.0314 17.2255 19.153C15.1751 19.7159 11.593 19.2496 6.17211 13.8288C0.751236 8.4079 0.285016 4.82608 0.84794 2.77541C0.969641 2.34704 1.25233 1.98229 1.63681 1.75755L3.32956 0.742041C3.56324 0.601437 3.86616 0.66959 4.01712 0.896666L5.48358 3.09833L6.71441 4.94439C6.86181 5.16728 6.81338 5.46603 6.6031 5.63096L5.08766 6.80977C4.62648 7.16242 4.49478 7.80048 4.77872 8.30689L4.89906 8.52553C5.32501 9.30675 5.85458 10.2786 7.78797 12.2117C9.72135 14.1447 10.6929 14.6743 11.4737 15.1002L11.6927 15.2209C12.1991 15.5048 12.8372 15.3731 13.1898 14.9119L14.3686 13.3965C14.5336 13.1863 14.8322 13.1379 15.0552 13.2852L19.1029 15.9848C19.3302 16.1356 19.3983 16.4387 19.2575 16.6723Z" fill="#9D1B26"/>
<path d="M11.3327 3.335C14.4604 3.33847 16.995 5.87314 16.9986 9.00084C16.9986 9.18491 17.1478 9.33411 17.3318 9.33411C17.5159 9.33411 17.6651 9.18491 17.6651 9.00084C17.6612 5.50515 14.8284 2.67228 11.3327 2.66846C11.1486 2.66846 10.9995 2.81765 10.9995 3.00173C10.9995 3.1858 11.1486 3.335 11.3327 3.335Z" fill="#9D1B26"/>
<path d="M11.3327 5.335C13.3565 5.33738 14.9965 6.97737 14.9989 9.00113C14.9989 9.18521 15.1481 9.33441 15.3321 9.33441C15.5162 9.33441 15.6654 9.18521 15.6654 9.00113C15.6626 6.60938 13.7244 4.67119 11.3327 4.66846C11.1486 4.66846 10.9995 4.81765 10.9995 5.00173C10.9995 5.1858 11.1486 5.335 11.3327 5.335Z" fill="#9D1B26"/>
<path d="M11.3327 7.33451C12.2526 7.3356 12.998 8.08104 12.9992 9.00094C12.9992 9.18502 13.1484 9.33421 13.3324 9.33421C13.5165 9.33421 13.6657 9.18502 13.6657 9.00094C13.6642 7.71309 12.6206 6.66941 11.3327 6.66797C11.1486 6.66797 10.9995 6.81717 10.9995 7.00124C10.9995 7.18531 11.1486 7.33451 11.3327 7.33451Z" fill="#9D1B26"/>
</g>
<defs>
<clipPath id="clip0">
<rect width="20" height="20" fill="white"/>
</clipPath>
</defs>
</svg>
