<svg width="20" height="20" viewBox="0 0 20 20" fill="none" xmlns="http://www.w3.org/2000/svg">
<path d="M10 0C4.486 0 0 4.486 0 10C0 15.514 4.486 20 10 20C15.514 20 20 15.514 20 10C20 4.486 15.514 0 10 0ZM10 19.3333C4.85367 19.3333 0.666667 15.1463 0.666667 10C0.666667 4.85367 4.85367 0.666667 10 0.666667C15.1463 0.666667 19.3333 4.85367 19.3333 10C19.3333 15.1463 15.1463 19.3333 10 19.3333Z" fill="#9D1B26"/>
<path d="M10 2C9.816 2 9.66667 2.149 9.66667 2.33333V10H4.66667C4.48267 10 4.33334 10.149 4.33334 10.3333C4.33334 10.5177 4.48267 10.6667 4.66667 10.6667H10C10.184 10.6667 10.3333 10.5177 10.3333 10.3333V2.33333C10.3333 2.149 10.184 2 10 2Z" fill="#9D1B26"/>
</svg>
