<svg width="20" height="20" viewBox="0 0 20 20" fill="none" xmlns="http://www.w3.org/2000/svg">
<path d="M10.0019 0C5.81804 0.00428908 2.42801 3.39608 2.42587 7.57998C2.42587 11.6507 9.41317 19.5387 9.70951 19.8702C9.85315 20.0306 10.0997 20.0442 10.2601 19.9006C10.2708 19.891 10.2809 19.8809 10.2905 19.8702C10.5869 19.5348 17.5742 11.6507 17.5742 7.57998C17.572 3.39759 14.1843 0.00643363 10.0019 0ZM10.0019 19.0162C8.66843 17.4566 3.2057 10.9099 3.2057 7.57608C3.2057 3.8226 6.24846 0.779833 10.0019 0.779833C13.7554 0.779833 16.7982 3.8226 16.7982 7.57608C16.7982 10.9099 11.3355 17.4644 10.0019 19.0162Z" fill="#9D1B26"/>
<path d="M10.1384 3.80176C7.87086 3.8039 6.03435 5.64392 6.03649 7.91148C6.03864 10.179 7.87865 12.0155 10.1462 12.0134C12.4123 12.0113 14.2481 10.1736 14.2481 7.90758C14.2439 5.64026 12.4057 3.8039 10.1384 3.80176ZM10.1384 11.2375C8.30152 11.2375 6.81243 9.74838 6.81243 7.91148C6.81243 6.07458 8.30152 4.58549 10.1384 4.58549C11.9753 4.58549 13.4644 6.07458 13.4644 7.91148C13.4623 9.7475 11.9744 11.2353 10.1384 11.2375Z" fill="#9D1B26"/>
</svg>
