<svg width="128" height="71" viewBox="0 0 128 71" fill="none" xmlns="http://www.w3.org/2000/svg">
<path fill-rule="evenodd" clip-rule="evenodd" d="M25.1632 25.4586C24.7615 25.4586 24.4214 25.5955 24.1418 25.8688C24.0079 25.9999 23.9046 26.1362 23.8315 26.2793L19.3266 39.4974L14.9131 26.5288C14.8403 26.2793 14.7128 26.0596 14.5301 25.8688C14.2383 25.5955 13.8917 25.4586 13.4907 25.4586C13.0893 25.4586 12.7493 25.5955 12.4692 25.8688C12.2872 26.0596 12.1528 26.2793 12.0681 26.5288L7.65406 39.4974L3.14976 26.2793C3.07631 26.1362 2.97954 25.9999 2.85798 25.8688C2.56637 25.5955 2.21985 25.4586 1.81848 25.4586C1.41738 25.4586 1.07346 25.5987 0.78781 25.878C0.502161 26.1574 0.359222 26.4933 0.359222 26.8858C0.359222 27.0763 0.395916 27.2604 0.468714 27.4387L6.28701 44.5277C6.35977 44.7064 6.47523 44.8786 6.63326 45.0447C6.91267 45.3071 7.25335 45.4372 7.65406 45.4372C8.05569 45.4372 8.40233 45.3071 8.69418 45.0447C8.83977 44.8786 8.94937 44.7064 9.02213 44.5277L13.4907 31.3987L17.9585 44.5277C18.0323 44.7064 18.1474 44.8786 18.3058 45.0447C18.5848 45.3071 18.9259 45.4372 19.3266 45.4372C19.7283 45.4372 20.0746 45.3071 20.3661 45.0447C20.512 44.8786 20.6215 44.7064 20.6947 44.5277L26.5125 27.4387C26.5857 27.2604 26.6221 27.0763 26.6221 26.8858C26.6221 26.4933 26.4794 26.1574 26.1938 25.878C25.9076 25.5987 25.5642 25.4586 25.1632 25.4586Z" fill="#9D1B26"/>
<path fill-rule="evenodd" clip-rule="evenodd" d="M73.5117 25.4586C73.11 25.4586 72.7693 25.5955 72.4902 25.8688C72.3807 25.9643 72.2833 26.0891 72.1981 26.2433L65.4866 40.5853L58.7754 26.2433C58.6902 26.0891 58.5984 25.9643 58.5019 25.8688C58.2098 25.5955 57.8632 25.4586 57.4624 25.4586C57.0608 25.4586 56.7175 25.5987 56.4312 25.878C56.1463 26.1574 56.0025 26.4933 56.0025 26.8858C56.0025 27.0878 56.04 27.2723 56.1121 27.4387L64.2103 44.688C64.2831 44.8426 64.3621 44.9556 64.4471 45.027C64.7144 45.3006 65.0613 45.4372 65.4866 45.4372C65.9119 45.4372 66.2585 45.3071 66.5261 45.0447C66.6113 44.9619 66.6907 44.8426 66.7631 44.688L74.8611 27.4387C74.9342 27.2723 74.9706 27.0878 74.9706 26.8858C74.9706 26.4933 74.8273 26.1574 74.5423 25.878C74.256 25.5987 73.9128 25.4586 73.5117 25.4586Z" fill="#9D1B26"/>
<path fill-rule="evenodd" clip-rule="evenodd" d="M82.6184 45.4372C83.0195 45.4372 83.3628 45.2974 83.6484 45.0181C83.934 44.7387 84.0774 44.4026 84.0774 44.0103V26.8858C84.0774 26.4933 83.934 26.1574 83.6484 25.878C83.3628 25.5987 83.0195 25.4586 82.6184 25.4586C82.2167 25.4586 81.8737 25.5987 81.5878 25.878C81.3015 26.1574 81.1588 26.4933 81.1588 26.8858V44.0103C81.1588 44.4026 81.3015 44.7387 81.5878 45.0181C81.8737 45.2974 82.2167 45.4372 82.6184 45.4372Z" fill="#9D1B26"/>
<path fill-rule="evenodd" clip-rule="evenodd" d="M127.087 43.0023C126.801 42.7229 126.458 42.5831 126.056 42.5831C123.139 42.5831 121.68 41.1562 121.68 38.3021V28.3127H124.615C125.017 28.3127 125.36 28.1732 125.646 27.8936C125.932 27.6142 126.075 27.2781 126.075 26.8858C126.075 26.4929 125.932 26.1575 125.646 25.8777C125.36 25.5984 125.017 25.4586 124.615 25.4586H121.68V18.3234C121.68 17.9308 121.536 17.5953 121.25 17.3153C120.965 17.036 120.621 16.8965 120.221 16.8965C119.819 16.8965 119.476 17.036 119.19 17.3153C118.904 17.5953 118.762 17.9308 118.762 18.3234V25.4586H117.302C116.901 25.4586 116.557 25.5984 116.272 25.8777C115.986 26.1575 115.843 26.4929 115.843 26.8858C115.843 27.2781 115.986 27.6142 116.272 27.8936C116.557 28.1732 116.901 28.3127 117.302 28.3127H118.762V38.3021C118.762 43.0592 121.193 45.4373 126.056 45.4373C126.458 45.4373 126.801 45.2975 127.087 45.0181C127.373 44.7388 127.516 44.4026 127.516 44.0104C127.516 43.6175 127.373 43.282 127.087 43.0023Z" fill="#9D1B26"/>
<path fill-rule="evenodd" clip-rule="evenodd" d="M46.5502 40.4961C45.1276 41.8873 43.4074 42.5833 41.3894 42.5833C39.3704 42.5833 37.6501 41.8873 36.2277 40.4961C34.8055 39.1047 34.0939 37.4221 34.0939 35.4478C34.0939 33.4737 34.8055 31.7912 36.2277 30.3999C37.6501 29.0083 39.3704 28.3129 41.3894 28.3129C43.4074 28.3129 45.1276 29.0083 46.5502 30.3999C47.9733 31.7912 48.6843 33.4737 48.6843 35.4478C48.6843 37.4221 47.9733 39.1047 46.5502 40.4961ZM50.1405 25.3686C49.3329 25.3686 48.6783 26.0088 48.6783 26.7988V28.4524C48.6554 28.43 48.6341 28.4069 48.6111 28.3842C46.6174 26.4338 44.2098 25.4584 41.3894 25.4584C38.568 25.4584 36.1605 26.4338 34.1667 28.3842C32.1723 30.3342 31.1758 32.6889 31.1758 35.4478C31.1758 38.207 32.1723 40.5618 34.1667 42.5118C36.1605 44.4625 38.568 45.4372 41.3894 45.4372C44.2098 45.4372 46.6417 44.4381 48.6843 42.4403V44.0103C48.6843 44.4029 48.8269 44.739 49.1132 45.0183C49.3984 45.2977 49.7421 45.4372 50.1432 45.4372C50.5448 45.4372 50.8882 45.2977 51.1737 45.0183C51.4594 44.739 51.602 44.4029 51.602 44.0103V35.4478C51.602 35.2528 51.5958 35.0607 51.586 34.8695C51.5958 34.8125 51.602 34.7518 51.602 34.6829V26.7988C51.602 26.0088 50.9475 25.3686 50.1405 25.3686Z" fill="#9D1B26"/>
<path fill-rule="evenodd" clip-rule="evenodd" d="M119.837 52.9251C118.618 52.9251 117.627 51.9556 117.627 50.7635C117.627 50.3564 117.744 49.9771 117.945 49.6518C118.059 49.4671 118.2 49.3003 118.363 49.1569C118.754 48.8132 119.27 48.6018 119.837 48.6018C121.056 48.6018 122.047 49.5713 122.047 50.7635C122.047 51.9556 121.056 52.9251 119.837 52.9251ZM105.656 56.2476C105.696 56.2457 105.736 56.2418 105.777 56.2418C106.996 56.2418 107.987 57.2117 107.987 58.4038C107.987 59.5957 106.996 60.5651 105.777 60.5651C104.558 60.5651 103.567 59.5957 103.567 58.4038C103.567 57.4747 104.171 56.6828 105.013 56.3778C105.115 56.3403 105.22 56.3088 105.329 56.2864C105.435 56.2649 105.545 56.2537 105.656 56.2476ZM94.996 9.00834C94.9556 9.01058 94.9157 9.01479 94.8749 9.01479C93.656 9.01479 92.6648 8.04456 92.6648 6.85277C92.6648 5.66095 93.656 4.69071 94.8749 4.69071C96.0932 4.69071 97.0844 5.66095 97.0844 6.85277C97.0844 7.78191 96.4811 8.57378 95.6383 8.87879C95.536 8.91571 95.4311 8.94769 95.3226 8.96953C95.2164 8.99108 95.1068 9.00263 94.996 9.00834ZM105.524 39.6191C105.496 39.6474 105.472 39.6769 105.444 39.7048C104.59 40.54 103.606 41.0724 102.497 41.313C102.391 41.3361 102.284 41.3575 102.176 41.3748C102.068 41.3924 101.96 41.4075 101.85 41.4194C101.602 41.447 101.351 41.4652 101.091 41.4652C100.335 41.4652 99.6323 41.3428 98.9755 41.1112C98.7697 41.0384 98.5679 40.9553 98.3715 40.86C97.7845 40.5747 97.2385 40.1939 96.7388 39.7048C95.539 38.5316 94.9395 37.1127 94.9395 35.4478C94.9395 34.1373 95.317 32.9817 96.0603 31.9762C96.1866 31.805 96.3243 31.6392 96.4722 31.4765C96.5594 31.381 96.6437 31.2838 96.7388 31.1911C97.5091 30.4374 98.385 29.9291 99.3628 29.6593C99.4677 29.6304 99.5746 29.6071 99.6819 29.584C99.7878 29.5605 99.895 29.5393 100.004 29.5214C100.355 29.4646 100.716 29.431 101.091 29.431C101.986 29.431 102.808 29.5974 103.563 29.921C103.763 30.0066 103.958 30.1055 104.148 30.2135C104.608 30.4752 105.041 30.7972 105.444 31.1911C106.644 32.3647 107.243 33.7829 107.243 35.4478C107.243 36.8532 106.81 38.0813 105.956 39.1362C105.822 39.3013 105.678 39.4623 105.524 39.6191ZM90.6973 65.7437C90.6973 67.9153 88.8904 69.6819 86.6698 69.6819C84.4495 69.6819 82.6434 67.9153 82.6434 65.7437C82.6434 63.5717 84.4495 61.8048 86.6698 61.8048C87.2407 61.8048 87.7825 61.9229 88.2744 62.1329C88.4766 62.2192 88.6695 62.3224 88.8528 62.4383C89.9608 63.141 90.6973 64.3588 90.6973 65.7437ZM82.6177 22.8647C81.3995 22.8647 80.4082 21.8951 80.4082 20.7031C80.4082 19.5109 81.3995 18.5413 82.6177 18.5413C83.8366 18.5413 84.828 19.5109 84.828 20.7031C84.828 21.11 84.7106 21.4897 84.5099 21.815C84.3957 21.9997 84.2547 22.1661 84.0917 22.3095C83.7002 22.6534 83.1847 22.8647 82.6177 22.8647ZM111.386 5.71742C111.386 3.54546 113.193 1.77854 115.413 1.77854C117.634 1.77854 119.44 3.54546 119.44 5.71742C119.44 7.889 117.634 9.6562 115.413 9.6562C114.924 9.6562 114.457 9.56611 114.023 9.40864C113.816 9.33416 113.617 9.2451 113.427 9.13926C112.21 8.46086 111.386 7.1825 111.386 5.71742ZM119.837 47.6395C118.964 47.6395 118.173 47.9831 117.597 48.5379L108.142 40.9014C109.429 39.3447 110.075 37.5271 110.075 35.4478C110.075 33.0208 109.198 30.95 107.444 29.2347C106.795 28.6003 106.097 28.0839 105.348 27.6839L113.469 10.5763C114.072 10.8076 114.726 10.9391 115.413 10.9391C118.362 10.9391 120.752 8.6013 120.752 5.71742C120.752 2.83306 118.362 0.495636 115.413 0.495636C112.465 0.495636 110.075 2.83306 110.075 5.71742C110.075 7.70108 111.206 9.42627 112.872 10.3101L104.76 27.4001C103.641 26.9094 102.419 26.6611 101.091 26.6611C100.517 26.6611 99.9635 26.7093 99.4287 26.8013L95.8393 9.83103C97.1316 9.43073 98.0682 8.24921 98.0682 6.85277C98.0682 5.12729 96.6388 3.72856 94.8749 3.72856C93.1111 3.72856 91.6811 5.12729 91.6811 6.85277C91.6811 8.57821 93.1111 9.97693 94.8749 9.97693C94.9838 9.97693 95.0911 9.97122 95.1969 9.96057L98.787 26.9354C97.272 27.3115 95.9219 28.0769 94.7386 29.2347C94.5798 29.3902 94.4303 29.5493 94.2857 29.711L85.2761 22.434C85.6146 21.9385 85.8117 21.3436 85.8117 20.7031C85.8117 18.9775 84.3822 17.5792 82.6177 17.5792C80.8538 17.5792 79.4245 18.9775 79.4245 20.7031C79.4245 22.4289 80.8538 23.8269 82.6177 23.8269C83.4913 23.8269 84.2816 23.4837 84.8581 22.9286L93.8695 30.2065C92.6953 31.7155 92.1073 33.4625 92.1073 35.4478C92.1073 37.8747 92.9842 39.946 94.7386 41.6613C95.4845 42.3908 96.2968 42.9633 97.1743 43.3829L88.8271 60.9693C88.1667 60.6835 87.4384 60.5219 86.6698 60.5219C83.7218 60.5219 81.3316 62.8594 81.3316 65.7437C81.3316 68.6273 83.7218 70.9648 86.6698 70.9648C89.6187 70.9648 92.0089 68.6273 92.0089 65.7437C92.0089 63.8398 90.9642 62.1794 89.4085 61.2669L97.7747 43.6411C98.7972 44.0352 99.9019 44.2344 101.091 44.2344C101.549 44.2344 101.994 44.2052 102.426 44.1465L104.812 55.4256C103.52 55.8255 102.583 57.0074 102.583 58.4038C102.583 60.1291 104.013 61.5274 105.777 61.5274C107.541 61.5274 108.971 60.1291 108.971 58.4038C108.971 56.678 107.541 55.2797 105.777 55.2797C105.668 55.2797 105.56 55.2851 105.454 55.2956L103.073 44.0337C104.719 43.6895 106.177 42.9005 107.444 41.6613C107.536 41.5711 107.625 41.4791 107.712 41.3867L117.179 49.0325C116.841 49.528 116.643 50.1229 116.643 50.7635C116.643 52.4889 118.073 53.8874 119.837 53.8874C121.601 53.8874 123.031 52.4889 123.031 50.7635C123.031 49.038 121.601 47.6395 119.837 47.6395Z" fill="#9D1B26"/>
</svg>
