<svg width="20" height="20" viewBox="0 0 20 20" fill="none" xmlns="http://www.w3.org/2000/svg">
<path d="M19.176 3.56738H0.823986C0.368906 3.56738 0 3.93629 0 4.39137V15.6079C0 16.063 0.368906 16.4319 0.823986 16.4319H19.176C19.6311 16.4319 20 16.063 20 15.6079V4.39137C20 3.93629 19.6311 3.56738 19.176 3.56738ZM0.823986 4.21449H19.176C19.2535 4.21487 19.3216 4.26556 19.3443 4.3396L10 10.1765L0.655738 4.3396C0.678387 4.26556 0.746549 4.21487 0.823986 4.21449ZM0.64711 5.07731L7.36842 9.27489L0.64711 14.6071V5.07731ZM19.3529 15.6036C19.3529 15.7013 19.2737 15.7805 19.176 15.7805H0.823986C0.726327 15.7805 0.64711 15.7013 0.64711 15.6036V15.4311L7.95082 9.65884L9.82744 10.8323C9.93286 10.8988 10.0671 10.8988 10.1726 10.8323L12.0492 9.65884L19.3529 15.4311V15.6036ZM19.3529 14.6071L12.6143 9.29215L19.3529 5.11613V14.6071Z" fill="#9D1B26"/>
</svg>
