<svg width="40" height="40" viewBox="0 0 40 40" fill="none" xmlns="http://www.w3.org/2000/svg">
<path d="M20 0.000827789C31.0285 0.000827789 40 8.9723 40 19.9999C40 31.0276 31.0285 39.999 20 39.999C8.97147 39.999 0 31.0276 0 19.9999C0 8.9723 8.97328 0.000827789 20 0.000827789ZM20 38.6427C30.2799 38.6427 38.6437 30.2798 38.6437 19.9999C38.6437 9.72098 30.2799 1.35713 20 1.35713C9.72015 1.35713 1.3563 9.72098 1.3563 19.9999C1.3563 30.2798 9.72015 38.6427 20 38.6427Z" fill="#9D1B26"/>
<path d="M17.6961 12.9789C17.8697 12.9789 18.0433 13.044 18.1753 13.1778L24.8013 19.8092C25.0653 20.0742 25.0653 20.5037 24.8013 20.7686L18.1753 27.3991C17.9104 27.664 17.4809 27.664 17.216 27.3991C16.951 27.1341 16.951 26.7047 17.216 26.4397L23.3627 20.2885L17.216 14.1354C16.9519 13.8704 16.9519 13.44 17.216 13.176C17.3489 13.044 17.5225 12.9789 17.6961 12.9789Z" fill="#9D1B26"/>
</svg>
