<svg width="40" height="40" viewBox="0 0 40 40" fill="none" xmlns="http://www.w3.org/2000/svg">
<path d="M20 39.9992C8.97147 39.9992 0 31.0277 0 20.0001C0 8.97245 8.97147 0.000976562 20 0.000976562C31.0285 0.000976562 40 8.97245 40 20.0001C40 31.0277 31.0267 39.9992 20 39.9992ZM20 1.35728C9.72015 1.35728 1.3563 9.72022 1.3563 20.0001C1.3563 30.279 9.72015 38.6429 20 38.6429C30.2799 38.6429 38.6437 30.279 38.6437 20.0001C38.6437 9.72022 30.2799 1.35728 20 1.35728Z" fill="#9D1B26"/>
<path d="M22.3039 27.0211C22.1303 27.0211 21.9567 26.956 21.8247 26.8222L15.1987 20.1908C14.9347 19.9258 14.9347 19.4963 15.1987 19.2314L21.8247 12.6009C22.0896 12.336 22.5191 12.336 22.784 12.6009C23.049 12.8659 23.049 13.2953 22.784 13.5603L16.6373 19.7115L22.784 25.8646C23.0481 26.1296 23.0481 26.56 22.784 26.824C22.6511 26.956 22.4775 27.0211 22.3039 27.0211Z" fill="#9D1B26"/>
</svg>
